G04*
G04 #@! TF.GenerationSoftware,Altium Limited,Altium Designer,21.0.9 (235)*
G04*
G04 Layer_Color=8388736*
%FSLAX25Y25*%
%MOIN*%
G70*
G04*
G04 #@! TF.SameCoordinates,DB5CEA20-A306-4327-B62D-959DDA491E44*
G04*
G04*
G04 #@! TF.FilePolarity,Negative*
G04*
G01*
G75*
%ADD21R,0.09843X0.03937*%
%ADD22R,0.03150X0.06693*%
%ADD27R,0.04343X0.03556*%
%ADD28R,0.06706X0.06312*%
%ADD29R,0.01981X0.07099*%
%ADD30O,0.03162X0.08477*%
%ADD31O,0.08477X0.03162*%
%ADD32R,0.05800X0.50800*%
%ADD33R,0.05800X0.48300*%
%ADD34C,0.06902*%
%ADD35R,0.06902X0.06902*%
%ADD36C,0.03800*%
D21*
X8661Y108268D02*
D03*
Y120079D02*
D03*
D22*
X16929Y9843D02*
D03*
X30315D02*
D03*
D27*
X4528Y20866D02*
D03*
Y26378D02*
D03*
X19455Y116929D02*
D03*
Y111417D02*
D03*
X27955Y116929D02*
D03*
Y111417D02*
D03*
X4528Y38189D02*
D03*
Y32677D02*
D03*
X42717Y38189D02*
D03*
Y32677D02*
D03*
D28*
X38583Y108268D02*
D03*
Y120079D02*
D03*
X37402Y57087D02*
D03*
Y45276D02*
D03*
X9843Y57087D02*
D03*
Y45276D02*
D03*
D29*
X27362Y51181D02*
D03*
X23622D02*
D03*
X19882D02*
D03*
D30*
X12598Y99410D02*
D03*
X15748D02*
D03*
X18898D02*
D03*
X22047D02*
D03*
X25197D02*
D03*
X28346D02*
D03*
X31496D02*
D03*
X34646D02*
D03*
Y65945D02*
D03*
X31496D02*
D03*
X28346D02*
D03*
X25197D02*
D03*
X22047D02*
D03*
X18898D02*
D03*
X15748D02*
D03*
X12598D02*
D03*
D31*
X40354Y93701D02*
D03*
Y90551D02*
D03*
Y87402D02*
D03*
Y84252D02*
D03*
Y81102D02*
D03*
Y77953D02*
D03*
Y74803D02*
D03*
Y71653D02*
D03*
X6890D02*
D03*
Y74803D02*
D03*
Y77953D02*
D03*
Y81102D02*
D03*
Y84252D02*
D03*
Y87402D02*
D03*
Y90551D02*
D03*
Y93701D02*
D03*
D32*
X8705Y149358D02*
D03*
X38705D02*
D03*
D33*
X19455Y148108D02*
D03*
X27955D02*
D03*
D34*
X13622Y25433D02*
D03*
X23622D02*
D03*
X33622D02*
D03*
X13622Y35433D02*
D03*
X23622D02*
D03*
D35*
X33622D02*
D03*
D36*
X41535Y18898D02*
D03*
X41339Y22835D02*
D03*
X23622Y41732D02*
D03*
Y111417D02*
D03*
X12598Y87992D02*
D03*
X8183Y67801D02*
D03*
X3968Y67126D02*
D03*
X19882Y57480D02*
D03*
X17126Y45079D02*
D03*
X16535Y80315D02*
D03*
X22638Y75590D02*
D03*
X36417Y16339D02*
D03*
X9646Y30709D02*
D03*
X42520Y66732D02*
D03*
X42126Y98819D02*
D03*
X31496Y45276D02*
D03*
X31299Y75000D02*
D03*
X43472Y51689D02*
D03*
X38189Y29724D02*
D03*
X28150Y88189D02*
D03*
X31496Y106693D02*
D03*
X18898Y90354D02*
D03*
X23425Y91339D02*
D03*
X7874Y16929D02*
D03*
X8268Y63779D02*
D03*
X31701Y51181D02*
D03*
X15453Y51279D02*
D03*
X27362Y57480D02*
D03*
X13780Y84252D02*
D03*
M02*
