G04*
G04 #@! TF.GenerationSoftware,Altium Limited,Altium Designer,21.0.9 (235)*
G04*
G04 Layer_Color=16711935*
%FSLAX25Y25*%
%MOIN*%
G70*
G04*
G04 #@! TF.SameCoordinates,DB5CEA20-A306-4327-B62D-959DDA491E44*
G04*
G04*
G04 #@! TF.FilePolarity,Negative*
G04*
G01*
G75*
%ADD27R,0.04343X0.03556*%
%ADD34C,0.06902*%
%ADD35R,0.06902X0.06902*%
%ADD36C,0.03800*%
%ADD45R,0.03556X0.04343*%
%ADD46R,0.04147X0.04343*%
%ADD47R,0.04934X0.04934*%
%ADD48R,0.05721X0.05131*%
%ADD49R,0.07874X0.10394*%
D27*
X19685Y20472D02*
D03*
Y14961D02*
D03*
X27559Y20472D02*
D03*
Y14961D02*
D03*
D34*
X13622Y25433D02*
D03*
X23622D02*
D03*
X33622D02*
D03*
X13622Y35433D02*
D03*
X23622D02*
D03*
D35*
X33622D02*
D03*
D36*
X41535Y18898D02*
D03*
X41339Y22835D02*
D03*
X23622Y41732D02*
D03*
Y111417D02*
D03*
X12598Y87992D02*
D03*
X8183Y67801D02*
D03*
X3968Y67126D02*
D03*
X19882Y57480D02*
D03*
X17126Y45079D02*
D03*
X16535Y80315D02*
D03*
X22638Y75590D02*
D03*
X36417Y16339D02*
D03*
X9646Y30709D02*
D03*
X42520Y66732D02*
D03*
X42126Y98819D02*
D03*
X31496Y45276D02*
D03*
X31299Y75000D02*
D03*
X43472Y51689D02*
D03*
X38189Y29724D02*
D03*
X28150Y88189D02*
D03*
X31496Y106693D02*
D03*
X18898Y90354D02*
D03*
X23425Y91339D02*
D03*
X7874Y16929D02*
D03*
X8268Y63779D02*
D03*
X31701Y51181D02*
D03*
X15453Y51279D02*
D03*
X27362Y57480D02*
D03*
X13780Y84252D02*
D03*
D45*
X32677Y92520D02*
D03*
X38189D02*
D03*
X32677Y100394D02*
D03*
X38189D02*
D03*
D46*
X9252Y92520D02*
D03*
X14370D02*
D03*
D47*
X9843Y51279D02*
D03*
Y45965D02*
D03*
X37402D02*
D03*
Y51279D02*
D03*
D48*
X8465Y100394D02*
D03*
X15157D02*
D03*
X8465Y108268D02*
D03*
X15157D02*
D03*
X8465Y116142D02*
D03*
X15157D02*
D03*
D49*
X7874Y7874D02*
D03*
X15748D02*
D03*
X39370D02*
D03*
X23622D02*
D03*
X31496D02*
D03*
M02*
