M48
;Layer_Color=9474304
;FILE_FORMAT=2:5
INCH,TZ
;TYPE=PLATED
T1F00S00C0.01500
T2F00S00C0.04016
%
T01
X7874Y16929
X9646Y30709
X17126Y45079
X15453Y51279
X19882Y57480
X27362
X31701Y51181
X31496Y45276
X23622Y41732
X38189Y29724
X41339Y22835
X41535Y18898
X36417Y16339
X43472Y51689
X42520Y66732
X31299Y75000
X22638Y75590
X16535Y80315
X13780Y84252
X8183Y67801
X8268Y63779
X3968Y67126
X12598Y87992
X18898Y90354
X23425Y91339
X28150Y88189
X31496Y106693
X23622Y111417
X42126Y98819
T02
X13622Y25433
X23622
X33622
Y35433
X23622
X13622
M30
