G04*
G04 #@! TF.GenerationSoftware,Altium Limited,Altium Designer,21.0.9 (235)*
G04*
G04 Layer_Color=255*
%FSLAX25Y25*%
%MOIN*%
G70*
G04*
G04 #@! TF.SameCoordinates,DB5CEA20-A306-4327-B62D-959DDA491E44*
G04*
G04*
G04 #@! TF.FilePolarity,Positive*
G04*
G01*
G75*
%ADD18R,0.03543X0.02756*%
%ADD19R,0.05906X0.05512*%
%ADD20R,0.01181X0.06299*%
%ADD21R,0.09843X0.03937*%
%ADD22R,0.03150X0.06693*%
%ADD23O,0.02362X0.07677*%
%ADD24O,0.07677X0.02362*%
%ADD25R,0.05000X0.50000*%
%ADD26R,0.05000X0.47500*%
%ADD37C,0.06102*%
%ADD38R,0.06102X0.06102*%
D18*
X4528Y20866D02*
D03*
Y26378D02*
D03*
X19455Y116929D02*
D03*
Y111417D02*
D03*
X27955Y116929D02*
D03*
Y111417D02*
D03*
X4528Y38189D02*
D03*
Y32677D02*
D03*
X42717Y38189D02*
D03*
Y32677D02*
D03*
D19*
X38583Y108268D02*
D03*
Y120079D02*
D03*
X37402Y57087D02*
D03*
Y45276D02*
D03*
X9843Y57087D02*
D03*
Y45276D02*
D03*
D20*
X27362Y51181D02*
D03*
X23622D02*
D03*
X19882D02*
D03*
D21*
X8661Y108268D02*
D03*
Y120079D02*
D03*
D22*
X16929Y9843D02*
D03*
X30315D02*
D03*
D23*
X12598Y99410D02*
D03*
X15748D02*
D03*
X18898D02*
D03*
X22047D02*
D03*
X25197D02*
D03*
X28346D02*
D03*
X31496D02*
D03*
X34646D02*
D03*
Y65945D02*
D03*
X31496D02*
D03*
X28346D02*
D03*
X25197D02*
D03*
X22047D02*
D03*
X18898D02*
D03*
X15748D02*
D03*
X12598D02*
D03*
D24*
X40354Y93701D02*
D03*
Y90551D02*
D03*
Y87402D02*
D03*
Y84252D02*
D03*
Y81102D02*
D03*
Y77953D02*
D03*
Y74803D02*
D03*
Y71653D02*
D03*
X6890D02*
D03*
Y74803D02*
D03*
Y77953D02*
D03*
Y81102D02*
D03*
Y84252D02*
D03*
Y87402D02*
D03*
Y90551D02*
D03*
Y93701D02*
D03*
D25*
X8705Y149358D02*
D03*
X38705D02*
D03*
D26*
X19455Y148108D02*
D03*
X27955D02*
D03*
D37*
X13622Y25433D02*
D03*
X23622D02*
D03*
X33622D02*
D03*
X13622Y35433D02*
D03*
X23622D02*
D03*
D38*
X33622D02*
D03*
M02*
