G04*
G04 #@! TF.GenerationSoftware,Altium Limited,Altium Designer,21.0.9 (235)*
G04*
G04 Layer_Color=16711935*
%FSLAX25Y25*%
%MOIN*%
G70*
G04*
G04 #@! TF.SameCoordinates,DB5CEA20-A306-4327-B62D-959DDA491E44*
G04*
G04*
G04 #@! TF.FilePolarity,Positive*
G04*
G01*
G75*
%ADD50C,0.00394*%
D50*
X15354Y92913D02*
X15091Y93898D01*
X14370Y94618D01*
X13386Y94882D01*
X12402Y94618D01*
X11681Y93898D01*
X11417Y92913D01*
X11681Y91929D01*
X12402Y91209D01*
X13386Y90945D01*
X14370Y91209D01*
X15091Y91929D01*
X15354Y92913D01*
X32087Y90650D02*
X38780D01*
X32087Y94390D02*
X38780D01*
X32087Y90650D02*
Y94390D01*
X38780Y90650D02*
Y94390D01*
X32087Y98524D02*
X38780D01*
X32087Y102264D02*
X38780D01*
X32087Y98524D02*
Y102264D01*
X38780Y98524D02*
Y102264D01*
X8366Y90630D02*
Y94410D01*
X15256Y90630D02*
Y94410D01*
X8366Y90630D02*
X15256D01*
X8366Y94410D02*
X15256D01*
X2657Y20276D02*
Y26969D01*
X6398Y20276D02*
Y26969D01*
X2657Y20276D02*
X6398D01*
X2657Y26969D02*
X6398D01*
X35236Y107874D02*
Y120472D01*
X41929Y107874D02*
Y120472D01*
X35236Y107874D02*
X41929D01*
X35236Y120472D02*
X41929D01*
X17815Y21063D02*
X21555D01*
X17815Y14370D02*
X21555D01*
X17815D02*
Y21063D01*
X21555Y14370D02*
Y21063D01*
X25689D02*
X29429D01*
X25689Y14370D02*
X29429D01*
X25689D02*
Y21063D01*
X29429Y14370D02*
Y21063D01*
X8071Y51968D02*
X11614D01*
X8071Y45276D02*
X11614D01*
X8071D02*
Y51968D01*
X11614Y45276D02*
Y51968D01*
X35630Y45276D02*
X39173D01*
X35630Y51968D02*
X39173D01*
Y45276D02*
Y51968D01*
X35630Y45276D02*
Y51968D01*
X8366Y98504D02*
X15256D01*
X8366Y102284D02*
X15256D01*
X8366Y98504D02*
Y102284D01*
X15256Y98504D02*
Y102284D01*
X8366Y106378D02*
X15256D01*
X8366Y110158D02*
X15256D01*
X8366Y106378D02*
Y110158D01*
X15256Y106378D02*
Y110158D01*
X8366Y114252D02*
X15256D01*
X8366Y118032D02*
X15256D01*
X8366Y114252D02*
Y118032D01*
X15256Y114252D02*
Y118032D01*
X17323Y48622D02*
Y53740D01*
Y48622D02*
X29921D01*
Y53740D01*
X17323D02*
X29921D01*
X17717Y53347D02*
X29528D01*
Y49016D02*
Y53347D01*
X17717Y49016D02*
X29528D01*
X17717D02*
Y53347D01*
X7874Y20433D02*
X39370D01*
Y40433D01*
X7874D02*
X39370D01*
X7874Y20433D02*
Y40433D01*
X17683Y117520D02*
X21226D01*
X17683Y110827D02*
X21226D01*
Y117520D01*
X17683Y110827D02*
Y117520D01*
X9843Y68898D02*
X37402D01*
X9843Y96457D02*
X37402D01*
Y68898D02*
Y96457D01*
X9843Y68898D02*
Y96457D01*
X34055Y57480D02*
X40748D01*
X34055Y44882D02*
X40748D01*
Y57480D01*
X34055Y44882D02*
Y57480D01*
X6496D02*
X13189D01*
X6496Y44882D02*
X13189D01*
Y57480D01*
X6496Y44882D02*
Y57480D01*
X26183Y117520D02*
X29726D01*
X26183Y110827D02*
X29726D01*
Y117520D01*
X26183Y110827D02*
Y117520D01*
X2657Y38780D02*
X6398D01*
X2657Y32087D02*
X6398D01*
Y38780D01*
X2657Y32087D02*
Y38780D01*
X40846D02*
X44587D01*
X40846Y32087D02*
X44587D01*
Y38780D01*
X40846Y32087D02*
Y38780D01*
M02*
