G04*
G04 #@! TF.GenerationSoftware,Altium Limited,Altium Designer,22.2.1 (43)*
G04*
G04 Layer_Color=16711935*
%FSLAX25Y25*%
%MOIN*%
G70*
G04*
G04 #@! TF.SameCoordinates,0E938A99-CEBE-4E5B-98FA-E82972142B6D*
G04*
G04*
G04 #@! TF.FilePolarity,Positive*
G04*
G01*
G75*
%ADD116C,0.01968*%
D116*
X7874Y118110D02*
X6846Y118043D01*
X5836Y117842D01*
X4861Y117511D01*
X3937Y117055D01*
X3081Y116483D01*
X2306Y115804D01*
X1627Y115030D01*
X1055Y114173D01*
X599Y113250D01*
X268Y112274D01*
X67Y111264D01*
X0Y110236D01*
X244094D02*
X244027Y111264D01*
X243826Y112274D01*
X243495Y113250D01*
X243040Y114173D01*
X242467Y115030D01*
X241788Y115804D01*
X241014Y116483D01*
X240158Y117055D01*
X239234Y117511D01*
X238258Y117842D01*
X237248Y118043D01*
X236221Y118110D01*
X236221Y-0D02*
X237248Y67D01*
X238258Y268D01*
X239234Y599D01*
X240158Y1055D01*
X241014Y1627D01*
X241788Y2306D01*
X242467Y3081D01*
X243040Y3937D01*
X243495Y4861D01*
X243826Y5836D01*
X244027Y6846D01*
X244094Y7874D01*
X0D02*
X67Y6846D01*
X268Y5836D01*
X599Y4861D01*
X1055Y3937D01*
X1627Y3081D01*
X2306Y2306D01*
X3081Y1627D01*
X3937Y1055D01*
X4861Y599D01*
X5836Y268D01*
X6846Y67D01*
X7874Y-0D01*
X7874Y118110D02*
X236221Y118110D01*
X244094Y7874D02*
Y110236D01*
X7874Y-0D02*
X236221D01*
X0Y7874D02*
Y110236D01*
M02*
