G04*
G04 #@! TF.GenerationSoftware,Altium Limited,Altium Designer,22.2.1 (43)*
G04*
G04 Layer_Color=8388736*
%FSLAX25Y25*%
%MOIN*%
G70*
G04*
G04 #@! TF.SameCoordinates,0E938A99-CEBE-4E5B-98FA-E82972142B6D*
G04*
G04*
G04 #@! TF.FilePolarity,Negative*
G04*
G01*
G75*
%ADD20R,0.12402X0.07717*%
%ADD22R,0.07874X0.03543*%
%ADD23R,0.03543X0.07874*%
%ADD24R,0.05236X0.05236*%
%ADD34R,0.03150X0.06693*%
G04:AMPARAMS|DCode=35|XSize=67.21mil|YSize=24.25mil|CornerRadius=12.12mil|HoleSize=0mil|Usage=FLASHONLY|Rotation=0.000|XOffset=0mil|YOffset=0mil|HoleType=Round|Shape=RoundedRectangle|*
%AMROUNDEDRECTD35*
21,1,0.06721,0.00000,0,0,0.0*
21,1,0.04296,0.02425,0,0,0.0*
1,1,0.02425,0.02148,0.00000*
1,1,0.02425,-0.02148,0.00000*
1,1,0.02425,-0.02148,0.00000*
1,1,0.02425,0.02148,0.00000*
%
%ADD35ROUNDEDRECTD35*%
%ADD36R,0.06721X0.02425*%
%ADD38R,0.05591X0.08386*%
%ADD43R,0.03150X0.04134*%
%ADD44R,0.03740X0.05315*%
%ADD45R,0.04921X0.04803*%
%ADD46R,0.05315X0.03740*%
%ADD47R,0.00984X0.02756*%
%ADD48R,0.02756X0.00984*%
%ADD49R,0.03937X0.07087*%
%ADD51R,0.06693X0.03150*%
%ADD52R,0.03960X0.05151*%
%ADD53R,0.06902X0.06312*%
%ADD54R,0.06509X0.05524*%
%ADD55R,0.06115X0.04737*%
%ADD56R,0.04343X0.02473*%
%ADD57R,0.02473X0.04343*%
%ADD58O,0.01981X0.05328*%
%ADD59O,0.05328X0.01981*%
%ADD60R,0.17335X0.17335*%
%ADD61R,0.05524X0.06509*%
%ADD62R,0.02800X0.02202*%
G04:AMPARAMS|DCode=63|XSize=55.64mil|YSize=31.23mil|CornerRadius=9.81mil|HoleSize=0mil|Usage=FLASHONLY|Rotation=0.000|XOffset=0mil|YOffset=0mil|HoleType=Round|Shape=RoundedRectangle|*
%AMROUNDEDRECTD63*
21,1,0.05564,0.01161,0,0,0.0*
21,1,0.03602,0.03123,0,0,0.0*
1,1,0.01961,0.01801,-0.00581*
1,1,0.01961,-0.01801,-0.00581*
1,1,0.01961,-0.01801,0.00581*
1,1,0.01961,0.01801,0.00581*
%
%ADD63ROUNDEDRECTD63*%
%ADD64R,0.06312X0.06902*%
%ADD65R,0.05131X0.05524*%
%ADD66R,0.06706X0.06312*%
G04:AMPARAMS|DCode=67|XSize=25.72mil|YSize=63.12mil|CornerRadius=5.95mil|HoleSize=0mil|Usage=FLASHONLY|Rotation=180.000|XOffset=0mil|YOffset=0mil|HoleType=Round|Shape=RoundedRectangle|*
%AMROUNDEDRECTD67*
21,1,0.02572,0.05122,0,0,180.0*
21,1,0.01382,0.06312,0,0,180.0*
1,1,0.01190,-0.00691,0.02561*
1,1,0.01190,0.00691,0.02561*
1,1,0.01190,0.00691,-0.02561*
1,1,0.01190,-0.00691,-0.02561*
%
%ADD67ROUNDEDRECTD67*%
%ADD68R,0.03556X0.03556*%
%ADD69R,0.06115X0.05131*%
%ADD70R,0.02202X0.02800*%
%ADD71R,0.10827X0.10827*%
%ADD72R,0.06312X0.06706*%
%ADD73R,0.07099X0.07099*%
%ADD74C,0.07099*%
%ADD75C,0.06800*%
%ADD76R,0.06800X0.06800*%
%ADD77C,0.16548*%
%ADD78C,0.02559*%
%ADD79R,0.02559X0.02559*%
G04:AMPARAMS|DCode=80|XSize=35.43mil|YSize=94.49mil|CornerRadius=17.72mil|HoleSize=0mil|Usage=FLASHONLY|Rotation=270.000|XOffset=0mil|YOffset=0mil|HoleType=Round|Shape=RoundedRectangle|*
%AMROUNDEDRECTD80*
21,1,0.03543,0.05906,0,0,270.0*
21,1,0.00000,0.09449,0,0,270.0*
1,1,0.03543,-0.02953,0.00000*
1,1,0.03543,-0.02953,0.00000*
1,1,0.03543,0.02953,0.00000*
1,1,0.03543,0.02953,0.00000*
%
%ADD80ROUNDEDRECTD80*%
G04:AMPARAMS|DCode=81|XSize=35.43mil|YSize=66.93mil|CornerRadius=17.72mil|HoleSize=0mil|Usage=FLASHONLY|Rotation=270.000|XOffset=0mil|YOffset=0mil|HoleType=Round|Shape=RoundedRectangle|*
%AMROUNDEDRECTD81*
21,1,0.03543,0.03150,0,0,270.0*
21,1,0.00000,0.06693,0,0,270.0*
1,1,0.03543,-0.01575,0.00000*
1,1,0.03543,-0.01575,0.00000*
1,1,0.03543,0.01575,0.00000*
1,1,0.03543,0.01575,0.00000*
%
%ADD81ROUNDEDRECTD81*%
%ADD82C,0.02000*%
%ADD83C,0.02769*%
G36*
X39088Y60403D02*
X39143Y60348D01*
X39173Y60275D01*
Y60236D01*
Y59842D01*
Y59803D01*
X39143Y59731D01*
X39088Y59676D01*
X39015Y59646D01*
X38150D01*
X38078Y59676D01*
X38022Y59731D01*
X37992Y59803D01*
Y59842D01*
Y60236D01*
Y60275D01*
X38022Y60348D01*
X38078Y60403D01*
X38150Y60433D01*
X39015D01*
X39088Y60403D01*
D02*
G37*
G36*
X36922D02*
X36978Y60348D01*
X37008Y60275D01*
Y60236D01*
Y59842D01*
Y59803D01*
X36978Y59731D01*
X36922Y59676D01*
X36850Y59646D01*
X35788D01*
X35715Y59676D01*
X35660Y59731D01*
X35630Y59803D01*
Y59842D01*
Y60236D01*
Y60275D01*
X35660Y60348D01*
X35715Y60403D01*
X35788Y60433D01*
X36850D01*
X36922Y60403D01*
D02*
G37*
G36*
X39088Y58435D02*
X39143Y58379D01*
X39173Y58307D01*
Y58268D01*
Y57874D01*
Y57835D01*
X39143Y57762D01*
X39088Y57707D01*
X39015Y57677D01*
X38150D01*
X38078Y57707D01*
X38022Y57762D01*
X37992Y57835D01*
Y57874D01*
Y58268D01*
Y58307D01*
X38022Y58379D01*
X38078Y58435D01*
X38150Y58465D01*
X39015D01*
X39088Y58435D01*
D02*
G37*
G36*
X36726D02*
X36781Y58379D01*
X36811Y58307D01*
Y58268D01*
Y57874D01*
Y57835D01*
X36781Y57762D01*
X36726Y57707D01*
X36653Y57677D01*
X35788D01*
X35715Y57707D01*
X35660Y57762D01*
X35630Y57835D01*
Y57874D01*
Y58268D01*
Y58307D01*
X35660Y58379D01*
X35715Y58435D01*
X35788Y58465D01*
X36653D01*
X36726Y58435D01*
D02*
G37*
G36*
X39088Y56466D02*
X39143Y56411D01*
X39173Y56338D01*
Y56299D01*
Y55905D01*
Y55866D01*
X39143Y55794D01*
X39088Y55739D01*
X39015Y55709D01*
X38150D01*
X38078Y55739D01*
X38022Y55794D01*
X37992Y55866D01*
Y55905D01*
Y56299D01*
Y56338D01*
X38022Y56411D01*
X38078Y56466D01*
X38150Y56496D01*
X39015D01*
X39088Y56466D01*
D02*
G37*
G36*
X36726D02*
X36781Y56411D01*
X36811Y56338D01*
Y56299D01*
Y55905D01*
Y55866D01*
X36781Y55794D01*
X36726Y55739D01*
X36653Y55709D01*
X35788D01*
X35715Y55739D01*
X35660Y55794D01*
X35630Y55866D01*
Y55905D01*
Y56299D01*
Y56338D01*
X35660Y56411D01*
X35715Y56466D01*
X35788Y56496D01*
X36653D01*
X36726Y56466D01*
D02*
G37*
D20*
X217520Y11988D02*
D03*
Y31319D02*
D03*
D22*
X88583Y87638D02*
D03*
Y82638D02*
D03*
Y77638D02*
D03*
Y72638D02*
D03*
Y67638D02*
D03*
Y62638D02*
D03*
Y57638D02*
D03*
Y52638D02*
D03*
Y47638D02*
D03*
Y42638D02*
D03*
Y37638D02*
D03*
Y32638D02*
D03*
Y27638D02*
D03*
Y22638D02*
D03*
X155512D02*
D03*
Y27638D02*
D03*
Y32638D02*
D03*
Y37638D02*
D03*
Y42638D02*
D03*
Y47638D02*
D03*
Y52638D02*
D03*
Y57638D02*
D03*
Y62638D02*
D03*
Y67638D02*
D03*
Y72638D02*
D03*
Y77638D02*
D03*
Y82638D02*
D03*
Y87638D02*
D03*
D23*
X99547Y18701D02*
D03*
X104547D02*
D03*
X109547D02*
D03*
X114547D02*
D03*
X119547D02*
D03*
X124547D02*
D03*
X129547D02*
D03*
X134547D02*
D03*
X139547D02*
D03*
X144547D02*
D03*
D24*
X110886Y65335D02*
D03*
X118110D02*
D03*
X125335D02*
D03*
X110886Y58110D02*
D03*
X118110D02*
D03*
X125335D02*
D03*
X110886Y50886D02*
D03*
X118110D02*
D03*
X125335D02*
D03*
D34*
X116929Y7874D02*
D03*
X103543D02*
D03*
X24803Y11811D02*
D03*
X38189D02*
D03*
D35*
X219687Y110039D02*
D03*
Y102559D02*
D03*
X210234D02*
D03*
Y106299D02*
D03*
D36*
Y110039D02*
D03*
D38*
X68504Y38386D02*
D03*
X79134D02*
D03*
X68504Y79724D02*
D03*
X79134D02*
D03*
X175591Y38189D02*
D03*
X164961D02*
D03*
X175591Y79724D02*
D03*
X164961D02*
D03*
D43*
X56201Y46260D02*
D03*
X63484D02*
D03*
D44*
X20669Y83465D02*
D03*
X26575D02*
D03*
D45*
X14862Y92913D02*
D03*
X26476D02*
D03*
D46*
X37402Y44291D02*
D03*
Y50197D02*
D03*
D47*
X54134Y66831D02*
D03*
X56102D02*
D03*
X58071D02*
D03*
X60039D02*
D03*
X62008D02*
D03*
X63976D02*
D03*
Y51279D02*
D03*
X62008D02*
D03*
X60039D02*
D03*
X58071D02*
D03*
X56102D02*
D03*
X54134D02*
D03*
D48*
X66831Y63976D02*
D03*
Y62008D02*
D03*
Y60039D02*
D03*
Y58071D02*
D03*
Y56102D02*
D03*
Y54134D02*
D03*
X51279D02*
D03*
Y56102D02*
D03*
Y58071D02*
D03*
Y60039D02*
D03*
Y62008D02*
D03*
Y63976D02*
D03*
D49*
X14764Y83661D02*
D03*
X4921D02*
D03*
D51*
X90551Y111024D02*
D03*
Y97638D02*
D03*
D52*
X12495Y33465D02*
D03*
X18214D02*
D03*
D53*
X101378Y102559D02*
D03*
Y110039D02*
D03*
D54*
X26378Y108268D02*
D03*
Y100394D02*
D03*
D55*
X142717Y105905D02*
D03*
Y98819D02*
D03*
D56*
X152165Y101575D02*
D03*
Y104724D02*
D03*
Y107874D02*
D03*
Y111024D02*
D03*
X158858D02*
D03*
Y107874D02*
D03*
Y104724D02*
D03*
X158859Y101575D02*
D03*
D57*
X205512Y43898D02*
D03*
X202362D02*
D03*
X199213D02*
D03*
X196063D02*
D03*
Y50591D02*
D03*
X199213D02*
D03*
X202362D02*
D03*
X205512Y50591D02*
D03*
X196063Y74213D02*
D03*
X199213D02*
D03*
X202362D02*
D03*
X205512D02*
D03*
Y67520D02*
D03*
X202362D02*
D03*
X199213D02*
D03*
X196063Y67519D02*
D03*
D58*
X183858Y70571D02*
D03*
X181299D02*
D03*
X178740D02*
D03*
X176181D02*
D03*
X173622D02*
D03*
X171063D02*
D03*
X168504D02*
D03*
Y47539D02*
D03*
X171063D02*
D03*
X173622D02*
D03*
X176181D02*
D03*
X178740D02*
D03*
X181299D02*
D03*
X183858D02*
D03*
D59*
X164665Y66732D02*
D03*
Y64173D02*
D03*
Y61614D02*
D03*
Y59055D02*
D03*
Y56496D02*
D03*
Y53937D02*
D03*
Y51378D02*
D03*
X187697D02*
D03*
Y53937D02*
D03*
Y56496D02*
D03*
Y59055D02*
D03*
Y61614D02*
D03*
Y64173D02*
D03*
Y66732D02*
D03*
D60*
X176181Y59055D02*
D03*
D61*
X237598Y53150D02*
D03*
X229724D02*
D03*
X237598Y64961D02*
D03*
X229724D02*
D03*
X228346Y94488D02*
D03*
X236221D02*
D03*
X228346Y86614D02*
D03*
X236221D02*
D03*
X228346Y31496D02*
D03*
X236221D02*
D03*
X228346Y23622D02*
D03*
X236221D02*
D03*
X43307Y72441D02*
D03*
X51181D02*
D03*
D62*
X218907Y55118D02*
D03*
X224006Y57087D02*
D03*
Y53150D02*
D03*
X218907Y62992D02*
D03*
X224006Y64961D02*
D03*
Y61024D02*
D03*
X74222Y70866D02*
D03*
Y66929D02*
D03*
X79321Y68898D02*
D03*
D63*
X236240Y71260D02*
D03*
Y75000D02*
D03*
Y78740D02*
D03*
X226358Y71260D02*
D03*
Y75000D02*
D03*
Y78740D02*
D03*
X236240Y39370D02*
D03*
Y43110D02*
D03*
Y46850D02*
D03*
X226358Y39370D02*
D03*
Y43110D02*
D03*
Y46850D02*
D03*
D64*
X23622Y23031D02*
D03*
X16142D02*
D03*
X213779Y94488D02*
D03*
X221260D02*
D03*
D65*
X96653Y4331D02*
D03*
X88386D02*
D03*
X96653Y10827D02*
D03*
X88386D02*
D03*
X155709Y4331D02*
D03*
X147441D02*
D03*
X155709Y10827D02*
D03*
X147441D02*
D03*
D66*
X52756Y102559D02*
D03*
Y110039D02*
D03*
X191339Y8071D02*
D03*
Y15551D02*
D03*
D67*
X182185Y28346D02*
D03*
X179626D02*
D03*
X177067D02*
D03*
X174508D02*
D03*
X171949D02*
D03*
X169390D02*
D03*
X166831D02*
D03*
X164272D02*
D03*
X182185Y5118D02*
D03*
X179626D02*
D03*
X177067D02*
D03*
X174508D02*
D03*
X171949D02*
D03*
X169390D02*
D03*
X166831D02*
D03*
X164272D02*
D03*
X164272Y89764D02*
D03*
X166831D02*
D03*
X169390D02*
D03*
X171949D02*
D03*
X174508D02*
D03*
X177067D02*
D03*
X179626D02*
D03*
X182185D02*
D03*
X164272Y112992D02*
D03*
X166831D02*
D03*
X169390D02*
D03*
X171949D02*
D03*
X174508D02*
D03*
X177067D02*
D03*
X179626D02*
D03*
X182185D02*
D03*
X78839Y28346D02*
D03*
X76279D02*
D03*
X73721D02*
D03*
X71161D02*
D03*
X68602D02*
D03*
X66043D02*
D03*
X63484D02*
D03*
X60925D02*
D03*
X78839Y5118D02*
D03*
X76279D02*
D03*
X73721D02*
D03*
X71161D02*
D03*
X68602D02*
D03*
X66043D02*
D03*
X63484D02*
D03*
X60925D02*
D03*
X60925Y89764D02*
D03*
X63484D02*
D03*
X66043D02*
D03*
X68602D02*
D03*
X71161D02*
D03*
X73721D02*
D03*
X76279D02*
D03*
X78839D02*
D03*
X60925Y112992D02*
D03*
X63484D02*
D03*
X66043D02*
D03*
X68602D02*
D03*
X71161D02*
D03*
X73721D02*
D03*
X76279D02*
D03*
X78839D02*
D03*
D68*
X137461Y5709D02*
D03*
Y10039D02*
D03*
X130256Y5709D02*
D03*
Y10039D02*
D03*
D69*
X74016Y54528D02*
D03*
Y60039D02*
D03*
X45276Y50000D02*
D03*
Y44488D02*
D03*
D70*
X78150Y46663D02*
D03*
X82087D02*
D03*
X80118Y51762D02*
D03*
D71*
X59055Y59055D02*
D03*
D72*
X52756Y5118D02*
D03*
X45276D02*
D03*
X198819Y112992D02*
D03*
X191339D02*
D03*
D73*
X132047Y106299D02*
D03*
D74*
X122047D02*
D03*
X112047D02*
D03*
D75*
X203780Y30709D02*
D03*
Y19291D02*
D03*
X191457Y24409D02*
D03*
X203780Y93701D02*
D03*
Y82284D02*
D03*
X191457Y87402D02*
D03*
X40315Y24409D02*
D03*
Y35827D02*
D03*
X52638Y30709D02*
D03*
X40315Y87402D02*
D03*
Y98819D02*
D03*
X52638Y93701D02*
D03*
D76*
X191457Y35827D02*
D03*
Y98819D02*
D03*
X52638Y19291D02*
D03*
Y82284D02*
D03*
D77*
X9843Y108268D02*
D03*
Y9843D02*
D03*
X234252Y108268D02*
D03*
Y9843D02*
D03*
D78*
X24311Y70768D02*
D03*
Y67421D02*
D03*
Y64075D02*
D03*
Y60728D02*
D03*
Y57382D02*
D03*
Y54035D02*
D03*
Y50689D02*
D03*
Y47343D02*
D03*
X29626D02*
D03*
Y50689D02*
D03*
Y54035D02*
D03*
Y57382D02*
D03*
Y60728D02*
D03*
Y64075D02*
D03*
Y67421D02*
D03*
D79*
Y70768D02*
D03*
D80*
X25768Y42028D02*
D03*
Y76083D02*
D03*
D81*
X12461Y42028D02*
D03*
Y76083D02*
D03*
D82*
X160236Y112992D02*
D03*
X42323Y54921D02*
D03*
X28740Y32087D02*
D03*
X197319Y5804D02*
D03*
X184843Y2756D02*
D03*
X235433Y59055D02*
D03*
X149409Y25591D02*
D03*
X118110Y65335D02*
D03*
X40157Y4331D02*
D03*
X35236Y113976D02*
D03*
X7283Y96850D02*
D03*
X226378Y114567D02*
D03*
X205315Y113386D02*
D03*
X226772Y3347D02*
D03*
X108661Y10039D02*
D03*
X123622Y2559D02*
D03*
X222204Y59055D02*
D03*
X177067Y5118D02*
D03*
X169390D02*
D03*
X198228Y36614D02*
D03*
X185039Y34843D02*
D03*
X161614Y2484D02*
D03*
X192717Y45898D02*
D03*
X189350Y41877D02*
D03*
X201181Y14173D02*
D03*
X205906Y13189D02*
D03*
X184843Y13780D02*
D03*
X160433Y13551D02*
D03*
X85433Y15157D02*
D03*
X81693Y4528D02*
D03*
X122441Y7874D02*
D03*
X240551Y19291D02*
D03*
X221260Y12008D02*
D03*
X106299Y66929D02*
D03*
X100197D02*
D03*
X98425Y53150D02*
D03*
X201772Y38976D02*
D03*
X112402Y4134D02*
D03*
X108858Y6134D02*
D03*
X51181Y45276D02*
D03*
X59842Y46063D02*
D03*
X16142Y23031D02*
D03*
X43307Y72441D02*
D03*
X45276Y50000D02*
D03*
X82480Y109449D02*
D03*
X44291Y114370D02*
D03*
X149606Y115354D02*
D03*
X101378Y110039D02*
D03*
X106693Y106299D02*
D03*
X187697Y59055D02*
D03*
X208071Y50984D02*
D03*
X199016Y62992D02*
D03*
X207677Y55118D02*
D03*
X218504Y49016D02*
D03*
X220866Y46654D02*
D03*
X147835Y78740D02*
D03*
X178740Y70571D02*
D03*
X82677Y105905D02*
D03*
X153543Y97441D02*
D03*
X95472Y66535D02*
D03*
X20669Y112992D02*
D03*
X210433Y67520D02*
D03*
X106299Y26575D02*
D03*
X102756Y26772D02*
D03*
X90189Y19094D02*
D03*
X92510Y15942D02*
D03*
X98032Y38780D02*
D03*
X100394Y40157D02*
D03*
X106299Y63976D02*
D03*
X98425Y74410D02*
D03*
X94882Y60827D02*
D03*
X149606Y94291D02*
D03*
X143898Y83071D02*
D03*
X148228Y50197D02*
D03*
X206299Y39961D02*
D03*
X161221Y7677D02*
D03*
X187697Y69390D02*
D03*
X192126Y72638D02*
D03*
X191339Y69685D02*
D03*
X181102Y76410D02*
D03*
X149016Y75787D02*
D03*
X98425Y45276D02*
D03*
X124606Y38780D02*
D03*
X196063Y43898D02*
D03*
X199213D02*
D03*
X38189Y11811D02*
D03*
X78839Y28346D02*
D03*
X82874Y17717D02*
D03*
X197543Y77661D02*
D03*
X195079Y78937D02*
D03*
X196063Y74213D02*
D03*
X199213D02*
D03*
X226969Y16732D02*
D03*
X148031Y37598D02*
D03*
X105315Y45276D02*
D03*
X112205D02*
D03*
X173622Y70571D02*
D03*
X176181Y59055D02*
D03*
X164665Y66732D02*
D03*
Y64173D02*
D03*
X142717Y98819D02*
D03*
X143307Y64173D02*
D03*
X140945Y66929D02*
D03*
X124606Y76181D02*
D03*
X97638Y96063D02*
D03*
X161024Y17551D02*
D03*
X161221Y10827D02*
D03*
X70669Y67882D02*
D03*
X148268Y32638D02*
D03*
X112205Y28346D02*
D03*
X105315Y32283D02*
D03*
X154665Y15551D02*
D03*
X164665Y51378D02*
D03*
X163976Y44291D02*
D03*
X161358Y45807D02*
D03*
X124606Y44882D02*
D03*
X173622Y47539D02*
D03*
X176181D02*
D03*
X178740D02*
D03*
X181299D02*
D03*
X183858D02*
D03*
X187697Y51378D02*
D03*
X181102Y34843D02*
D03*
X182185Y28346D02*
D03*
X179626D02*
D03*
X166831D02*
D03*
X164272D02*
D03*
X219488Y3937D02*
D03*
X216535D02*
D03*
X213583D02*
D03*
X219488Y6890D02*
D03*
X216535D02*
D03*
X213583D02*
D03*
X210630D02*
D03*
Y3937D02*
D03*
X207677D02*
D03*
X204724D02*
D03*
X207677Y6890D02*
D03*
X204724D02*
D03*
Y9843D02*
D03*
X207677D02*
D03*
X213976Y12008D02*
D03*
X217520Y11988D02*
D03*
X83146Y57677D02*
D03*
X82677Y61614D02*
D03*
X80118Y62795D02*
D03*
X229528Y63976D02*
D03*
Y54331D02*
D03*
X152165Y104724D02*
D03*
Y107874D02*
D03*
Y111024D02*
D03*
X183858Y70571D02*
D03*
X181299D02*
D03*
X164665Y53937D02*
D03*
Y56496D02*
D03*
Y59055D02*
D03*
X218504Y44488D02*
D03*
X220866Y71063D02*
D03*
X218504Y68898D02*
D03*
Y73425D02*
D03*
X226358Y78740D02*
D03*
Y39370D02*
D03*
X120079Y9449D02*
D03*
X185039Y76410D02*
D03*
X214567Y86614D02*
D03*
X199016Y55118D02*
D03*
X34252Y73425D02*
D03*
X4921Y83661D02*
D03*
X207677Y62992D02*
D03*
X220472Y78740D02*
D03*
X215354D02*
D03*
Y39370D02*
D03*
X220472D02*
D03*
X219687Y110039D02*
D03*
X210234D02*
D03*
X177067Y28346D02*
D03*
X175591Y38386D02*
D03*
X60925Y5118D02*
D03*
X63484Y28346D02*
D03*
X73721D02*
D03*
X60925D02*
D03*
X76279D02*
D03*
X68504Y38386D02*
D03*
X182185Y112992D02*
D03*
X171949Y112992D02*
D03*
X174508D02*
D03*
X169390Y89764D02*
D03*
X175591Y79724D02*
D03*
X182185Y89764D02*
D03*
X179626D02*
D03*
X166831D02*
D03*
X164272D02*
D03*
X66043D02*
D03*
X71161Y28346D02*
D03*
X174508D02*
D03*
X171949Y89764D02*
D03*
X68602D02*
D03*
X166831Y5118D02*
D03*
X171949D02*
D03*
X174508D02*
D03*
X179626D02*
D03*
X71161D02*
D03*
X68602D02*
D03*
X76279D02*
D03*
X63484D02*
D03*
X179626Y112992D02*
D03*
X166831D02*
D03*
X63484D02*
D03*
X76279D02*
D03*
X71161D02*
D03*
X68602D02*
D03*
X78839Y89764D02*
D03*
X76279D02*
D03*
X60925D02*
D03*
X63484D02*
D03*
X94488Y85630D02*
D03*
Y89370D02*
D03*
X68504Y79724D02*
D03*
X50000Y66732D02*
D03*
X220472Y86614D02*
D03*
Y31496D02*
D03*
X215354D02*
D03*
X185039Y83071D02*
D03*
Y79724D02*
D03*
X181102Y83071D02*
D03*
X185039Y41535D02*
D03*
Y38189D02*
D03*
X181102Y41535D02*
D03*
X62992Y41732D02*
D03*
Y35039D02*
D03*
X59055Y41732D02*
D03*
Y38386D02*
D03*
Y35039D02*
D03*
X51181Y48425D02*
D03*
X37795Y71063D02*
D03*
X66929Y72409D02*
D03*
X59842Y71850D02*
D03*
X69685Y49213D02*
D03*
X66831D02*
D03*
X56102Y70669D02*
D03*
X74606Y46654D02*
D03*
X74803Y49409D02*
D03*
X96063Y82638D02*
D03*
X82087Y65945D02*
D03*
X66929Y69882D02*
D03*
X44685Y57382D02*
D03*
X44783Y60728D02*
D03*
X59055Y76378D02*
D03*
Y79724D02*
D03*
Y83071D02*
D03*
X62992Y76378D02*
D03*
Y83071D02*
D03*
D83*
X170866Y16732D02*
D03*
X175591D02*
D03*
Y101378D02*
D03*
X170866D02*
D03*
X67520Y16732D02*
D03*
X72244D02*
D03*
Y101378D02*
D03*
X67520D02*
D03*
M02*
