G04*
G04 #@! TF.GenerationSoftware,Altium Limited,Altium Designer,22.2.1 (43)*
G04*
G04 Layer_Physical_Order=2*
G04 Layer_Color=10964583*
%FSLAX25Y25*%
%MOIN*%
G70*
G04*
G04 #@! TF.SameCoordinates,0E938A99-CEBE-4E5B-98FA-E82972142B6D*
G04*
G04*
G04 #@! TF.FilePolarity,Positive*
G04*
G01*
G75*
%ADD15C,0.01000*%
%ADD78C,0.02559*%
%ADD82C,0.02000*%
%ADD87C,0.02000*%
%ADD90C,0.06000*%
%ADD91R,0.06000X0.06000*%
G36*
X50021Y116597D02*
X50212Y116135D01*
X43909Y109832D01*
X43750Y109449D01*
X43750Y109449D01*
Y100869D01*
X43250Y100735D01*
X43116Y100968D01*
X42464Y101620D01*
X41666Y102080D01*
X40776Y102319D01*
X39854D01*
X38964Y102080D01*
X38166Y101620D01*
X37514Y100968D01*
X37053Y100170D01*
X36815Y99280D01*
Y98358D01*
X37053Y97468D01*
X37514Y96670D01*
X38166Y96018D01*
X38964Y95557D01*
X39854Y95319D01*
X40776D01*
X41666Y95557D01*
X42266Y95904D01*
X42573Y95504D01*
X40524Y93455D01*
X34449D01*
X34066Y93296D01*
X33908Y92913D01*
Y83869D01*
X33446Y83678D01*
X32381Y84743D01*
X31885Y85074D01*
X31299Y85191D01*
X4921D01*
X4773Y85161D01*
X4623D01*
X4484Y85104D01*
X4336Y85074D01*
X4211Y84991D01*
X4072Y84933D01*
X3965Y84826D01*
X3840Y84743D01*
X3756Y84618D01*
X3650Y84511D01*
X3592Y84372D01*
X3508Y84247D01*
X3479Y84099D01*
X3421Y83960D01*
Y83809D01*
X3392Y83661D01*
X3421Y83514D01*
Y83363D01*
X3479Y83224D01*
X3508Y83076D01*
X3592Y82951D01*
X3650Y82812D01*
X3756Y82705D01*
X3840Y82580D01*
X3965Y82496D01*
X4072Y82390D01*
X4211Y82332D01*
X4336Y82249D01*
X4484Y82219D01*
X4623Y82161D01*
X4773D01*
X4921Y82132D01*
X6624D01*
X6831Y81632D01*
X3643Y78444D01*
X3311Y77947D01*
X3195Y77362D01*
Y40748D01*
X3311Y40163D01*
X3643Y39667D01*
X7580Y35730D01*
X8076Y35398D01*
X8661Y35282D01*
X31496D01*
X32081Y35398D01*
X32577Y35730D01*
X40594Y43746D01*
X51181D01*
X51329Y43776D01*
X51480D01*
X51619Y43833D01*
X51766Y43863D01*
X51892Y43946D01*
X52031Y44004D01*
X52137Y44111D01*
X52263Y44194D01*
X52346Y44319D01*
X52453Y44426D01*
X52510Y44565D01*
X52594Y44690D01*
X52623Y44838D01*
X52681Y44977D01*
Y45128D01*
X52710Y45276D01*
X52681Y45423D01*
Y45574D01*
X52623Y45713D01*
X52594Y45861D01*
X52510Y45986D01*
X52453Y46125D01*
X52346Y46232D01*
X52263Y46357D01*
X52137Y46441D01*
X52031Y46547D01*
X51952Y46580D01*
X51908Y46743D01*
X51955Y47122D01*
X52031Y47154D01*
X52453Y47576D01*
X52681Y48127D01*
Y48724D01*
X52453Y49275D01*
X52031Y49697D01*
X51480Y49925D01*
X51123D01*
X49051Y51997D01*
Y64370D01*
X48974Y64760D01*
X48752Y65091D01*
X45209Y68634D01*
X44878Y68855D01*
X44488Y68933D01*
X41367D01*
X39295Y71005D01*
Y71361D01*
X39067Y71913D01*
X38645Y72335D01*
X38094Y72563D01*
X37497D01*
X36946Y72335D01*
X36524Y71913D01*
X36295Y71361D01*
Y70765D01*
X36524Y70213D01*
X36946Y69791D01*
X37497Y69563D01*
X37853D01*
X40224Y67192D01*
X40555Y66971D01*
X40945Y66894D01*
X44066D01*
X47012Y63948D01*
Y51575D01*
X47089Y51185D01*
X47311Y50854D01*
X49681Y48483D01*
Y48127D01*
X49909Y47576D01*
X50180Y47305D01*
X49973Y46805D01*
X39961D01*
X39375Y46689D01*
X38879Y46357D01*
X30863Y38340D01*
X9295D01*
X6254Y41381D01*
Y76729D01*
X8704Y79179D01*
X29878D01*
X32723Y76335D01*
Y73425D01*
X32752Y73277D01*
Y73127D01*
X32810Y72988D01*
X32839Y72840D01*
X32923Y72715D01*
X32980Y72575D01*
X33087Y72469D01*
X33171Y72344D01*
X33296Y72260D01*
X33402Y72154D01*
X33541Y72096D01*
X33667Y72012D01*
X33814Y71983D01*
X33954Y71925D01*
X34104D01*
X34252Y71896D01*
X34400Y71925D01*
X34550D01*
X34690Y71983D01*
X34837Y72012D01*
X34962Y72096D01*
X35102Y72154D01*
X35208Y72260D01*
X35333Y72344D01*
X35417Y72469D01*
X35524Y72575D01*
X35581Y72715D01*
X35665Y72840D01*
X35694Y72988D01*
X35752Y73127D01*
Y73277D01*
X35781Y73425D01*
Y76512D01*
X35812Y76564D01*
X36281Y76883D01*
X36614Y76817D01*
X43461D01*
X52014Y68264D01*
Y62992D01*
X52130Y62407D01*
X52462Y61911D01*
X61123Y53249D01*
X61619Y52918D01*
X62205Y52801D01*
X89918D01*
X93353Y49367D01*
Y27694D01*
X92852Y27487D01*
X91272Y29067D01*
X90941Y29288D01*
X90551Y29366D01*
X79940D01*
X79688Y29618D01*
X79137Y29847D01*
X78540D01*
X77989Y29618D01*
X77886Y29515D01*
X77559Y29204D01*
X77232Y29515D01*
X77129Y29618D01*
X76578Y29847D01*
X75981D01*
X75430Y29618D01*
X75327Y29515D01*
X75000Y29204D01*
X74673Y29515D01*
X74570Y29618D01*
X74019Y29847D01*
X73422D01*
X72871Y29618D01*
X72449Y29196D01*
X72220Y28645D01*
Y28048D01*
X72449Y27497D01*
X72871Y27075D01*
X73422Y26847D01*
X74019D01*
X74570Y27075D01*
X74673Y27178D01*
X74875Y27370D01*
X75299Y27097D01*
Y25846D01*
X75377Y25456D01*
X75598Y25126D01*
X76444Y24279D01*
X76775Y24058D01*
X77165Y23980D01*
X87963D01*
X89169Y22774D01*
Y20196D01*
X88917Y19944D01*
X88689Y19393D01*
Y18796D01*
X88917Y18245D01*
X89339Y17823D01*
X89891Y17594D01*
X90487D01*
X90991Y17803D01*
X91224Y17718D01*
X91491Y17568D01*
Y17043D01*
X91238Y16791D01*
X91010Y16240D01*
Y15643D01*
X91238Y15092D01*
X91660Y14670D01*
X92212Y14442D01*
X92809D01*
X93360Y14670D01*
X93782Y15092D01*
X94263Y15188D01*
X97541Y11911D01*
X98037Y11579D01*
X98622Y11463D01*
X110981D01*
X114076Y8367D01*
X114572Y8036D01*
X115157Y7919D01*
X120079D01*
X120227Y7949D01*
X120377D01*
X120441Y7975D01*
X120666Y7887D01*
X120876Y7717D01*
X120941Y7620D01*
Y7576D01*
X121169Y7024D01*
X121591Y6602D01*
X122143Y6374D01*
X122739D01*
X123291Y6602D01*
X123713Y7024D01*
X123941Y7576D01*
Y8172D01*
X123713Y8724D01*
X123291Y9146D01*
X122739Y9374D01*
X122143D01*
X122098Y9355D01*
X121987Y9377D01*
X121753Y9503D01*
X121579Y9682D01*
Y9747D01*
X121521Y9886D01*
X121492Y10034D01*
X121408Y10159D01*
X121350Y10299D01*
X121244Y10405D01*
X121160Y10530D01*
X121035Y10614D01*
X120928Y10721D01*
X120789Y10778D01*
X120664Y10862D01*
X120516Y10891D01*
X120377Y10949D01*
X120227D01*
X120079Y10978D01*
X115791D01*
X112696Y14074D01*
X112199Y14405D01*
X111614Y14522D01*
X99256D01*
X96411Y17366D01*
Y37571D01*
X96911Y37778D01*
X97182Y37508D01*
X97733Y37279D01*
X98330D01*
X98881Y37508D01*
X99303Y37930D01*
X99500Y38404D01*
X99532Y38481D01*
X100031Y38684D01*
X100095Y38658D01*
X100692D01*
X101243Y38886D01*
X101665Y39308D01*
X101894Y39859D01*
Y40456D01*
X101665Y41007D01*
X101243Y41429D01*
X100692Y41658D01*
X100095D01*
X99544Y41429D01*
X99122Y41007D01*
X98926Y40533D01*
X98894Y40456D01*
X98394Y40253D01*
X98330Y40279D01*
X97733D01*
X97182Y40051D01*
X96911Y39781D01*
X96411Y39988D01*
Y50000D01*
X96295Y50585D01*
X95963Y51081D01*
X91633Y55412D01*
X91136Y55744D01*
X90551Y55860D01*
X83985D01*
X83886Y56360D01*
X83995Y56406D01*
X84417Y56827D01*
X84646Y57379D01*
Y57976D01*
X84417Y58527D01*
X83995Y58949D01*
X83444Y59177D01*
X82847D01*
X82296Y58949D01*
X81874Y58527D01*
X81646Y57976D01*
Y57379D01*
X81874Y56827D01*
X82296Y56406D01*
X82406Y56360D01*
X82306Y55860D01*
X62838D01*
X55073Y63626D01*
Y68898D01*
X55066Y68934D01*
X55504Y69294D01*
X55804Y69169D01*
X56401D01*
X56952Y69398D01*
X57374Y69820D01*
X57602Y70371D01*
Y70968D01*
X57374Y71519D01*
X56952Y71941D01*
X56401Y72169D01*
X55804D01*
X55253Y71941D01*
X54831Y71519D01*
X54602Y70968D01*
Y70709D01*
X54102Y70502D01*
X45176Y79428D01*
X44680Y79759D01*
X44635Y79768D01*
X44583Y80288D01*
X44674Y80326D01*
X48611Y84263D01*
X48770Y84646D01*
X48770Y84646D01*
Y92682D01*
X49270Y92748D01*
X49376Y92350D01*
X49837Y91552D01*
X50489Y90900D01*
X51287Y90439D01*
X52177Y90201D01*
X53099D01*
X53989Y90439D01*
X54787Y90900D01*
X55439Y91552D01*
X55899Y92350D01*
X56138Y93240D01*
Y94162D01*
X55899Y95052D01*
X55439Y95850D01*
X54787Y96501D01*
X53989Y96962D01*
X53099Y97201D01*
X52177D01*
X51287Y96962D01*
X50489Y96501D01*
X49837Y95850D01*
X49376Y95052D01*
X49270Y94653D01*
X48770Y94719D01*
Y96232D01*
X60264Y107727D01*
X61631D01*
X61820Y107227D01*
X61537Y106943D01*
X61311Y106398D01*
Y105807D01*
X61537Y105262D01*
X61954Y104844D01*
X62500Y104618D01*
X63090D01*
X63636Y104844D01*
X64054Y105262D01*
X64280Y105807D01*
Y106398D01*
X64054Y106943D01*
X63770Y107227D01*
X63960Y107727D01*
X65801D01*
X66134Y107227D01*
X66035Y106988D01*
Y106398D01*
X66261Y105852D01*
X66679Y105435D01*
X67225Y105209D01*
X67815D01*
X68361Y105435D01*
X68778Y105852D01*
X69004Y106398D01*
Y106988D01*
X68905Y107227D01*
X69238Y107727D01*
X70525D01*
X70859Y107227D01*
X70760Y106988D01*
Y106398D01*
X70986Y105852D01*
X71403Y105435D01*
X71949Y105209D01*
X72539D01*
X73085Y105435D01*
X73502Y105852D01*
X73728Y106398D01*
Y106988D01*
X73502Y107534D01*
X73502Y107534D01*
X73469Y107570D01*
X73217Y107885D01*
X73376Y108268D01*
Y116597D01*
X73838Y116597D01*
X112152D01*
X112303Y116097D01*
X112271Y116075D01*
X107255Y111059D01*
X102480D01*
X102228Y111311D01*
X101676Y111539D01*
X101080D01*
X100528Y111311D01*
X100106Y110889D01*
X99878Y110338D01*
Y109741D01*
X100106Y109190D01*
X100528Y108768D01*
X101080Y108539D01*
X101676D01*
X102228Y108768D01*
X102480Y109020D01*
X107677D01*
X108067Y109097D01*
X108398Y109318D01*
X113415Y114335D01*
X148505D01*
X148757Y114083D01*
X149308Y113854D01*
X149905D01*
X150456Y114083D01*
X150878Y114505D01*
X151106Y115056D01*
Y115653D01*
X150922Y116097D01*
X151138Y116597D01*
X169734D01*
Y109055D01*
X169893Y108672D01*
X170176Y108555D01*
X170243Y108194D01*
X170226Y108034D01*
X170025Y107951D01*
X169608Y107534D01*
X169382Y106988D01*
Y106398D01*
X169608Y105852D01*
X170025Y105435D01*
X170571Y105209D01*
X171161D01*
X171707Y105435D01*
X172124Y105852D01*
X172350Y106398D01*
Y106988D01*
X172124Y107534D01*
X171707Y107951D01*
X171555Y108014D01*
X171655Y108514D01*
X174802D01*
X174901Y108014D01*
X174750Y107951D01*
X174332Y107534D01*
X174106Y106988D01*
Y106398D01*
X174332Y105852D01*
X174750Y105435D01*
X175295Y105209D01*
X175886D01*
X176431Y105435D01*
X176849Y105852D01*
X177075Y106398D01*
Y106988D01*
X176849Y107534D01*
X176431Y107951D01*
X176280Y108014D01*
X176379Y108514D01*
X190918D01*
X197293Y102138D01*
X197293Y90354D01*
X197293Y90354D01*
X197452Y89972D01*
X197452Y89972D01*
X199617Y87806D01*
X199617Y87806D01*
X200000Y87648D01*
X200000Y87648D01*
X207480D01*
X207480Y87648D01*
X207863Y87806D01*
X207863Y87806D01*
X209044Y88987D01*
X209203Y89370D01*
X209203Y89370D01*
Y99213D01*
X209044Y99595D01*
X209044Y99595D01*
X192504Y116135D01*
X192696Y116597D01*
X231171D01*
X231271Y116097D01*
X230285Y115689D01*
X228914Y114772D01*
X228355Y114214D01*
X227878Y114444D01*
Y114865D01*
X227650Y115417D01*
X227228Y115839D01*
X226676Y116067D01*
X226080D01*
X225528Y115839D01*
X225106Y115417D01*
X224878Y114865D01*
Y114269D01*
X225106Y113717D01*
X225528Y113295D01*
X226080Y113067D01*
X226676D01*
X226828Y113130D01*
X227160Y112726D01*
X226831Y112234D01*
X226200Y110710D01*
X225878Y109092D01*
Y107443D01*
X226200Y105825D01*
X226831Y104301D01*
X227747Y102930D01*
X228914Y101763D01*
X230285Y100847D01*
X231809Y100215D01*
X233427Y99894D01*
X235077D01*
X236695Y100215D01*
X238219Y100847D01*
X239590Y101763D01*
X240757Y102930D01*
X241673Y104301D01*
X242081Y105287D01*
X242581Y105187D01*
Y12923D01*
X242081Y12823D01*
X241673Y13809D01*
X240757Y15181D01*
X239590Y16347D01*
X238219Y17264D01*
X236695Y17895D01*
X235077Y18216D01*
X233427D01*
X231809Y17895D01*
X230285Y17264D01*
X228940Y16364D01*
X228821Y16401D01*
X228468Y16609D01*
Y17031D01*
X228240Y17582D01*
X227818Y18004D01*
X227267Y18232D01*
X226670D01*
X226119Y18004D01*
X225697Y17582D01*
X225468Y17031D01*
Y16434D01*
X225697Y15883D01*
X226119Y15461D01*
X226670Y15232D01*
X227181D01*
X227373Y15006D01*
X227479Y14779D01*
X226831Y13809D01*
X226200Y12285D01*
X225878Y10667D01*
Y9018D01*
X226200Y7400D01*
X226831Y5876D01*
X227210Y5308D01*
X227182Y5216D01*
X226918Y4846D01*
X226473D01*
X225922Y4618D01*
X225500Y4196D01*
X225272Y3645D01*
Y3048D01*
X225500Y2497D01*
X225922Y2075D01*
X226070Y2013D01*
X225971Y1513D01*
X193089D01*
X192898Y1975D01*
X195905Y4983D01*
X196047Y4954D01*
X196469Y4532D01*
X197020Y4304D01*
X197617D01*
X198169Y4532D01*
X198591Y4954D01*
X198819Y5506D01*
Y6102D01*
X198591Y6654D01*
X198169Y7076D01*
X197617Y7304D01*
X197020D01*
X196907Y7257D01*
X196407Y7591D01*
Y29331D01*
X196249Y29713D01*
X195866Y29872D01*
X186417D01*
X186035Y29713D01*
X185876Y29331D01*
Y15516D01*
X185376Y15182D01*
X185141Y15280D01*
X184784D01*
X184776Y15288D01*
X184445Y15509D01*
X184055Y15586D01*
X181922D01*
X181654Y16086D01*
X181799Y16437D01*
Y17028D01*
X181573Y17573D01*
X181156Y17991D01*
X180610Y18216D01*
X180020D01*
X179474Y17991D01*
X179057Y17573D01*
X178831Y17028D01*
Y16437D01*
X178976Y16086D01*
X178708Y15586D01*
X177197D01*
X176930Y16086D01*
X177075Y16437D01*
Y17028D01*
X176849Y17573D01*
X176431Y17991D01*
X175886Y18216D01*
X175295D01*
X174750Y17991D01*
X174332Y17573D01*
X174106Y17028D01*
Y16437D01*
X174251Y16086D01*
X173984Y15586D01*
X172473D01*
X172205Y16086D01*
X172350Y16437D01*
Y17028D01*
X172124Y17573D01*
X171707Y17991D01*
X171161Y18216D01*
X170571D01*
X170025Y17991D01*
X169608Y17573D01*
X169382Y17028D01*
Y16437D01*
X169527Y16086D01*
X169260Y15586D01*
X167748D01*
X167481Y16086D01*
X167626Y16437D01*
Y17028D01*
X167400Y17573D01*
X166982Y17991D01*
X166437Y18216D01*
X165847D01*
X165301Y17991D01*
X164883Y17573D01*
X164657Y17028D01*
Y16437D01*
X164753Y16207D01*
X164488Y15748D01*
X164083Y15706D01*
X163516Y16272D01*
X163186Y16493D01*
X162795Y16571D01*
X162782D01*
X162448Y17071D01*
X162524Y17253D01*
Y17850D01*
X162295Y18401D01*
X161873Y18823D01*
X161322Y19051D01*
X160725D01*
X160174Y18823D01*
X159752Y18401D01*
X159524Y17850D01*
Y17253D01*
X159599Y17071D01*
X159265Y16571D01*
X158661D01*
X158271Y16493D01*
X157940Y16272D01*
X156555Y14886D01*
X156131Y15170D01*
X156165Y15253D01*
Y15849D01*
X155937Y16401D01*
X155515Y16823D01*
X154964Y17051D01*
X154367D01*
X153816Y16823D01*
X153394Y16401D01*
X153165Y15849D01*
Y15253D01*
X153394Y14702D01*
X153816Y14279D01*
X154367Y14051D01*
X154964D01*
X155112Y14113D01*
X155444Y13709D01*
X155357Y13579D01*
X155280Y13189D01*
Y4556D01*
X153727Y3004D01*
X138808D01*
X136564Y5249D01*
X136233Y5469D01*
X135843Y5547D01*
X125591D01*
X125200Y5469D01*
X124870Y5249D01*
X123680Y4059D01*
X123324D01*
X122772Y3831D01*
X122520Y3579D01*
X114073D01*
X113902Y3836D01*
Y4432D01*
X113673Y4984D01*
X113251Y5406D01*
X112700Y5634D01*
X112103D01*
X111552Y5406D01*
X111130Y4984D01*
X110902Y4432D01*
Y3836D01*
X111039Y3504D01*
X110757Y3004D01*
X96076D01*
X86453Y12627D01*
Y14056D01*
X86705Y14308D01*
X86933Y14859D01*
Y15456D01*
X86705Y16007D01*
X86283Y16429D01*
X85731Y16657D01*
X85135D01*
X84583Y16429D01*
X84161Y16007D01*
X83933Y15456D01*
Y14859D01*
X84161Y14308D01*
X84413Y14056D01*
Y12205D01*
X84491Y11814D01*
X84712Y11484D01*
X94221Y1975D01*
X94029Y1513D01*
X73376D01*
Y9055D01*
X73217Y9438D01*
X72934Y9555D01*
X72868Y9916D01*
X72884Y10076D01*
X73085Y10159D01*
X73502Y10577D01*
X73728Y11122D01*
Y11713D01*
X73502Y12258D01*
X73085Y12676D01*
X72539Y12902D01*
X71949D01*
X71403Y12676D01*
X70986Y12258D01*
X70760Y11713D01*
Y11122D01*
X70986Y10577D01*
X71403Y10159D01*
X71555Y10096D01*
X71455Y9596D01*
X68309D01*
X68209Y10096D01*
X68361Y10159D01*
X68778Y10577D01*
X69004Y11122D01*
Y11713D01*
X68778Y12258D01*
X68361Y12676D01*
X67815Y12902D01*
X67225D01*
X66679Y12676D01*
X66261Y12258D01*
X66035Y11713D01*
Y11122D01*
X66261Y10577D01*
X66679Y10159D01*
X66830Y10096D01*
X66731Y9596D01*
X54555D01*
X47982Y16169D01*
Y27756D01*
X47982Y27756D01*
X47824Y28139D01*
X45265Y30698D01*
X44882Y30856D01*
X44882Y30856D01*
X35827D01*
X35444Y30698D01*
X34066Y29320D01*
X33908Y28937D01*
X33908Y28937D01*
Y19488D01*
X34066Y19105D01*
X34449Y18947D01*
X37965D01*
X40600Y16311D01*
Y12205D01*
X40759Y11822D01*
X40759Y11822D01*
X50606Y1975D01*
X50415Y1513D01*
X12923D01*
X12823Y2013D01*
X13809Y2422D01*
X15181Y3338D01*
X16347Y4504D01*
X17264Y5876D01*
X17895Y7400D01*
X18216Y9018D01*
Y10667D01*
X17895Y12285D01*
X17264Y13809D01*
X16347Y15181D01*
X15181Y16347D01*
X13809Y17264D01*
X12285Y17895D01*
X10667Y18216D01*
X9018D01*
X7400Y17895D01*
X5876Y17264D01*
X4504Y16347D01*
X3338Y15181D01*
X2422Y13809D01*
X2013Y12823D01*
X1513Y12923D01*
Y105187D01*
X2013Y105287D01*
X2422Y104301D01*
X3338Y102930D01*
X4504Y101763D01*
X5876Y100847D01*
X7400Y100215D01*
X9018Y99894D01*
X10667D01*
X12285Y100215D01*
X13809Y100847D01*
X15181Y101763D01*
X16347Y102930D01*
X17264Y104301D01*
X17895Y105825D01*
X18216Y107443D01*
Y109092D01*
X17895Y110710D01*
X17264Y112234D01*
X16347Y113606D01*
X15181Y114772D01*
X13809Y115689D01*
X12823Y116097D01*
X12923Y116597D01*
X50021D01*
D02*
G37*
G36*
X191277Y116597D02*
X208661Y99213D01*
Y89370D01*
X207480Y88189D01*
X200000D01*
X197835Y90354D01*
X197835Y102362D01*
X191142Y109055D01*
X170276D01*
Y116597D01*
X191277Y116597D01*
D02*
G37*
G36*
X72835Y116597D02*
Y108268D01*
X60039D01*
X48228Y96457D01*
Y84646D01*
X44291Y80709D01*
X36417D01*
X34449Y82677D01*
Y92913D01*
X40748D01*
X44291Y96457D01*
Y109449D01*
X51439Y116597D01*
X72835Y116597D01*
D02*
G37*
G36*
X195866Y6216D02*
X195819Y6102D01*
Y5661D01*
X191671Y1513D01*
X186374D01*
X186159Y2013D01*
X186343Y2458D01*
Y3054D01*
X186114Y3606D01*
X185692Y4028D01*
X185141Y4256D01*
X184544D01*
X183993Y4028D01*
X183571Y3606D01*
X183343Y3054D01*
Y2458D01*
X183527Y2013D01*
X183310Y1513D01*
X165551D01*
Y9055D01*
X166339Y9843D01*
X183071D01*
X186417Y13189D01*
Y29331D01*
X195866D01*
Y6216D01*
D02*
G37*
G36*
X47441Y27756D02*
Y15945D01*
X54331Y9055D01*
X72835D01*
Y1513D01*
X51833D01*
X41142Y12205D01*
Y16535D01*
X38189Y19488D01*
X34449D01*
Y28937D01*
X35827Y30315D01*
X44882D01*
X47441Y27756D01*
D02*
G37*
%LPC*%
G36*
X44590Y115870D02*
X43993D01*
X43442Y115642D01*
X43020Y115220D01*
X42791Y114669D01*
Y114072D01*
X43020Y113520D01*
X43442Y113098D01*
X43993Y112870D01*
X44590D01*
X45141Y113098D01*
X45563Y113520D01*
X45791Y114072D01*
Y114669D01*
X45563Y115220D01*
X45141Y115642D01*
X44590Y115870D01*
D02*
G37*
G36*
X35535Y115476D02*
X34938D01*
X34387Y115248D01*
X33965Y114826D01*
X33736Y114275D01*
Y113678D01*
X33965Y113127D01*
X34387Y112705D01*
X34938Y112476D01*
X35535D01*
X36086Y112705D01*
X36508Y113127D01*
X36736Y113678D01*
Y114275D01*
X36508Y114826D01*
X36086Y115248D01*
X35535Y115476D01*
D02*
G37*
G36*
X205613Y114886D02*
X205017D01*
X204465Y114657D01*
X204043Y114235D01*
X203815Y113684D01*
Y113087D01*
X204043Y112536D01*
X204465Y112114D01*
X205017Y111886D01*
X205613D01*
X206165Y112114D01*
X206587Y112536D01*
X206815Y113087D01*
Y113684D01*
X206587Y114235D01*
X206165Y114657D01*
X205613Y114886D01*
D02*
G37*
G36*
X160535Y114492D02*
X159938D01*
X159387Y114264D01*
X158965Y113842D01*
X158736Y113291D01*
Y112694D01*
X158965Y112143D01*
X159387Y111721D01*
X159938Y111492D01*
X160535D01*
X161086Y111721D01*
X161508Y112143D01*
X161736Y112694D01*
Y113291D01*
X161508Y113842D01*
X161086Y114264D01*
X160535Y114492D01*
D02*
G37*
G36*
X20968D02*
X20371D01*
X19820Y114264D01*
X19398Y113842D01*
X19169Y113291D01*
Y112694D01*
X19398Y112143D01*
X19820Y111721D01*
X20371Y111492D01*
X20968D01*
X21519Y111721D01*
X21941Y112143D01*
X22169Y112694D01*
Y113291D01*
X21941Y113842D01*
X21519Y114264D01*
X20968Y114492D01*
D02*
G37*
G36*
X167129Y114492D02*
X166532D01*
X165981Y114264D01*
X165559Y113842D01*
X165331Y113291D01*
Y112694D01*
X165559Y112142D01*
X165981Y111721D01*
X166532Y111492D01*
X167129D01*
X167680Y111721D01*
X168102Y112142D01*
X168331Y112694D01*
Y113291D01*
X168102Y113842D01*
X167680Y114264D01*
X167129Y114492D01*
D02*
G37*
G36*
X76578D02*
X75981D01*
X75430Y114264D01*
X75008Y113842D01*
X74779Y113291D01*
Y112694D01*
X75008Y112142D01*
X75430Y111721D01*
X75981Y111492D01*
X76578D01*
X77129Y111721D01*
X77551Y112142D01*
X77780Y112694D01*
Y113291D01*
X77551Y113842D01*
X77129Y114264D01*
X76578Y114492D01*
D02*
G37*
G36*
X219986Y111539D02*
X219389D01*
X218837Y111311D01*
X218416Y110889D01*
X218187Y110338D01*
Y109741D01*
X218416Y109190D01*
X218837Y108768D01*
X219389Y108539D01*
X219986D01*
X220537Y108768D01*
X220959Y109190D01*
X221187Y109741D01*
Y110338D01*
X220959Y110889D01*
X220537Y111311D01*
X219986Y111539D01*
D02*
G37*
G36*
X210532D02*
X209936D01*
X209384Y111311D01*
X208962Y110889D01*
X208734Y110338D01*
Y109741D01*
X208962Y109190D01*
X209384Y108768D01*
X209936Y108539D01*
X210532D01*
X211084Y108768D01*
X211506Y109190D01*
X211734Y109741D01*
Y110338D01*
X211506Y110889D01*
X211084Y111311D01*
X210532Y111539D01*
D02*
G37*
G36*
X82779Y110949D02*
X82182D01*
X81631Y110721D01*
X81209Y110299D01*
X80980Y109747D01*
Y109151D01*
X81209Y108599D01*
X81631Y108177D01*
X82182Y107949D01*
X82779D01*
X83330Y108177D01*
X83752Y108599D01*
X83980Y109151D01*
Y109747D01*
X83752Y110299D01*
X83330Y110721D01*
X82779Y110949D01*
D02*
G37*
G36*
X112528Y109949D02*
X111567D01*
X110639Y109700D01*
X109806Y109220D01*
X109127Y108540D01*
X108646Y107708D01*
X108500Y107162D01*
X107973Y107128D01*
X107965Y107149D01*
X107543Y107571D01*
X106991Y107799D01*
X106395D01*
X105843Y107571D01*
X105421Y107149D01*
X105193Y106598D01*
Y106001D01*
X105421Y105449D01*
X105843Y105028D01*
X106395Y104799D01*
X106991D01*
X107543Y105028D01*
X107965Y105449D01*
X107973Y105471D01*
X108500Y105436D01*
X108646Y104891D01*
X109127Y104058D01*
X109806Y103379D01*
X110639Y102898D01*
X111567Y102650D01*
X112528D01*
X113456Y102898D01*
X114288Y103379D01*
X114968Y104058D01*
X115448Y104891D01*
X115697Y105819D01*
Y106780D01*
X115448Y107708D01*
X114968Y108540D01*
X114288Y109220D01*
X113456Y109700D01*
X112528Y109949D01*
D02*
G37*
G36*
X180610Y107587D02*
X180020D01*
X179474Y107361D01*
X179057Y106943D01*
X178831Y106398D01*
Y105807D01*
X179057Y105262D01*
X179474Y104844D01*
X180020Y104618D01*
X180610D01*
X181156Y104844D01*
X181573Y105262D01*
X181799Y105807D01*
Y106398D01*
X181573Y106943D01*
X181156Y107361D01*
X180610Y107587D01*
D02*
G37*
G36*
X166437D02*
X165847D01*
X165301Y107361D01*
X164883Y106943D01*
X164657Y106398D01*
Y105807D01*
X164883Y105262D01*
X165301Y104844D01*
X165847Y104618D01*
X166437D01*
X166982Y104844D01*
X167400Y105262D01*
X167626Y105807D01*
Y106398D01*
X167400Y106943D01*
X166982Y107361D01*
X166437Y107587D01*
D02*
G37*
G36*
X77264D02*
X76673D01*
X76128Y107361D01*
X75710Y106943D01*
X75484Y106398D01*
Y105807D01*
X75710Y105262D01*
X76128Y104844D01*
X76673Y104618D01*
X77264D01*
X77809Y104844D01*
X78227Y105262D01*
X78453Y105807D01*
Y106398D01*
X78227Y106943D01*
X77809Y107361D01*
X77264Y107587D01*
D02*
G37*
G36*
X82976Y107405D02*
X82379D01*
X81827Y107177D01*
X81406Y106755D01*
X81177Y106204D01*
Y105607D01*
X81406Y105056D01*
X81827Y104634D01*
X82379Y104405D01*
X82976D01*
X83527Y104634D01*
X83949Y105056D01*
X84177Y105607D01*
Y106204D01*
X83949Y106755D01*
X83527Y107177D01*
X82976Y107405D01*
D02*
G37*
G36*
X152464Y112524D02*
X151867D01*
X151316Y112295D01*
X150894Y111873D01*
X150665Y111322D01*
Y110725D01*
X150894Y110174D01*
X151316Y109752D01*
X151394Y109719D01*
Y109178D01*
X151316Y109146D01*
X150894Y108724D01*
X150665Y108172D01*
Y107576D01*
X150894Y107024D01*
X151316Y106602D01*
X151394Y106570D01*
Y106029D01*
X151316Y105996D01*
X150894Y105574D01*
X150665Y105023D01*
Y104426D01*
X150894Y103875D01*
X151316Y103453D01*
X151867Y103224D01*
X152464D01*
X153015Y103453D01*
X153437Y103875D01*
X153665Y104426D01*
Y105023D01*
X153437Y105574D01*
X153015Y105996D01*
X152936Y106029D01*
Y106570D01*
X153015Y106602D01*
X153437Y107024D01*
X153665Y107576D01*
Y108172D01*
X153437Y108724D01*
X153015Y109146D01*
X152936Y109178D01*
Y109719D01*
X153015Y109752D01*
X153437Y110174D01*
X153665Y110725D01*
Y111322D01*
X153437Y111873D01*
X153015Y112295D01*
X152464Y112524D01*
D02*
G37*
G36*
X135697Y109949D02*
X128398D01*
Y102650D01*
X135697D01*
Y109949D01*
D02*
G37*
G36*
X122528D02*
X121567D01*
X120639Y109700D01*
X119806Y109220D01*
X119127Y108540D01*
X118646Y107708D01*
X118398Y106780D01*
Y105819D01*
X118646Y104891D01*
X119127Y104058D01*
X119806Y103379D01*
X120639Y102898D01*
X121567Y102650D01*
X122528D01*
X123456Y102898D01*
X124288Y103379D01*
X124968Y104058D01*
X125448Y104891D01*
X125697Y105819D01*
Y106780D01*
X125448Y107708D01*
X124968Y108540D01*
X124288Y109220D01*
X123456Y109700D01*
X122528Y109949D01*
D02*
G37*
G36*
X180610Y102862D02*
X180020D01*
X179474Y102636D01*
X179057Y102219D01*
X178831Y101673D01*
Y101083D01*
X179057Y100537D01*
X179474Y100120D01*
X180020Y99894D01*
X180610D01*
X181156Y100120D01*
X181573Y100537D01*
X181799Y101083D01*
Y101673D01*
X181573Y102219D01*
X181156Y102636D01*
X180610Y102862D01*
D02*
G37*
G36*
X175886D02*
X175295D01*
X174750Y102636D01*
X174332Y102219D01*
X174106Y101673D01*
Y101083D01*
X174332Y100537D01*
X174750Y100120D01*
X175295Y99894D01*
X175886D01*
X176431Y100120D01*
X176849Y100537D01*
X177075Y101083D01*
Y101673D01*
X176849Y102219D01*
X176431Y102636D01*
X175886Y102862D01*
D02*
G37*
G36*
X171161D02*
X170571D01*
X170025Y102636D01*
X169608Y102219D01*
X169382Y101673D01*
Y101083D01*
X169608Y100537D01*
X170025Y100120D01*
X170571Y99894D01*
X171161D01*
X171707Y100120D01*
X172124Y100537D01*
X172350Y101083D01*
Y101673D01*
X172124Y102219D01*
X171707Y102636D01*
X171161Y102862D01*
D02*
G37*
G36*
X166437D02*
X165847D01*
X165301Y102636D01*
X164883Y102219D01*
X164657Y101673D01*
Y101083D01*
X164883Y100537D01*
X165301Y100120D01*
X165847Y99894D01*
X166437D01*
X166982Y100120D01*
X167400Y100537D01*
X167626Y101083D01*
Y101673D01*
X167400Y102219D01*
X166982Y102636D01*
X166437Y102862D01*
D02*
G37*
G36*
X77264D02*
X76673D01*
X76128Y102636D01*
X75710Y102219D01*
X75484Y101673D01*
Y101083D01*
X75710Y100537D01*
X76128Y100120D01*
X76673Y99894D01*
X77264D01*
X77809Y100120D01*
X78227Y100537D01*
X78453Y101083D01*
Y101673D01*
X78227Y102219D01*
X77809Y102636D01*
X77264Y102862D01*
D02*
G37*
G36*
X72539D02*
X71949D01*
X71403Y102636D01*
X70986Y102219D01*
X70760Y101673D01*
Y101083D01*
X70986Y100537D01*
X71403Y100120D01*
X71949Y99894D01*
X72539D01*
X73085Y100120D01*
X73502Y100537D01*
X73728Y101083D01*
Y101673D01*
X73502Y102219D01*
X73085Y102636D01*
X72539Y102862D01*
D02*
G37*
G36*
X67815D02*
X67225D01*
X66679Y102636D01*
X66261Y102219D01*
X66035Y101673D01*
Y101083D01*
X66261Y100537D01*
X66679Y100120D01*
X67225Y99894D01*
X67815D01*
X68361Y100120D01*
X68778Y100537D01*
X69004Y101083D01*
Y101673D01*
X68778Y102219D01*
X68361Y102636D01*
X67815Y102862D01*
D02*
G37*
G36*
X63090D02*
X62500D01*
X61954Y102636D01*
X61537Y102219D01*
X61311Y101673D01*
Y101083D01*
X61537Y100537D01*
X61954Y100120D01*
X62500Y99894D01*
X63090D01*
X63636Y100120D01*
X64054Y100537D01*
X64280Y101083D01*
Y101673D01*
X64054Y102219D01*
X63636Y102636D01*
X63090Y102862D01*
D02*
G37*
G36*
X143015Y100319D02*
X142418D01*
X141867Y100091D01*
X141445Y99669D01*
X141217Y99117D01*
Y98520D01*
X141445Y97969D01*
X141867Y97547D01*
X142418Y97319D01*
X143015D01*
X143566Y97547D01*
X143988Y97969D01*
X144217Y98520D01*
Y99117D01*
X143988Y99669D01*
X143566Y100091D01*
X143015Y100319D01*
D02*
G37*
G36*
X153842Y98941D02*
X153245D01*
X152694Y98713D01*
X152272Y98291D01*
X152043Y97739D01*
Y97143D01*
X152272Y96591D01*
X152694Y96169D01*
X153245Y95941D01*
X153842D01*
X154393Y96169D01*
X154815Y96591D01*
X155043Y97143D01*
Y97739D01*
X154815Y98291D01*
X154393Y98713D01*
X153842Y98941D01*
D02*
G37*
G36*
X7582Y98350D02*
X6985D01*
X6434Y98122D01*
X6012Y97700D01*
X5784Y97149D01*
Y96552D01*
X6012Y96001D01*
X6434Y95579D01*
X6985Y95350D01*
X7582D01*
X8133Y95579D01*
X8555Y96001D01*
X8783Y96552D01*
Y97149D01*
X8555Y97700D01*
X8133Y98122D01*
X7582Y98350D01*
D02*
G37*
G36*
X166437Y98138D02*
X165847D01*
X165301Y97912D01*
X164883Y97494D01*
X164657Y96949D01*
Y96358D01*
X164883Y95813D01*
X164885Y95811D01*
X164678Y95311D01*
X150708D01*
X150456Y95563D01*
X149905Y95791D01*
X149308D01*
X148757Y95563D01*
X148335Y95141D01*
X148106Y94590D01*
Y93993D01*
X148335Y93442D01*
X148757Y93020D01*
X149308Y92791D01*
X149905D01*
X150456Y93020D01*
X150708Y93272D01*
X152003D01*
X152195Y92810D01*
X143956Y84571D01*
X143599D01*
X143048Y84342D01*
X142626Y83921D01*
X142398Y83369D01*
Y82772D01*
X142626Y82221D01*
X143048Y81799D01*
X143599Y81571D01*
X144196D01*
X144747Y81799D01*
X145169Y82221D01*
X145398Y82772D01*
Y83129D01*
X153966Y91697D01*
X160897D01*
X162772Y89822D01*
Y89465D01*
X163000Y88914D01*
X163422Y88492D01*
X163973Y88264D01*
X164570D01*
X165121Y88492D01*
X165225Y88595D01*
X165551Y88907D01*
X165878Y88595D01*
X165981Y88492D01*
X166532Y88264D01*
X167129D01*
X167680Y88492D01*
X167784Y88595D01*
X168110Y88907D01*
X168437Y88595D01*
X168540Y88492D01*
X169091Y88264D01*
X169688D01*
X170239Y88492D01*
X170661Y88914D01*
X170890Y89465D01*
Y90062D01*
X170661Y90614D01*
X170239Y91035D01*
X169688Y91264D01*
X169091D01*
X168540Y91035D01*
X168437Y90932D01*
X168333Y90833D01*
X167850Y91053D01*
Y92815D01*
X167773Y93205D01*
X167552Y93536D01*
X166418Y94669D01*
X166424Y94827D01*
X166570Y95224D01*
X166982Y95395D01*
X167400Y95813D01*
X167626Y96358D01*
Y96949D01*
X167400Y97494D01*
X166982Y97912D01*
X166437Y98138D01*
D02*
G37*
G36*
X180610D02*
X180020D01*
X179474Y97912D01*
X179057Y97494D01*
X178831Y96949D01*
Y96358D01*
X179057Y95813D01*
X179474Y95395D01*
X180020Y95169D01*
X180610D01*
X181156Y95395D01*
X181573Y95813D01*
X181799Y96358D01*
Y96949D01*
X181573Y97494D01*
X181156Y97912D01*
X180610Y98138D01*
D02*
G37*
G36*
X77264D02*
X76673D01*
X76128Y97912D01*
X75710Y97494D01*
X75484Y96949D01*
Y96358D01*
X75710Y95813D01*
X76128Y95395D01*
X76673Y95169D01*
X77264D01*
X77809Y95395D01*
X78227Y95813D01*
X78453Y96358D01*
Y96949D01*
X78227Y97494D01*
X77809Y97912D01*
X77264Y98138D01*
D02*
G37*
G36*
X63090D02*
X62500D01*
X61954Y97912D01*
X61537Y97494D01*
X61311Y96949D01*
Y96358D01*
X61537Y95813D01*
X61954Y95395D01*
X62500Y95169D01*
X63090D01*
X63636Y95395D01*
X64054Y95813D01*
X64280Y96358D01*
Y96949D01*
X64054Y97494D01*
X63636Y97912D01*
X63090Y98138D01*
D02*
G37*
G36*
X175886Y97547D02*
X175295D01*
X174750Y97321D01*
X174332Y96904D01*
X174106Y96358D01*
Y95768D01*
X174332Y95222D01*
X174750Y94805D01*
X175295Y94579D01*
X175886D01*
X176431Y94805D01*
X176849Y95222D01*
X177075Y95768D01*
Y96358D01*
X176849Y96904D01*
X176431Y97321D01*
X175886Y97547D01*
D02*
G37*
G36*
X171161D02*
X170571D01*
X170025Y97321D01*
X169608Y96904D01*
X169382Y96358D01*
Y95768D01*
X169608Y95222D01*
X170025Y94805D01*
X170571Y94579D01*
X171161D01*
X171707Y94805D01*
X172124Y95222D01*
X172350Y95768D01*
Y96358D01*
X172124Y96904D01*
X171707Y97321D01*
X171161Y97547D01*
D02*
G37*
G36*
X72539D02*
X71949D01*
X71403Y97321D01*
X70986Y96904D01*
X70760Y96358D01*
Y95768D01*
X70986Y95222D01*
X71403Y94805D01*
X71949Y94579D01*
X72539D01*
X73085Y94805D01*
X73502Y95222D01*
X73728Y95768D01*
Y96358D01*
X73502Y96904D01*
X73085Y97321D01*
X72539Y97547D01*
D02*
G37*
G36*
X67815D02*
X67225D01*
X66679Y97321D01*
X66261Y96904D01*
X66035Y96358D01*
Y95768D01*
X66261Y95222D01*
X66679Y94805D01*
X67225Y94579D01*
X67815D01*
X68361Y94805D01*
X68778Y95222D01*
X69004Y95768D01*
Y96358D01*
X68778Y96904D01*
X68361Y97321D01*
X67815Y97547D01*
D02*
G37*
G36*
X182483Y91264D02*
X181887D01*
X181335Y91035D01*
X181232Y90932D01*
X180905Y90621D01*
X180579Y90932D01*
X180476Y91035D01*
X179924Y91264D01*
X179328D01*
X178776Y91035D01*
X178354Y90614D01*
X178126Y90062D01*
Y89465D01*
X178354Y88914D01*
X178776Y88492D01*
X179328Y88264D01*
X179924D01*
X180476Y88492D01*
X180579Y88595D01*
X180905Y88907D01*
X181232Y88595D01*
X181335Y88492D01*
X181887Y88264D01*
X182483D01*
X183035Y88492D01*
X183457Y88914D01*
X183685Y89465D01*
Y90062D01*
X183457Y90614D01*
X183035Y91035D01*
X182483Y91264D01*
D02*
G37*
G36*
X79137D02*
X78540D01*
X77989Y91035D01*
X77886Y90932D01*
X77559Y90621D01*
X77232Y90932D01*
X77129Y91035D01*
X76578Y91264D01*
X75981D01*
X75430Y91035D01*
X75008Y90614D01*
X74779Y90062D01*
Y89465D01*
X75008Y88914D01*
X75430Y88492D01*
X75981Y88264D01*
X76578D01*
X77129Y88492D01*
X77232Y88595D01*
X77559Y88907D01*
X77886Y88595D01*
X77989Y88492D01*
X78540Y88264D01*
X79137D01*
X79688Y88492D01*
X80110Y88914D01*
X80339Y89465D01*
Y90062D01*
X80110Y90614D01*
X79688Y91035D01*
X79137Y91264D01*
D02*
G37*
G36*
X66342D02*
X65745D01*
X65194Y91035D01*
X65090Y90932D01*
X64764Y90621D01*
X64437Y90932D01*
X64334Y91035D01*
X63783Y91264D01*
X63186D01*
X62635Y91035D01*
X62531Y90932D01*
X62205Y90621D01*
X61878Y90932D01*
X61775Y91035D01*
X61224Y91264D01*
X60627D01*
X60075Y91035D01*
X59654Y90614D01*
X59425Y90062D01*
Y89465D01*
X59654Y88914D01*
X60075Y88492D01*
X60627Y88264D01*
X61224D01*
X61775Y88492D01*
X61878Y88595D01*
X62205Y88907D01*
X62531Y88595D01*
X62635Y88492D01*
X63186Y88264D01*
X63783D01*
X64334Y88492D01*
X64437Y88595D01*
X64764Y88907D01*
X65090Y88595D01*
X65194Y88492D01*
X65745Y88264D01*
X66342D01*
X66893Y88492D01*
X67315Y88914D01*
X67543Y89465D01*
Y90062D01*
X67315Y90614D01*
X66893Y91035D01*
X66342Y91264D01*
D02*
G37*
G36*
X94787Y90870D02*
X94190D01*
X93638Y90642D01*
X93217Y90220D01*
X92988Y89668D01*
Y89072D01*
X93217Y88520D01*
X93638Y88098D01*
X94190Y87870D01*
X94787D01*
X95338Y88098D01*
X95760Y88520D01*
X95988Y89072D01*
Y89668D01*
X95760Y90220D01*
X95338Y90642D01*
X94787Y90870D01*
D02*
G37*
G36*
X220771Y88114D02*
X220174D01*
X219623Y87886D01*
X219201Y87464D01*
X218972Y86913D01*
Y86316D01*
X219201Y85764D01*
X219623Y85343D01*
X220174Y85114D01*
X220771D01*
X221322Y85343D01*
X221744Y85764D01*
X221972Y86316D01*
Y86913D01*
X221744Y87464D01*
X221322Y87886D01*
X220771Y88114D01*
D02*
G37*
G36*
X214865Y88114D02*
X214269D01*
X213717Y87886D01*
X213295Y87464D01*
X213067Y86913D01*
Y86316D01*
X213295Y85764D01*
X213717Y85343D01*
X214269Y85114D01*
X214865D01*
X215417Y85343D01*
X215839Y85764D01*
X216067Y86316D01*
Y86913D01*
X215839Y87464D01*
X215417Y87886D01*
X214865Y88114D01*
D02*
G37*
G36*
X191918Y90902D02*
X190996D01*
X190106Y90663D01*
X189308Y90202D01*
X188656Y89551D01*
X188195Y88753D01*
X187957Y87862D01*
Y86941D01*
X188195Y86051D01*
X188656Y85252D01*
X189308Y84601D01*
X190106Y84140D01*
X190996Y83902D01*
X191918D01*
X192808Y84140D01*
X193606Y84601D01*
X194257Y85252D01*
X194718Y86051D01*
X194957Y86941D01*
Y87862D01*
X194718Y88753D01*
X194257Y89551D01*
X193606Y90202D01*
X192808Y90663D01*
X191918Y90902D01*
D02*
G37*
G36*
X94787Y87130D02*
X94190D01*
X93638Y86902D01*
X93217Y86480D01*
X92988Y85928D01*
Y85332D01*
X93217Y84780D01*
X93638Y84358D01*
X94190Y84130D01*
X94727D01*
X94849Y83974D01*
X94972Y83668D01*
X94791Y83487D01*
X94563Y82936D01*
Y82339D01*
X94791Y81788D01*
X95213Y81366D01*
X95765Y81138D01*
X96361D01*
X96913Y81366D01*
X97335Y81788D01*
X97563Y82339D01*
Y82936D01*
X97335Y83487D01*
X96913Y83909D01*
X96361Y84138D01*
X95824D01*
X95702Y84293D01*
X95579Y84600D01*
X95760Y84780D01*
X95988Y85332D01*
Y85928D01*
X95760Y86480D01*
X95338Y86902D01*
X94787Y87130D01*
D02*
G37*
G36*
X204240Y85783D02*
X203319D01*
X202429Y85545D01*
X201630Y85084D01*
X200979Y84433D01*
X200518Y83634D01*
X200279Y82744D01*
Y81823D01*
X200518Y80932D01*
X200979Y80134D01*
X201630Y79483D01*
X202429Y79022D01*
X203319Y78784D01*
X204240D01*
X205131Y79022D01*
X205929Y79483D01*
X206580Y80134D01*
X207041Y80932D01*
X207279Y81823D01*
Y82744D01*
X207041Y83634D01*
X206580Y84433D01*
X205929Y85084D01*
X205131Y85545D01*
X204240Y85783D01*
D02*
G37*
G36*
X195377Y80437D02*
X194780D01*
X194229Y80209D01*
X193807Y79787D01*
X193579Y79235D01*
Y78639D01*
X193807Y78087D01*
X194229Y77665D01*
X194780Y77437D01*
X195377D01*
X195543Y77506D01*
X196043Y77363D01*
X196272Y76812D01*
X196694Y76390D01*
X197245Y76161D01*
X197842D01*
X198393Y76390D01*
X198815Y76812D01*
X199043Y77363D01*
Y77960D01*
X198815Y78511D01*
X198393Y78933D01*
X197842Y79161D01*
X197245D01*
X197079Y79093D01*
X196579Y79235D01*
X196350Y79787D01*
X195928Y80209D01*
X195377Y80437D01*
D02*
G37*
G36*
X124905Y77681D02*
X124308D01*
X123757Y77453D01*
X123335Y77031D01*
X123106Y76480D01*
Y75883D01*
X123335Y75331D01*
X123757Y74910D01*
X124308Y74681D01*
X124905D01*
X125456Y74910D01*
X125878Y75331D01*
X126106Y75883D01*
Y76480D01*
X125878Y77031D01*
X125456Y77453D01*
X124905Y77681D01*
D02*
G37*
G36*
X28721Y78399D02*
X22815D01*
X21929Y78223D01*
X21177Y77720D01*
X20675Y76969D01*
X20499Y76083D01*
X20675Y75196D01*
X21177Y74445D01*
X21929Y73943D01*
X22815Y73766D01*
X28721D01*
X29607Y73943D01*
X30358Y74445D01*
X30860Y75196D01*
X31037Y76083D01*
X30860Y76969D01*
X30358Y77720D01*
X29607Y78223D01*
X28721Y78399D01*
D02*
G37*
G36*
X14035D02*
X10886D01*
X10000Y78223D01*
X9248Y77720D01*
X8746Y76969D01*
X8570Y76083D01*
X8746Y75196D01*
X9248Y74445D01*
X10000Y73943D01*
X10886Y73766D01*
X14035D01*
X14922Y73943D01*
X15673Y74445D01*
X16175Y75196D01*
X16352Y76083D01*
X16175Y76969D01*
X15673Y77720D01*
X14922Y78223D01*
X14035Y78399D01*
D02*
G37*
G36*
X98724Y75910D02*
X98127D01*
X97575Y75681D01*
X97154Y75259D01*
X96925Y74708D01*
Y74111D01*
X97154Y73560D01*
X97575Y73138D01*
X98127Y72909D01*
X98724D01*
X99275Y73138D01*
X99697Y73560D01*
X99925Y74111D01*
Y74708D01*
X99697Y75259D01*
X99275Y75681D01*
X98724Y75910D01*
D02*
G37*
G36*
X184157Y72071D02*
X183560D01*
X183009Y71842D01*
X182905Y71739D01*
X182579Y71428D01*
X182252Y71739D01*
X182149Y71842D01*
X181598Y72071D01*
X181001D01*
X180449Y71842D01*
X180346Y71739D01*
X180020Y71428D01*
X179693Y71739D01*
X179590Y71842D01*
X179039Y72071D01*
X178442D01*
X177891Y71842D01*
X177469Y71421D01*
X177240Y70869D01*
Y70272D01*
X177469Y69721D01*
X177891Y69299D01*
X178442Y69071D01*
X179039D01*
X179590Y69299D01*
X179693Y69402D01*
X180020Y69714D01*
X180346Y69402D01*
X180449Y69299D01*
X181001Y69071D01*
X181598D01*
X182149Y69299D01*
X182252Y69402D01*
X182579Y69714D01*
X182905Y69402D01*
X183009Y69299D01*
X183560Y69071D01*
X184157D01*
X184708Y69299D01*
X185130Y69721D01*
X185358Y70272D01*
Y70869D01*
X185130Y71421D01*
X184708Y71842D01*
X184157Y72071D01*
D02*
G37*
G36*
X43606Y73941D02*
X43009D01*
X42457Y73713D01*
X42035Y73291D01*
X41807Y72739D01*
Y72143D01*
X42035Y71591D01*
X42457Y71169D01*
X43009Y70941D01*
X43606D01*
X44157Y71169D01*
X44579Y71591D01*
X44807Y72143D01*
Y72739D01*
X44579Y73291D01*
X44157Y73713D01*
X43606Y73941D01*
D02*
G37*
G36*
X60141Y73350D02*
X59544D01*
X58993Y73122D01*
X58571Y72700D01*
X58342Y72149D01*
Y71552D01*
X58571Y71001D01*
X58993Y70579D01*
X59544Y70350D01*
X60141D01*
X60692Y70579D01*
X61114Y71001D01*
X61343Y71552D01*
Y72149D01*
X61114Y72700D01*
X60692Y73122D01*
X60141Y73350D01*
D02*
G37*
G36*
X173920Y72071D02*
X173324D01*
X172772Y71842D01*
X172350Y71421D01*
X172122Y70869D01*
Y70272D01*
X172350Y69721D01*
X172772Y69299D01*
X173324Y69071D01*
X173920D01*
X174472Y69299D01*
X174894Y69721D01*
X175122Y70272D01*
Y70869D01*
X174894Y71421D01*
X174472Y71842D01*
X173920Y72071D01*
D02*
G37*
G36*
X67228Y73909D02*
X66631D01*
X66079Y73681D01*
X65658Y73259D01*
X65429Y72708D01*
Y72111D01*
X65658Y71560D01*
X66072Y71146D01*
X65658Y70732D01*
X65429Y70180D01*
Y69583D01*
X65658Y69032D01*
X66079Y68610D01*
X66631Y68382D01*
X67228D01*
X67779Y68610D01*
X68201Y69032D01*
X68429Y69583D01*
Y70180D01*
X68201Y70732D01*
X67787Y71146D01*
X68201Y71560D01*
X68429Y72111D01*
Y72708D01*
X68201Y73259D01*
X67779Y73681D01*
X67228Y73909D01*
D02*
G37*
G36*
X232283Y82825D02*
X210630D01*
X210247Y82666D01*
X210089Y82284D01*
X210089Y76141D01*
X210089Y76141D01*
X210247Y75758D01*
X210601Y75405D01*
X210983Y75246D01*
X210983Y75246D01*
X214652Y75246D01*
X214986Y74833D01*
X215010Y74746D01*
Y69122D01*
X212597Y66708D01*
X212241Y66738D01*
X211933Y67221D01*
Y67818D01*
X211705Y68369D01*
X211283Y68791D01*
X210731Y69020D01*
X210135D01*
X209583Y68791D01*
X209161Y68369D01*
X208933Y67818D01*
Y67221D01*
X209031Y66986D01*
X208696Y66486D01*
X196731D01*
X196539Y66948D01*
X199934Y70342D01*
X200155Y70673D01*
X200232Y71063D01*
Y73111D01*
X200484Y73363D01*
X200713Y73914D01*
Y74511D01*
X200484Y75062D01*
X200062Y75484D01*
X199511Y75713D01*
X198914D01*
X198363Y75484D01*
X197941Y75062D01*
X197908Y74984D01*
X197367D01*
X197335Y75062D01*
X196913Y75484D01*
X196361Y75713D01*
X195765D01*
X195213Y75484D01*
X194791Y75062D01*
X194563Y74511D01*
Y73914D01*
X194791Y73363D01*
X195043Y73111D01*
Y70501D01*
X191799Y67256D01*
X191578Y66926D01*
X191500Y66535D01*
Y65580D01*
X189932Y64012D01*
X184843D01*
X184452Y63934D01*
X184122Y63713D01*
X172901Y52493D01*
X172680Y52162D01*
X172602Y51772D01*
Y48641D01*
X172350Y48389D01*
X172122Y47838D01*
Y47241D01*
X172350Y46690D01*
X172772Y46268D01*
X173324Y46039D01*
X173920D01*
X174472Y46268D01*
X174575Y46371D01*
X174902Y46682D01*
X175228Y46371D01*
X175331Y46268D01*
X175883Y46039D01*
X176479D01*
X177031Y46268D01*
X177134Y46371D01*
X177238Y46470D01*
X177721Y46250D01*
Y45276D01*
X177798Y44885D01*
X178019Y44555D01*
X179397Y43177D01*
X179728Y42956D01*
X180118Y42878D01*
X187599D01*
X187934Y42378D01*
X187850Y42175D01*
Y41579D01*
X188078Y41027D01*
X188500Y40606D01*
X189051Y40377D01*
X189648D01*
X190199Y40606D01*
X190621Y41027D01*
X190850Y41579D01*
Y42175D01*
X190766Y42378D01*
X191100Y42878D01*
X194961D01*
X195213Y42626D01*
X195765Y42398D01*
X196361D01*
X196913Y42626D01*
X197335Y43048D01*
X197367Y43127D01*
X197908D01*
X197941Y43048D01*
X198363Y42626D01*
X198914Y42398D01*
X199511D01*
X200062Y42626D01*
X200484Y43048D01*
X200713Y43599D01*
Y44196D01*
X200484Y44747D01*
X200232Y44999D01*
Y47638D01*
X200155Y48028D01*
X199934Y48359D01*
X198359Y49934D01*
X198028Y50155D01*
X197638Y50232D01*
X189326D01*
X189053Y50732D01*
X189197Y51080D01*
Y51676D01*
X188969Y52228D01*
X188547Y52650D01*
X187995Y52878D01*
X187399D01*
X186847Y52650D01*
X186425Y52228D01*
X186197Y51676D01*
Y51582D01*
X185932Y51418D01*
X185697Y51354D01*
X185430Y51533D01*
X185039Y51610D01*
X182087D01*
X181696Y51533D01*
X181366Y51311D01*
X180578Y50524D01*
X180357Y50193D01*
X180280Y49803D01*
Y48828D01*
X179797Y48609D01*
X179693Y48708D01*
X179590Y48811D01*
X179039Y49039D01*
X178442D01*
X177891Y48811D01*
X177787Y48708D01*
X177683Y48609D01*
X177201Y48828D01*
Y51546D01*
X185783Y60128D01*
X185962Y60094D01*
X186269Y59527D01*
X186197Y59354D01*
Y58757D01*
X186425Y58205D01*
X186847Y57784D01*
X187399Y57555D01*
X187995D01*
X188547Y57784D01*
X188969Y58205D01*
X189197Y58757D01*
Y59354D01*
X188969Y59905D01*
X189183Y60398D01*
X190945D01*
X191335Y60475D01*
X191666Y60696D01*
X194816Y63846D01*
X194825Y63860D01*
X195325Y63709D01*
Y60039D01*
X195483Y59657D01*
X195866Y59498D01*
X218307D01*
X218307Y59498D01*
X218690Y59657D01*
X224792Y65759D01*
X224951Y66142D01*
X224951Y66142D01*
Y74803D01*
X225308Y75246D01*
X232283D01*
X232666Y75405D01*
X232825Y75787D01*
Y82284D01*
X232666Y82666D01*
X232283Y82825D01*
D02*
G37*
G36*
X70968Y69382D02*
X70371D01*
X69820Y69153D01*
X69398Y68732D01*
X69169Y68180D01*
Y67584D01*
X69398Y67032D01*
X69820Y66610D01*
X70371Y66382D01*
X70968D01*
X71519Y66610D01*
X71941Y67032D01*
X72169Y67584D01*
Y68180D01*
X71941Y68732D01*
X71519Y69153D01*
X70968Y69382D01*
D02*
G37*
G36*
X141243Y68429D02*
X140647D01*
X140095Y68201D01*
X139673Y67779D01*
X139445Y67228D01*
Y66631D01*
X139673Y66079D01*
X140095Y65658D01*
X140647Y65429D01*
X141243D01*
X141795Y65658D01*
X142217Y66079D01*
X142445Y66631D01*
Y67228D01*
X142217Y67779D01*
X141795Y68201D01*
X141243Y68429D01*
D02*
G37*
G36*
X100495D02*
X99898D01*
X99347Y68201D01*
X98925Y67779D01*
X98697Y67228D01*
Y66631D01*
X98925Y66079D01*
X99347Y65658D01*
X99898Y65429D01*
X100495D01*
X101047Y65658D01*
X101469Y66079D01*
X101697Y66631D01*
Y67228D01*
X101469Y67779D01*
X101047Y68201D01*
X100495Y68429D01*
D02*
G37*
G36*
X50298Y68232D02*
X49702D01*
X49150Y68004D01*
X48728Y67582D01*
X48500Y67031D01*
Y66434D01*
X48728Y65883D01*
X49150Y65461D01*
X49702Y65232D01*
X50298D01*
X50850Y65461D01*
X51272Y65883D01*
X51500Y66434D01*
Y67031D01*
X51272Y67582D01*
X50850Y68004D01*
X50298Y68232D01*
D02*
G37*
G36*
X95771Y68035D02*
X95174D01*
X94623Y67807D01*
X94201Y67385D01*
X93972Y66834D01*
Y66237D01*
X94201Y65686D01*
X94623Y65264D01*
X95174Y65035D01*
X95771D01*
X96322Y65264D01*
X96744Y65686D01*
X96972Y66237D01*
Y66834D01*
X96744Y67385D01*
X96322Y67807D01*
X95771Y68035D01*
D02*
G37*
G36*
X82385Y67445D02*
X81788D01*
X81237Y67216D01*
X80815Y66795D01*
X80587Y66243D01*
Y65646D01*
X80815Y65095D01*
X81237Y64673D01*
X81788Y64445D01*
X82385D01*
X82936Y64673D01*
X83358Y65095D01*
X83587Y65646D01*
Y66243D01*
X83358Y66795D01*
X82936Y67216D01*
X82385Y67445D01*
D02*
G37*
G36*
X118409Y66835D02*
X117812D01*
X117261Y66606D01*
X116839Y66184D01*
X116610Y65633D01*
Y65036D01*
X116839Y64485D01*
X117261Y64063D01*
X117812Y63835D01*
X118409D01*
X118960Y64063D01*
X119382Y64485D01*
X119610Y65036D01*
Y65633D01*
X119382Y66184D01*
X118960Y66606D01*
X118409Y66835D01*
D02*
G37*
G36*
X143605Y65673D02*
X143009D01*
X142457Y65445D01*
X142035Y65023D01*
X141807Y64472D01*
Y63875D01*
X142035Y63324D01*
X142457Y62902D01*
X143009Y62673D01*
X143605D01*
X144157Y62902D01*
X144579Y63324D01*
X144807Y63875D01*
Y64472D01*
X144579Y65023D01*
X144157Y65445D01*
X143605Y65673D01*
D02*
G37*
G36*
X148133Y80240D02*
X147536D01*
X146985Y80012D01*
X146563Y79590D01*
X146335Y79039D01*
Y78442D01*
X146563Y77890D01*
X146985Y77469D01*
X147536Y77240D01*
X147640D01*
X147847Y76740D01*
X147744Y76637D01*
X147516Y76086D01*
Y75489D01*
X147744Y74938D01*
X148166Y74516D01*
X148717Y74287D01*
X149314D01*
X149865Y74516D01*
X150118Y74768D01*
X173397D01*
X174476Y73689D01*
X174807Y73467D01*
X175197Y73390D01*
X184420D01*
X186677Y71133D01*
Y70491D01*
X186425Y70239D01*
X186197Y69688D01*
Y69091D01*
X186425Y68540D01*
X186713Y68252D01*
X186524Y67752D01*
X172638D01*
X172248Y67674D01*
X171917Y67453D01*
X167097Y62634D01*
X165954D01*
X165747Y63134D01*
X165937Y63324D01*
X166165Y63875D01*
Y64472D01*
X165937Y65023D01*
X165834Y65126D01*
X165523Y65453D01*
X165834Y65779D01*
X165937Y65883D01*
X166165Y66434D01*
Y67031D01*
X165937Y67582D01*
X165515Y68004D01*
X164964Y68232D01*
X164367D01*
X163816Y68004D01*
X163394Y67582D01*
X163165Y67031D01*
Y66434D01*
X163394Y65883D01*
X163497Y65779D01*
X163808Y65453D01*
X163497Y65126D01*
X163394Y65023D01*
X163165Y64472D01*
Y63875D01*
X163394Y63324D01*
X163584Y63134D01*
X163376Y62634D01*
X151772D01*
X151382Y62556D01*
X151051Y62335D01*
X147507Y58792D01*
X147286Y58461D01*
X147209Y58071D01*
Y51299D01*
X146957Y51047D01*
X146728Y50495D01*
Y49898D01*
X146957Y49347D01*
X147379Y48925D01*
X147930Y48697D01*
X148527D01*
X149078Y48925D01*
X149500Y49347D01*
X149728Y49898D01*
Y50495D01*
X149500Y51047D01*
X149248Y51299D01*
Y57648D01*
X152194Y60595D01*
X163376D01*
X163584Y60095D01*
X163394Y59905D01*
X163165Y59354D01*
Y58757D01*
X163394Y58205D01*
X163497Y58102D01*
X163808Y57776D01*
X163497Y57449D01*
X163394Y57346D01*
X163165Y56794D01*
Y56198D01*
X163394Y55646D01*
X163497Y55543D01*
X163808Y55216D01*
X163497Y54890D01*
X163394Y54787D01*
X163165Y54235D01*
Y53639D01*
X163394Y53087D01*
X163497Y52984D01*
X163808Y52658D01*
X163497Y52331D01*
X163394Y52228D01*
X163165Y51676D01*
Y51080D01*
X163394Y50528D01*
X163816Y50106D01*
X164367Y49878D01*
X164964D01*
X165515Y50106D01*
X165937Y50528D01*
X166165Y51080D01*
Y51676D01*
X165937Y52228D01*
X165834Y52331D01*
X165523Y52658D01*
X165834Y52984D01*
X165937Y53087D01*
X166165Y53639D01*
Y54235D01*
X165937Y54787D01*
X165834Y54890D01*
X165523Y55216D01*
X165834Y55543D01*
X165937Y55646D01*
X166165Y56198D01*
Y56794D01*
X165937Y57346D01*
X165834Y57449D01*
X165523Y57776D01*
X165834Y58102D01*
X165937Y58205D01*
X166165Y58757D01*
Y59354D01*
X165937Y59905D01*
X165747Y60095D01*
X165954Y60595D01*
X167520D01*
X167910Y60672D01*
X168241Y60893D01*
X173060Y65713D01*
X188386D01*
X188776Y65790D01*
X189107Y66011D01*
X191280Y68185D01*
X191637D01*
X192188Y68413D01*
X192610Y68835D01*
X192839Y69387D01*
Y69983D01*
X192610Y70535D01*
X192483Y70662D01*
X192478Y70705D01*
X192629Y71223D01*
X192976Y71366D01*
X193398Y71788D01*
X193626Y72339D01*
Y72936D01*
X193398Y73488D01*
X192976Y73909D01*
X192424Y74138D01*
X191828D01*
X191276Y73909D01*
X190854Y73488D01*
X190626Y72936D01*
Y72339D01*
X190854Y71788D01*
X190982Y71661D01*
X190987Y71618D01*
X190835Y71100D01*
X190489Y70957D01*
X190067Y70535D01*
X189839Y69983D01*
Y69967D01*
X189659Y69846D01*
X189053Y70036D01*
X188969Y70239D01*
X188716Y70491D01*
Y71555D01*
X188639Y71945D01*
X188418Y72276D01*
X185564Y75130D01*
X185233Y75351D01*
X184843Y75429D01*
X175619D01*
X174540Y76508D01*
X174209Y76729D01*
X173819Y76807D01*
X150118D01*
X149865Y77059D01*
X149314Y77287D01*
X149210D01*
X149003Y77787D01*
X149106Y77890D01*
X149335Y78442D01*
Y79039D01*
X149106Y79590D01*
X148684Y80012D01*
X148133Y80240D01*
D02*
G37*
G36*
X229826Y65476D02*
X229229D01*
X228678Y65248D01*
X228256Y64826D01*
X228028Y64275D01*
Y63678D01*
X228256Y63127D01*
X228678Y62705D01*
X229229Y62476D01*
X229826D01*
X230377Y62705D01*
X230799Y63127D01*
X231028Y63678D01*
Y64275D01*
X230799Y64826D01*
X230377Y65248D01*
X229826Y65476D01*
D02*
G37*
G36*
X106598Y68429D02*
X106001D01*
X105449Y68201D01*
X105028Y67779D01*
X104799Y67228D01*
Y66631D01*
X105028Y66079D01*
X105356Y65751D01*
X105412Y65453D01*
X105356Y65155D01*
X105028Y64826D01*
X104799Y64275D01*
Y63678D01*
X105028Y63127D01*
X105449Y62705D01*
X106001Y62476D01*
X106598D01*
X107149Y62705D01*
X107571Y63127D01*
X107799Y63678D01*
Y64275D01*
X107571Y64826D01*
X107242Y65155D01*
X107187Y65453D01*
X107242Y65751D01*
X107571Y66079D01*
X107799Y66631D01*
Y67228D01*
X107571Y67779D01*
X107149Y68201D01*
X106598Y68429D01*
D02*
G37*
G36*
X80417Y64295D02*
X79820D01*
X79268Y64067D01*
X78847Y63645D01*
X78618Y63094D01*
Y62497D01*
X78847Y61946D01*
X79268Y61524D01*
X79820Y61295D01*
X80417D01*
X80677Y61403D01*
X81112Y61327D01*
X81250Y61140D01*
X81406Y60764D01*
X81827Y60343D01*
X82379Y60114D01*
X82976D01*
X83527Y60343D01*
X83949Y60764D01*
X84177Y61316D01*
Y61913D01*
X83949Y62464D01*
X83527Y62886D01*
X82976Y63114D01*
X82379D01*
X82118Y63006D01*
X81683Y63082D01*
X81546Y63269D01*
X81390Y63645D01*
X80968Y64067D01*
X80417Y64295D01*
D02*
G37*
G36*
X95180Y62327D02*
X94583D01*
X94032Y62098D01*
X93610Y61676D01*
X93382Y61125D01*
Y60528D01*
X93610Y59977D01*
X94032Y59555D01*
X94583Y59327D01*
X95180D01*
X95732Y59555D01*
X96153Y59977D01*
X96382Y60528D01*
Y61125D01*
X96153Y61676D01*
X95732Y62098D01*
X95180Y62327D01*
D02*
G37*
G36*
X235731Y60555D02*
X235135D01*
X234583Y60327D01*
X234161Y59905D01*
X233933Y59354D01*
Y58757D01*
X234161Y58205D01*
X234583Y57784D01*
X235135Y57555D01*
X235731D01*
X236283Y57784D01*
X236705Y58205D01*
X236933Y58757D01*
Y59354D01*
X236705Y59905D01*
X236283Y60327D01*
X235731Y60555D01*
D02*
G37*
G36*
X222502D02*
X221906D01*
X221354Y60327D01*
X220933Y59905D01*
X220704Y59354D01*
Y58757D01*
X220933Y58205D01*
X221354Y57784D01*
X221906Y57555D01*
X222502D01*
X223054Y57784D01*
X223476Y58205D01*
X223704Y58757D01*
Y59354D01*
X223476Y59905D01*
X223054Y60327D01*
X222502Y60555D01*
D02*
G37*
G36*
X176479D02*
X175883D01*
X175331Y60327D01*
X174909Y59905D01*
X174681Y59354D01*
Y58757D01*
X174909Y58205D01*
X175331Y57784D01*
X175883Y57555D01*
X176479D01*
X177031Y57784D01*
X177453Y58205D01*
X177681Y58757D01*
Y59354D01*
X177453Y59905D01*
X177031Y60327D01*
X176479Y60555D01*
D02*
G37*
G36*
X45082Y62228D02*
X44485D01*
X43934Y62000D01*
X43512Y61578D01*
X43284Y61027D01*
Y60430D01*
X43512Y59879D01*
X43934Y59457D01*
X44206Y59344D01*
X44201Y58805D01*
X43835Y58653D01*
X43413Y58232D01*
X43185Y57680D01*
Y57083D01*
X43362Y56656D01*
X43084Y56292D01*
X43029Y56252D01*
X42621Y56421D01*
X42024D01*
X41473Y56193D01*
X41051Y55771D01*
X40823Y55220D01*
Y54623D01*
X41051Y54072D01*
X41473Y53650D01*
X42024Y53421D01*
X42621D01*
X43172Y53650D01*
X43595Y54072D01*
X43823Y54623D01*
Y55220D01*
X43646Y55648D01*
X43924Y56011D01*
X43979Y56051D01*
X44387Y55882D01*
X44983D01*
X45535Y56110D01*
X45957Y56532D01*
X46185Y57083D01*
Y57680D01*
X45957Y58232D01*
X45535Y58653D01*
X45262Y58766D01*
X45268Y59305D01*
X45633Y59457D01*
X46055Y59879D01*
X46284Y60430D01*
Y61027D01*
X46055Y61578D01*
X45633Y62000D01*
X45082Y62228D01*
D02*
G37*
G36*
X229826Y55831D02*
X229229D01*
X228678Y55602D01*
X228256Y55180D01*
X228028Y54629D01*
Y54032D01*
X228256Y53481D01*
X228678Y53059D01*
X229229Y52831D01*
X229826D01*
X230377Y53059D01*
X230799Y53481D01*
X231028Y54032D01*
Y54629D01*
X230799Y55180D01*
X230377Y55602D01*
X229826Y55831D01*
D02*
G37*
G36*
X98724Y54650D02*
X98127D01*
X97575Y54421D01*
X97154Y53999D01*
X96925Y53448D01*
Y52851D01*
X97154Y52300D01*
X97575Y51878D01*
X98127Y51650D01*
X98724D01*
X99275Y51878D01*
X99697Y52300D01*
X99925Y52851D01*
Y53448D01*
X99697Y53999D01*
X99275Y54421D01*
X98724Y54650D01*
D02*
G37*
G36*
X69983Y50713D02*
X69387D01*
X68835Y50484D01*
X68576Y50225D01*
X68258Y50116D01*
X67940Y50225D01*
X67680Y50484D01*
X67129Y50713D01*
X66532D01*
X65981Y50484D01*
X65559Y50062D01*
X65331Y49511D01*
Y48914D01*
X65559Y48363D01*
X65981Y47941D01*
X66532Y47713D01*
X67129D01*
X67680Y47941D01*
X67940Y48200D01*
X68258Y48309D01*
X68576Y48200D01*
X68835Y47941D01*
X69387Y47713D01*
X69983D01*
X70535Y47941D01*
X70957Y48363D01*
X71185Y48914D01*
Y49511D01*
X70957Y50062D01*
X70535Y50484D01*
X69983Y50713D01*
D02*
G37*
G36*
X45574Y51500D02*
X44977D01*
X44426Y51272D01*
X44004Y50850D01*
X43776Y50298D01*
Y49702D01*
X44004Y49150D01*
X44426Y48728D01*
X44977Y48500D01*
X45574D01*
X46125Y48728D01*
X46547Y49150D01*
X46776Y49702D01*
Y50298D01*
X46547Y50850D01*
X46125Y51272D01*
X45574Y51500D01*
D02*
G37*
G36*
X31405Y72547D02*
X27847D01*
Y68988D01*
X27969D01*
X28176Y68488D01*
X28117Y68429D01*
X27847Y67775D01*
Y67067D01*
X28117Y66413D01*
X28468Y66062D01*
X28567Y65748D01*
X28468Y65434D01*
X28117Y65083D01*
X27847Y64429D01*
Y63721D01*
X28117Y63067D01*
X28468Y62716D01*
X28567Y62402D01*
X28468Y62087D01*
X28117Y61736D01*
X27847Y61082D01*
Y60374D01*
X28117Y59720D01*
X28468Y59370D01*
X28567Y59055D01*
X28468Y58741D01*
X28117Y58390D01*
X27847Y57736D01*
Y57028D01*
X28117Y56374D01*
X28468Y56023D01*
X28567Y55709D01*
X28468Y55394D01*
X28117Y55043D01*
X27847Y54389D01*
Y53681D01*
X28117Y53027D01*
X28468Y52677D01*
X28567Y52362D01*
X28468Y52048D01*
X28117Y51697D01*
X27847Y51043D01*
Y50335D01*
X28117Y49681D01*
X28468Y49330D01*
X28567Y49016D01*
X28468Y48701D01*
X28117Y48351D01*
X27847Y47697D01*
Y46988D01*
X28117Y46334D01*
X28618Y45834D01*
X29272Y45563D01*
X29980D01*
X30634Y45834D01*
X31135Y46334D01*
X31405Y46988D01*
Y47697D01*
X31135Y48351D01*
X30784Y48701D01*
X30685Y49016D01*
X30784Y49330D01*
X31135Y49681D01*
X31405Y50335D01*
Y51043D01*
X31135Y51697D01*
X30784Y52048D01*
X30685Y52362D01*
X30784Y52677D01*
X31135Y53027D01*
X31405Y53681D01*
Y54389D01*
X31135Y55043D01*
X30784Y55394D01*
X30685Y55709D01*
X30784Y56023D01*
X31135Y56374D01*
X31405Y57028D01*
Y57736D01*
X31135Y58390D01*
X30784Y58741D01*
X30685Y59055D01*
X30784Y59370D01*
X31135Y59720D01*
X31405Y60374D01*
Y61082D01*
X31135Y61736D01*
X30784Y62087D01*
X30685Y62402D01*
X30784Y62716D01*
X31135Y63067D01*
X31405Y63721D01*
Y64429D01*
X31135Y65083D01*
X30784Y65434D01*
X30685Y65748D01*
X30784Y66062D01*
X31135Y66413D01*
X31405Y67067D01*
Y67775D01*
X31135Y68429D01*
X31076Y68488D01*
X31283Y68988D01*
X31405D01*
Y72547D01*
D02*
G37*
G36*
X24665D02*
X23957D01*
X23303Y72276D01*
X22802Y71776D01*
X22532Y71122D01*
Y70414D01*
X22802Y69760D01*
X23111Y69451D01*
X22904Y68951D01*
X20965D01*
X20379Y68834D01*
X19883Y68503D01*
X17029Y65648D01*
X16697Y65152D01*
X16581Y64567D01*
Y52756D01*
X16697Y52171D01*
X17029Y51674D01*
X19096Y49608D01*
X19592Y49276D01*
X20177Y49160D01*
X22904D01*
X23111Y48660D01*
X22802Y48351D01*
X22532Y47697D01*
Y46988D01*
X22802Y46334D01*
X23303Y45834D01*
X23957Y45563D01*
X24665D01*
X25319Y45834D01*
X25820Y46334D01*
X26091Y46988D01*
Y47697D01*
X25820Y48351D01*
X25469Y48701D01*
X25371Y49016D01*
X25469Y49330D01*
X25820Y49681D01*
X26091Y50335D01*
Y51043D01*
X25820Y51697D01*
X25469Y52048D01*
X25371Y52362D01*
X25469Y52677D01*
X25820Y53027D01*
X26091Y53681D01*
Y54389D01*
X25820Y55043D01*
X25469Y55394D01*
X25371Y55709D01*
X25469Y56023D01*
X25820Y56374D01*
X26091Y57028D01*
Y57736D01*
X25820Y58390D01*
X25469Y58741D01*
X25371Y59055D01*
X25469Y59370D01*
X25820Y59720D01*
X26091Y60374D01*
Y61082D01*
X25820Y61736D01*
X25469Y62087D01*
X25371Y62402D01*
X25469Y62716D01*
X25820Y63067D01*
X26091Y63721D01*
Y64429D01*
X25820Y65083D01*
X25469Y65434D01*
X25371Y65748D01*
X25469Y66062D01*
X25820Y66413D01*
X26091Y67067D01*
Y67775D01*
X25820Y68429D01*
X25469Y68780D01*
X25371Y69095D01*
X25469Y69409D01*
X25820Y69760D01*
X26091Y70414D01*
Y71122D01*
X25820Y71776D01*
X25319Y72276D01*
X24665Y72547D01*
D02*
G37*
G36*
X75102Y50909D02*
X74505D01*
X73953Y50681D01*
X73532Y50259D01*
X73303Y49708D01*
Y49111D01*
X73532Y48560D01*
X73664Y48428D01*
X73756Y47930D01*
X73635Y47803D01*
X73335Y47503D01*
X73106Y46952D01*
Y46355D01*
X73335Y45804D01*
X73757Y45382D01*
X74308Y45153D01*
X74905D01*
X75456Y45382D01*
X75878Y45804D01*
X76106Y46355D01*
Y46952D01*
X75878Y47503D01*
X75746Y47635D01*
X75654Y48133D01*
X75775Y48260D01*
X76075Y48560D01*
X76303Y49111D01*
Y49708D01*
X76075Y50259D01*
X75653Y50681D01*
X75102Y50909D01*
D02*
G37*
G36*
X60141Y47563D02*
X59544D01*
X58993Y47335D01*
X58571Y46913D01*
X58342Y46361D01*
Y45765D01*
X58571Y45213D01*
X58993Y44791D01*
X59544Y44563D01*
X60141D01*
X60692Y44791D01*
X61114Y45213D01*
X61343Y45765D01*
Y46361D01*
X61114Y46913D01*
X60692Y47335D01*
X60141Y47563D01*
D02*
G37*
G36*
X112503Y46776D02*
X111906D01*
X111355Y46547D01*
X110933Y46125D01*
X110705Y45574D01*
Y44977D01*
X110933Y44426D01*
X111355Y44004D01*
X111906Y43776D01*
X112503D01*
X113054Y44004D01*
X113476Y44426D01*
X113705Y44977D01*
Y45574D01*
X113476Y46125D01*
X113054Y46547D01*
X112503Y46776D01*
D02*
G37*
G36*
X105613D02*
X105017D01*
X104465Y46547D01*
X104043Y46125D01*
X103815Y45574D01*
Y44977D01*
X104043Y44426D01*
X104465Y44004D01*
X105017Y43776D01*
X105613D01*
X106165Y44004D01*
X106587Y44426D01*
X106815Y44977D01*
Y45574D01*
X106587Y46125D01*
X106165Y46547D01*
X105613Y46776D01*
D02*
G37*
G36*
X98724D02*
X98127D01*
X97575Y46547D01*
X97154Y46125D01*
X96925Y45574D01*
Y44977D01*
X97154Y44426D01*
X97575Y44004D01*
X98127Y43776D01*
X98724D01*
X99275Y44004D01*
X99697Y44426D01*
X99925Y44977D01*
Y45574D01*
X99697Y46125D01*
X99275Y46547D01*
X98724Y46776D01*
D02*
G37*
G36*
X124905Y46382D02*
X124308D01*
X123757Y46154D01*
X123335Y45732D01*
X123106Y45180D01*
Y44583D01*
X123335Y44032D01*
X123757Y43610D01*
X124308Y43382D01*
X124905D01*
X125456Y43610D01*
X125878Y44032D01*
X126106Y44583D01*
Y45180D01*
X125878Y45732D01*
X125456Y46154D01*
X124905Y46382D01*
D02*
G37*
G36*
X161657Y47307D02*
X161060D01*
X160509Y47079D01*
X160087Y46657D01*
X159858Y46106D01*
Y45509D01*
X160087Y44957D01*
X160509Y44535D01*
X161060Y44307D01*
X161657D01*
X161976Y44440D01*
X162472Y44153D01*
X162476Y44147D01*
Y43993D01*
X162705Y43442D01*
X163127Y43020D01*
X163678Y42791D01*
X164275D01*
X164826Y43020D01*
X165248Y43442D01*
X165476Y43993D01*
Y44590D01*
X165248Y45141D01*
X164826Y45563D01*
X164275Y45791D01*
X163678D01*
X163358Y45659D01*
X162863Y45945D01*
X162858Y45952D01*
Y46106D01*
X162630Y46657D01*
X162208Y47079D01*
X161657Y47307D01*
D02*
G37*
G36*
X218307Y58612D02*
X218307Y58612D01*
X195866D01*
X195483Y58454D01*
X195325Y58071D01*
Y52756D01*
X195483Y52373D01*
X195866Y52215D01*
X206527D01*
X206750Y51715D01*
X206571Y51283D01*
Y50926D01*
X203216Y47571D01*
X202995Y47241D01*
X202917Y46850D01*
Y40605D01*
X202417Y40332D01*
X202070Y40476D01*
X201473D01*
X200922Y40248D01*
X200500Y39826D01*
X200272Y39275D01*
Y38678D01*
X200500Y38127D01*
X200922Y37705D01*
X201473Y37476D01*
X202070D01*
X202477Y37645D01*
X202787Y37619D01*
X203087Y37464D01*
X203216Y37271D01*
X206982Y33505D01*
X206940Y33156D01*
X206437Y33001D01*
X205929Y33509D01*
X205131Y33970D01*
X204240Y34209D01*
X203319D01*
X202429Y33970D01*
X201630Y33509D01*
X200979Y32858D01*
X200518Y32060D01*
X200279Y31169D01*
Y30248D01*
X200518Y29358D01*
X200979Y28560D01*
X201630Y27908D01*
X202429Y27447D01*
X203319Y27209D01*
X204240D01*
X205131Y27447D01*
X205929Y27908D01*
X206551Y28531D01*
X206682Y28520D01*
X207051Y28376D01*
Y21624D01*
X206682Y21480D01*
X206551Y21469D01*
X205929Y22092D01*
X205131Y22553D01*
X204240Y22791D01*
X203319D01*
X202429Y22553D01*
X201630Y22092D01*
X200979Y21440D01*
X200518Y20642D01*
X200279Y19752D01*
Y18831D01*
X200518Y17940D01*
X200979Y17142D01*
X201630Y16491D01*
X202429Y16030D01*
X203319Y15791D01*
X204240D01*
X205131Y16030D01*
X205929Y16491D01*
X206551Y17113D01*
X206682Y17103D01*
X207051Y16958D01*
Y15777D01*
X205964Y14689D01*
X205607D01*
X205056Y14461D01*
X204634Y14039D01*
X204405Y13487D01*
Y12891D01*
X204634Y12339D01*
X205056Y11917D01*
X205607Y11689D01*
X206204D01*
X206755Y11917D01*
X207177Y12339D01*
X207405Y12891D01*
Y13247D01*
X208792Y14633D01*
X209013Y14964D01*
X209090Y15354D01*
Y33858D01*
X209013Y34248D01*
X208792Y34579D01*
X208547Y34824D01*
X208565Y34897D01*
X208793Y35286D01*
X232283D01*
X232666Y35444D01*
X232825Y35827D01*
Y42323D01*
X232666Y42706D01*
X232283Y42864D01*
X224951D01*
Y51968D01*
X224951Y51968D01*
X224792Y52351D01*
X218690Y58454D01*
X218307Y58612D01*
D02*
G37*
G36*
X28721Y44344D02*
X22815D01*
X21929Y44167D01*
X21177Y43665D01*
X20675Y42914D01*
X20499Y42028D01*
X20675Y41141D01*
X21177Y40390D01*
X21929Y39888D01*
X22815Y39711D01*
X28721D01*
X29607Y39888D01*
X30358Y40390D01*
X30860Y41141D01*
X31037Y42028D01*
X30860Y42914D01*
X30358Y43665D01*
X29607Y44167D01*
X28721Y44344D01*
D02*
G37*
G36*
X14035D02*
X10886D01*
X10000Y44167D01*
X9248Y43665D01*
X8746Y42914D01*
X8570Y42028D01*
X8746Y41141D01*
X9248Y40390D01*
X10000Y39888D01*
X10886Y39711D01*
X14035D01*
X14922Y39888D01*
X15673Y40390D01*
X16175Y41141D01*
X16352Y42028D01*
X16175Y42914D01*
X15673Y43665D01*
X14922Y44167D01*
X14035Y44344D01*
D02*
G37*
G36*
X124905Y40279D02*
X124308D01*
X123757Y40051D01*
X123335Y39629D01*
X123106Y39078D01*
Y38481D01*
X123335Y37930D01*
X123757Y37508D01*
X124308Y37279D01*
X124905D01*
X125456Y37508D01*
X125878Y37930D01*
X126106Y38481D01*
Y39078D01*
X125878Y39629D01*
X125456Y40051D01*
X124905Y40279D01*
D02*
G37*
G36*
X148330Y39098D02*
X147733D01*
X147182Y38870D01*
X146760Y38448D01*
X146531Y37897D01*
Y37300D01*
X146760Y36749D01*
X147182Y36327D01*
X147733Y36098D01*
X148330D01*
X148881Y36327D01*
X149303Y36749D01*
X149531Y37300D01*
Y37897D01*
X149303Y38448D01*
X148881Y38870D01*
X148330Y39098D01*
D02*
G37*
G36*
X198527Y38114D02*
X197930D01*
X197379Y37886D01*
X196957Y37464D01*
X196728Y36913D01*
Y36316D01*
X196957Y35765D01*
X197379Y35342D01*
X197930Y35114D01*
X198527D01*
X199078Y35342D01*
X199500Y35765D01*
X199728Y36316D01*
Y36913D01*
X199500Y37464D01*
X199078Y37886D01*
X198527Y38114D01*
D02*
G37*
G36*
X40776Y39327D02*
X39854D01*
X38964Y39088D01*
X38166Y38627D01*
X37514Y37976D01*
X37053Y37178D01*
X36815Y36288D01*
Y35366D01*
X37053Y34476D01*
X37514Y33678D01*
X38166Y33026D01*
X38964Y32565D01*
X39854Y32327D01*
X40776D01*
X41666Y32565D01*
X42464Y33026D01*
X43116Y33678D01*
X43576Y34476D01*
X43815Y35366D01*
Y36288D01*
X43576Y37178D01*
X43116Y37976D01*
X42464Y38627D01*
X41666Y39088D01*
X40776Y39327D01*
D02*
G37*
G36*
X148566Y34138D02*
X147969D01*
X147418Y33909D01*
X146996Y33487D01*
X146768Y32936D01*
Y32339D01*
X146996Y31788D01*
X147418Y31366D01*
X147969Y31138D01*
X148566D01*
X149117Y31366D01*
X149539Y31788D01*
X149768Y32339D01*
Y32936D01*
X149539Y33487D01*
X149117Y33909D01*
X148566Y34138D01*
D02*
G37*
G36*
X105613Y33784D02*
X105017D01*
X104465Y33555D01*
X104043Y33133D01*
X103815Y32582D01*
Y31985D01*
X104043Y31434D01*
X104465Y31012D01*
X105017Y30784D01*
X105613D01*
X106165Y31012D01*
X106587Y31434D01*
X106815Y31985D01*
Y32582D01*
X106587Y33133D01*
X106165Y33555D01*
X105613Y33784D01*
D02*
G37*
G36*
X29039Y33587D02*
X28442D01*
X27891Y33358D01*
X27468Y32936D01*
X27240Y32385D01*
Y31788D01*
X27468Y31237D01*
X27891Y30815D01*
X28442Y30587D01*
X29039D01*
X29590Y30815D01*
X30012Y31237D01*
X30240Y31788D01*
Y32385D01*
X30012Y32936D01*
X29590Y33358D01*
X29039Y33587D01*
D02*
G37*
G36*
X220771Y32996D02*
X220174D01*
X219623Y32768D01*
X219201Y32346D01*
X218972Y31794D01*
Y31198D01*
X219201Y30646D01*
X219623Y30224D01*
X220174Y29996D01*
X220771D01*
X221322Y30224D01*
X221744Y30646D01*
X221972Y31198D01*
Y31794D01*
X221744Y32346D01*
X221322Y32768D01*
X220771Y32996D01*
D02*
G37*
G36*
X215653D02*
X215056D01*
X214505Y32768D01*
X214083Y32346D01*
X213854Y31794D01*
Y31198D01*
X214083Y30646D01*
X214505Y30224D01*
X215056Y29996D01*
X215653D01*
X216204Y30224D01*
X216626Y30646D01*
X216854Y31198D01*
Y31794D01*
X216626Y32346D01*
X216204Y32768D01*
X215653Y32996D01*
D02*
G37*
G36*
X167129Y29847D02*
X166532D01*
X165981Y29618D01*
X165878Y29515D01*
X165551Y29204D01*
X165225Y29515D01*
X165121Y29618D01*
X164570Y29847D01*
X163973D01*
X163422Y29618D01*
X163000Y29196D01*
X162772Y28645D01*
Y28048D01*
X163000Y27497D01*
X163422Y27075D01*
X163973Y26847D01*
X164570D01*
X165121Y27075D01*
X165225Y27178D01*
X165551Y27489D01*
X165878Y27178D01*
X165981Y27075D01*
X166532Y26847D01*
X167129D01*
X167680Y27075D01*
X168102Y27497D01*
X168331Y28048D01*
Y28645D01*
X168102Y29196D01*
X167680Y29618D01*
X167129Y29847D01*
D02*
G37*
G36*
X63783D02*
X63186D01*
X62635Y29618D01*
X62531Y29515D01*
X62205Y29204D01*
X61878Y29515D01*
X61775Y29618D01*
X61224Y29847D01*
X60627D01*
X60075Y29618D01*
X59654Y29196D01*
X59425Y28645D01*
Y28048D01*
X59654Y27497D01*
X60075Y27075D01*
X60627Y26847D01*
X61224D01*
X61775Y27075D01*
X61878Y27178D01*
X62205Y27489D01*
X62531Y27178D01*
X62635Y27075D01*
X63186Y26847D01*
X63783D01*
X64334Y27075D01*
X64756Y27497D01*
X64984Y28048D01*
Y28645D01*
X64756Y29196D01*
X64334Y29618D01*
X63783Y29847D01*
D02*
G37*
G36*
X182483D02*
X181887D01*
X181335Y29618D01*
X181232Y29515D01*
X180905Y29204D01*
X180579Y29515D01*
X180476Y29618D01*
X179924Y29847D01*
X179328D01*
X178776Y29618D01*
X178673Y29515D01*
X178347Y29204D01*
X178020Y29515D01*
X177917Y29618D01*
X177365Y29847D01*
X176769D01*
X176217Y29618D01*
X175795Y29196D01*
X175567Y28645D01*
Y28048D01*
X175795Y27497D01*
X176217Y27075D01*
X176769Y26847D01*
X177365D01*
X177917Y27075D01*
X178020Y27178D01*
X178347Y27489D01*
X178673Y27178D01*
X178776Y27075D01*
X179328Y26847D01*
X179924D01*
X180476Y27075D01*
X180579Y27178D01*
X180905Y27489D01*
X181232Y27178D01*
X181335Y27075D01*
X181887Y26847D01*
X182483D01*
X183035Y27075D01*
X183457Y27497D01*
X183685Y28048D01*
Y28645D01*
X183457Y29196D01*
X183035Y29618D01*
X182483Y29847D01*
D02*
G37*
G36*
X53099Y34209D02*
X52177D01*
X51287Y33970D01*
X50489Y33509D01*
X49837Y32858D01*
X49376Y32060D01*
X49138Y31169D01*
Y30248D01*
X49376Y29358D01*
X49837Y28560D01*
X50489Y27908D01*
X51287Y27447D01*
X52177Y27209D01*
X53099D01*
X53989Y27447D01*
X54787Y27908D01*
X55439Y28560D01*
X55899Y29358D01*
X56138Y30248D01*
Y31169D01*
X55899Y32060D01*
X55439Y32858D01*
X54787Y33509D01*
X53989Y33970D01*
X53099Y34209D01*
D02*
G37*
G36*
X112503Y29846D02*
X111906D01*
X111355Y29618D01*
X110933Y29196D01*
X110705Y28645D01*
Y28048D01*
X110933Y27497D01*
X111355Y27075D01*
X111906Y26846D01*
X112503D01*
X113054Y27075D01*
X113476Y27497D01*
X113705Y28048D01*
Y28645D01*
X113476Y29196D01*
X113054Y29618D01*
X112503Y29846D01*
D02*
G37*
G36*
X103054Y28272D02*
X102457D01*
X101906Y28043D01*
X101484Y27621D01*
X101256Y27070D01*
Y26473D01*
X101484Y25922D01*
X101906Y25500D01*
X102457Y25272D01*
X103054D01*
X103606Y25500D01*
X104027Y25922D01*
X104256Y26473D01*
Y27070D01*
X104027Y27621D01*
X103606Y28043D01*
X103054Y28272D01*
D02*
G37*
G36*
X106598Y28075D02*
X106001D01*
X105449Y27846D01*
X105028Y27424D01*
X104799Y26873D01*
Y26276D01*
X105028Y25725D01*
X105449Y25303D01*
X106001Y25075D01*
X106598D01*
X107149Y25303D01*
X107571Y25725D01*
X107799Y26276D01*
Y26873D01*
X107571Y27424D01*
X107149Y27846D01*
X106598Y28075D01*
D02*
G37*
G36*
X149708Y27091D02*
X149111D01*
X148560Y26862D01*
X148138Y26440D01*
X147909Y25889D01*
Y25292D01*
X148138Y24741D01*
X148560Y24319D01*
X149111Y24091D01*
X149708D01*
X150259Y24319D01*
X150681Y24741D01*
X150909Y25292D01*
Y25889D01*
X150681Y26440D01*
X150259Y26862D01*
X149708Y27091D01*
D02*
G37*
G36*
X16440Y24532D02*
X15843D01*
X15292Y24303D01*
X14870Y23881D01*
X14642Y23330D01*
Y22733D01*
X14870Y22182D01*
X15292Y21760D01*
X15843Y21531D01*
X16440D01*
X16991Y21760D01*
X17413Y22182D01*
X17642Y22733D01*
Y23330D01*
X17413Y23881D01*
X16991Y24303D01*
X16440Y24532D01*
D02*
G37*
G36*
X175886Y23531D02*
X175295D01*
X174750Y23305D01*
X174332Y22888D01*
X174106Y22343D01*
Y21752D01*
X174332Y21206D01*
X174750Y20789D01*
X175295Y20563D01*
X175886D01*
X176431Y20789D01*
X176849Y21206D01*
X177075Y21752D01*
Y22343D01*
X176849Y22888D01*
X176431Y23305D01*
X175886Y23531D01*
D02*
G37*
G36*
X171161D02*
X170571D01*
X170025Y23305D01*
X169608Y22888D01*
X169382Y22343D01*
Y21752D01*
X169608Y21206D01*
X170025Y20789D01*
X170571Y20563D01*
X171161D01*
X171707Y20789D01*
X172124Y21206D01*
X172350Y21752D01*
Y22343D01*
X172124Y22888D01*
X171707Y23305D01*
X171161Y23531D01*
D02*
G37*
G36*
X72539D02*
X71949D01*
X71403Y23305D01*
X70986Y22888D01*
X70760Y22343D01*
Y21752D01*
X70986Y21206D01*
X71403Y20789D01*
X71949Y20563D01*
X72539D01*
X73085Y20789D01*
X73502Y21206D01*
X73728Y21752D01*
Y22343D01*
X73502Y22888D01*
X73085Y23305D01*
X72539Y23531D01*
D02*
G37*
G36*
X67815D02*
X67225D01*
X66679Y23305D01*
X66261Y22888D01*
X66035Y22343D01*
Y21752D01*
X66261Y21206D01*
X66679Y20789D01*
X67225Y20563D01*
X67815D01*
X68361Y20789D01*
X68778Y21206D01*
X69004Y21752D01*
Y22343D01*
X68778Y22888D01*
X68361Y23305D01*
X67815Y23531D01*
D02*
G37*
G36*
X180610Y22941D02*
X180020D01*
X179474Y22715D01*
X179057Y22298D01*
X178831Y21752D01*
Y21161D01*
X179057Y20616D01*
X179474Y20198D01*
X180020Y19972D01*
X180610D01*
X181156Y20198D01*
X181573Y20616D01*
X181799Y21161D01*
Y21752D01*
X181573Y22298D01*
X181156Y22715D01*
X180610Y22941D01*
D02*
G37*
G36*
X166437D02*
X165847D01*
X165301Y22715D01*
X164883Y22298D01*
X164657Y21752D01*
Y21161D01*
X164883Y20616D01*
X165301Y20198D01*
X165847Y19972D01*
X166437D01*
X166982Y20198D01*
X167400Y20616D01*
X167626Y21161D01*
Y21752D01*
X167400Y22298D01*
X166982Y22715D01*
X166437Y22941D01*
D02*
G37*
G36*
X77264D02*
X76673D01*
X76128Y22715D01*
X75710Y22298D01*
X75484Y21752D01*
Y21161D01*
X75710Y20616D01*
X76128Y20198D01*
X76673Y19972D01*
X77264D01*
X77809Y20198D01*
X78227Y20616D01*
X78453Y21161D01*
Y21752D01*
X78227Y22298D01*
X77809Y22715D01*
X77264Y22941D01*
D02*
G37*
G36*
X63090D02*
X62500D01*
X61954Y22715D01*
X61537Y22298D01*
X61311Y21752D01*
Y21161D01*
X61537Y20616D01*
X61954Y20198D01*
X62500Y19972D01*
X63090D01*
X63636Y20198D01*
X64054Y20616D01*
X64280Y21161D01*
Y21752D01*
X64054Y22298D01*
X63636Y22715D01*
X63090Y22941D01*
D02*
G37*
G36*
X240849Y20791D02*
X240253D01*
X239702Y20563D01*
X239280Y20141D01*
X239051Y19590D01*
Y18993D01*
X239280Y18442D01*
X239702Y18020D01*
X240253Y17791D01*
X240849D01*
X241401Y18020D01*
X241823Y18442D01*
X242051Y18993D01*
Y19590D01*
X241823Y20141D01*
X241401Y20563D01*
X240849Y20791D01*
D02*
G37*
G36*
X83172Y19217D02*
X82576D01*
X82024Y18988D01*
X81602Y18566D01*
X81374Y18015D01*
Y17418D01*
X81602Y16867D01*
X82024Y16445D01*
X82576Y16217D01*
X83172D01*
X83724Y16445D01*
X84146Y16867D01*
X84374Y17418D01*
Y18015D01*
X84146Y18566D01*
X83724Y18988D01*
X83172Y19217D01*
D02*
G37*
G36*
X77264Y18216D02*
X76673D01*
X76128Y17991D01*
X75710Y17573D01*
X75484Y17028D01*
Y16437D01*
X75710Y15891D01*
X76128Y15474D01*
X76673Y15248D01*
X77264D01*
X77809Y15474D01*
X78227Y15891D01*
X78453Y16437D01*
Y17028D01*
X78227Y17573D01*
X77809Y17991D01*
X77264Y18216D01*
D02*
G37*
G36*
X72539D02*
X71949D01*
X71403Y17991D01*
X70986Y17573D01*
X70760Y17028D01*
Y16437D01*
X70986Y15891D01*
X71403Y15474D01*
X71949Y15248D01*
X72539D01*
X73085Y15474D01*
X73502Y15891D01*
X73728Y16437D01*
Y17028D01*
X73502Y17573D01*
X73085Y17991D01*
X72539Y18216D01*
D02*
G37*
G36*
X67815D02*
X67225D01*
X66679Y17991D01*
X66261Y17573D01*
X66035Y17028D01*
Y16437D01*
X66261Y15891D01*
X66679Y15474D01*
X67225Y15248D01*
X67815D01*
X68361Y15474D01*
X68778Y15891D01*
X69004Y16437D01*
Y17028D01*
X68778Y17573D01*
X68361Y17991D01*
X67815Y18216D01*
D02*
G37*
G36*
X63090D02*
X62500D01*
X61954Y17991D01*
X61537Y17573D01*
X61311Y17028D01*
Y16437D01*
X61537Y15891D01*
X61954Y15474D01*
X62500Y15248D01*
X63090D01*
X63636Y15474D01*
X64054Y15891D01*
X64280Y16437D01*
Y17028D01*
X64054Y17573D01*
X63636Y17991D01*
X63090Y18216D01*
D02*
G37*
G36*
X201480Y15673D02*
X200883D01*
X200331Y15445D01*
X199909Y15023D01*
X199681Y14472D01*
Y13875D01*
X199909Y13324D01*
X200331Y12902D01*
X200883Y12673D01*
X201480D01*
X202031Y12902D01*
X202453Y13324D01*
X202681Y13875D01*
Y14472D01*
X202453Y15023D01*
X202031Y15445D01*
X201480Y15673D01*
D02*
G37*
G36*
X77264Y13492D02*
X76673D01*
X76128Y13266D01*
X75710Y12849D01*
X75484Y12303D01*
Y11713D01*
X75710Y11167D01*
X76128Y10750D01*
X76673Y10524D01*
X77264D01*
X77809Y10750D01*
X78227Y11167D01*
X78453Y11713D01*
Y12303D01*
X78227Y12849D01*
X77809Y13266D01*
X77264Y13492D01*
D02*
G37*
G36*
X63090D02*
X62500D01*
X61954Y13266D01*
X61537Y12849D01*
X61311Y12303D01*
Y11713D01*
X61537Y11167D01*
X61954Y10750D01*
X62500Y10524D01*
X63090D01*
X63636Y10750D01*
X64054Y11167D01*
X64280Y11713D01*
Y12303D01*
X64054Y12849D01*
X63636Y13266D01*
X63090Y13492D01*
D02*
G37*
G36*
X38487Y13311D02*
X37891D01*
X37339Y13083D01*
X36917Y12661D01*
X36689Y12109D01*
Y11513D01*
X36917Y10961D01*
X37339Y10539D01*
X37891Y10311D01*
X38487D01*
X39039Y10539D01*
X39461Y10961D01*
X39689Y11513D01*
Y12109D01*
X39461Y12661D01*
X39039Y13083D01*
X38487Y13311D01*
D02*
G37*
G36*
X109157Y7634D02*
X108560D01*
X108009Y7406D01*
X107587Y6983D01*
X107358Y6432D01*
Y5835D01*
X107587Y5284D01*
X108009Y4862D01*
X108560Y4634D01*
X109157D01*
X109708Y4862D01*
X110130Y5284D01*
X110358Y5835D01*
Y6432D01*
X110130Y6983D01*
X109708Y7406D01*
X109157Y7634D01*
D02*
G37*
G36*
X76578Y6618D02*
X75981D01*
X75430Y6390D01*
X75008Y5968D01*
X74779Y5416D01*
Y4820D01*
X75008Y4268D01*
X75430Y3847D01*
X75981Y3618D01*
X76578D01*
X77129Y3847D01*
X77551Y4268D01*
X77780Y4820D01*
Y5416D01*
X77551Y5968D01*
X77129Y6390D01*
X76578Y6618D01*
D02*
G37*
G36*
X81991Y6028D02*
X81394D01*
X80843Y5799D01*
X80421Y5377D01*
X80193Y4826D01*
Y4229D01*
X80421Y3678D01*
X80843Y3256D01*
X81394Y3028D01*
X81991D01*
X82543Y3256D01*
X82964Y3678D01*
X83193Y4229D01*
Y4826D01*
X82964Y5377D01*
X82543Y5799D01*
X81991Y6028D01*
D02*
G37*
G36*
X40456Y5831D02*
X39859D01*
X39308Y5602D01*
X38886Y5180D01*
X38658Y4629D01*
Y4032D01*
X38886Y3481D01*
X39308Y3059D01*
X39859Y2831D01*
X40456D01*
X41007Y3059D01*
X41429Y3481D01*
X41658Y4032D01*
Y4629D01*
X41429Y5180D01*
X41007Y5602D01*
X40456Y5831D01*
D02*
G37*
%LPD*%
G36*
X232283Y75787D02*
X219882D01*
X210983Y75787D01*
X210630Y76141D01*
X210630Y82284D01*
X232283D01*
Y75787D01*
D02*
G37*
G36*
X224410Y66142D02*
X218307Y60039D01*
X195866D01*
Y65945D01*
X212598D01*
X215551Y68898D01*
Y74803D01*
X224410D01*
Y66142D01*
D02*
G37*
G36*
Y51968D02*
Y42864D01*
X215551D01*
Y49213D01*
X212008Y52756D01*
X195866D01*
Y58071D01*
X218307D01*
X224410Y51968D01*
D02*
G37*
G36*
X232283Y35827D02*
X208661D01*
Y40157D01*
Y42323D01*
X232283D01*
Y35827D01*
D02*
G37*
%LPC*%
G36*
X182483Y114492D02*
X181887D01*
X181335Y114264D01*
X181232Y114161D01*
X180905Y113849D01*
X180579Y114161D01*
X180476Y114264D01*
X179924Y114492D01*
X179328D01*
X178776Y114264D01*
X178354Y113842D01*
X178126Y113291D01*
Y112694D01*
X178354Y112142D01*
X178776Y111721D01*
X179328Y111492D01*
X179924D01*
X180476Y111721D01*
X180579Y111824D01*
X180905Y112135D01*
X181232Y111824D01*
X181335Y111721D01*
X181887Y111492D01*
X182483D01*
X183035Y111721D01*
X183457Y112143D01*
X183685Y112694D01*
Y113291D01*
X183457Y113842D01*
X183035Y114264D01*
X182483Y114492D01*
D02*
G37*
G36*
X63783Y114492D02*
X63186D01*
X62635Y114264D01*
X62213Y113842D01*
X61984Y113291D01*
Y112694D01*
X62213Y112142D01*
X62635Y111721D01*
X63186Y111492D01*
X63783D01*
X64334Y111721D01*
X64756Y112142D01*
X64984Y112694D01*
Y113291D01*
X64756Y113842D01*
X64334Y114264D01*
X63783Y114492D01*
D02*
G37*
G36*
X177365Y6618D02*
X176769D01*
X176217Y6390D01*
X176114Y6286D01*
X175787Y5975D01*
X175461Y6286D01*
X175358Y6390D01*
X174806Y6618D01*
X174209D01*
X173658Y6390D01*
X173555Y6286D01*
X173228Y5975D01*
X172902Y6286D01*
X172799Y6390D01*
X172247Y6618D01*
X171651D01*
X171099Y6390D01*
X170996Y6286D01*
X170669Y5975D01*
X170343Y6286D01*
X170239Y6390D01*
X169688Y6618D01*
X169091D01*
X168540Y6390D01*
X168118Y5968D01*
X167890Y5416D01*
Y4820D01*
X168118Y4268D01*
X168540Y3847D01*
X169091Y3618D01*
X169688D01*
X170239Y3847D01*
X170343Y3950D01*
X170669Y4261D01*
X170996Y3950D01*
X171099Y3847D01*
X171651Y3618D01*
X172247D01*
X172799Y3847D01*
X172902Y3950D01*
X173228Y4261D01*
X173555Y3950D01*
X173658Y3847D01*
X174209Y3618D01*
X174806D01*
X175358Y3847D01*
X175461Y3950D01*
X175787Y4261D01*
X176114Y3950D01*
X176217Y3847D01*
X176769Y3618D01*
X177365D01*
X177917Y3847D01*
X178339Y4268D01*
X178567Y4820D01*
Y5416D01*
X178339Y5968D01*
X177917Y6390D01*
X177365Y6618D01*
D02*
G37*
G36*
X63783D02*
X63186D01*
X62635Y6390D01*
X62531Y6286D01*
X62205Y5975D01*
X61878Y6286D01*
X61775Y6390D01*
X61224Y6618D01*
X60627D01*
X60075Y6390D01*
X59654Y5968D01*
X59425Y5416D01*
Y4820D01*
X59654Y4268D01*
X60075Y3847D01*
X60627Y3618D01*
X61224D01*
X61775Y3847D01*
X61878Y3950D01*
X62205Y4261D01*
X62531Y3950D01*
X62635Y3847D01*
X63186Y3618D01*
X63783D01*
X64334Y3847D01*
X64756Y4268D01*
X64984Y4820D01*
Y5416D01*
X64756Y5968D01*
X64334Y6390D01*
X63783Y6618D01*
D02*
G37*
%LPD*%
D15*
X113080Y1984D02*
X113655Y2559D01*
X123622D02*
X125591Y4528D01*
X113655Y2559D02*
X123622D01*
X125591Y4528D02*
X135843D01*
X95654Y1984D02*
X113080D01*
X180118Y43898D02*
X196063D01*
X178740Y45276D02*
X180118Y43898D01*
X205906Y13189D02*
X208071Y15354D01*
X184055Y14567D02*
X184843Y13780D01*
X162795Y15551D02*
X163779Y14567D01*
X184055D01*
X156299Y13189D02*
X158661Y15551D01*
X162795D01*
X156299Y4134D02*
Y13189D01*
X154150Y1984D02*
X156299Y4134D01*
X138386Y1984D02*
X154150D01*
X135843Y4528D02*
X138386Y1984D01*
X85433Y12205D02*
Y15157D01*
Y12205D02*
X95654Y1984D01*
X107677Y110039D02*
X112992Y115354D01*
X149606D01*
X101378Y110039D02*
X107677D01*
X203937Y46850D02*
X208071Y50984D01*
X90189Y19094D02*
Y23197D01*
X88386Y25000D02*
X90189Y23197D01*
X90551Y28346D02*
X92510Y26388D01*
Y15942D02*
Y26388D01*
X77165Y25000D02*
X88386D01*
X76319Y25846D02*
X77165Y25000D01*
X76279Y28346D02*
X76319Y28307D01*
Y25846D02*
Y28307D01*
X78839Y28346D02*
X90551D01*
X143898Y83071D02*
X153543Y92716D01*
X161319D01*
X164272Y89764D01*
X149606Y94291D02*
X165354D01*
X166831Y92815D01*
Y89764D02*
Y92815D01*
X148228Y50197D02*
Y58071D01*
X203937Y37992D02*
Y46850D01*
Y37992D02*
X208071Y33858D01*
Y15354D02*
Y33858D01*
X148228Y58071D02*
X151772Y61614D01*
X167520D01*
X172638Y66732D01*
X188386D02*
X191339Y69685D01*
X172638Y66732D02*
X188386D01*
X187697Y69390D02*
Y71555D01*
X184843Y74410D02*
X187697Y71555D01*
X175197Y74410D02*
X184843D01*
X173819Y75787D02*
X175197Y74410D01*
X149016Y75787D02*
X173819D01*
X199213Y43898D02*
Y47638D01*
X197638Y49213D02*
X199213Y47638D01*
X196063Y70079D02*
Y74213D01*
X192520Y66535D02*
X196063Y70079D01*
X199213Y71063D02*
Y74213D01*
X194095Y65945D02*
X199213Y71063D01*
X190945Y61417D02*
X194095Y64567D01*
Y65945D01*
X185630Y61417D02*
X190945D01*
X192520Y65158D02*
Y66535D01*
X190354Y62992D02*
X192520Y65158D01*
X173622Y51772D02*
X184843Y62992D01*
X190354D01*
X176181Y51968D02*
X185630Y61417D01*
X176181Y47539D02*
Y51968D01*
X173622Y47539D02*
Y51772D01*
X178740Y45276D02*
Y47539D01*
X181299D02*
Y49803D01*
X182087Y50591D01*
X185039D01*
X186417Y49213D02*
X197638D01*
X185039Y50591D02*
X186417Y49213D01*
X37795Y71063D02*
X40945Y67913D01*
X44488D01*
X48031Y64370D01*
Y51575D02*
Y64370D01*
Y51575D02*
X51181Y48425D01*
D78*
X24311Y67421D02*
D03*
Y50689D02*
D03*
D82*
X108661Y10039D02*
D03*
X123622Y2559D02*
D03*
X185039Y34843D02*
D03*
X205906Y13189D02*
D03*
X184843Y13780D02*
D03*
X85433Y15157D02*
D03*
X221260Y12008D02*
D03*
X51181Y45276D02*
D03*
X149606Y115354D02*
D03*
X101378Y110039D02*
D03*
X208071Y50984D02*
D03*
X199016Y62992D02*
D03*
X207677Y55118D02*
D03*
X218504Y49016D02*
D03*
X220866Y46654D02*
D03*
X90189Y19094D02*
D03*
X92510Y15942D02*
D03*
X149606Y94291D02*
D03*
X143898Y83071D02*
D03*
X148228Y50197D02*
D03*
X187697Y69390D02*
D03*
X191339Y69685D02*
D03*
X181102Y76410D02*
D03*
X149016Y75787D02*
D03*
X196063Y43898D02*
D03*
X199213D02*
D03*
X78839Y28346D02*
D03*
X196063Y74213D02*
D03*
X199213D02*
D03*
X97638Y96063D02*
D03*
X173622Y47539D02*
D03*
X176181D02*
D03*
X178740D02*
D03*
X181299D02*
D03*
X181102Y34843D02*
D03*
X219488Y3937D02*
D03*
X216535D02*
D03*
X213583D02*
D03*
X219488Y6890D02*
D03*
X216535D02*
D03*
X213583D02*
D03*
X210630D02*
D03*
Y3937D02*
D03*
X207677D02*
D03*
X204724D02*
D03*
X207677Y6890D02*
D03*
X204724D02*
D03*
Y9843D02*
D03*
X207677D02*
D03*
X213976Y12008D02*
D03*
X217520Y11988D02*
D03*
X218504Y44488D02*
D03*
X220866Y71063D02*
D03*
X218504Y68898D02*
D03*
Y73425D02*
D03*
X226358Y78740D02*
D03*
Y39370D02*
D03*
X120079Y9449D02*
D03*
X185039Y76410D02*
D03*
X199016Y55118D02*
D03*
X34252Y73425D02*
D03*
X4921Y83661D02*
D03*
X207677Y62992D02*
D03*
X220472Y78740D02*
D03*
X215354D02*
D03*
Y39370D02*
D03*
X220472D02*
D03*
X175591Y38386D02*
D03*
X76279Y28346D02*
D03*
X68504Y38386D02*
D03*
X171949Y112992D02*
D03*
X174508D02*
D03*
X175591Y79724D02*
D03*
X166831Y89764D02*
D03*
X164272D02*
D03*
X71161Y28346D02*
D03*
X174508D02*
D03*
X171949Y89764D02*
D03*
X68602D02*
D03*
X166831Y5118D02*
D03*
X179626D02*
D03*
X71161D02*
D03*
X68602D02*
D03*
X71161Y112992D02*
D03*
X68602D02*
D03*
X68504Y79724D02*
D03*
X185039Y83071D02*
D03*
Y79724D02*
D03*
X181102Y83071D02*
D03*
X185039Y41535D02*
D03*
Y38189D02*
D03*
X181102Y41535D02*
D03*
X62992Y41732D02*
D03*
Y35039D02*
D03*
X59055Y41732D02*
D03*
Y38386D02*
D03*
Y35039D02*
D03*
X51181Y48425D02*
D03*
X37795Y71063D02*
D03*
X59055Y76378D02*
D03*
Y79724D02*
D03*
Y83071D02*
D03*
X62992Y76378D02*
D03*
Y83071D02*
D03*
D87*
X94882Y16732D02*
X98622Y12992D01*
X115157Y9449D02*
X120079D01*
X98622Y12992D02*
X111614D01*
X115157Y9449D01*
X39961Y45276D02*
X51181D01*
X94882Y16732D02*
Y50000D01*
X90551Y54331D02*
X94882Y50000D01*
X62205Y54331D02*
X90551D01*
X53543Y62992D02*
X62205Y54331D01*
X53543Y62992D02*
Y68898D01*
X44094Y78347D02*
X53543Y68898D01*
X36614Y78347D02*
X44094D01*
X31299Y83661D02*
X36614Y78347D01*
X34252Y73425D02*
Y76968D01*
X30512Y80709D02*
X34252Y76968D01*
X4921Y83661D02*
X31299D01*
X31496Y36811D02*
X39961Y45276D01*
X8661Y36811D02*
X31496D01*
X4724Y40748D02*
X8661Y36811D01*
X4724Y40748D02*
Y77362D01*
X8071Y80709D01*
X30512D01*
X20965Y67421D02*
X24311D01*
X18110Y64567D02*
X20965Y67421D01*
X18110Y52756D02*
Y64567D01*
Y52756D02*
X20177Y50689D01*
X24311D01*
D90*
X191457Y24409D02*
D03*
X203780Y93701D02*
D03*
X40315Y24409D02*
D03*
Y87402D02*
D03*
D91*
X191457Y35827D02*
D03*
Y98819D02*
D03*
X52638Y19291D02*
D03*
Y82284D02*
D03*
M02*
