G04*
G04 #@! TF.GenerationSoftware,Altium Limited,Altium Designer,22.2.1 (43)*
G04*
G04 Layer_Color=128*
%FSLAX25Y25*%
%MOIN*%
G70*
G04*
G04 #@! TF.SameCoordinates,0E938A99-CEBE-4E5B-98FA-E82972142B6D*
G04*
G04*
G04 #@! TF.FilePolarity,Positive*
G04*
G01*
G75*
%ADD17R,0.06102X0.05512*%
%ADD18R,0.05709X0.04724*%
%ADD29R,0.04724X0.05709*%
%ADD32R,0.05512X0.06102*%
%ADD44R,0.03740X0.05315*%
%ADD46R,0.05315X0.03740*%
%ADD52R,0.03960X0.05151*%
%ADD94R,0.04134X0.05512*%
%ADD95R,0.05151X0.03960*%
%ADD96R,0.12795X0.08465*%
%ADD97R,0.03740X0.08465*%
%ADD98R,0.05315X0.06102*%
%ADD99R,0.04921X0.03150*%
%ADD100R,0.03937X0.05315*%
%ADD101R,0.21654X0.03937*%
%ADD102R,0.11811X0.06299*%
G04:AMPARAMS|DCode=103|XSize=64.57mil|YSize=23.23mil|CornerRadius=2.9mil|HoleSize=0mil|Usage=FLASHONLY|Rotation=0.000|XOffset=0mil|YOffset=0mil|HoleType=Round|Shape=RoundedRectangle|*
%AMROUNDEDRECTD103*
21,1,0.06457,0.01742,0,0,0.0*
21,1,0.05876,0.02323,0,0,0.0*
1,1,0.00581,0.02938,-0.00871*
1,1,0.00581,-0.02938,-0.00871*
1,1,0.00581,-0.02938,0.00871*
1,1,0.00581,0.02938,0.00871*
%
%ADD103ROUNDEDRECTD103*%
%ADD104R,0.04969X0.03771*%
%ADD105R,0.03937X0.03150*%
D17*
X124606Y38780D02*
D03*
Y31299D02*
D03*
X66929Y55315D02*
D03*
Y62795D02*
D03*
X74803Y62795D02*
D03*
Y55315D02*
D03*
D18*
X98425Y53150D02*
D03*
Y45276D02*
D03*
X112205D02*
D03*
Y53150D02*
D03*
X142717Y106299D02*
D03*
Y98425D02*
D03*
X105315Y53150D02*
D03*
Y45276D02*
D03*
X191339Y15157D02*
D03*
Y8465D02*
D03*
X52756Y109646D02*
D03*
Y102953D02*
D03*
D29*
X52559Y9843D02*
D03*
X45866D02*
D03*
X198228Y108268D02*
D03*
X191535D02*
D03*
D32*
X18898Y96457D02*
D03*
X26378D02*
D03*
D44*
X175591Y38386D02*
D03*
X169685D02*
D03*
X74508D02*
D03*
X68602D02*
D03*
X175591Y79724D02*
D03*
X169685D02*
D03*
X68602D02*
D03*
X74508D02*
D03*
D46*
X176181Y65158D02*
D03*
Y59252D02*
D03*
X124606Y82284D02*
D03*
Y76378D02*
D03*
Y20472D02*
D03*
Y14567D02*
D03*
Y50787D02*
D03*
Y44882D02*
D03*
X88583Y76378D02*
D03*
Y82284D02*
D03*
D52*
X128843Y97441D02*
D03*
X123125D02*
D03*
X85724Y41929D02*
D03*
X91442D02*
D03*
D94*
X18898Y88583D02*
D03*
X26378D02*
D03*
D95*
X90551Y101875D02*
D03*
Y96157D02*
D03*
X114173Y9252D02*
D03*
Y14970D02*
D03*
D96*
X106693Y73228D02*
D03*
X94488Y32087D02*
D03*
D97*
X115748Y96063D02*
D03*
X106693D02*
D03*
X97638D02*
D03*
X85433Y9252D02*
D03*
X94488D02*
D03*
X103543D02*
D03*
D98*
X141634Y89567D02*
D03*
X133957D02*
D03*
X141634Y58071D02*
D03*
X133957D02*
D03*
X141634Y27559D02*
D03*
X133957D02*
D03*
D99*
X112205Y34646D02*
D03*
Y28346D02*
D03*
X105315Y38583D02*
D03*
Y32283D02*
D03*
D100*
X235827Y55709D02*
D03*
X228740D02*
D03*
X228740Y62402D02*
D03*
X235827D02*
D03*
D101*
X199016Y62992D02*
D03*
Y55118D02*
D03*
X220472Y31496D02*
D03*
Y39370D02*
D03*
Y78740D02*
D03*
Y86614D02*
D03*
D102*
X207874Y72441D02*
D03*
Y45669D02*
D03*
X229331Y22047D02*
D03*
Y48819D02*
D03*
Y69291D02*
D03*
Y96063D02*
D03*
D103*
X133917Y67303D02*
D03*
Y72303D02*
D03*
Y77303D02*
D03*
Y82303D02*
D03*
X154665D02*
D03*
Y77303D02*
D03*
Y72303D02*
D03*
Y67303D02*
D03*
Y35807D02*
D03*
Y40807D02*
D03*
Y45807D02*
D03*
Y50807D02*
D03*
X133917D02*
D03*
Y45807D02*
D03*
Y40807D02*
D03*
Y35807D02*
D03*
X154665Y5551D02*
D03*
Y10551D02*
D03*
Y15551D02*
D03*
Y20551D02*
D03*
X133917D02*
D03*
Y15551D02*
D03*
Y10551D02*
D03*
Y5551D02*
D03*
D104*
X210236Y104420D02*
D03*
Y110146D02*
D03*
X219685Y104420D02*
D03*
Y110146D02*
D03*
D105*
X8524Y48130D02*
D03*
Y54035D02*
D03*
Y69980D02*
D03*
Y64075D02*
D03*
M02*
