G04*
G04 #@! TF.GenerationSoftware,Altium Limited,Altium Designer,22.2.1 (43)*
G04*
G04 Layer_Physical_Order=1*
G04 Layer_Color=255*
%FSLAX25Y25*%
%MOIN*%
G70*
G04*
G04 #@! TF.SameCoordinates,0E938A99-CEBE-4E5B-98FA-E82972142B6D*
G04*
G04*
G04 #@! TF.FilePolarity,Positive*
G04*
G01*
G75*
%ADD15C,0.01000*%
%ADD17R,0.06102X0.05512*%
%ADD18R,0.05709X0.04724*%
%ADD19R,0.05315X0.03937*%
%ADD20R,0.12402X0.07717*%
%ADD21R,0.03543X0.01673*%
%ADD22R,0.07874X0.03543*%
%ADD23R,0.03543X0.07874*%
%ADD24R,0.05236X0.05236*%
%ADD25R,0.01673X0.03543*%
%ADD26O,0.01181X0.04528*%
%ADD27O,0.04528X0.01181*%
%ADD28R,0.16535X0.16535*%
%ADD29R,0.04724X0.05709*%
%ADD30R,0.02000X0.01402*%
G04:AMPARAMS|DCode=31|XSize=47.64mil|YSize=23.23mil|CornerRadius=5.81mil|HoleSize=0mil|Usage=FLASHONLY|Rotation=0.000|XOffset=0mil|YOffset=0mil|HoleType=Round|Shape=RoundedRectangle|*
%AMROUNDEDRECTD31*
21,1,0.04764,0.01161,0,0,0.0*
21,1,0.03602,0.02323,0,0,0.0*
1,1,0.01161,0.01801,-0.00581*
1,1,0.01161,-0.01801,-0.00581*
1,1,0.01161,-0.01801,0.00581*
1,1,0.01161,0.01801,0.00581*
%
%ADD31ROUNDEDRECTD31*%
%ADD32R,0.05512X0.06102*%
%ADD33R,0.04331X0.04724*%
%ADD34R,0.03150X0.06693*%
G04:AMPARAMS|DCode=35|XSize=67.21mil|YSize=24.25mil|CornerRadius=12.12mil|HoleSize=0mil|Usage=FLASHONLY|Rotation=0.000|XOffset=0mil|YOffset=0mil|HoleType=Round|Shape=RoundedRectangle|*
%AMROUNDEDRECTD35*
21,1,0.06721,0.00000,0,0,0.0*
21,1,0.04296,0.02425,0,0,0.0*
1,1,0.02425,0.02148,0.00000*
1,1,0.02425,-0.02148,0.00000*
1,1,0.02425,-0.02148,0.00000*
1,1,0.02425,0.02148,0.00000*
%
%ADD35ROUNDEDRECTD35*%
%ADD36R,0.06721X0.02425*%
%ADD37R,0.05906X0.05512*%
%ADD38R,0.05591X0.08386*%
G04:AMPARAMS|DCode=39|XSize=17.72mil|YSize=55.12mil|CornerRadius=1.95mil|HoleSize=0mil|Usage=FLASHONLY|Rotation=180.000|XOffset=0mil|YOffset=0mil|HoleType=Round|Shape=RoundedRectangle|*
%AMROUNDEDRECTD39*
21,1,0.01772,0.05122,0,0,180.0*
21,1,0.01382,0.05512,0,0,180.0*
1,1,0.00390,-0.00691,0.02561*
1,1,0.00390,0.00691,0.02561*
1,1,0.00390,0.00691,-0.02561*
1,1,0.00390,-0.00691,-0.02561*
%
%ADD39ROUNDEDRECTD39*%
%ADD40R,0.02756X0.02756*%
%ADD41R,0.05315X0.04331*%
%ADD42R,0.01402X0.02000*%
%ADD43R,0.03150X0.04134*%
%ADD44R,0.03740X0.05315*%
%ADD45R,0.04921X0.04803*%
%ADD46R,0.05315X0.03740*%
%ADD47R,0.00984X0.02756*%
%ADD48R,0.02756X0.00984*%
%ADD49R,0.03937X0.07087*%
%ADD50R,0.05512X0.05906*%
%ADD51R,0.06693X0.03150*%
%ADD52R,0.03960X0.05151*%
%ADD71R,0.10827X0.10827*%
%ADD78C,0.02559*%
%ADD79R,0.02559X0.02559*%
G04:AMPARAMS|DCode=80|XSize=35.43mil|YSize=94.49mil|CornerRadius=17.72mil|HoleSize=0mil|Usage=FLASHONLY|Rotation=270.000|XOffset=0mil|YOffset=0mil|HoleType=Round|Shape=RoundedRectangle|*
%AMROUNDEDRECTD80*
21,1,0.03543,0.05906,0,0,270.0*
21,1,0.00000,0.09449,0,0,270.0*
1,1,0.03543,-0.02953,0.00000*
1,1,0.03543,-0.02953,0.00000*
1,1,0.03543,0.02953,0.00000*
1,1,0.03543,0.02953,0.00000*
%
%ADD80ROUNDEDRECTD80*%
G04:AMPARAMS|DCode=81|XSize=35.43mil|YSize=66.93mil|CornerRadius=17.72mil|HoleSize=0mil|Usage=FLASHONLY|Rotation=270.000|XOffset=0mil|YOffset=0mil|HoleType=Round|Shape=RoundedRectangle|*
%AMROUNDEDRECTD81*
21,1,0.03543,0.03150,0,0,270.0*
21,1,0.00000,0.06693,0,0,270.0*
1,1,0.03543,-0.01575,0.00000*
1,1,0.03543,-0.01575,0.00000*
1,1,0.03543,0.01575,0.00000*
1,1,0.03543,0.01575,0.00000*
%
%ADD81ROUNDEDRECTD81*%
%ADD82C,0.02000*%
G04:AMPARAMS|DCode=84|XSize=133.86mil|YSize=196.85mil|CornerRadius=2.01mil|HoleSize=0mil|Usage=FLASHONLY|Rotation=90.000|XOffset=0mil|YOffset=0mil|HoleType=Round|Shape=RoundedRectangle|*
%AMROUNDEDRECTD84*
21,1,0.13386,0.19284,0,0,90.0*
21,1,0.12984,0.19685,0,0,90.0*
1,1,0.00402,0.09642,0.06492*
1,1,0.00402,0.09642,-0.06492*
1,1,0.00402,-0.09642,-0.06492*
1,1,0.00402,-0.09642,0.06492*
%
%ADD84ROUNDEDRECTD84*%
G04:AMPARAMS|DCode=85|XSize=17.72mil|YSize=11.81mil|CornerRadius=3.96mil|HoleSize=0mil|Usage=FLASHONLY|Rotation=0.000|XOffset=0mil|YOffset=0mil|HoleType=Round|Shape=RoundedRectangle|*
%AMROUNDEDRECTD85*
21,1,0.01772,0.00390,0,0,0.0*
21,1,0.00980,0.01181,0,0,0.0*
1,1,0.00791,0.00490,-0.00195*
1,1,0.00791,-0.00490,-0.00195*
1,1,0.00791,-0.00490,0.00195*
1,1,0.00791,0.00490,0.00195*
%
%ADD85ROUNDEDRECTD85*%
G04:AMPARAMS|DCode=86|XSize=15.75mil|YSize=11.81mil|CornerRadius=3.96mil|HoleSize=0mil|Usage=FLASHONLY|Rotation=0.000|XOffset=0mil|YOffset=0mil|HoleType=Round|Shape=RoundedRectangle|*
%AMROUNDEDRECTD86*
21,1,0.01575,0.00390,0,0,0.0*
21,1,0.00784,0.01181,0,0,0.0*
1,1,0.00791,0.00392,-0.00195*
1,1,0.00791,-0.00392,-0.00195*
1,1,0.00791,-0.00392,0.00195*
1,1,0.00791,0.00392,0.00195*
%
%ADD86ROUNDEDRECTD86*%
%ADD87C,0.02000*%
%ADD88R,0.06299X0.06299*%
%ADD89C,0.06299*%
%ADD90C,0.06000*%
%ADD91R,0.06000X0.06000*%
%ADD92C,0.15748*%
%ADD93C,0.01968*%
G36*
X7874Y116597D02*
X59646D01*
X59797Y116097D01*
X59733Y116054D01*
X59580Y115824D01*
X59526Y115553D01*
Y110431D01*
X59580Y110160D01*
X59733Y109930D01*
X59963Y109776D01*
X60234Y109723D01*
X61616D01*
X61887Y109776D01*
X62205Y109897D01*
X62522Y109776D01*
X62793Y109723D01*
X64175D01*
X64446Y109776D01*
X64676Y109930D01*
X64830Y110160D01*
X64884Y110431D01*
Y112451D01*
X64984Y112694D01*
Y113291D01*
X64884Y113533D01*
Y115553D01*
X64830Y115824D01*
X64676Y116054D01*
X64612Y116097D01*
X64764Y116597D01*
X67323Y116597D01*
X67475Y116097D01*
X67410Y116054D01*
X67257Y115824D01*
X67203Y115553D01*
Y113533D01*
X67102Y113291D01*
Y112694D01*
X67203Y112451D01*
Y110431D01*
X67257Y110160D01*
X67410Y109930D01*
X67640Y109776D01*
X67911Y109723D01*
X69293D01*
X69564Y109776D01*
X69882Y109897D01*
X70199Y109776D01*
X70470Y109723D01*
X71852D01*
X72123Y109776D01*
X72353Y109930D01*
X72507Y110160D01*
X72561Y110431D01*
Y112451D01*
X72661Y112694D01*
Y113291D01*
X72561Y113533D01*
Y115553D01*
X72507Y115824D01*
X72353Y116054D01*
X72289Y116097D01*
X72441Y116597D01*
X75000D01*
X75152Y116097D01*
X75088Y116054D01*
X74934Y115824D01*
X74880Y115553D01*
Y113533D01*
X74779Y113291D01*
Y112694D01*
X74880Y112451D01*
Y110431D01*
X74934Y110160D01*
X75088Y109930D01*
X75317Y109776D01*
X75589Y109723D01*
X76970D01*
X77242Y109776D01*
X77559Y109897D01*
X77877Y109776D01*
X78148Y109723D01*
X79530D01*
X79801Y109776D01*
X80031Y109930D01*
X80184Y110160D01*
X80238Y110431D01*
Y111579D01*
X80877D01*
X81461Y110995D01*
Y110550D01*
X81209Y110299D01*
X80980Y109747D01*
Y109151D01*
X81209Y108599D01*
X81631Y108177D01*
X82082Y107990D01*
X82207Y107857D01*
X82222Y107825D01*
X82343Y107449D01*
X82273Y107362D01*
X81827Y107177D01*
X81406Y106755D01*
X81177Y106204D01*
Y105607D01*
X81406Y105056D01*
X81827Y104634D01*
X82379Y104405D01*
X82976D01*
X83527Y104634D01*
X83949Y105056D01*
X84177Y105607D01*
Y105964D01*
X85367Y107153D01*
X85588Y107484D01*
X85665Y107874D01*
Y112570D01*
X87430Y114335D01*
X143279D01*
X146028Y111585D01*
Y108810D01*
X145874Y108374D01*
X145528Y108374D01*
X139559D01*
Y106925D01*
X138583D01*
X138192Y106848D01*
X137862Y106626D01*
X136287Y105052D01*
X136066Y104721D01*
X135988Y104331D01*
Y101603D01*
X131467Y97083D01*
X98739D01*
X98488Y97335D01*
X97936Y97563D01*
X97339D01*
X96788Y97335D01*
X96366Y96913D01*
X96138Y96361D01*
Y95765D01*
X96366Y95213D01*
X96788Y94791D01*
X97339Y94563D01*
X97936D01*
X98488Y94791D01*
X98739Y95043D01*
X111058D01*
X111250Y94582D01*
X105578Y88910D01*
X105357Y88579D01*
X105280Y88189D01*
Y84843D01*
X105078Y84718D01*
X104780Y84654D01*
X99343Y90091D01*
X99012Y90312D01*
X98622Y90390D01*
X95590D01*
X95338Y90642D01*
X94787Y90870D01*
X94190D01*
X93638Y90642D01*
X93217Y90220D01*
X92988Y89668D01*
Y89072D01*
X93217Y88520D01*
X93638Y88098D01*
X94190Y87870D01*
X94787D01*
X95338Y88098D01*
X95590Y88350D01*
X98200D01*
X102875Y83675D01*
X102850Y83551D01*
X102308Y83386D01*
X99343Y86351D01*
X99012Y86572D01*
X98622Y86650D01*
X95590D01*
X95338Y86902D01*
X94787Y87130D01*
X94190D01*
X93638Y86902D01*
X93217Y86480D01*
X92988Y85928D01*
Y85409D01*
X92988Y85332D01*
X92622Y84909D01*
X84146D01*
Y80409D01*
X84146Y80366D01*
Y79909D01*
X84146Y79866D01*
Y75410D01*
X84146Y75366D01*
Y74909D01*
X84146Y74866D01*
Y70410D01*
X84146Y70366D01*
Y69909D01*
X84146Y69866D01*
Y65409D01*
X84146Y65366D01*
Y64909D01*
X84146Y64866D01*
Y63657D01*
X83701D01*
X83311Y63580D01*
X82980Y63359D01*
X82735Y63114D01*
X82379D01*
X82118Y63006D01*
X81683Y63082D01*
X81546Y63269D01*
X81390Y63645D01*
X80968Y64067D01*
X80417Y64295D01*
X80060D01*
X79655Y64700D01*
X79902Y65161D01*
X80124Y65117D01*
X80806D01*
X80815Y65095D01*
X81237Y64673D01*
X81788Y64445D01*
X82385D01*
X82936Y64673D01*
X83358Y65095D01*
X83587Y65646D01*
Y66243D01*
X83358Y66795D01*
X82936Y67216D01*
X82385Y67445D01*
X81788D01*
X81237Y67216D01*
X80910Y67421D01*
X80821Y67697D01*
X80821D01*
Y70098D01*
X77821D01*
Y69716D01*
X77321Y69509D01*
X75722Y71107D01*
Y72067D01*
X72722D01*
Y69665D01*
X74281D01*
X75316Y68630D01*
X75109Y68130D01*
X72722D01*
Y67949D01*
X72169D01*
Y68180D01*
X71941Y68732D01*
X71519Y69153D01*
X70968Y69382D01*
X70371D01*
X69820Y69153D01*
X69398Y68732D01*
X69169Y68180D01*
Y67850D01*
X64969D01*
Y68709D01*
X65405Y68862D01*
X65827D01*
X66079Y68610D01*
X66631Y68382D01*
X67228D01*
X67779Y68610D01*
X68201Y69032D01*
X68429Y69583D01*
Y70180D01*
X68201Y70732D01*
X67787Y71146D01*
X68201Y71560D01*
X68429Y72111D01*
Y72708D01*
X68201Y73259D01*
X68092Y73368D01*
X68299Y73868D01*
X73819D01*
X74202Y74027D01*
X74360Y74410D01*
Y83464D01*
X74360Y83465D01*
X74202Y83847D01*
X71172Y86877D01*
X70789Y87036D01*
X70332Y87134D01*
X70326Y87143D01*
X70303Y87256D01*
Y92325D01*
X70494Y92520D01*
X70720Y92665D01*
X71879D01*
X72321Y92325D01*
Y87203D01*
X72375Y86932D01*
X72528Y86702D01*
X72758Y86548D01*
X73030Y86494D01*
X74411D01*
X74682Y86548D01*
X75000Y86669D01*
X75318Y86548D01*
X75589Y86494D01*
X76970D01*
X77242Y86548D01*
X77559Y86669D01*
X77877Y86548D01*
X78148Y86494D01*
X79530D01*
X79801Y86548D01*
X80031Y86702D01*
X80184Y86932D01*
X80238Y87203D01*
Y89223D01*
X80339Y89465D01*
Y90062D01*
X80238Y90305D01*
Y92325D01*
X80184Y92596D01*
X80031Y92826D01*
X79801Y92979D01*
X79530Y93033D01*
X78148D01*
X77877Y92979D01*
X77559Y92859D01*
X77242Y92979D01*
X76970Y93033D01*
X75589D01*
X75317Y92979D01*
X75199Y92935D01*
X74859Y93057D01*
X74773Y93106D01*
X74731Y93143D01*
X74663Y93489D01*
X74441Y93820D01*
X73856Y94406D01*
X73525Y94627D01*
X73135Y94705D01*
X59887D01*
X58303Y96289D01*
Y101969D01*
X58225Y102359D01*
X58004Y102690D01*
X57414Y103280D01*
X57083Y103501D01*
X56693Y103579D01*
X56209D01*
Y105815D01*
X49303D01*
Y99303D01*
X56209D01*
X56264Y98826D01*
Y95866D01*
X56341Y95476D01*
X56563Y95145D01*
X58744Y92964D01*
X59074Y92743D01*
X59117Y92735D01*
X59526Y92325D01*
Y90305D01*
X59425Y90062D01*
Y89465D01*
X59526Y89223D01*
Y87956D01*
X59064Y87765D01*
X58454Y88375D01*
X58071Y88533D01*
X58071Y88533D01*
X47279D01*
Y112402D01*
X47202Y112792D01*
X46981Y113122D01*
X45791Y114312D01*
Y114669D01*
X45563Y115220D01*
X45141Y115642D01*
X44590Y115870D01*
X43993D01*
X43442Y115642D01*
X43020Y115220D01*
X42791Y114669D01*
Y114072D01*
X43020Y113520D01*
X43442Y113098D01*
X43993Y112870D01*
X44349D01*
X45240Y111979D01*
Y84871D01*
X42586Y82217D01*
X42365Y81886D01*
X42287Y81496D01*
Y75795D01*
X40445D01*
Y73461D01*
X39173D01*
X38783Y73383D01*
X38452Y73162D01*
X37853Y72563D01*
X37497D01*
X36946Y72335D01*
X36524Y71913D01*
X36295Y71361D01*
Y70765D01*
X36524Y70213D01*
X36946Y69791D01*
X37497Y69563D01*
X38094D01*
X38645Y69791D01*
X39067Y70213D01*
X39295Y70765D01*
Y71121D01*
X39596Y71421D01*
X40445D01*
Y69087D01*
X46169D01*
Y75795D01*
X44327D01*
Y81074D01*
X46241Y82988D01*
X46703Y82797D01*
Y76772D01*
X46861Y76389D01*
X47244Y76230D01*
X48162D01*
X48319Y75795D01*
X48319Y75730D01*
Y69087D01*
X50161D01*
Y68336D01*
X50058Y68232D01*
X49702D01*
X49150Y68004D01*
X48728Y67582D01*
X48500Y67031D01*
Y66434D01*
X48728Y65883D01*
X49150Y65461D01*
X49266Y65412D01*
X49402Y64969D01*
X49402Y64815D01*
Y62984D01*
X50128D01*
X50395Y62484D01*
X50338Y62398D01*
X50260Y62008D01*
X50338Y61618D01*
X50377Y61559D01*
X50110Y61059D01*
X48651D01*
X48260Y61449D01*
X47930Y61670D01*
X47539Y61748D01*
X45885D01*
X45633Y62000D01*
X45082Y62228D01*
X44485D01*
X43934Y62000D01*
X43512Y61578D01*
X43284Y61027D01*
Y60430D01*
X43512Y59879D01*
X43934Y59457D01*
X44206Y59344D01*
X44201Y58805D01*
X43835Y58653D01*
X43413Y58232D01*
X43185Y57680D01*
Y57083D01*
X43413Y56532D01*
X43835Y56110D01*
X44387Y55882D01*
X44983D01*
X45535Y56110D01*
X45787Y56362D01*
X47016D01*
X47223Y55862D01*
X45051Y53691D01*
X33858Y53691D01*
X33476Y53532D01*
X33317Y53150D01*
Y47047D01*
X33476Y46665D01*
X33858Y46506D01*
X42118D01*
X42375Y46612D01*
X48176D01*
X48433Y46506D01*
X49637D01*
X49860Y46006D01*
X49681Y45574D01*
Y44977D01*
X49909Y44426D01*
X50331Y44004D01*
X50883Y43776D01*
X51480D01*
X52031Y44004D01*
X52453Y44426D01*
X52681Y44977D01*
Y45240D01*
X54126D01*
Y43693D01*
X56054D01*
X56245Y43231D01*
X47649Y34635D01*
X47490Y34252D01*
X47490Y34252D01*
Y14173D01*
X47649Y13791D01*
X48031Y13632D01*
X54949D01*
X55107Y13169D01*
X55100Y13132D01*
X54791Y12926D01*
X52035Y10170D01*
X51814Y9839D01*
X51736Y9449D01*
Y8571D01*
X49500D01*
Y2013D01*
X49500Y1665D01*
X49063Y1513D01*
X7874D01*
X7874Y1513D01*
Y1513D01*
X7390Y1551D01*
X6631Y1626D01*
X5436Y1988D01*
X4335Y2577D01*
X3369Y3369D01*
X2577Y4335D01*
X1988Y5436D01*
X1626Y6631D01*
X1551Y7390D01*
X1513Y7874D01*
X1513D01*
Y110236D01*
X1507Y110269D01*
X1626Y111479D01*
X1988Y112674D01*
X2577Y113776D01*
X3369Y114741D01*
X4335Y115533D01*
X5436Y116122D01*
X6631Y116484D01*
X7841Y116603D01*
X7874Y116597D01*
D02*
G37*
G36*
X149905Y96291D02*
X149697Y95791D01*
X149308D01*
X148757Y95563D01*
X148335Y95141D01*
X148106Y94590D01*
Y93993D01*
X148335Y93442D01*
X148587Y93190D01*
Y85068D01*
X145690Y82171D01*
X145266Y82454D01*
X145398Y82772D01*
Y83369D01*
X145169Y83921D01*
X144747Y84342D01*
X144196Y84571D01*
X143599D01*
X143048Y84342D01*
X142626Y83921D01*
X142398Y83369D01*
Y83013D01*
X134909Y75524D01*
X134688Y75193D01*
X134610Y74803D01*
Y56496D01*
X134688Y56106D01*
X134909Y55775D01*
X143767Y46917D01*
X144098Y46696D01*
X144488Y46618D01*
X151075D01*
Y45409D01*
X151075Y45366D01*
Y44909D01*
X151075Y44866D01*
Y40409D01*
X151075Y40366D01*
Y39909D01*
X151075Y39866D01*
Y38618D01*
X149133D01*
X148881Y38870D01*
X148330Y39098D01*
X147733D01*
X147182Y38870D01*
X146760Y38448D01*
X146531Y37897D01*
Y37300D01*
X146760Y36749D01*
X147182Y36327D01*
X147733Y36098D01*
X148330D01*
X148881Y36327D01*
X149133Y36579D01*
X151075D01*
Y35409D01*
X151075Y35366D01*
Y34909D01*
X151075Y34866D01*
Y33657D01*
X149370D01*
X149117Y33909D01*
X148566Y34138D01*
X147969D01*
X147418Y33909D01*
X146996Y33487D01*
X146768Y32936D01*
Y32339D01*
X146996Y31788D01*
X147418Y31366D01*
X147969Y31138D01*
X148566D01*
X149117Y31366D01*
X149370Y31618D01*
X151075D01*
Y30409D01*
X151075Y30366D01*
Y29909D01*
X151075Y29866D01*
Y25409D01*
X151075Y25366D01*
Y24909D01*
X151075Y24866D01*
Y20366D01*
X154492D01*
Y19488D01*
X154570Y19098D01*
X154791Y18767D01*
X156759Y16799D01*
X157090Y16578D01*
X157480Y16500D01*
X159953D01*
X160174Y16280D01*
X160725Y16051D01*
X161322D01*
X161873Y16280D01*
X162295Y16702D01*
X162524Y17253D01*
Y17850D01*
X162295Y18401D01*
X161873Y18823D01*
X161322Y19051D01*
X160725D01*
X160174Y18823D01*
X159890Y18539D01*
X157903D01*
X156576Y19866D01*
X156639Y20366D01*
X159949D01*
Y24866D01*
X159949Y24909D01*
Y25366D01*
X159949Y25409D01*
Y29866D01*
X159949Y29909D01*
Y30366D01*
X159949Y30409D01*
Y34866D01*
X159949Y34909D01*
Y35366D01*
X159949Y35409D01*
Y39866D01*
X159949Y39909D01*
Y40366D01*
X159949Y40409D01*
Y44388D01*
X160449Y44595D01*
X160509Y44535D01*
X161060Y44307D01*
X161657D01*
X161976Y44440D01*
X162472Y44153D01*
X162476Y44147D01*
Y43993D01*
X162705Y43442D01*
X163127Y43020D01*
X163678Y42791D01*
X164275D01*
X164826Y43020D01*
X165248Y43442D01*
X165476Y43993D01*
Y44590D01*
X165248Y45141D01*
X164826Y45563D01*
X164275Y45791D01*
X163678D01*
X163358Y45659D01*
X162863Y45945D01*
X162858Y45952D01*
Y46106D01*
X162630Y46657D01*
X162208Y47079D01*
X161657Y47307D01*
X161060D01*
X160509Y47079D01*
X160449Y47019D01*
X159949Y47226D01*
Y49909D01*
X159949D01*
Y50366D01*
X159949D01*
Y54866D01*
X159949Y54909D01*
Y55366D01*
X159949Y55409D01*
Y59866D01*
X159949Y59909D01*
Y60366D01*
X159949Y60409D01*
Y61776D01*
X160039D01*
X160430Y61853D01*
X160760Y62074D01*
X161840Y63154D01*
X162555D01*
X162560Y63150D01*
X162567Y63117D01*
Y62671D01*
X162560Y62637D01*
X162206Y62400D01*
X161965Y62040D01*
X161880Y61614D01*
X161965Y61189D01*
X162206Y60828D01*
X162560Y60591D01*
X162567Y60558D01*
Y60112D01*
X162560Y60078D01*
X162206Y59841D01*
X161965Y59481D01*
X161880Y59055D01*
X161965Y58630D01*
X162206Y58269D01*
X162560Y58032D01*
X162567Y57999D01*
Y57553D01*
X162560Y57519D01*
X162206Y57282D01*
X161965Y56922D01*
X161880Y56496D01*
X161965Y56071D01*
X162206Y55710D01*
X162560Y55473D01*
X162567Y55440D01*
Y54993D01*
X162560Y54960D01*
X162206Y54723D01*
X161965Y54362D01*
X161880Y53937D01*
X161965Y53512D01*
X162206Y53151D01*
X162560Y52914D01*
X162567Y52881D01*
Y52434D01*
X162560Y52401D01*
X162206Y52164D01*
X161965Y51803D01*
X161880Y51378D01*
X161965Y50952D01*
X162206Y50592D01*
X162567Y50351D01*
X162992Y50266D01*
X163656D01*
X163816Y50106D01*
X164367Y49878D01*
X164964D01*
X165515Y50106D01*
X165675Y50266D01*
X166339D01*
X166764Y50351D01*
X167125Y50592D01*
X167366Y50952D01*
X167450Y51378D01*
X167366Y51803D01*
X167125Y52164D01*
X166770Y52401D01*
X166764Y52434D01*
Y52881D01*
X166770Y52914D01*
X167125Y53151D01*
X167366Y53512D01*
X167450Y53937D01*
X167366Y54362D01*
X167125Y54723D01*
X166770Y54960D01*
X166764Y54993D01*
Y55440D01*
X166770Y55473D01*
X167125Y55710D01*
X167366Y56071D01*
X167450Y56496D01*
X167366Y56922D01*
X167125Y57282D01*
X166770Y57519D01*
X166764Y57553D01*
Y57999D01*
X166770Y58032D01*
X167125Y58269D01*
X167366Y58630D01*
X167450Y59055D01*
X167366Y59481D01*
X167125Y59841D01*
X166770Y60078D01*
X166764Y60112D01*
Y60558D01*
X166770Y60591D01*
X167125Y60828D01*
X167366Y61189D01*
X167450Y61614D01*
X167366Y62040D01*
X167125Y62400D01*
X166770Y62637D01*
X166764Y62671D01*
Y63117D01*
X166770Y63150D01*
X167125Y63387D01*
X167366Y63748D01*
X167450Y64173D01*
X167366Y64599D01*
X167125Y64960D01*
X166770Y65196D01*
X166764Y65230D01*
Y65676D01*
X166770Y65709D01*
X167125Y65946D01*
X167366Y66307D01*
X167450Y66732D01*
X167366Y67158D01*
X167125Y67519D01*
X166764Y67760D01*
X166339Y67844D01*
X165685D01*
Y68405D01*
X165607Y68796D01*
X165386Y69126D01*
X161846Y72666D01*
Y76575D01*
X161769Y76965D01*
X161548Y77296D01*
X160760Y78083D01*
X160430Y78304D01*
X160039Y78382D01*
X159949D01*
Y79866D01*
X159949Y79909D01*
Y80366D01*
X159949Y80409D01*
Y84909D01*
X151075D01*
X151075Y84909D01*
Y84909D01*
X151075Y84909D01*
X150626Y85033D01*
Y93190D01*
X150878Y93442D01*
X151129Y93492D01*
X152035Y92586D01*
X152366Y92365D01*
X152756Y92287D01*
X157649D01*
X160201Y89735D01*
Y87008D01*
X160278Y86618D01*
X160500Y86287D01*
X162271Y84515D01*
X162602Y84294D01*
X162992Y84217D01*
X167429D01*
X167878Y83767D01*
Y75394D01*
X167956Y75003D01*
X168177Y74673D01*
X169151Y73698D01*
X169024Y73454D01*
X168856Y73286D01*
X168504Y73356D01*
X168078Y73271D01*
X167718Y73030D01*
X167477Y72670D01*
X167392Y72244D01*
Y68898D01*
X167477Y68472D01*
X167718Y68111D01*
X168078Y67870D01*
X168504Y67786D01*
X168929Y67870D01*
X169290Y68111D01*
X169531Y68472D01*
X169543Y68533D01*
X170043Y68484D01*
Y64173D01*
X170121Y63783D01*
X170342Y63452D01*
X175460Y58334D01*
X175791Y58113D01*
X176181Y58035D01*
X176571Y58113D01*
X176902Y58334D01*
X177123Y58665D01*
X177201Y59055D01*
X177123Y59445D01*
X176902Y59776D01*
X172083Y64596D01*
Y68484D01*
X172583Y68533D01*
X172595Y68472D01*
X172836Y68111D01*
X173196Y67870D01*
X173622Y67786D01*
X174048Y67870D01*
X174408Y68111D01*
X174645Y68466D01*
X174679Y68472D01*
X175125D01*
X175158Y68466D01*
X175395Y68111D01*
X175756Y67870D01*
X176181Y67786D01*
X176607Y67870D01*
X176967Y68111D01*
X177204Y68466D01*
X177237Y68472D01*
X177684D01*
X177717Y68466D01*
X177954Y68111D01*
X178315Y67870D01*
X178740Y67786D01*
X179166Y67870D01*
X179526Y68111D01*
X179763Y68466D01*
X179797Y68472D01*
X180243D01*
X180276Y68466D01*
X180513Y68111D01*
X180874Y67870D01*
X181299Y67786D01*
X181725Y67870D01*
X182086Y68111D01*
X182322Y68466D01*
X182356Y68472D01*
X182802D01*
X182835Y68466D01*
X183072Y68111D01*
X183433Y67870D01*
X183858Y67786D01*
X184284Y67870D01*
X184644Y68111D01*
X184886Y68472D01*
X184970Y68898D01*
Y69551D01*
X185949D01*
X186197Y69348D01*
Y69091D01*
X186425Y68540D01*
X186621Y68344D01*
X186542Y67844D01*
X186024D01*
X185598Y67760D01*
X185237Y67519D01*
X184996Y67158D01*
X184912Y66732D01*
X184996Y66307D01*
X185237Y65946D01*
X185592Y65709D01*
X185598Y65676D01*
Y65230D01*
X185592Y65196D01*
X185237Y64960D01*
X184996Y64599D01*
X184912Y64173D01*
X184996Y63748D01*
X185237Y63387D01*
X185592Y63150D01*
X185598Y63117D01*
Y62671D01*
X185592Y62637D01*
X185237Y62400D01*
X184996Y62040D01*
X184912Y61614D01*
X184996Y61189D01*
X185237Y60828D01*
X185592Y60591D01*
X185598Y60558D01*
Y60112D01*
X185592Y60078D01*
X185237Y59841D01*
X184996Y59481D01*
X184912Y59055D01*
X184996Y58630D01*
X185237Y58269D01*
X185592Y58032D01*
X185598Y57999D01*
Y57553D01*
X185592Y57519D01*
X185237Y57282D01*
X184996Y56922D01*
X184912Y56496D01*
X184996Y56071D01*
X185237Y55710D01*
X185592Y55473D01*
X185598Y55440D01*
Y54993D01*
X185592Y54960D01*
X185237Y54723D01*
X184996Y54362D01*
X184912Y53937D01*
X184996Y53512D01*
X185237Y53151D01*
X185592Y52914D01*
X185598Y52881D01*
Y52434D01*
X185592Y52401D01*
X185237Y52164D01*
X184996Y51803D01*
X184912Y51378D01*
X184996Y50952D01*
X185237Y50592D01*
X185598Y50351D01*
X186024Y50266D01*
X186677D01*
Y43571D01*
X186686Y43527D01*
X186225Y43280D01*
X185422Y44083D01*
X185039Y44242D01*
X185039Y44242D01*
X169291Y44242D01*
X168909Y44083D01*
X168750Y43701D01*
Y34646D01*
X168750Y34646D01*
X168909Y34263D01*
X171938Y31233D01*
X172321Y31075D01*
X172778Y30977D01*
X172784Y30968D01*
X172807Y30854D01*
Y25785D01*
X172617Y25590D01*
X172391Y25445D01*
X171231D01*
X170789Y25785D01*
Y30907D01*
X170735Y31179D01*
X170582Y31409D01*
X170352Y31562D01*
X170081Y31616D01*
X168699D01*
X168428Y31562D01*
X168198Y31409D01*
X168023D01*
X167793Y31562D01*
X167522Y31616D01*
X166140D01*
X165869Y31562D01*
X165639Y31409D01*
X165464D01*
X165234Y31562D01*
X164963Y31616D01*
X163581D01*
X163310Y31562D01*
X163080Y31409D01*
X162926Y31179D01*
X162872Y30907D01*
Y28888D01*
X162772Y28645D01*
Y28048D01*
X162872Y27805D01*
Y25785D01*
X162926Y25514D01*
X163080Y25284D01*
X163310Y25131D01*
X163581Y25077D01*
X164963D01*
X165234Y25131D01*
X165464Y25284D01*
X165639D01*
X165869Y25131D01*
X166140Y25077D01*
X167522D01*
X167793Y25131D01*
X167878Y25188D01*
X168346Y24984D01*
X168370Y24961D01*
Y24705D01*
X168448Y24315D01*
X168669Y23984D01*
X168948Y23704D01*
X169279Y23483D01*
X169669Y23406D01*
X183304D01*
X183383Y23390D01*
X183830D01*
X184610Y22609D01*
Y16929D01*
X184688Y16539D01*
X184909Y16208D01*
X185406Y15711D01*
X185160Y15310D01*
X185131Y15280D01*
X184544D01*
X183993Y15051D01*
X183571Y14629D01*
X183343Y14078D01*
Y13481D01*
X183571Y12930D01*
X183993Y12508D01*
X184544Y12280D01*
X185141D01*
X185692Y12508D01*
X186114Y12930D01*
X186343Y13481D01*
Y14078D01*
X186277Y14235D01*
X186495Y14475D01*
X186668Y14599D01*
X187008Y14532D01*
X187886D01*
Y12295D01*
X194791D01*
Y18807D01*
X187886D01*
Y16678D01*
X187386Y16615D01*
X186650Y17352D01*
Y23031D01*
X186572Y23422D01*
X186351Y23753D01*
X184973Y25130D01*
X184642Y25351D01*
X184252Y25429D01*
X184023D01*
X183584Y25785D01*
Y27805D01*
X183685Y28048D01*
Y28645D01*
X183584Y28888D01*
Y30154D01*
X184061Y30444D01*
X184252Y30364D01*
X184252Y30364D01*
X195472D01*
X195855Y30523D01*
X196014Y30906D01*
Y39493D01*
X196514Y39643D01*
X197209Y38948D01*
Y37716D01*
X196957Y37464D01*
X196728Y36913D01*
Y36316D01*
X196957Y35765D01*
X197379Y35342D01*
X197930Y35114D01*
X198527D01*
X199078Y35342D01*
X199500Y35765D01*
X199728Y36316D01*
Y36913D01*
X199500Y37464D01*
X199248Y37716D01*
Y39370D01*
X199170Y39760D01*
X198949Y40091D01*
X197914Y41126D01*
X198122Y41626D01*
X200526D01*
X200549Y41626D01*
X201026D01*
X201343Y41339D01*
X201419Y40954D01*
X201422Y40926D01*
X201208Y40366D01*
X200922Y40248D01*
X200500Y39826D01*
X200272Y39275D01*
Y38678D01*
X200500Y38127D01*
X200922Y37705D01*
X201473Y37476D01*
X201830D01*
X203413Y35893D01*
X203744Y35672D01*
X204134Y35595D01*
X207283D01*
X207674Y35672D01*
X208004Y35893D01*
X208643Y36531D01*
X208716Y36513D01*
X209104Y36286D01*
Y23622D01*
X209149Y23515D01*
X209238Y23130D01*
X209149Y22745D01*
X209104Y22638D01*
Y13019D01*
X208044Y11958D01*
X207450D01*
X207226Y12459D01*
X207405Y12891D01*
Y13487D01*
X207177Y14039D01*
X206755Y14461D01*
X206204Y14689D01*
X205607D01*
X205056Y14461D01*
X204634Y14039D01*
X204405Y13487D01*
Y12891D01*
X204585Y12459D01*
X204361Y11958D01*
X202362D01*
X201979Y11800D01*
X201979Y11800D01*
X200405Y10225D01*
X200246Y9843D01*
X200246Y9843D01*
Y3937D01*
X200405Y3554D01*
X200405Y3554D01*
X201946Y2013D01*
X201739Y1513D01*
X183465D01*
X183313Y2013D01*
X183377Y2056D01*
X183530Y2286D01*
X183584Y2557D01*
Y7180D01*
X184084Y7387D01*
X184610Y6861D01*
Y4921D01*
X184688Y4531D01*
X184909Y4200D01*
X186484Y2626D01*
X186814Y2404D01*
X187205Y2327D01*
X194861D01*
X195252Y2404D01*
X195582Y2626D01*
X197261Y4304D01*
X197617D01*
X198169Y4532D01*
X198591Y4954D01*
X198819Y5506D01*
Y6102D01*
X198591Y6654D01*
X198169Y7076D01*
X197617Y7304D01*
X197020D01*
X196469Y7076D01*
X196047Y6654D01*
X195819Y6102D01*
Y5746D01*
X194439Y4366D01*
X187627D01*
X186650Y5344D01*
Y7283D01*
X186572Y7674D01*
X186351Y8004D01*
X184595Y9760D01*
X184264Y9981D01*
X183874Y10059D01*
X165339D01*
X164948Y9981D01*
X164618Y9760D01*
X163649Y8792D01*
X163428Y8461D01*
X163407Y8353D01*
X163310Y8334D01*
X163156Y8231D01*
X162784Y8265D01*
X162575Y8326D01*
X162492Y8527D01*
X162070Y8949D01*
X161992Y8981D01*
Y9523D01*
X162070Y9555D01*
X162492Y9977D01*
X162721Y10528D01*
Y11125D01*
X162492Y11676D01*
X162070Y12098D01*
X161885Y12175D01*
X161705Y12701D01*
X161933Y13253D01*
Y13849D01*
X161705Y14401D01*
X161283Y14823D01*
X160731Y15051D01*
X160135D01*
X159583Y14823D01*
X159161Y14401D01*
X158933Y13849D01*
Y13253D01*
X159161Y12701D01*
X159517Y12346D01*
X159457Y12031D01*
X159363Y11846D01*
X158374D01*
Y13689D01*
X155396D01*
X155296Y14189D01*
X155515Y14279D01*
X155937Y14702D01*
X156165Y15253D01*
Y15849D01*
X155937Y16401D01*
X155515Y16823D01*
X154964Y17051D01*
X154367D01*
X153816Y16823D01*
X153394Y16401D01*
X153165Y15849D01*
Y15253D01*
X153394Y14702D01*
X153816Y14279D01*
X154034Y14189D01*
X153935Y13689D01*
X153043D01*
Y7965D01*
X158374D01*
Y9807D01*
X160119D01*
X160371Y9555D01*
X160449Y9523D01*
Y8981D01*
X160371Y8949D01*
X159949Y8527D01*
X159721Y7976D01*
Y7379D01*
X159949Y6827D01*
X160201Y6575D01*
Y5540D01*
X160011Y5350D01*
X158374D01*
Y7193D01*
X153043D01*
Y1513D01*
X125351D01*
X125020Y2013D01*
X125122Y2261D01*
Y2617D01*
X127194Y4689D01*
X128378D01*
Y3831D01*
X132134D01*
Y7587D01*
X128378D01*
Y6728D01*
X126772D01*
X126382Y6651D01*
X126051Y6430D01*
X123680Y4059D01*
X123324D01*
X122772Y3831D01*
X122350Y3409D01*
X122122Y2857D01*
Y2261D01*
X122224Y2013D01*
X121893Y1513D01*
X99319D01*
Y7193D01*
X94272D01*
X94042Y7579D01*
X94272Y7965D01*
X99319D01*
Y13689D01*
X97673D01*
Y23003D01*
X98257Y23587D01*
X99578D01*
X99870Y23295D01*
X100200Y23074D01*
X100591Y22996D01*
X102276D01*
Y14264D01*
X106819D01*
Y14264D01*
X107276D01*
Y14264D01*
X111776D01*
X111819Y14264D01*
X112276D01*
X112319Y14264D01*
X116776D01*
X116819Y14264D01*
X117276D01*
X117319Y14264D01*
X121776D01*
X121819Y14264D01*
X122276D01*
X122319Y14264D01*
X126776D01*
X126819Y14264D01*
X127276D01*
X127319Y14264D01*
X131776D01*
X131819Y14264D01*
X132276D01*
X132319Y14264D01*
X136776D01*
X136819Y14264D01*
X137276D01*
X137319Y14264D01*
X141776D01*
X141819Y14264D01*
X142276D01*
X142319Y14264D01*
X146819D01*
Y23138D01*
X142319D01*
X142276Y23138D01*
X141819D01*
X141776Y23138D01*
X137319D01*
X137276Y23138D01*
X136819D01*
X136776Y23138D01*
X132319D01*
X132276Y23138D01*
X131819D01*
X131776Y23138D01*
X127319D01*
X127276Y23138D01*
X126819D01*
X126776Y23138D01*
X122319D01*
X122276Y23138D01*
X121819D01*
X121776Y23138D01*
X117319D01*
X117276Y23138D01*
X116819D01*
X116776Y23138D01*
X112319D01*
X112276Y23138D01*
X111819D01*
X111776Y23138D01*
X109145D01*
X108938Y23638D01*
X112147Y26846D01*
X112503D01*
X113054Y27075D01*
X113476Y27497D01*
X113705Y28048D01*
Y28645D01*
X113476Y29196D01*
X113054Y29618D01*
X112503Y29846D01*
X111906D01*
X111355Y29618D01*
X110933Y29196D01*
X110705Y28645D01*
Y28288D01*
X108091Y25675D01*
X107667Y25958D01*
X107799Y26276D01*
Y26873D01*
X107571Y27424D01*
X107149Y27846D01*
X106598Y28075D01*
X106001D01*
X105449Y27846D01*
X105028Y27424D01*
X104799Y26873D01*
Y26276D01*
X105028Y25725D01*
X105217Y25535D01*
X105010Y25035D01*
X103790D01*
X103657Y25370D01*
X103641Y25535D01*
X104027Y25922D01*
X104256Y26473D01*
Y27070D01*
X104027Y27621D01*
X103606Y28043D01*
X103336Y28155D01*
X103207Y28734D01*
X105257Y30784D01*
X105613D01*
X106165Y31012D01*
X106587Y31434D01*
X106815Y31985D01*
Y32582D01*
X106587Y33133D01*
X106165Y33555D01*
X105613Y33784D01*
X105017D01*
X104465Y33555D01*
X104043Y33133D01*
X103815Y32582D01*
Y32225D01*
X99184Y27594D01*
X97047D01*
X96657Y27517D01*
X96326Y27296D01*
X94358Y25327D01*
X94137Y24996D01*
X94059Y24606D01*
Y17221D01*
X93559Y17014D01*
X93360Y17213D01*
X92809Y17442D01*
X92212D01*
X91660Y17213D01*
X91238Y16791D01*
X91010Y16240D01*
Y15643D01*
X91238Y15092D01*
X91660Y14670D01*
X91843Y14595D01*
X91882Y14555D01*
X92020Y13980D01*
X91971Y13907D01*
X91894Y13517D01*
Y4921D01*
X91971Y4531D01*
X92192Y4200D01*
X92783Y3610D01*
X93114Y3389D01*
X93504Y3311D01*
X93988D01*
Y1513D01*
X91051D01*
Y7193D01*
X85720D01*
Y5547D01*
X82795D01*
X82543Y5799D01*
X81991Y6028D01*
X81394D01*
X80843Y5799D01*
X80738Y5694D01*
X80238Y5901D01*
Y7679D01*
X80184Y7950D01*
X80031Y8180D01*
X79801Y8334D01*
X79530Y8388D01*
X78148D01*
X77877Y8334D01*
X77647Y8180D01*
X77471D01*
X77242Y8334D01*
X76970Y8388D01*
X75589D01*
X75318Y8334D01*
X75088Y8180D01*
X74934Y7950D01*
X74880Y7679D01*
Y5659D01*
X74779Y5416D01*
Y4820D01*
X74880Y4577D01*
Y2557D01*
X74934Y2286D01*
X75088Y2056D01*
X75152Y2013D01*
X75000Y1513D01*
X72441D01*
X72289Y2013D01*
X72353Y2056D01*
X72507Y2286D01*
X72561Y2557D01*
Y4577D01*
X72661Y4820D01*
Y5416D01*
X72561Y5659D01*
Y7679D01*
X72507Y7950D01*
X72353Y8180D01*
X72123Y8334D01*
X71852Y8388D01*
X70470D01*
X70199Y8334D01*
X69882Y8213D01*
X69564Y8334D01*
X69293Y8388D01*
X67911D01*
X67640Y8334D01*
X67410Y8180D01*
X67257Y7950D01*
X67203Y7679D01*
Y5659D01*
X67102Y5416D01*
Y4820D01*
X67203Y4577D01*
Y2557D01*
X67257Y2286D01*
X67410Y2056D01*
X67475Y2013D01*
X67323Y1513D01*
X64764D01*
X64612Y2013D01*
X64676Y2056D01*
X64830Y2286D01*
X64884Y2557D01*
Y4577D01*
X64984Y4820D01*
Y5416D01*
X64884Y5659D01*
Y7679D01*
X64830Y7950D01*
X64676Y8180D01*
X64446Y8334D01*
X64175Y8388D01*
X62793D01*
X62522Y8334D01*
X62292Y8180D01*
X62117D01*
X61887Y8334D01*
X61616Y8388D01*
X60234D01*
X59963Y8334D01*
X59733Y8180D01*
X59580Y7950D01*
X59526Y7679D01*
Y5659D01*
X59425Y5416D01*
Y4820D01*
X59526Y4577D01*
Y2557D01*
X59580Y2286D01*
X59733Y2056D01*
X59797Y2013D01*
X59646Y1513D01*
X56449D01*
X56012Y1665D01*
X56012Y2013D01*
Y8571D01*
X53883D01*
X53820Y9071D01*
X55934Y11185D01*
X57480D01*
X57871Y11263D01*
X58201Y11484D01*
X59382Y12665D01*
X59603Y12996D01*
X59681Y13386D01*
Y22921D01*
X60165Y23406D01*
X65173D01*
X65563Y23483D01*
X65894Y23704D01*
X66764Y24574D01*
X66985Y24905D01*
X67034Y25150D01*
X67235Y25284D01*
X67389Y25514D01*
X67443Y25785D01*
Y30907D01*
X67389Y31179D01*
X67235Y31409D01*
X67189Y31439D01*
X67341Y31939D01*
X69341D01*
Y31277D01*
X69401Y31132D01*
X69432Y30977D01*
X69438Y30968D01*
X69461Y30854D01*
Y25839D01*
X69438Y25725D01*
X69432Y25716D01*
X69401Y25561D01*
X69341Y25416D01*
Y24409D01*
X69499Y24027D01*
X69882Y23868D01*
X72441D01*
X72824Y24027D01*
X72982Y24409D01*
Y25038D01*
X73030Y25077D01*
X74411D01*
X74683Y25131D01*
X75000Y25251D01*
X75318Y25131D01*
X75589Y25077D01*
X76970D01*
X77242Y25131D01*
X77559Y25251D01*
X77877Y25131D01*
X78148Y25077D01*
X79530D01*
X79801Y25131D01*
X80031Y25284D01*
X80184Y25514D01*
X80238Y25785D01*
Y27805D01*
X80339Y28048D01*
Y28645D01*
X80238Y28888D01*
Y30907D01*
X80184Y31179D01*
X80031Y31409D01*
X79801Y31562D01*
X79530Y31616D01*
X78148D01*
X77877Y31562D01*
X77647Y31409D01*
X77471D01*
X77242Y31562D01*
X76970Y31616D01*
X75589D01*
X75318Y31562D01*
X75000Y31442D01*
X74682Y31562D01*
X74411Y31616D01*
X73030D01*
X72982Y31655D01*
Y43701D01*
X72824Y44083D01*
X72441Y44242D01*
X65559D01*
X65540Y44234D01*
X61428D01*
X61409Y44242D01*
X60672D01*
X60573Y44742D01*
X60692Y44791D01*
X61114Y45213D01*
X61343Y45765D01*
Y46361D01*
X61114Y46913D01*
X60862Y47165D01*
Y47638D01*
X60785Y48028D01*
X60563Y48359D01*
X60021Y48902D01*
X60228Y49402D01*
X64969D01*
X65331Y49069D01*
Y48914D01*
X65559Y48363D01*
X65981Y47941D01*
X66532Y47713D01*
X67129D01*
X67680Y47941D01*
X67940Y48200D01*
X68258Y48309D01*
X68576Y48200D01*
X68835Y47941D01*
X69387Y47713D01*
X69983D01*
X70535Y47941D01*
X70957Y48363D01*
X71185Y48914D01*
Y49511D01*
X70957Y50062D01*
X70705Y50314D01*
Y55315D01*
X70627Y55705D01*
X70406Y56036D01*
X69626Y56815D01*
X69296Y57037D01*
X68906Y57114D01*
X68709D01*
Y59020D01*
X70858D01*
Y57374D01*
X77173D01*
Y62705D01*
X70858D01*
Y61059D01*
X68709D01*
Y64969D01*
X64969D01*
Y65811D01*
X69618D01*
X70008Y65889D01*
X70339Y66110D01*
X70611Y66382D01*
X70727D01*
X70901Y66208D01*
X71232Y65987D01*
X71622Y65909D01*
X72722D01*
Y65728D01*
X75587Y65728D01*
X75870Y65616D01*
X76103Y65440D01*
X76248Y65224D01*
X78618Y62853D01*
Y62497D01*
X78847Y61946D01*
X79268Y61524D01*
X79820Y61295D01*
X80417D01*
X80677Y61403D01*
X81112Y61327D01*
X81250Y61140D01*
X81406Y60764D01*
X81827Y60343D01*
X82379Y60114D01*
X82976D01*
X83527Y60343D01*
X83646Y60461D01*
X84146Y60366D01*
Y59909D01*
X84146Y59866D01*
Y59428D01*
X83646Y59094D01*
X83444Y59177D01*
X82847D01*
X82296Y58949D01*
X82044Y58697D01*
X81102D01*
X80712Y58619D01*
X80381Y58398D01*
X79397Y57414D01*
X79176Y57083D01*
X79098Y56693D01*
Y53262D01*
X78917D01*
Y50429D01*
X75905D01*
X75653Y50681D01*
X75102Y50909D01*
X74505D01*
X73953Y50681D01*
X73532Y50259D01*
X73303Y49708D01*
Y49111D01*
X73532Y48560D01*
X73664Y48428D01*
X73756Y47930D01*
X73635Y47803D01*
X73335Y47503D01*
X73106Y46952D01*
Y46355D01*
X73335Y45804D01*
X73757Y45382D01*
X74308Y45153D01*
X74905D01*
X75456Y45382D01*
X75713Y45639D01*
X76949D01*
Y45163D01*
X79350D01*
Y47550D01*
X79850Y47757D01*
X80886Y46722D01*
Y45163D01*
X83287D01*
Y48163D01*
X82328D01*
X80729Y49762D01*
X80936Y50262D01*
X81319D01*
Y53262D01*
X81138D01*
Y56271D01*
X81525Y56658D01*
X82044D01*
X82296Y56406D01*
X82847Y56177D01*
X83444D01*
X83646Y56261D01*
X84146Y55927D01*
Y55366D01*
X84146D01*
Y54909D01*
X84146D01*
Y50366D01*
X84146D01*
Y49909D01*
X84146D01*
Y45409D01*
X84146Y45366D01*
Y44909D01*
X84146Y44866D01*
Y40366D01*
X84146D01*
Y39909D01*
X84146D01*
Y35409D01*
X84146Y35366D01*
Y34909D01*
X84146Y34866D01*
Y30409D01*
X84146Y30366D01*
Y29909D01*
X84146Y29866D01*
Y25409D01*
X84146Y25366D01*
Y24909D01*
X84146Y24866D01*
Y20366D01*
X88632D01*
X88763Y20172D01*
X88885Y19866D01*
X88689Y19393D01*
Y18796D01*
X88917Y18245D01*
X89339Y17823D01*
X89891Y17594D01*
X90487D01*
X91039Y17823D01*
X91461Y18245D01*
X91689Y18796D01*
Y19393D01*
X91493Y19866D01*
X91615Y20172D01*
X91746Y20366D01*
X93020D01*
Y24866D01*
X93020Y24909D01*
Y25366D01*
X93020Y25409D01*
Y29866D01*
X93020Y29909D01*
Y30366D01*
X93020Y30409D01*
Y31618D01*
X97598D01*
X97989Y31696D01*
X98319Y31917D01*
X100816Y34413D01*
X105315D01*
X105705Y34491D01*
X106036Y34712D01*
X108989Y37665D01*
X109210Y37996D01*
X109287Y38386D01*
Y46850D01*
X109210Y47241D01*
X108989Y47571D01*
X102690Y53871D01*
X102359Y54092D01*
X101969Y54169D01*
X99527D01*
X99275Y54421D01*
X99005Y54533D01*
X98876Y55111D01*
X104855Y61090D01*
X105076Y61421D01*
X105153Y61811D01*
Y62348D01*
X105654Y62620D01*
X106001Y62476D01*
X106598D01*
X107149Y62705D01*
X107571Y63127D01*
X107799Y63678D01*
Y64275D01*
X107571Y64826D01*
X107242Y65155D01*
X107187Y65453D01*
X107242Y65751D01*
X107571Y66079D01*
X107799Y66631D01*
Y67228D01*
X107571Y67779D01*
X107319Y68031D01*
Y87767D01*
X113021Y93469D01*
X132874D01*
X133264Y93546D01*
X133595Y93767D01*
X137627Y97799D01*
X139559D01*
Y96350D01*
X145874D01*
Y99647D01*
X146175Y99795D01*
X146374Y99822D01*
X149905Y96291D01*
D02*
G37*
G36*
X148074Y116597D02*
X148290Y116097D01*
X148106Y115653D01*
Y115056D01*
X148335Y114505D01*
X148757Y114083D01*
X149308Y113854D01*
X149905D01*
X150456Y114083D01*
X150878Y114505D01*
X151106Y115056D01*
Y115653D01*
X150922Y116097D01*
X151138Y116597D01*
X162992D01*
X163144Y116097D01*
X163080Y116054D01*
X162926Y115824D01*
X162872Y115553D01*
Y110431D01*
X162926Y110160D01*
X163080Y109930D01*
X163310Y109776D01*
X163581Y109723D01*
X164963D01*
X165234Y109776D01*
X165551Y109897D01*
X165869Y109776D01*
X166140Y109723D01*
X167522D01*
X167793Y109776D01*
X168023Y109930D01*
X168176Y110160D01*
X168230Y110431D01*
Y112451D01*
X168331Y112694D01*
Y113291D01*
X168230Y113533D01*
Y115553D01*
X168176Y115824D01*
X168023Y116054D01*
X167959Y116097D01*
X168110Y116597D01*
X170669D01*
X170821Y116097D01*
X170757Y116054D01*
X170603Y115824D01*
X170549Y115553D01*
Y113533D01*
X170449Y113291D01*
Y112694D01*
X170549Y112451D01*
Y110431D01*
X170603Y110160D01*
X170757Y109930D01*
X170987Y109776D01*
X171258Y109723D01*
X172640D01*
X172911Y109776D01*
X173228Y109897D01*
X173546Y109776D01*
X173817Y109723D01*
X175199D01*
X175470Y109776D01*
X175700Y109930D01*
X175853Y110160D01*
X175907Y110431D01*
Y112451D01*
X176008Y112694D01*
Y113291D01*
X175907Y113533D01*
Y115553D01*
X175853Y115824D01*
X175700Y116054D01*
X175636Y116097D01*
X175787Y116597D01*
X178346D01*
X178498Y116097D01*
X178434Y116054D01*
X178280Y115824D01*
X178226Y115553D01*
Y113533D01*
X178126Y113291D01*
Y112694D01*
X178226Y112451D01*
Y110431D01*
X178280Y110160D01*
X178434Y109930D01*
X178664Y109776D01*
X178935Y109723D01*
X180317D01*
X180588Y109776D01*
X180905Y109897D01*
X181223Y109776D01*
X181494Y109723D01*
X182876D01*
X183147Y109776D01*
X183377Y109930D01*
X183530Y110160D01*
X183584Y110431D01*
Y112451D01*
X183685Y112694D01*
Y113291D01*
X183584Y113533D01*
Y115553D01*
X183530Y115824D01*
X183377Y116054D01*
X183313Y116097D01*
X183465Y116597D01*
X187646D01*
X188083Y116445D01*
X188083Y116097D01*
Y109539D01*
X190319D01*
Y107903D01*
X189735Y107319D01*
X186417D01*
X186027Y107241D01*
X185696Y107020D01*
X183925Y105248D01*
X183704Y104918D01*
X183626Y104528D01*
Y94911D01*
X183420Y94705D01*
X177751D01*
X177361Y94627D01*
X177030Y94406D01*
X176444Y93820D01*
X176223Y93489D01*
X176146Y93099D01*
Y92988D01*
X176105Y92979D01*
X175875Y92826D01*
X175721Y92596D01*
X175668Y92325D01*
Y87203D01*
X175721Y86932D01*
X175875Y86702D01*
X176105Y86548D01*
X176376Y86494D01*
X177758D01*
X178029Y86548D01*
X178347Y86669D01*
X178664Y86548D01*
X178935Y86494D01*
X180317D01*
X180588Y86548D01*
X180905Y86669D01*
X181223Y86548D01*
X181494Y86494D01*
X182876D01*
X183147Y86548D01*
X183377Y86702D01*
X183530Y86932D01*
X183584Y87203D01*
Y89223D01*
X183685Y89465D01*
Y90062D01*
X183584Y90305D01*
Y92325D01*
X184017Y92700D01*
X184233Y92743D01*
X184564Y92964D01*
X184982Y93383D01*
X185482Y93176D01*
Y86838D01*
X183831Y85187D01*
X173770D01*
Y86833D01*
X173709Y86979D01*
X173678Y87134D01*
X173672Y87143D01*
X173650Y87256D01*
Y92272D01*
X173693Y92490D01*
X173676Y92579D01*
X173703Y92716D01*
X173687Y92740D01*
X173689Y92769D01*
X173536Y93269D01*
X173452Y93371D01*
X173401Y93493D01*
X173325Y93524D01*
X173273Y93588D01*
X173141Y93601D01*
X173019Y93651D01*
X170879D01*
X170757Y93601D01*
X170625Y93588D01*
X170572Y93524D01*
X170496Y93493D01*
X170446Y93371D01*
X170361Y93269D01*
X170277Y92994D01*
X170081Y93033D01*
X168699D01*
X168428Y92979D01*
X168110Y92859D01*
X167793Y92979D01*
X167522Y93033D01*
X166140D01*
X165869Y92979D01*
X165551Y92859D01*
X165234Y92979D01*
X164963Y93033D01*
X163581D01*
X163310Y92979D01*
X163080Y92826D01*
X162926Y92596D01*
X162872Y92325D01*
Y90305D01*
X162772Y90062D01*
Y89465D01*
X162872Y89223D01*
Y87963D01*
X162372Y87696D01*
X162240Y87784D01*
Y90158D01*
X162162Y90548D01*
X161941Y90878D01*
X158792Y94028D01*
X158461Y94249D01*
X158071Y94327D01*
X153178D01*
X152626Y94879D01*
Y95656D01*
X153126Y95990D01*
X153245Y95941D01*
X153842D01*
X154393Y96169D01*
X154815Y96591D01*
X155043Y97143D01*
Y97739D01*
X154815Y98291D01*
X154393Y98713D01*
X153842Y98941D01*
X153245D01*
X152694Y98713D01*
X152272Y98291D01*
X152043Y97739D01*
X151543Y97536D01*
X148067Y101013D01*
Y112008D01*
X147989Y112398D01*
X147768Y112729D01*
X144422Y116075D01*
X144389Y116097D01*
X144541Y116597D01*
X148074D01*
D02*
G37*
G36*
X235720Y116597D02*
X236220Y116597D01*
X236705Y116559D01*
X237463Y116484D01*
X238658Y116122D01*
X239760Y115533D01*
X240725Y114741D01*
X241517Y113775D01*
X242106Y112674D01*
X242469Y111479D01*
X242543Y110724D01*
X242581Y110236D01*
X242581Y110236D01*
X242581Y109745D01*
Y94607D01*
X242081Y94400D01*
X241272Y95209D01*
X240941Y95430D01*
X240551Y95508D01*
X239083D01*
Y97843D01*
X233358D01*
Y91134D01*
X239083D01*
Y93469D01*
X240129D01*
X240713Y92885D01*
Y73060D01*
X239932Y72279D01*
X239048D01*
X238821Y72620D01*
X238463Y72859D01*
X238380Y72875D01*
Y73385D01*
X238463Y73401D01*
X238821Y73640D01*
X239059Y73998D01*
X239143Y74419D01*
Y75581D01*
X239059Y76002D01*
X238821Y76360D01*
X238463Y76599D01*
X238380Y76615D01*
Y77125D01*
X238463Y77141D01*
X238821Y77380D01*
X239059Y77738D01*
X239143Y78159D01*
Y79321D01*
X239059Y79742D01*
X238821Y80100D01*
X238463Y80339D01*
X238041Y80423D01*
X237260D01*
Y83260D01*
X239083D01*
Y89969D01*
X233358D01*
Y83260D01*
X235221D01*
Y80423D01*
X234439D01*
X234017Y80339D01*
X233660Y80100D01*
X233421Y79742D01*
X233337Y79321D01*
Y78159D01*
X233421Y77738D01*
X233660Y77380D01*
X234017Y77141D01*
X234100Y77125D01*
Y76615D01*
X234017Y76599D01*
X233660Y76360D01*
X233433Y76020D01*
X229166D01*
X228939Y76360D01*
X228581Y76599D01*
X228498Y76615D01*
Y77125D01*
X228581Y77141D01*
X228939Y77380D01*
X229177Y77738D01*
X229261Y78159D01*
Y79321D01*
X229177Y79742D01*
X228939Y80100D01*
X228581Y80339D01*
X228159Y80423D01*
X224557D01*
X224135Y80339D01*
X223778Y80100D01*
X223539Y79742D01*
X223455Y79321D01*
Y78159D01*
X223539Y77738D01*
X223778Y77380D01*
X224135Y77141D01*
X224218Y77125D01*
Y76615D01*
X224135Y76599D01*
X223778Y76360D01*
X223539Y76002D01*
X223455Y75581D01*
Y74419D01*
X223485Y74270D01*
X223136Y73770D01*
X222468D01*
X220855Y75383D01*
X220472Y75541D01*
X220472Y75541D01*
X215551D01*
X215168Y75383D01*
X215010Y75000D01*
Y67126D01*
Y60039D01*
X215168Y59657D01*
X215551Y59498D01*
X219488D01*
X219488Y59498D01*
X219871Y59657D01*
X221839Y61625D01*
X221998Y62008D01*
X221998Y62008D01*
Y67886D01*
X222665Y68553D01*
X226461D01*
X226862Y68315D01*
X226862Y68053D01*
Y63197D01*
X226843Y63098D01*
Y62802D01*
X226084Y62043D01*
X225506D01*
Y62224D01*
X222506D01*
Y60557D01*
X222502Y60555D01*
X221906D01*
X221354Y60327D01*
X220933Y59905D01*
X220704Y59354D01*
Y58757D01*
X220933Y58205D01*
X221010Y58128D01*
X220803Y57628D01*
X216142D01*
X215759Y57469D01*
X215759Y57469D01*
X209954Y51664D01*
X209533Y51681D01*
X209383Y51735D01*
X209343Y51834D01*
X208921Y52256D01*
X208369Y52484D01*
X207772D01*
X207348Y52309D01*
X206848Y52536D01*
Y52862D01*
X206531D01*
Y53489D01*
X207031Y53762D01*
X207379Y53618D01*
X207976D01*
X208527Y53847D01*
X208949Y54268D01*
X209177Y54820D01*
Y55417D01*
X208949Y55968D01*
X208527Y56390D01*
X207976Y56618D01*
X207379D01*
X207031Y56474D01*
X206531Y56747D01*
Y59252D01*
X206454Y59642D01*
X206233Y59973D01*
X203382Y62824D01*
Y64879D01*
X203699Y65248D01*
X204175D01*
Y65248D01*
X206848D01*
Y66500D01*
X209331D01*
X209583Y66248D01*
X210135Y66020D01*
X210731D01*
X211283Y66248D01*
X211705Y66670D01*
X211933Y67221D01*
Y67818D01*
X211705Y68369D01*
X211283Y68791D01*
X210731Y69020D01*
X210135D01*
X209583Y68791D01*
X209331Y68539D01*
X206848D01*
Y69791D01*
X204175D01*
Y69791D01*
X203699D01*
Y69791D01*
X201026D01*
Y69791D01*
X200549D01*
Y69791D01*
X197876D01*
Y69791D01*
X197400Y69791D01*
Y69791D01*
X194726Y69791D01*
X194720Y70289D01*
Y71063D01*
X194643Y71453D01*
X194622Y71484D01*
X194918Y71941D01*
X197400D01*
Y71941D01*
X197876D01*
Y71941D01*
X200526D01*
X200549Y71941D01*
Y71941D01*
X201026D01*
Y71941D01*
X203699D01*
Y71941D01*
X204175D01*
Y71941D01*
X206848D01*
Y76484D01*
X206848Y76484D01*
X206848D01*
X207071Y76889D01*
X209382Y79200D01*
X209603Y79531D01*
X209681Y79921D01*
Y82909D01*
X210143Y83100D01*
X210893Y82350D01*
X211224Y82129D01*
X211614Y82051D01*
X220866D01*
X221256Y82129D01*
X221587Y82350D01*
X224832Y85595D01*
X225484D01*
Y83260D01*
X231209D01*
Y89969D01*
X229366D01*
Y91134D01*
X231209D01*
Y97843D01*
X225484D01*
Y91134D01*
X227327D01*
Y89969D01*
X225484D01*
Y87634D01*
X224410D01*
X224019Y87556D01*
X223689Y87335D01*
X220444Y84091D01*
X212036D01*
X211256Y84871D01*
Y86811D01*
X211178Y87201D01*
X210957Y87532D01*
X208595Y89894D01*
X208264Y90115D01*
X207874Y90193D01*
X205703D01*
X205570Y90693D01*
X205929Y90900D01*
X206580Y91552D01*
X207041Y92350D01*
X207279Y93240D01*
Y94162D01*
X207041Y95052D01*
X206580Y95850D01*
X205929Y96501D01*
X205131Y96962D01*
X204240Y97201D01*
X203319D01*
X202429Y96962D01*
X201630Y96501D01*
X200979Y95850D01*
X200518Y95052D01*
X200279Y94162D01*
Y93240D01*
X200518Y92350D01*
X200979Y91552D01*
X201630Y90900D01*
X201990Y90693D01*
X201855Y90193D01*
X198425D01*
X198035Y90115D01*
X197704Y89894D01*
X197460Y89650D01*
X196998Y89841D01*
X196998Y104331D01*
X196839Y104713D01*
X196457Y104872D01*
X190721D01*
X190563Y105335D01*
X190570Y105372D01*
X190878Y105578D01*
X192060Y106759D01*
X192281Y107090D01*
X192358Y107480D01*
Y109539D01*
X194595D01*
Y116097D01*
X195031Y116597D01*
X235720D01*
D02*
G37*
G36*
X69762Y92325D02*
Y87203D01*
X69816Y86932D01*
X69882Y86833D01*
Y86614D01*
X70101D01*
X70199Y86548D01*
X70470Y86494D01*
X70789D01*
X73819Y83465D01*
Y74410D01*
X56496D01*
X54134Y76772D01*
X47244D01*
Y84271D01*
X47279Y84449D01*
Y87992D01*
X58071D01*
X60236Y85827D01*
X66142D01*
X66828Y86513D01*
X67005Y86548D01*
X67235Y86702D01*
X67389Y86932D01*
X67443Y87203D01*
Y89223D01*
X67543Y89465D01*
Y90062D01*
X67443Y90305D01*
Y92325D01*
X67885Y92665D01*
X69320D01*
X69762Y92325D01*
D02*
G37*
G36*
X196457Y84646D02*
X186811Y75000D01*
X174834D01*
X174603Y75155D01*
X174213Y75232D01*
X170669D01*
Y86833D01*
X170735Y86932D01*
X170789Y87203D01*
Y89223D01*
X170890Y89465D01*
Y90062D01*
X170789Y90305D01*
Y92325D01*
X170735Y92596D01*
X170726Y92610D01*
X170879Y93110D01*
X173019D01*
X173172Y92610D01*
X173162Y92596D01*
X173108Y92325D01*
Y87203D01*
X173162Y86932D01*
X173228Y86833D01*
Y84646D01*
X184055D01*
X186024Y86614D01*
Y104331D01*
X196457D01*
X196457Y84646D01*
D02*
G37*
G36*
X207642Y85208D02*
Y80344D01*
X204791Y77493D01*
X204570Y77162D01*
X204507Y76847D01*
X204175Y76484D01*
X203882D01*
X203382Y76853D01*
Y76968D01*
X203304Y77359D01*
X203083Y77689D01*
X201264Y79508D01*
X200934Y79729D01*
X200543Y79807D01*
X198940D01*
X198550Y79729D01*
X198219Y79508D01*
X197914Y79203D01*
X197475Y79257D01*
X197296Y79712D01*
X199934Y82350D01*
X200155Y82681D01*
X200232Y83071D01*
Y85798D01*
X201013Y86579D01*
X206271D01*
X207642Y85208D01*
D02*
G37*
G36*
X222244Y73228D02*
X232283D01*
Y69095D01*
X222441D01*
X221457Y68110D01*
Y62008D01*
X219488Y60039D01*
X215551D01*
Y67126D01*
Y75000D01*
X220472D01*
X222244Y73228D01*
D02*
G37*
G36*
X64953Y62984D02*
Y61016D01*
Y59047D01*
Y57079D01*
Y55110D01*
Y53158D01*
X55645D01*
X55493Y53524D01*
X55110Y53683D01*
X53683D01*
Y57079D01*
X53524Y57461D01*
X53158Y57613D01*
Y59047D01*
Y60988D01*
X55680D01*
X58334Y58334D01*
X58665Y58113D01*
X59055Y58035D01*
X59445Y58113D01*
X59776Y58334D01*
X59997Y58665D01*
X60075Y59055D01*
X59997Y59445D01*
X59776Y59776D01*
X56823Y62729D01*
X56493Y62950D01*
X56102Y63028D01*
X53158D01*
Y64953D01*
X64953D01*
Y62984D01*
D02*
G37*
G36*
X233660Y73640D02*
X234017Y73401D01*
X234100Y73385D01*
Y72875D01*
X234017Y72859D01*
X233660Y72620D01*
X233421Y72262D01*
X233337Y71841D01*
Y70679D01*
X233421Y70258D01*
X233660Y69900D01*
X234017Y69661D01*
X234439Y69577D01*
X238041D01*
X238463Y69661D01*
X238821Y69900D01*
X239048Y70240D01*
X240354D01*
X240744Y70318D01*
X241075Y70539D01*
X242081Y71545D01*
X242581Y71338D01*
Y46515D01*
X242084Y46453D01*
X241863Y46784D01*
X241075Y47571D01*
X240744Y47792D01*
X240354Y47870D01*
X239048D01*
X238821Y48210D01*
X238463Y48449D01*
X238041Y48533D01*
X234439D01*
X234017Y48449D01*
X233660Y48210D01*
X233421Y47853D01*
X233337Y47431D01*
Y46270D01*
X233421Y45848D01*
X233660Y45491D01*
X234017Y45252D01*
X234100Y45235D01*
Y44725D01*
X234017Y44709D01*
X233660Y44470D01*
X233433Y44130D01*
X232950D01*
X232720Y44630D01*
X232825Y44882D01*
Y48425D01*
X232666Y48808D01*
X232283Y48966D01*
X222862D01*
X221001Y50828D01*
X220915Y51449D01*
X221839Y52373D01*
X221998Y52756D01*
X221998Y52756D01*
Y57055D01*
X221998Y57087D01*
X222345Y57555D01*
X222502D01*
X223054Y57784D01*
X223306Y58035D01*
X231861D01*
X232642Y57255D01*
Y56981D01*
X232587Y56504D01*
X232142Y56504D01*
X226862D01*
Y54169D01*
X225506D01*
Y54350D01*
X222506D01*
Y51949D01*
X225506D01*
Y52130D01*
X226862D01*
Y49795D01*
X232587D01*
Y52863D01*
X233087Y53070D01*
X233531Y52626D01*
X233862Y52404D01*
X234252Y52327D01*
X234736D01*
Y49795D01*
X240461D01*
Y56504D01*
X238618D01*
Y61606D01*
X240461D01*
Y68315D01*
X234736D01*
Y61606D01*
X236579D01*
Y56504D01*
X234736D01*
X234681Y56981D01*
Y57677D01*
X234603Y58067D01*
X234382Y58398D01*
X233004Y59776D01*
X232674Y59997D01*
X232283Y60075D01*
X227706D01*
X227499Y60575D01*
X228531Y61606D01*
X232587D01*
X232587Y68250D01*
X232632Y68514D01*
X232691Y68772D01*
X232825Y69095D01*
Y73228D01*
X232720Y73480D01*
X232950Y73980D01*
X233433D01*
X233660Y73640D01*
D02*
G37*
G36*
X53142Y53142D02*
X55110D01*
Y51418D01*
X55083Y51279D01*
Y49177D01*
X54732Y48827D01*
X54126D01*
Y48221D01*
X53185Y47279D01*
X52165D01*
X51775Y47202D01*
X51544Y47047D01*
X48433D01*
Y47153D01*
X42118D01*
Y47047D01*
X33858D01*
Y53150D01*
X45276Y53150D01*
X49177Y57051D01*
X51279D01*
X51418Y57079D01*
X53142D01*
Y53142D01*
D02*
G37*
G36*
X72441Y31277D02*
X72375Y31179D01*
X72321Y30907D01*
Y28888D01*
X72220Y28645D01*
Y28048D01*
X72321Y27805D01*
Y25785D01*
X72375Y25514D01*
X72441Y25416D01*
Y24409D01*
X69882D01*
Y25416D01*
X69948Y25514D01*
X70002Y25785D01*
Y30907D01*
X69948Y31179D01*
X69882Y31277D01*
Y32480D01*
X59055D01*
X57087Y30512D01*
Y14173D01*
X48031D01*
Y34252D01*
X57472Y43693D01*
X58276D01*
Y43701D01*
X61409D01*
Y43693D01*
X65559D01*
Y43701D01*
X72441D01*
Y31277D01*
D02*
G37*
G36*
X222638Y48425D02*
X232283D01*
Y44882D01*
X222638D01*
X220472Y42717D01*
X215551D01*
Y50591D01*
X220472D01*
X222638Y48425D01*
D02*
G37*
G36*
X221457Y52756D02*
X219882Y51181D01*
X215158D01*
Y50947D01*
X215010Y50591D01*
Y42717D01*
X215158Y42360D01*
Y42323D01*
X215748Y41732D01*
X222441D01*
Y37008D01*
X211614D01*
X210236Y38386D01*
Y51181D01*
X216142Y57087D01*
X221457D01*
Y52756D01*
D02*
G37*
G36*
X185039Y43701D02*
X188976Y39764D01*
X193503D01*
X193578Y39749D01*
X195472D01*
Y30906D01*
X184252D01*
X182874Y32283D01*
X176969D01*
X176282Y31597D01*
X176105Y31562D01*
X175875Y31409D01*
X175721Y31179D01*
X175668Y30907D01*
Y28888D01*
X175567Y28645D01*
Y28048D01*
X175668Y27805D01*
Y25785D01*
X175225Y25445D01*
X173790D01*
X173348Y25785D01*
Y30907D01*
X173294Y31179D01*
X173228Y31277D01*
Y31496D01*
X173010D01*
X172911Y31562D01*
X172640Y31616D01*
X172321D01*
X169291Y34646D01*
Y43701D01*
X185039Y43701D01*
D02*
G37*
G36*
X240122Y45641D02*
Y25225D01*
X239583Y24686D01*
X239083Y24749D01*
Y26976D01*
X233358D01*
Y20268D01*
X238791D01*
X239134Y19789D01*
X239051Y19590D01*
Y18993D01*
X239280Y18442D01*
X239702Y18020D01*
X240253Y17791D01*
X240849D01*
X241401Y18020D01*
X241823Y18442D01*
X242051Y18993D01*
Y19590D01*
X241823Y20141D01*
X241401Y20563D01*
X240849Y20791D01*
X240253D01*
X239702Y20563D01*
X239583Y20444D01*
X239083Y20651D01*
Y22603D01*
X239961D01*
X240351Y22680D01*
X240682Y22901D01*
X241863Y24082D01*
X242084Y24413D01*
X242581Y24351D01*
Y7874D01*
X242588Y7841D01*
X242469Y6631D01*
X242106Y5436D01*
X241517Y4335D01*
X240725Y3369D01*
X239760Y2577D01*
X238658Y1988D01*
X237463Y1626D01*
X236253Y1507D01*
X236221Y1513D01*
X222671D01*
X222464Y2013D01*
X225776Y5326D01*
X225935Y5709D01*
X225935Y5709D01*
Y14996D01*
X226435Y15330D01*
X226670Y15232D01*
X227267D01*
X227818Y15461D01*
X228240Y15883D01*
X228468Y16434D01*
Y16790D01*
X229067Y17389D01*
X229288Y17720D01*
X229366Y18110D01*
Y20268D01*
X231209D01*
Y26976D01*
X229366D01*
Y28142D01*
X231209D01*
Y34850D01*
X225738D01*
Y36417D01*
X225580Y36800D01*
X225197Y36959D01*
X223015D01*
X222982Y37008D01*
Y38605D01*
X223482Y38654D01*
X223539Y38368D01*
X223778Y38010D01*
X224135Y37771D01*
X224557Y37688D01*
X228159D01*
X228581Y37771D01*
X228939Y38010D01*
X229177Y38368D01*
X229261Y38789D01*
Y39951D01*
X229177Y40372D01*
X228939Y40730D01*
X228581Y40969D01*
X228498Y40985D01*
Y41495D01*
X228581Y41511D01*
X228939Y41750D01*
X229166Y42091D01*
X233433D01*
X233660Y41750D01*
X234017Y41511D01*
X234100Y41495D01*
Y40985D01*
X234017Y40969D01*
X233660Y40730D01*
X233421Y40372D01*
X233337Y39951D01*
Y38789D01*
X233421Y38368D01*
X233660Y38010D01*
X234017Y37771D01*
X234439Y37688D01*
X235221D01*
Y34850D01*
X233358D01*
Y28142D01*
X239083D01*
Y34850D01*
X237260D01*
Y37688D01*
X238041D01*
X238463Y37771D01*
X238821Y38010D01*
X239059Y38368D01*
X239143Y38789D01*
Y39951D01*
X239059Y40372D01*
X238821Y40730D01*
X238463Y40969D01*
X238380Y40985D01*
Y41495D01*
X238463Y41511D01*
X238821Y41750D01*
X239059Y42108D01*
X239143Y42529D01*
Y43691D01*
X239059Y44113D01*
X238821Y44470D01*
X238463Y44709D01*
X238380Y44725D01*
Y45235D01*
X238463Y45252D01*
X238821Y45491D01*
X239048Y45831D01*
X239932D01*
X240122Y45641D01*
D02*
G37*
G36*
X225197Y23622D02*
X209646D01*
Y36417D01*
X225197D01*
Y23622D01*
D02*
G37*
G36*
X225394Y5709D02*
X221654Y1969D01*
X202756D01*
X200787Y3937D01*
Y9843D01*
X202362Y11417D01*
X208268D01*
X209646Y12795D01*
Y22638D01*
X225394D01*
Y5709D01*
D02*
G37*
%LPC*%
G36*
X20968Y114492D02*
X20371D01*
X19820Y114264D01*
X19398Y113842D01*
X19169Y113291D01*
Y112694D01*
X19398Y112143D01*
X19650Y111890D01*
Y109449D01*
X19727Y109059D01*
X19948Y108728D01*
X21129Y107547D01*
X21460Y107326D01*
X21850Y107248D01*
X23024D01*
Y105405D01*
X29732D01*
Y111130D01*
X23024D01*
Y109287D01*
X22273D01*
X21689Y109871D01*
Y111890D01*
X21941Y112143D01*
X22169Y112694D01*
Y113291D01*
X21941Y113842D01*
X21519Y114264D01*
X20968Y114492D01*
D02*
G37*
G36*
X122528Y109949D02*
X121567D01*
X120639Y109700D01*
X119806Y109220D01*
X119127Y108540D01*
X118646Y107708D01*
X118398Y106780D01*
Y105819D01*
X118646Y104891D01*
X119127Y104058D01*
X119806Y103379D01*
X120639Y102898D01*
X121567Y102650D01*
X122528D01*
X123456Y102898D01*
X124288Y103379D01*
X124968Y104058D01*
X125448Y104891D01*
X125697Y105819D01*
Y106780D01*
X125448Y107708D01*
X124968Y108540D01*
X124288Y109220D01*
X123456Y109700D01*
X122528Y109949D01*
D02*
G37*
G36*
X104929Y113295D02*
X97827D01*
Y106783D01*
X104731D01*
X105003Y106674D01*
X105193Y106393D01*
Y106206D01*
X105003Y105924D01*
X104731Y105815D01*
X97827D01*
Y103579D01*
X92323D01*
X91933Y103501D01*
X91602Y103280D01*
X89830Y101508D01*
X89609Y101178D01*
X89532Y100787D01*
Y99713D01*
X86705D01*
Y95563D01*
X94398D01*
Y99713D01*
X91571D01*
Y100365D01*
X92745Y101540D01*
X97827D01*
Y99303D01*
X104929D01*
Y101540D01*
X105709D01*
X106099Y101617D01*
X106430Y101838D01*
X107414Y102822D01*
X107635Y103153D01*
X107712Y103543D01*
Y105084D01*
X108028Y105390D01*
X108536Y105301D01*
X108646Y104891D01*
X109127Y104058D01*
X109806Y103379D01*
X110639Y102898D01*
X111567Y102650D01*
X112528D01*
X113456Y102898D01*
X114288Y103379D01*
X114968Y104058D01*
X115448Y104891D01*
X115697Y105819D01*
Y106780D01*
X115448Y107708D01*
X114968Y108540D01*
X114288Y109220D01*
X113456Y109700D01*
X112528Y109949D01*
X111567D01*
X110639Y109700D01*
X109806Y109220D01*
X109127Y108540D01*
X108646Y107708D01*
X108500Y107162D01*
X107973Y107128D01*
X107965Y107149D01*
X107543Y107571D01*
X106991Y107799D01*
X106395D01*
X105843Y107571D01*
X105429Y107157D01*
X105385Y107158D01*
X104929Y107267D01*
Y113295D01*
D02*
G37*
G36*
X53099Y97201D02*
X52177D01*
X51287Y96962D01*
X50489Y96501D01*
X49837Y95850D01*
X49376Y95052D01*
X49138Y94162D01*
Y93240D01*
X49376Y92350D01*
X49837Y91552D01*
X50489Y90900D01*
X51287Y90439D01*
X52177Y90201D01*
X53099D01*
X53989Y90439D01*
X54787Y90900D01*
X55439Y91552D01*
X55899Y92350D01*
X56138Y93240D01*
Y94162D01*
X55899Y95052D01*
X55439Y95850D01*
X54787Y96501D01*
X53989Y96962D01*
X53099Y97201D01*
D02*
G37*
G36*
X40776Y90902D02*
X39854D01*
X38964Y90663D01*
X38166Y90202D01*
X37514Y89551D01*
X37053Y88753D01*
X36815Y87862D01*
Y86941D01*
X37053Y86051D01*
X37514Y85252D01*
X38166Y84601D01*
X38964Y84140D01*
X39854Y83902D01*
X40776D01*
X41666Y84140D01*
X42464Y84601D01*
X43116Y85252D01*
X43576Y86051D01*
X43815Y86941D01*
Y87862D01*
X43576Y88753D01*
X43116Y89551D01*
X42464Y90202D01*
X41666Y90663D01*
X40776Y90902D01*
D02*
G37*
G36*
X17823Y95815D02*
X11902D01*
Y90012D01*
X13284D01*
Y87705D01*
X12295D01*
Y79618D01*
X17232D01*
Y87705D01*
X16342D01*
Y90012D01*
X17823D01*
Y95815D01*
D02*
G37*
G36*
X29732Y103256D02*
X23024D01*
Y97531D01*
X25457D01*
Y95815D01*
X23516D01*
Y90012D01*
X24996D01*
Y86622D01*
X24205D01*
Y80307D01*
X28945D01*
Y81935D01*
X31453D01*
X32723Y80666D01*
Y73425D01*
X32752Y73277D01*
Y73127D01*
X32810Y72988D01*
X32839Y72840D01*
X32923Y72715D01*
X32980Y72575D01*
X33087Y72469D01*
X33171Y72344D01*
X33296Y72260D01*
X33402Y72154D01*
X33541Y72096D01*
X33667Y72012D01*
X33814Y71983D01*
X33954Y71925D01*
X34104D01*
X34252Y71896D01*
X34400Y71925D01*
X34550D01*
X34690Y71983D01*
X34837Y72012D01*
X34962Y72096D01*
X35102Y72154D01*
X35208Y72260D01*
X35333Y72344D01*
X35417Y72469D01*
X35524Y72575D01*
X35581Y72715D01*
X35665Y72840D01*
X35694Y72988D01*
X35752Y73127D01*
Y73277D01*
X35781Y73425D01*
Y81299D01*
X35665Y81884D01*
X35333Y82381D01*
X33168Y84546D01*
X32672Y84878D01*
X32087Y84994D01*
X28945D01*
Y86622D01*
X28055D01*
Y90012D01*
X29437D01*
Y95815D01*
X27496D01*
Y97531D01*
X29732D01*
Y103256D01*
D02*
G37*
G36*
X7390Y87705D02*
X2453D01*
Y79618D01*
X3392D01*
Y72638D01*
X3508Y72053D01*
X3840Y71556D01*
X9056Y66340D01*
X9552Y66008D01*
X10138Y65892D01*
X22904D01*
X23111Y65392D01*
X22802Y65083D01*
X22532Y64429D01*
Y63721D01*
X22802Y63067D01*
X23153Y62716D01*
X23252Y62402D01*
X23153Y62087D01*
X22802Y61736D01*
X22532Y61082D01*
Y60374D01*
X22802Y59720D01*
X23153Y59370D01*
X23252Y59055D01*
X23153Y58741D01*
X22802Y58390D01*
X22532Y57736D01*
Y57028D01*
X22802Y56374D01*
X23153Y56023D01*
X23252Y55709D01*
X23153Y55394D01*
X22802Y55043D01*
X22532Y54389D01*
Y53681D01*
X22802Y53027D01*
X23111Y52718D01*
X22904Y52218D01*
X21161D01*
X20576Y52102D01*
X20080Y51770D01*
X17132Y48823D01*
X16801Y48326D01*
X16684Y47741D01*
Y36540D01*
X15734D01*
Y30389D01*
X20693D01*
Y36540D01*
X19743D01*
Y47108D01*
X21795Y49160D01*
X23353D01*
X23957Y48909D01*
X24665D01*
X25269Y49160D01*
X28668D01*
X29272Y48909D01*
X29980D01*
X30634Y49180D01*
X31135Y49681D01*
X31405Y50335D01*
Y51043D01*
X31135Y51697D01*
X30784Y52048D01*
X30685Y52362D01*
X30784Y52677D01*
X31135Y53027D01*
X31405Y53681D01*
Y54389D01*
X31135Y55043D01*
X30784Y55394D01*
X30685Y55709D01*
X30784Y56023D01*
X31123Y56362D01*
X33268D01*
X33658Y56440D01*
X33989Y56661D01*
X34202Y56875D01*
X34589Y56892D01*
X34782Y56851D01*
X34961Y56528D01*
X34916Y56297D01*
Y55907D01*
X34985Y55558D01*
X35183Y55262D01*
X35479Y55064D01*
X35829Y54994D01*
X36612D01*
X36962Y55064D01*
X37258Y55262D01*
X37456Y55558D01*
X37525Y55907D01*
Y56297D01*
X37456Y56647D01*
X37405Y56722D01*
X37766Y57083D01*
X37841Y57032D01*
X38191Y56963D01*
X38974D01*
X39324Y57032D01*
X39620Y57230D01*
X39818Y57526D01*
X39888Y57876D01*
Y58266D01*
X39818Y58615D01*
X39620Y58912D01*
Y59199D01*
X39818Y59495D01*
X39888Y59844D01*
Y60234D01*
X39818Y60584D01*
X39620Y60880D01*
X39602Y60892D01*
Y63976D01*
X39525Y64367D01*
X39304Y64697D01*
X35859Y68142D01*
X35528Y68363D01*
X35138Y68441D01*
X31123D01*
X30634Y68930D01*
X29980Y69201D01*
X29272D01*
X28668Y68951D01*
X25269D01*
X24665Y69201D01*
X23957D01*
X23353Y68951D01*
X10771D01*
X6451Y73271D01*
Y79618D01*
X7390D01*
Y87705D01*
D02*
G37*
G36*
X40776Y27909D02*
X39854D01*
X38964Y27671D01*
X38166Y27210D01*
X37514Y26559D01*
X37053Y25760D01*
X36815Y24870D01*
Y23949D01*
X37053Y23058D01*
X37514Y22260D01*
X38166Y21609D01*
X38964Y21148D01*
X39854Y20910D01*
X40776D01*
X41666Y21148D01*
X42464Y21609D01*
X43116Y22260D01*
X43576Y23058D01*
X43815Y23949D01*
Y24870D01*
X43576Y25760D01*
X43116Y26559D01*
X42464Y27210D01*
X41666Y27671D01*
X40776Y27909D01*
D02*
G37*
G36*
X19398Y26583D02*
X12886D01*
Y19480D01*
X19398D01*
Y26583D01*
D02*
G37*
G36*
X26878D02*
X20366D01*
Y19480D01*
X26878D01*
Y22012D01*
X28712D01*
X29689Y21034D01*
Y14567D01*
X29767Y14177D01*
X29988Y13846D01*
X32744Y11090D01*
X33074Y10869D01*
X33465Y10791D01*
X36114D01*
Y7965D01*
X40264D01*
Y15657D01*
X36114D01*
Y12831D01*
X33887D01*
X31728Y14989D01*
Y21457D01*
X31651Y21847D01*
X31430Y22178D01*
X29855Y23753D01*
X29524Y23974D01*
X29134Y24051D01*
X26878D01*
Y26583D01*
D02*
G37*
G36*
X183858Y50324D02*
X183433Y50240D01*
X183072Y49999D01*
X182835Y49644D01*
X182802Y49638D01*
X182356D01*
X182322Y49644D01*
X182086Y49999D01*
X181725Y50240D01*
X181299Y50324D01*
X180874Y50240D01*
X180513Y49999D01*
X180276Y49644D01*
X180243Y49638D01*
X179797D01*
X179763Y49644D01*
X179526Y49999D01*
X179166Y50240D01*
X178740Y50324D01*
X178315Y50240D01*
X177954Y49999D01*
X177717Y49644D01*
X177684Y49638D01*
X177237D01*
X177204Y49644D01*
X176967Y49999D01*
X176607Y50240D01*
X176181Y50324D01*
X175756Y50240D01*
X175395Y49999D01*
X175158Y49644D01*
X175125Y49638D01*
X174679D01*
X174645Y49644D01*
X174408Y49999D01*
X174048Y50240D01*
X173622Y50324D01*
X173196Y50240D01*
X172836Y49999D01*
X172599Y49644D01*
X172566Y49638D01*
X172119D01*
X172086Y49644D01*
X171849Y49999D01*
X171488Y50240D01*
X171063Y50324D01*
X170638Y50240D01*
X170277Y49999D01*
X170040Y49644D01*
X170007Y49638D01*
X169560D01*
X169527Y49644D01*
X169290Y49999D01*
X168929Y50240D01*
X168504Y50324D01*
X168078Y50240D01*
X167718Y49999D01*
X167477Y49638D01*
X167392Y49213D01*
Y45866D01*
X167477Y45441D01*
X167718Y45080D01*
X168078Y44839D01*
X168504Y44754D01*
X168929Y44839D01*
X169290Y45080D01*
X169527Y45434D01*
X169560Y45441D01*
X170007D01*
X170040Y45434D01*
X170277Y45080D01*
X170638Y44839D01*
X171063Y44754D01*
X171488Y44839D01*
X171849Y45080D01*
X172086Y45434D01*
X172119Y45441D01*
X172566D01*
X172599Y45434D01*
X172836Y45080D01*
X173196Y44839D01*
X173622Y44754D01*
X174048Y44839D01*
X174408Y45080D01*
X174645Y45434D01*
X174679Y45441D01*
X175125D01*
X175158Y45434D01*
X175395Y45080D01*
X175756Y44839D01*
X176181Y44754D01*
X176607Y44839D01*
X176967Y45080D01*
X177204Y45434D01*
X177237Y45441D01*
X177684D01*
X177717Y45434D01*
X177954Y45080D01*
X178315Y44839D01*
X178740Y44754D01*
X179166Y44839D01*
X179526Y45080D01*
X179763Y45434D01*
X179797Y45441D01*
X180243D01*
X180276Y45434D01*
X180513Y45080D01*
X180874Y44839D01*
X181299Y44754D01*
X181725Y44839D01*
X182086Y45080D01*
X182322Y45434D01*
X182356Y45441D01*
X182802D01*
X182835Y45434D01*
X183072Y45080D01*
X183433Y44839D01*
X183858Y44754D01*
X184284Y44839D01*
X184644Y45080D01*
X184886Y45441D01*
X184970Y45866D01*
Y46530D01*
X185130Y46690D01*
X185358Y47241D01*
Y47838D01*
X185130Y48389D01*
X184970Y48549D01*
Y49213D01*
X184886Y49638D01*
X184644Y49999D01*
X184284Y50240D01*
X183858Y50324D01*
D02*
G37*
G36*
X112503Y46776D02*
X111906D01*
X111355Y46547D01*
X110933Y46125D01*
X110705Y45574D01*
Y44977D01*
X110933Y44426D01*
X111355Y44004D01*
X111906Y43776D01*
X112503D01*
X113054Y44004D01*
X113476Y44426D01*
X113705Y44977D01*
Y45574D01*
X113476Y46125D01*
X113054Y46547D01*
X112503Y46776D01*
D02*
G37*
G36*
X124905Y40279D02*
X124308D01*
X123757Y40051D01*
X123335Y39629D01*
X123106Y39078D01*
Y38481D01*
X123335Y37930D01*
X123757Y37508D01*
X124308Y37279D01*
X124905D01*
X125456Y37508D01*
X125878Y37930D01*
X126106Y38481D01*
Y39078D01*
X125878Y39629D01*
X125456Y40051D01*
X124905Y40279D01*
D02*
G37*
G36*
X204240Y34209D02*
X203319D01*
X202429Y33970D01*
X201630Y33509D01*
X200979Y32858D01*
X200518Y32060D01*
X200279Y31169D01*
Y30248D01*
X200518Y29358D01*
X200979Y28560D01*
X201630Y27908D01*
X202429Y27447D01*
X203319Y27209D01*
X204240D01*
X205131Y27447D01*
X205929Y27908D01*
X206580Y28560D01*
X207041Y29358D01*
X207279Y30248D01*
Y31169D01*
X207041Y32060D01*
X206580Y32858D01*
X205929Y33509D01*
X205131Y33970D01*
X204240Y34209D01*
D02*
G37*
G36*
X191918Y27909D02*
X190996D01*
X190106Y27671D01*
X189308Y27210D01*
X188656Y26559D01*
X188195Y25760D01*
X187957Y24870D01*
Y23949D01*
X188195Y23058D01*
X188656Y22260D01*
X189308Y21609D01*
X190106Y21148D01*
X190996Y20910D01*
X191918D01*
X192808Y21148D01*
X193606Y21609D01*
X194257Y22260D01*
X194718Y23058D01*
X194957Y23949D01*
Y24870D01*
X194718Y25760D01*
X194257Y26559D01*
X193606Y27210D01*
X192808Y27671D01*
X191918Y27909D01*
D02*
G37*
G36*
X201480Y15673D02*
X200883D01*
X200331Y15445D01*
X199909Y15023D01*
X199681Y14472D01*
Y13875D01*
X199909Y13324D01*
X200331Y12902D01*
X200883Y12673D01*
X201480D01*
X202031Y12902D01*
X202453Y13324D01*
X202681Y13875D01*
Y14472D01*
X202453Y15023D01*
X202031Y15445D01*
X201480Y15673D01*
D02*
G37*
G36*
X132134Y11917D02*
X128378D01*
Y11059D01*
X124606D01*
X124216Y10981D01*
X123885Y10760D01*
X122499Y9374D01*
X122143D01*
X122079Y9348D01*
X121579Y9682D01*
Y9747D01*
X121350Y10299D01*
X120928Y10721D01*
X120377Y10949D01*
X119780D01*
X119504Y10834D01*
X119004Y11149D01*
Y11721D01*
X114854D01*
Y8894D01*
X114370D01*
X113980Y8816D01*
X113649Y8595D01*
X111681Y6627D01*
X111460Y6296D01*
X111382Y5906D01*
Y5236D01*
X111130Y4984D01*
X110902Y4432D01*
Y3836D01*
X111130Y3284D01*
X111552Y2862D01*
X112103Y2634D01*
X112700D01*
X113251Y2862D01*
X113673Y3284D01*
X113902Y3836D01*
Y4432D01*
X113673Y4984D01*
X113421Y5236D01*
Y5483D01*
X114354Y6416D01*
X114854Y6209D01*
Y4028D01*
X119004D01*
Y7749D01*
X119504Y8063D01*
X119780Y7949D01*
X120377D01*
X120441Y7975D01*
X120941Y7641D01*
Y7576D01*
X121169Y7024D01*
X121591Y6602D01*
X122143Y6374D01*
X122739D01*
X123291Y6602D01*
X123713Y7024D01*
X123941Y7576D01*
Y7932D01*
X125029Y9020D01*
X128378D01*
Y8161D01*
X132134D01*
Y11917D01*
D02*
G37*
G36*
X83172Y19217D02*
X82576D01*
X82024Y18988D01*
X81602Y18566D01*
X81374Y18015D01*
Y17418D01*
X81602Y16867D01*
X82024Y16445D01*
X82576Y16217D01*
X83172D01*
X83724Y16445D01*
X83861Y16414D01*
X83938Y16311D01*
X84096Y15850D01*
X83933Y15456D01*
Y14859D01*
X84161Y14308D01*
X84583Y13886D01*
X85135Y13657D01*
X85720Y13657D01*
X85720Y13227D01*
Y7965D01*
X91051D01*
Y13689D01*
X89405D01*
Y15945D01*
X89328Y16335D01*
X89107Y16666D01*
X87335Y18438D01*
X87004Y18658D01*
X86614Y18736D01*
X83976D01*
X83724Y18988D01*
X83172Y19217D01*
D02*
G37*
G36*
X105618Y11721D02*
X101469D01*
Y4028D01*
X105618D01*
Y6854D01*
X106641D01*
X107358Y6137D01*
Y5835D01*
X107587Y5284D01*
X108009Y4862D01*
X108560Y4634D01*
X109157D01*
X109708Y4862D01*
X110130Y5284D01*
X110358Y5835D01*
Y6432D01*
X110130Y6983D01*
X109708Y7406D01*
X109157Y7634D01*
X108745D01*
X108323Y8056D01*
X108547Y8539D01*
X108960D01*
X109511Y8768D01*
X109933Y9190D01*
X110161Y9741D01*
Y10338D01*
X109933Y10889D01*
X109511Y11311D01*
X108960Y11539D01*
X108363D01*
X107812Y11311D01*
X107390Y10889D01*
X107161Y10338D01*
Y9741D01*
X107323Y9352D01*
X107123Y9000D01*
X107073Y8941D01*
X107012Y8894D01*
X105618D01*
Y11721D01*
D02*
G37*
G36*
X139339Y7587D02*
X135583D01*
Y3831D01*
X139339D01*
Y7587D01*
D02*
G37*
G36*
X161130Y102911D02*
X156587D01*
Y100238D01*
X161130D01*
Y102911D01*
D02*
G37*
G36*
X152464Y112524D02*
X151867D01*
X151472Y112360D01*
X149894D01*
Y109711D01*
X149894Y109687D01*
Y109211D01*
X149894Y109187D01*
Y106561D01*
X149894Y106537D01*
Y106061D01*
X149894Y106037D01*
Y103411D01*
X149894Y103388D01*
Y102911D01*
X149894Y102888D01*
Y100238D01*
X154437D01*
Y102888D01*
X154437Y102911D01*
Y103388D01*
X154437Y103411D01*
Y106037D01*
X154437Y106061D01*
Y106537D01*
X154437Y106561D01*
Y109187D01*
X154437Y109211D01*
Y109687D01*
X154437Y109711D01*
Y112360D01*
X152858D01*
X152464Y112524D01*
D02*
G37*
G36*
X221835Y111785D02*
X217539D01*
X216871Y111652D01*
X216304Y111274D01*
X215926Y110707D01*
X215848Y110317D01*
X215306Y110152D01*
X214697Y110760D01*
X214367Y110981D01*
X214094Y111036D01*
Y111752D01*
X206374D01*
Y108327D01*
X213941D01*
Y104140D01*
X213441Y103911D01*
X213050Y104172D01*
X212382Y104305D01*
X208086D01*
X207418Y104172D01*
X206851Y103794D01*
X206473Y103227D01*
X206340Y102559D01*
X206473Y101891D01*
X206851Y101325D01*
X207418Y100946D01*
X208086Y100813D01*
X209214D01*
Y100199D01*
X209292Y99809D01*
X209513Y99478D01*
X210303Y98689D01*
X210526Y98539D01*
X210524Y98039D01*
X210524Y98039D01*
X210524Y98039D01*
Y90937D01*
X217035D01*
Y98039D01*
X214602D01*
Y98228D01*
X214525Y98619D01*
X214304Y98949D01*
X213123Y100130D01*
X212792Y100351D01*
X212708Y100368D01*
Y100878D01*
X213050Y100946D01*
X213497Y101244D01*
X213734Y101217D01*
X213950Y101164D01*
X214072Y101105D01*
X214240Y100854D01*
X216208Y98885D01*
X216539Y98664D01*
X216929Y98587D01*
X219379D01*
X219411Y98539D01*
X219143Y98039D01*
X218004D01*
Y90937D01*
X224516D01*
Y98039D01*
X222279D01*
Y98622D01*
X222202Y99012D01*
X221981Y99343D01*
X221011Y100313D01*
X221013Y100373D01*
X221169Y100813D01*
X221835D01*
X222503Y100946D01*
X223070Y101325D01*
X223448Y101891D01*
X223581Y102559D01*
X223448Y103227D01*
X223070Y103794D01*
X222503Y104172D01*
X221835Y104305D01*
X217539D01*
X216871Y104172D01*
X216480Y103911D01*
X215980Y104140D01*
Y108459D01*
X216480Y108687D01*
X216871Y108426D01*
X217539Y108294D01*
X221835D01*
X222503Y108426D01*
X223070Y108805D01*
X223448Y109371D01*
X223581Y110039D01*
X223448Y110707D01*
X223070Y111274D01*
X222503Y111652D01*
X221835Y111785D01*
D02*
G37*
G36*
X220771Y80240D02*
X220174D01*
X219623Y80012D01*
X219201Y79590D01*
X218972Y79039D01*
Y78442D01*
X219201Y77890D01*
X219623Y77469D01*
X220174Y77240D01*
X220771D01*
X221322Y77469D01*
X221744Y77890D01*
X221972Y78442D01*
Y79039D01*
X221744Y79590D01*
X221322Y80012D01*
X220771Y80240D01*
D02*
G37*
G36*
X215653D02*
X215056D01*
X214505Y80012D01*
X214083Y79590D01*
X213854Y79039D01*
Y78442D01*
X214083Y77890D01*
X214505Y77469D01*
X215056Y77240D01*
X215653D01*
X216204Y77469D01*
X216626Y77890D01*
X216854Y78442D01*
Y79039D01*
X216626Y79590D01*
X216204Y80012D01*
X215653Y80240D01*
D02*
G37*
G36*
X207976Y64492D02*
X207379D01*
X206827Y64264D01*
X206405Y63842D01*
X206177Y63291D01*
Y62694D01*
X206405Y62142D01*
X206827Y61721D01*
X207379Y61492D01*
X207976D01*
X208527Y61721D01*
X208949Y62142D01*
X209177Y62694D01*
Y63291D01*
X208949Y63842D01*
X208527Y64264D01*
X207976Y64492D01*
D02*
G37*
G36*
X191918Y90902D02*
X190996D01*
X190106Y90663D01*
X189308Y90202D01*
X188656Y89551D01*
X188195Y88753D01*
X187957Y87862D01*
Y86941D01*
X188195Y86051D01*
X188656Y85252D01*
X189308Y84601D01*
X190106Y84140D01*
X190996Y83902D01*
X191918D01*
X192808Y84140D01*
X193606Y84601D01*
X194257Y85252D01*
X194718Y86051D01*
X194957Y86941D01*
Y87862D01*
X194718Y88753D01*
X194257Y89551D01*
X193606Y90202D01*
X192808Y90663D01*
X191918Y90902D01*
D02*
G37*
G36*
X45079Y52398D02*
X44688Y52320D01*
X44358Y52099D01*
X44137Y51768D01*
X44059Y51378D01*
X44137Y50988D01*
X44358Y50657D01*
X44555Y50460D01*
X44885Y50239D01*
X45276Y50161D01*
X45666Y50239D01*
X45997Y50460D01*
X46218Y50791D01*
X46295Y51181D01*
X46218Y51571D01*
X45997Y51902D01*
X45800Y52099D01*
X45469Y52320D01*
X45079Y52398D01*
D02*
G37*
G36*
X53099Y34209D02*
X52177D01*
X51287Y33970D01*
X50489Y33509D01*
X49837Y32858D01*
X49376Y32060D01*
X49138Y31169D01*
Y30248D01*
X49376Y29358D01*
X49837Y28560D01*
X50489Y27908D01*
X51287Y27447D01*
X52177Y27209D01*
X53099D01*
X53989Y27447D01*
X54787Y27908D01*
X55439Y28560D01*
X55899Y29358D01*
X56138Y30248D01*
Y31169D01*
X55899Y32060D01*
X55439Y32858D01*
X54787Y33509D01*
X53989Y33970D01*
X53099Y34209D01*
D02*
G37*
%LPD*%
D15*
X194861Y3347D02*
X197319Y5804D01*
X187205Y3347D02*
X194861D01*
X197319Y5533D02*
Y5804D01*
X123622Y2559D02*
X126772Y5709D01*
X130256D01*
X222204Y59055D02*
X232283D01*
X233661Y57677D01*
X198228Y36614D02*
Y39370D01*
X160433Y4331D02*
X161221Y5118D01*
Y7677D01*
X155709Y4331D02*
X160433D01*
X196830Y40769D02*
X198228Y39370D01*
X193578Y40769D02*
X196830D01*
X192717Y45898D02*
Y49453D01*
X189567Y44780D02*
X193578Y40769D01*
X193504Y50241D02*
Y54528D01*
X192717Y49453D02*
X193504Y50241D01*
X187697Y43571D02*
X189350Y41918D01*
X189567Y44780D02*
Y48425D01*
X189350Y41877D02*
Y41918D01*
X189567Y48425D02*
X191732Y50591D01*
Y52953D01*
X88189Y4528D02*
X88386Y4331D01*
X81693Y4528D02*
X88189D01*
X122441Y7874D02*
X124606Y10039D01*
X130256D01*
X29626Y67421D02*
X35138D01*
X38583Y63976D01*
Y60039D02*
Y63976D01*
X100197Y62402D02*
Y66929D01*
X95433Y57638D02*
X100197Y62402D01*
Y66929D02*
Y67126D01*
X106299Y66929D02*
Y88189D01*
X112598Y94488D01*
X132874D01*
X131890Y96063D02*
X137008Y101181D01*
X97638Y96063D02*
X131890D01*
X137205Y98819D02*
X142717D01*
X132874Y94488D02*
X137205Y98819D01*
X98622Y85630D02*
X102559Y81693D01*
Y62598D02*
Y81693D01*
X98622Y89370D02*
X104134Y83858D01*
Y61811D02*
Y83858D01*
X88583Y57638D02*
X95433D01*
X94095Y53224D02*
Y54134D01*
X102559Y62598D01*
X95669Y49409D02*
Y53347D01*
X104134Y61811D01*
X98425Y53150D02*
X101969D01*
X226358Y43110D02*
X236240D01*
X226358Y75000D02*
X236240D01*
X187697Y43571D02*
Y51378D01*
X201772Y38976D02*
X204134Y36614D01*
X207283D01*
X208661Y37992D01*
X207874Y43898D02*
X208661Y43110D01*
Y37992D02*
Y43110D01*
X205512Y43898D02*
X207874D01*
X191535Y56496D02*
X193504Y54528D01*
X187697Y56496D02*
X191535D01*
X112402Y4134D02*
Y5906D01*
X108803Y6134D02*
X108858D01*
X103543Y7874D02*
X107063D01*
X108803Y6134D01*
X56172Y45641D02*
X56201Y45669D01*
X56102Y45472D02*
Y46260D01*
X59842Y46063D02*
Y47638D01*
X58776Y48705D02*
X59842Y47638D01*
X58079Y49438D02*
X58776Y48741D01*
X58071Y51279D02*
X58079Y51272D01*
Y49438D02*
Y51272D01*
X58776Y48705D02*
Y48741D01*
X190783Y53902D02*
X191732Y52953D01*
X187732Y53902D02*
X190783D01*
X187697Y53937D02*
X187732Y53902D01*
X78839Y112598D02*
X81299D01*
X82480Y109449D02*
Y111417D01*
X81299Y112598D02*
X82480Y111417D01*
X84646Y112992D02*
X87008Y115354D01*
X82677Y105905D02*
X84646Y107874D01*
Y112992D01*
X87008Y115354D02*
X143701D01*
X46260Y84449D02*
Y112402D01*
X44291Y114370D02*
X46260Y112402D01*
X43307Y81496D02*
X46260Y84449D01*
X43307Y72441D02*
Y81496D01*
X105709Y102559D02*
X106693Y103543D01*
Y106299D01*
X101378Y102559D02*
X105709D01*
X237402Y53347D02*
X237598Y53150D01*
X234252Y53347D02*
X237402D01*
X233661Y53937D02*
Y57677D01*
Y53937D02*
X234252Y53347D01*
X147835Y78740D02*
Y80709D01*
X149764Y82638D01*
X147047Y100591D02*
Y112008D01*
X143701Y115354D02*
X147047Y112008D01*
Y100591D02*
X151606Y96031D01*
Y94457D02*
Y96031D01*
Y94457D02*
X152756Y93307D01*
X158071D01*
X161221Y90158D01*
Y87008D02*
Y90158D01*
Y87008D02*
X162992Y85236D01*
X167851D01*
X168898Y75394D02*
Y84190D01*
X167851Y85236D02*
X168898Y84190D01*
Y75394D02*
X170079Y74213D01*
X174213D02*
X176181Y72244D01*
X170079Y74213D02*
X174213D01*
X176181Y70571D02*
Y72244D01*
X95472Y66535D02*
Y71063D01*
X88583Y72638D02*
X93898D01*
X95472Y71063D01*
X20669Y109449D02*
Y112992D01*
X21850Y108268D02*
X26378D01*
X20669Y109449D02*
X21850Y108268D01*
X210234Y110039D02*
X213976D01*
X214961Y109055D01*
Y101575D02*
Y109055D01*
X216929Y99606D02*
X220276D01*
X214961Y101575D02*
X216929Y99606D01*
X220276D02*
X221260Y98622D01*
Y94488D02*
Y98622D01*
X205512Y67520D02*
X210433D01*
X205512Y67520D02*
X205512Y67520D01*
X202362Y62402D02*
X205512Y59252D01*
X202362Y62402D02*
Y67520D01*
X205512Y50591D02*
Y59252D01*
X97835Y24606D02*
X100000D01*
X100591Y24016D01*
X107874D01*
X92913Y4921D02*
Y13517D01*
X95079Y15682D02*
Y24606D01*
X92913Y13517D02*
X95079Y15682D01*
X96890Y37638D02*
X98032Y38780D01*
X88583Y37638D02*
X96890D01*
X97913Y42638D02*
X100394Y40157D01*
X88583Y42638D02*
X97913D01*
X94488Y89370D02*
X98622D01*
X93898Y47638D02*
X95669Y49409D01*
X88583Y47638D02*
X93898D01*
X94488Y85630D02*
X98622D01*
X95079Y77756D02*
X98425Y74410D01*
X88583Y52638D02*
X93509D01*
X94095Y53224D01*
X101969Y53150D02*
X108268Y46850D01*
Y38386D02*
Y46850D01*
X105315Y35433D02*
X108268Y38386D01*
X100394Y35433D02*
X105315D01*
X97598Y32638D02*
X100394Y35433D01*
X88583Y32638D02*
X97598D01*
X149764Y82638D02*
X155512D01*
X149606Y84646D02*
Y94291D01*
X137402Y72441D02*
X149606Y84646D01*
X137402Y57284D02*
Y72441D01*
Y57284D02*
X142047Y52638D01*
X155512D01*
X135630Y56496D02*
Y74803D01*
X143898Y83071D01*
X135630Y56496D02*
X144488Y47638D01*
X155512D01*
X203740Y39961D02*
X206299D01*
X187697Y66732D02*
Y69390D01*
X192126Y72638D02*
X193701Y71063D01*
Y64173D02*
Y71063D01*
X191142Y61614D02*
X193701Y64173D01*
X191339Y64961D02*
Y69685D01*
X187697Y61614D02*
X191142D01*
X190586Y64208D02*
X191339Y64961D01*
X187697Y64173D02*
X187732Y64208D01*
X190586D01*
X202362Y67520D02*
X205512D01*
X199213D02*
X202362D01*
X199212Y67519D02*
X199213Y67520D01*
X196063Y67519D02*
X199212D01*
X202362Y41339D02*
X203740Y39961D01*
X202362Y41339D02*
Y43898D01*
X196063Y50591D02*
X199213D01*
X202362D01*
X202362Y50591D02*
X205512D01*
X202362Y50591D02*
X202362Y50591D01*
X82874Y17717D02*
X86614D01*
X88386Y15945D01*
Y10827D02*
Y15945D01*
X137008Y104331D02*
X138583Y105905D01*
X142717D01*
X137008Y101181D02*
Y104331D01*
X90551Y100787D02*
X92323Y102559D01*
X101378D01*
X90551Y97638D02*
Y100787D01*
X26476Y92913D02*
Y100295D01*
X26378Y100394D02*
X26476Y100295D01*
X200543Y78787D02*
X202362Y76968D01*
X197543Y77661D02*
X197814D01*
X198940Y78787D02*
X200543D01*
X197814Y77661D02*
X198940Y78787D01*
X195079Y78937D02*
X199213Y83071D01*
X185949Y70571D02*
X190913Y75535D01*
Y77600D02*
X197638Y84325D01*
X190913Y75535D02*
Y77600D01*
X197638Y84325D02*
Y88386D01*
X183858Y70571D02*
X185949D01*
X208661Y79921D02*
Y85630D01*
X205512Y76772D02*
X208661Y79921D01*
X206693Y87598D02*
X208661Y85630D01*
X200591Y87598D02*
X206693D01*
X199213Y86221D02*
X200591Y87598D01*
X199213Y83071D02*
Y86221D01*
X197638Y88386D02*
X198425Y89173D01*
X210236Y84449D02*
X211614Y83071D01*
X210236Y84449D02*
Y86811D01*
X207874Y89173D02*
X210236Y86811D01*
X198425Y89173D02*
X207874D01*
X202362Y74213D02*
Y76968D01*
X205512Y74213D02*
Y76772D01*
X228346Y18110D02*
Y23622D01*
X226969Y16732D02*
X228346Y18110D01*
X155473Y37598D02*
X155512Y37638D01*
X148031Y37598D02*
X155473D01*
X171063Y64173D02*
X176181Y59055D01*
X171063Y64173D02*
Y70571D01*
X143307Y64173D02*
Y64370D01*
X146575Y67638D01*
X155512D01*
X140945Y66929D02*
X146653Y72638D01*
X155512D01*
X211614Y83071D02*
X220866D01*
X224410Y86614D02*
X228346D01*
X220866Y83071D02*
X224410Y86614D01*
X228346D02*
Y94488D01*
X157480Y17520D02*
X160992D01*
X161024Y17551D01*
X155709Y10827D02*
X161221D01*
X69618Y66831D02*
X70669Y67882D01*
X88701Y77756D02*
X95079D01*
X23622Y23031D02*
X29134D01*
X30709Y21457D01*
Y14567D02*
Y21457D01*
Y14567D02*
X33465Y11811D01*
X38189D01*
X148268Y32638D02*
X155512D01*
X107874Y24016D02*
X112205Y28346D01*
X99606Y26575D02*
X105315Y32283D01*
X185630Y4921D02*
X187205Y3347D01*
X185630Y4921D02*
Y7283D01*
X183874Y9039D02*
X185630Y7283D01*
X165339Y9039D02*
X183874D01*
X164370Y8071D02*
X165339Y9039D01*
X164370Y5217D02*
Y8071D01*
X164272Y5118D02*
X164370Y5217D01*
X169390Y24705D02*
Y28346D01*
X169669Y24425D02*
X183368D01*
X169390Y24705D02*
X169669Y24425D01*
X183368D02*
X183383Y24409D01*
X184252D01*
X185630Y23031D01*
Y16929D02*
Y23031D01*
Y16929D02*
X187008Y15551D01*
X191339D01*
X97047Y26575D02*
X99606D01*
X95079Y24606D02*
X97047Y26575D01*
X93504Y4331D02*
X96653D01*
X92913Y4921D02*
X93504Y4331D01*
X96653Y10827D02*
Y23425D01*
X97835Y24606D01*
X81102Y57677D02*
X83146D01*
X80118Y56693D02*
X81102Y57677D01*
X80118Y51762D02*
Y56693D01*
X83701Y62638D02*
X88583D01*
X82677Y61614D02*
X83701Y62638D01*
X76968Y65945D02*
X80118Y62795D01*
X76968Y65945D02*
Y68419D01*
X227862Y63098D02*
X229724Y64961D01*
X227862Y62380D02*
Y63098D01*
X226506Y61024D02*
X227862Y62380D01*
X224006Y61024D02*
X226506D01*
X229724Y64173D02*
Y64961D01*
X229528Y63976D02*
X229724Y64173D01*
X210234Y100199D02*
Y102559D01*
Y100199D02*
X211024Y99410D01*
X212402D01*
X213583Y98228D01*
Y94685D02*
Y98228D01*
Y94685D02*
X213779Y94488D01*
X164665Y66732D02*
Y68405D01*
X160827Y72244D02*
X164665Y68405D01*
X160827Y72244D02*
Y76575D01*
X161417Y64173D02*
X164665D01*
X160039Y62795D02*
X161417Y64173D01*
X224006Y53150D02*
X229724D01*
X237598D02*
Y64961D01*
X236240Y71260D02*
X240354D01*
X241732Y72638D01*
Y93307D01*
X236221Y94488D02*
X240551D01*
X241732Y93307D01*
X236221Y86614D02*
X236240Y86594D01*
Y78740D02*
Y86594D01*
X228346Y23622D02*
Y31496D01*
X236240Y46850D02*
X240354D01*
X236240Y46850D02*
X236240Y46850D01*
X241142Y24803D02*
Y46063D01*
X240354Y46850D02*
X241142Y46063D01*
X239961Y23622D02*
X241142Y24803D01*
X236221Y23622D02*
X239961D01*
X236240Y31516D02*
Y39370D01*
X236221Y31496D02*
X236240Y31516D01*
X155787Y77362D02*
X160039D01*
X155512Y77638D02*
X155787Y77362D01*
X160039D02*
X160827Y76575D01*
X155669Y62795D02*
X160039D01*
X155512Y62638D02*
X155669Y62795D01*
X112402Y5906D02*
X114370Y7874D01*
X116929D01*
X155512Y62638D02*
X155551Y62598D01*
X88583Y77638D02*
X88701Y77756D01*
X155512Y19488D02*
Y22638D01*
Y19488D02*
X157480Y17520D01*
X66043Y25295D02*
Y28346D01*
X59743Y24425D02*
X65173D01*
X66043Y25295D01*
X58661Y23344D02*
X59743Y24425D01*
X58661Y13386D02*
Y23344D01*
X57480Y12205D02*
X58661Y13386D01*
X52756Y9449D02*
X55512Y12205D01*
X57480D01*
X52756Y5118D02*
Y9449D01*
X186417Y106299D02*
X190157D01*
X184646Y104528D02*
X186417Y106299D01*
X184646Y94488D02*
Y104528D01*
X190157Y106299D02*
X191339Y107480D01*
X182185Y112992D02*
X182185Y112992D01*
X191339Y112992D02*
X191339Y112992D01*
X191339Y107480D02*
Y112992D01*
X177751Y93685D02*
X183843D01*
X184646Y94488D01*
X177165Y93099D02*
X177751Y93685D01*
X177165Y89862D02*
Y93099D01*
X177067Y89764D02*
X177165Y89862D01*
X56693Y102559D02*
X57284Y101969D01*
X52756Y102559D02*
X56693D01*
X57284Y95866D02*
Y101969D01*
Y95866D02*
X59465Y93685D01*
X73721Y89764D02*
Y93099D01*
X73135Y93685D02*
X73721Y93099D01*
X59465Y93685D02*
X73135D01*
X65945Y89862D02*
X66043Y89764D01*
X50000Y66732D02*
X51181Y67913D01*
Y72441D01*
X51279Y62008D02*
X56102D01*
X59055Y59055D01*
X70669Y67882D02*
X71622Y66929D01*
X63976Y66831D02*
X69618D01*
X71622Y66929D02*
X74222D01*
X56102Y46260D02*
Y51279D01*
Y46260D02*
X56201D01*
X52165D02*
X56102D01*
X51181Y45276D02*
X52165Y46260D01*
X37795Y71063D02*
X39173Y72441D01*
X43307D01*
X66898D02*
X66929Y72409D01*
X63386Y72441D02*
X66898D01*
X69685Y49213D02*
Y55315D01*
X66831Y49213D02*
Y54134D01*
X56102Y66831D02*
Y70669D01*
X56102Y70669D02*
X56102Y70669D01*
X74611Y46659D02*
X78145D01*
X74606Y46654D02*
X74611Y46659D01*
X78145D02*
X78150Y46663D01*
X74803Y49409D02*
X79640D01*
X82087Y46963D01*
Y46663D02*
Y46963D01*
X74522Y70866D02*
X76968Y68419D01*
X74222Y70866D02*
X74522D01*
X33933Y58047D02*
X36197D01*
X33268Y57382D02*
X33933Y58047D01*
X36197D02*
X36220Y58071D01*
X34055Y60039D02*
X36319D01*
X33366Y60728D02*
X34055Y60039D01*
X88583Y82638D02*
X96063D01*
X29626Y57382D02*
X33268D01*
X29528D02*
X29626D01*
Y60728D02*
X33366D01*
X79321Y66939D02*
Y68898D01*
X80124Y66136D02*
X81895D01*
X82087Y65945D01*
X79321Y66939D02*
X80124Y66136D01*
X63386Y69882D02*
X66929D01*
X60047Y69102D02*
X63386Y72441D01*
X62016Y68512D02*
X63386Y69882D01*
X62016Y66839D02*
Y68512D01*
X62008Y66831D02*
X62016Y66839D01*
X60039Y66831D02*
X60047Y66839D01*
Y69102D01*
X66831Y56102D02*
X66839Y56094D01*
X68906D02*
X69685Y55315D01*
X66839Y56094D02*
X68906D01*
X66831Y60039D02*
X73819D01*
X44783Y57382D02*
X47539D01*
X48228Y58071D01*
X51279D01*
X45079Y51378D02*
X45276Y51181D01*
X44783Y60728D02*
X47539D01*
X48228Y60039D01*
X51279D01*
D17*
X101378Y102559D02*
D03*
Y110039D02*
D03*
D18*
X26378Y108268D02*
D03*
Y100394D02*
D03*
D19*
X142717Y105905D02*
D03*
Y98819D02*
D03*
D20*
X217520Y11988D02*
D03*
Y31319D02*
D03*
D21*
X152165Y101575D02*
D03*
Y104724D02*
D03*
Y107874D02*
D03*
Y111024D02*
D03*
X158858D02*
D03*
Y107874D02*
D03*
Y104724D02*
D03*
X158859Y101575D02*
D03*
D22*
X88583Y87638D02*
D03*
Y82638D02*
D03*
Y77638D02*
D03*
Y72638D02*
D03*
Y67638D02*
D03*
Y62638D02*
D03*
Y57638D02*
D03*
Y52638D02*
D03*
Y47638D02*
D03*
Y42638D02*
D03*
Y37638D02*
D03*
Y32638D02*
D03*
Y27638D02*
D03*
Y22638D02*
D03*
X155512D02*
D03*
Y27638D02*
D03*
Y32638D02*
D03*
Y37638D02*
D03*
Y42638D02*
D03*
Y47638D02*
D03*
Y52638D02*
D03*
Y57638D02*
D03*
Y62638D02*
D03*
Y67638D02*
D03*
Y72638D02*
D03*
Y77638D02*
D03*
Y82638D02*
D03*
Y87638D02*
D03*
D23*
X99547Y18701D02*
D03*
X104547D02*
D03*
X109547D02*
D03*
X114547D02*
D03*
X119547D02*
D03*
X124547D02*
D03*
X129547D02*
D03*
X134547D02*
D03*
X139547D02*
D03*
X144547D02*
D03*
D24*
X110886Y65335D02*
D03*
X118110D02*
D03*
X125335D02*
D03*
X110886Y58110D02*
D03*
X118110D02*
D03*
X125335D02*
D03*
X110886Y50886D02*
D03*
X118110D02*
D03*
X125335D02*
D03*
D25*
X205512Y43898D02*
D03*
X202362D02*
D03*
X199213D02*
D03*
X196063D02*
D03*
Y50591D02*
D03*
X199213D02*
D03*
X202362D02*
D03*
X205512Y50591D02*
D03*
X196063Y74213D02*
D03*
X199213D02*
D03*
X202362D02*
D03*
X205512D02*
D03*
Y67520D02*
D03*
X202362D02*
D03*
X199213D02*
D03*
X196063Y67519D02*
D03*
D26*
X183858Y70571D02*
D03*
X181299D02*
D03*
X178740D02*
D03*
X176181D02*
D03*
X173622D02*
D03*
X171063D02*
D03*
X168504D02*
D03*
Y47539D02*
D03*
X171063D02*
D03*
X173622D02*
D03*
X176181D02*
D03*
X178740D02*
D03*
X181299D02*
D03*
X183858D02*
D03*
D27*
X164665Y66732D02*
D03*
Y64173D02*
D03*
Y61614D02*
D03*
Y59055D02*
D03*
Y56496D02*
D03*
Y53937D02*
D03*
Y51378D02*
D03*
X187697D02*
D03*
Y53937D02*
D03*
Y56496D02*
D03*
Y59055D02*
D03*
Y61614D02*
D03*
Y64173D02*
D03*
Y66732D02*
D03*
D28*
X176181Y59055D02*
D03*
D29*
X237598Y53150D02*
D03*
X229724D02*
D03*
X237598Y64961D02*
D03*
X229724D02*
D03*
X228346Y94488D02*
D03*
X236221D02*
D03*
X228346Y86614D02*
D03*
X236221D02*
D03*
X228346Y31496D02*
D03*
X236221D02*
D03*
X228346Y23622D02*
D03*
X236221D02*
D03*
X43307Y72441D02*
D03*
X51181D02*
D03*
D30*
X218907Y55118D02*
D03*
X224006Y57087D02*
D03*
Y53150D02*
D03*
X218907Y62992D02*
D03*
X224006Y64961D02*
D03*
Y61024D02*
D03*
X74222Y70866D02*
D03*
Y66929D02*
D03*
X79321Y68898D02*
D03*
D31*
X236240Y71260D02*
D03*
Y75000D02*
D03*
Y78740D02*
D03*
X226358Y71260D02*
D03*
Y75000D02*
D03*
Y78740D02*
D03*
X236240Y39370D02*
D03*
Y43110D02*
D03*
Y46850D02*
D03*
X226358Y39370D02*
D03*
Y43110D02*
D03*
Y46850D02*
D03*
D32*
X23622Y23031D02*
D03*
X16142D02*
D03*
X213779Y94488D02*
D03*
X221260D02*
D03*
D33*
X96653Y4331D02*
D03*
X88386D02*
D03*
X96653Y10827D02*
D03*
X88386D02*
D03*
X155709Y4331D02*
D03*
X147441D02*
D03*
X155709Y10827D02*
D03*
X147441D02*
D03*
D34*
X116929Y7874D02*
D03*
X103543D02*
D03*
X24803Y11811D02*
D03*
X38189D02*
D03*
D35*
X219687Y110039D02*
D03*
Y102559D02*
D03*
X210234D02*
D03*
Y106299D02*
D03*
D36*
Y110039D02*
D03*
D37*
X52756Y102559D02*
D03*
Y110039D02*
D03*
X191339Y8071D02*
D03*
Y15551D02*
D03*
D38*
X68504Y38386D02*
D03*
X79134D02*
D03*
X68504Y79724D02*
D03*
X79134D02*
D03*
X175591Y38189D02*
D03*
X164961D02*
D03*
X175591Y79724D02*
D03*
X164961D02*
D03*
D39*
X182185Y28346D02*
D03*
X179626D02*
D03*
X177067D02*
D03*
X174508D02*
D03*
X171949D02*
D03*
X169390D02*
D03*
X166831D02*
D03*
X164272D02*
D03*
X182185Y5118D02*
D03*
X179626D02*
D03*
X177067D02*
D03*
X174508D02*
D03*
X171949D02*
D03*
X169390D02*
D03*
X166831D02*
D03*
X164272D02*
D03*
X164272Y89764D02*
D03*
X166831D02*
D03*
X169390D02*
D03*
X171949D02*
D03*
X174508D02*
D03*
X177067D02*
D03*
X179626D02*
D03*
X182185D02*
D03*
X164272Y112992D02*
D03*
X166831D02*
D03*
X169390D02*
D03*
X171949D02*
D03*
X174508D02*
D03*
X177067D02*
D03*
X179626D02*
D03*
X182185D02*
D03*
X78839Y28346D02*
D03*
X76279D02*
D03*
X73721D02*
D03*
X71161D02*
D03*
X68602D02*
D03*
X66043D02*
D03*
X63484D02*
D03*
X60925D02*
D03*
X78839Y5118D02*
D03*
X76279D02*
D03*
X73721D02*
D03*
X71161D02*
D03*
X68602D02*
D03*
X66043D02*
D03*
X63484D02*
D03*
X60925D02*
D03*
X60925Y89764D02*
D03*
X63484D02*
D03*
X66043D02*
D03*
X68602D02*
D03*
X71161D02*
D03*
X73721D02*
D03*
X76279D02*
D03*
X78839D02*
D03*
X60925Y112992D02*
D03*
X63484D02*
D03*
X66043D02*
D03*
X68602D02*
D03*
X71161D02*
D03*
X73721D02*
D03*
X76279D02*
D03*
X78839D02*
D03*
D40*
X137461Y5709D02*
D03*
Y10039D02*
D03*
X130256Y5709D02*
D03*
Y10039D02*
D03*
D41*
X74016Y54528D02*
D03*
Y60039D02*
D03*
X45276Y50000D02*
D03*
Y44488D02*
D03*
D42*
X78150Y46663D02*
D03*
X82087D02*
D03*
X80118Y51762D02*
D03*
D43*
X56201Y46260D02*
D03*
X63484D02*
D03*
D44*
X20669Y83465D02*
D03*
X26575D02*
D03*
D45*
X14862Y92913D02*
D03*
X26476D02*
D03*
D46*
X37402Y44291D02*
D03*
Y50197D02*
D03*
D47*
X54134Y66831D02*
D03*
X56102D02*
D03*
X58071D02*
D03*
X60039D02*
D03*
X62008D02*
D03*
X63976D02*
D03*
Y51279D02*
D03*
X62008D02*
D03*
X60039D02*
D03*
X58071D02*
D03*
X56102D02*
D03*
X54134D02*
D03*
D48*
X66831Y63976D02*
D03*
Y62008D02*
D03*
Y60039D02*
D03*
Y58071D02*
D03*
Y56102D02*
D03*
Y54134D02*
D03*
X51279D02*
D03*
Y56102D02*
D03*
Y58071D02*
D03*
Y60039D02*
D03*
Y62008D02*
D03*
Y63976D02*
D03*
D49*
X14764Y83661D02*
D03*
X4921D02*
D03*
D50*
X52756Y5118D02*
D03*
X45276D02*
D03*
X198819Y112992D02*
D03*
X191339D02*
D03*
D51*
X90551Y111024D02*
D03*
Y97638D02*
D03*
D52*
X12495Y33465D02*
D03*
X18214D02*
D03*
D71*
X59055Y59055D02*
D03*
D78*
X24311Y70768D02*
D03*
Y67421D02*
D03*
Y64075D02*
D03*
Y60728D02*
D03*
Y57382D02*
D03*
Y54035D02*
D03*
Y50689D02*
D03*
Y47343D02*
D03*
X29626D02*
D03*
Y50689D02*
D03*
Y54035D02*
D03*
Y57382D02*
D03*
Y60728D02*
D03*
Y64075D02*
D03*
Y67421D02*
D03*
D79*
Y70768D02*
D03*
D80*
X25768Y42028D02*
D03*
Y76083D02*
D03*
D81*
X12461Y42028D02*
D03*
Y76083D02*
D03*
D82*
X160236Y112992D02*
D03*
X42323Y54921D02*
D03*
X28740Y32087D02*
D03*
X197319Y5804D02*
D03*
X184843Y2756D02*
D03*
X235433Y59055D02*
D03*
X149409Y25591D02*
D03*
X118110Y65335D02*
D03*
X40157Y4331D02*
D03*
X35236Y113976D02*
D03*
X7283Y96850D02*
D03*
X226378Y114567D02*
D03*
X205315Y113386D02*
D03*
X226772Y3347D02*
D03*
X108661Y10039D02*
D03*
X123622Y2559D02*
D03*
X222204Y59055D02*
D03*
X177067Y5118D02*
D03*
X169390D02*
D03*
X198228Y36614D02*
D03*
X185039Y34843D02*
D03*
X161614Y2484D02*
D03*
X192717Y45898D02*
D03*
X189350Y41877D02*
D03*
X201181Y14173D02*
D03*
X205906Y13189D02*
D03*
X184843Y13780D02*
D03*
X160433Y13551D02*
D03*
X85433Y15157D02*
D03*
X81693Y4528D02*
D03*
X122441Y7874D02*
D03*
X240551Y19291D02*
D03*
X221260Y12008D02*
D03*
X106299Y66929D02*
D03*
X100197D02*
D03*
X98425Y53150D02*
D03*
X201772Y38976D02*
D03*
X112402Y4134D02*
D03*
X108858Y6134D02*
D03*
X51181Y45276D02*
D03*
X59842Y46063D02*
D03*
X16142Y23031D02*
D03*
X43307Y72441D02*
D03*
X45276Y50000D02*
D03*
X82480Y109449D02*
D03*
X44291Y114370D02*
D03*
X149606Y115354D02*
D03*
X101378Y110039D02*
D03*
X106693Y106299D02*
D03*
X187697Y59055D02*
D03*
X208071Y50984D02*
D03*
X199016Y62992D02*
D03*
X207677Y55118D02*
D03*
X218504Y49016D02*
D03*
X220866Y46654D02*
D03*
X147835Y78740D02*
D03*
X178740Y70571D02*
D03*
X82677Y105905D02*
D03*
X153543Y97441D02*
D03*
X95472Y66535D02*
D03*
X20669Y112992D02*
D03*
X210433Y67520D02*
D03*
X106299Y26575D02*
D03*
X102756Y26772D02*
D03*
X90189Y19094D02*
D03*
X92510Y15942D02*
D03*
X98032Y38780D02*
D03*
X100394Y40157D02*
D03*
X106299Y63976D02*
D03*
X98425Y74410D02*
D03*
X94882Y60827D02*
D03*
X149606Y94291D02*
D03*
X143898Y83071D02*
D03*
X148228Y50197D02*
D03*
X206299Y39961D02*
D03*
X161221Y7677D02*
D03*
X187697Y69390D02*
D03*
X192126Y72638D02*
D03*
X191339Y69685D02*
D03*
X181102Y76410D02*
D03*
X149016Y75787D02*
D03*
X98425Y45276D02*
D03*
X124606Y38780D02*
D03*
X196063Y43898D02*
D03*
X199213D02*
D03*
X38189Y11811D02*
D03*
X78839Y28346D02*
D03*
X82874Y17717D02*
D03*
X197543Y77661D02*
D03*
X195079Y78937D02*
D03*
X196063Y74213D02*
D03*
X199213D02*
D03*
X226969Y16732D02*
D03*
X148031Y37598D02*
D03*
X105315Y45276D02*
D03*
X112205D02*
D03*
X173622Y70571D02*
D03*
X176181Y59055D02*
D03*
X164665Y66732D02*
D03*
Y64173D02*
D03*
X142717Y98819D02*
D03*
X143307Y64173D02*
D03*
X140945Y66929D02*
D03*
X124606Y76181D02*
D03*
X97638Y96063D02*
D03*
X161024Y17551D02*
D03*
X161221Y10827D02*
D03*
X70669Y67882D02*
D03*
X148268Y32638D02*
D03*
X112205Y28346D02*
D03*
X105315Y32283D02*
D03*
X154665Y15551D02*
D03*
X164665Y51378D02*
D03*
X163976Y44291D02*
D03*
X161358Y45807D02*
D03*
X124606Y44882D02*
D03*
X173622Y47539D02*
D03*
X176181D02*
D03*
X178740D02*
D03*
X181299D02*
D03*
X183858D02*
D03*
X187697Y51378D02*
D03*
X181102Y34843D02*
D03*
X182185Y28346D02*
D03*
X179626D02*
D03*
X166831D02*
D03*
X164272D02*
D03*
X219488Y3937D02*
D03*
X216535D02*
D03*
X213583D02*
D03*
X219488Y6890D02*
D03*
X216535D02*
D03*
X213583D02*
D03*
X210630D02*
D03*
Y3937D02*
D03*
X207677D02*
D03*
X204724D02*
D03*
X207677Y6890D02*
D03*
X204724D02*
D03*
Y9843D02*
D03*
X207677D02*
D03*
X213976Y12008D02*
D03*
X217520Y11988D02*
D03*
X83146Y57677D02*
D03*
X82677Y61614D02*
D03*
X80118Y62795D02*
D03*
X229528Y63976D02*
D03*
Y54331D02*
D03*
X152165Y104724D02*
D03*
Y107874D02*
D03*
Y111024D02*
D03*
X183858Y70571D02*
D03*
X181299D02*
D03*
X164665Y53937D02*
D03*
Y56496D02*
D03*
Y59055D02*
D03*
X218504Y44488D02*
D03*
X220866Y71063D02*
D03*
X218504Y68898D02*
D03*
Y73425D02*
D03*
X226358Y78740D02*
D03*
Y39370D02*
D03*
X120079Y9449D02*
D03*
X185039Y76410D02*
D03*
X214567Y86614D02*
D03*
X199016Y55118D02*
D03*
X34252Y73425D02*
D03*
X4921Y83661D02*
D03*
X207677Y62992D02*
D03*
X220472Y78740D02*
D03*
X215354D02*
D03*
Y39370D02*
D03*
X220472D02*
D03*
X219687Y110039D02*
D03*
X210234D02*
D03*
X177067Y28346D02*
D03*
X175591Y38386D02*
D03*
X60925Y5118D02*
D03*
X63484Y28346D02*
D03*
X73721D02*
D03*
X60925D02*
D03*
X76279D02*
D03*
X68504Y38386D02*
D03*
X182185Y112992D02*
D03*
X171949Y112992D02*
D03*
X174508D02*
D03*
X169390Y89764D02*
D03*
X175591Y79724D02*
D03*
X182185Y89764D02*
D03*
X179626D02*
D03*
X166831D02*
D03*
X164272D02*
D03*
X66043D02*
D03*
X71161Y28346D02*
D03*
X174508D02*
D03*
X171949Y89764D02*
D03*
X68602D02*
D03*
X166831Y5118D02*
D03*
X171949D02*
D03*
X174508D02*
D03*
X179626D02*
D03*
X71161D02*
D03*
X68602D02*
D03*
X76279D02*
D03*
X63484D02*
D03*
X179626Y112992D02*
D03*
X166831D02*
D03*
X63484D02*
D03*
X76279D02*
D03*
X71161D02*
D03*
X68602D02*
D03*
X78839Y89764D02*
D03*
X76279D02*
D03*
X60925D02*
D03*
X63484D02*
D03*
X94488Y85630D02*
D03*
Y89370D02*
D03*
X68504Y79724D02*
D03*
X50000Y66732D02*
D03*
X220472Y86614D02*
D03*
Y31496D02*
D03*
X215354D02*
D03*
X185039Y83071D02*
D03*
Y79724D02*
D03*
X181102Y83071D02*
D03*
X185039Y41535D02*
D03*
Y38189D02*
D03*
X181102Y41535D02*
D03*
X62992Y41732D02*
D03*
Y35039D02*
D03*
X59055Y41732D02*
D03*
Y38386D02*
D03*
Y35039D02*
D03*
X51181Y48425D02*
D03*
X37795Y71063D02*
D03*
X66929Y72409D02*
D03*
X59842Y71850D02*
D03*
X69685Y49213D02*
D03*
X66831D02*
D03*
X56102Y70669D02*
D03*
X74606Y46654D02*
D03*
X74803Y49409D02*
D03*
X96063Y82638D02*
D03*
X82087Y65945D02*
D03*
X66929Y69882D02*
D03*
X44685Y57382D02*
D03*
X44783Y60728D02*
D03*
X59055Y76378D02*
D03*
Y79724D02*
D03*
Y83071D02*
D03*
X62992Y76378D02*
D03*
Y83071D02*
D03*
D84*
X173228Y16732D02*
D03*
Y101378D02*
D03*
X69882Y16732D02*
D03*
Y101378D02*
D03*
D85*
X36319Y60039D02*
D03*
D86*
X36220Y58071D02*
D03*
Y56102D02*
D03*
X38583D02*
D03*
Y58071D02*
D03*
Y60039D02*
D03*
D87*
X34252Y73425D02*
Y81299D01*
X32087Y83465D02*
X34252Y81299D01*
X18214Y33465D02*
Y47741D01*
X21161Y50689D01*
X24311D01*
X26575Y83465D02*
X32087D01*
X26476Y92913D02*
X26526Y92864D01*
Y83514D02*
X26575Y83465D01*
X26526Y83514D02*
Y92864D01*
X14813Y83711D02*
Y92864D01*
X14764Y83661D02*
X14813Y83711D01*
Y92864D02*
X14862Y92913D01*
X24311Y50689D02*
X29626D01*
X4921Y72638D02*
Y83661D01*
X10138Y67421D02*
X24311D01*
X4921Y72638D02*
X10138Y67421D01*
X24311D02*
X29626D01*
D88*
X132047Y106299D02*
D03*
D89*
X122047D02*
D03*
X112047D02*
D03*
D90*
X203780Y30709D02*
D03*
Y19291D02*
D03*
X191457Y24409D02*
D03*
X203780Y93701D02*
D03*
Y82284D02*
D03*
X191457Y87402D02*
D03*
X40315Y24409D02*
D03*
Y35827D02*
D03*
X52638Y30709D02*
D03*
X40315Y87402D02*
D03*
Y98819D02*
D03*
X52638Y93701D02*
D03*
D91*
X191457Y35827D02*
D03*
Y98819D02*
D03*
X52638Y19291D02*
D03*
Y82284D02*
D03*
D92*
X9843Y108268D02*
D03*
Y9843D02*
D03*
X234252Y108268D02*
D03*
Y9843D02*
D03*
D93*
X166142Y16732D02*
D03*
Y12008D02*
D03*
Y21457D02*
D03*
X180315Y12008D02*
D03*
Y16732D02*
D03*
Y21457D02*
D03*
X170866Y16732D02*
D03*
X175591D02*
D03*
X170866Y11417D02*
D03*
X175591D02*
D03*
X170866Y22047D02*
D03*
X175591D02*
D03*
X180315Y101378D02*
D03*
Y106102D02*
D03*
Y96653D02*
D03*
X166142Y106102D02*
D03*
Y101378D02*
D03*
Y96653D02*
D03*
X175591Y101378D02*
D03*
X170866D02*
D03*
X175591Y106693D02*
D03*
X170866D02*
D03*
X175591Y96063D02*
D03*
X170866D02*
D03*
X62795Y16732D02*
D03*
Y12008D02*
D03*
Y21457D02*
D03*
X76968Y12008D02*
D03*
Y16732D02*
D03*
Y21457D02*
D03*
X67520Y16732D02*
D03*
X72244D02*
D03*
X67520Y11417D02*
D03*
X72244D02*
D03*
X67520Y22047D02*
D03*
X72244D02*
D03*
X76968Y101378D02*
D03*
Y106102D02*
D03*
Y96653D02*
D03*
X62795Y106102D02*
D03*
Y101378D02*
D03*
Y96653D02*
D03*
X72244Y101378D02*
D03*
X67520D02*
D03*
X72244Y106693D02*
D03*
X67520D02*
D03*
X72244Y96063D02*
D03*
X67520D02*
D03*
M02*
