M48
;Layer_Color=9474304
;FILE_FORMAT=2:4
INCH,TZ
;TYPE=PLATED
T1F00S00C0.0079
T2F00S00C0.0100
T3F00S00C0.0157
T5F00S00C0.0354
T6F00S00C0.0433
T7F00S00C0.0984
%
T01
X6280Y1201
Y1673
Y2146
X6752Y2205
X7224
X7697Y2146
Y1673
Y1201
X7224Y1142
X6752
Y1673
X7224
X16614
Y1201
X17087Y1142
X17559
X18032Y1201
Y1673
Y2146
X17559Y2205
X17087
X16614Y2146
X17087Y1673
X17559
Y9606
X17087
X16614Y9665
Y10138
Y10610
X17087Y10669
X17559
X18032Y10610
Y10138
Y9665
X17559Y10138
X17087
X7697
Y10610
X7224Y10669
X6752
X6280Y10610
Y10138
Y9665
X6752Y9606
X7224
X7697Y9665
X7224Y10138
X6752
T02
X1614Y2303
X2874Y3209
X3819Y1181
X4016Y433
X4528Y5000
X5118Y4843
Y4528
X5984Y4606
X5906Y4173
Y3839
Y3504
X6299
Y4173
X6850Y3839
X6969Y4921
X6683
X7480Y4941
X7461Y4665
X7372Y2835
X7628
X7884
X7116
X6348
X6093
Y512
X6348
X6860
X7116
X7628
X8169Y453
X8543Y1516
X8287Y1772
X9019Y1909
X9251Y1594
X10276Y2677
X10630Y2657
X10532Y3228
X11220Y2835
Y4528
X10532
X9843
X9803Y3878
X10039Y4016
X12461Y3878
Y4488
X14823Y5020
X14803Y3760
X14827Y3264
X14941Y2559
X15467Y1555
X16043Y1355
X16122Y1083
Y768
X16161Y248
X16683Y512
X16939
X17195
X17451
X17707
X17963
X18484Y276
Y1378
X20118Y1417
X20591Y1319
X20472Y984
Y689
Y394
X20768
Y689
Y984
X19732Y580
X19823Y3661
X20177Y3898
X20630Y3996
X19921Y4390
X19606
X19272Y4590
X18935Y4188
X18504Y4154
Y3819
Y3484
X18110
Y4154
X18130Y4754
X17874
X17618
X17362
X18386
X18770Y5138
X20807Y5098
X16467Y5138
X16398Y4429
X16136Y4581
X16427Y2835
X16683
X17451
X17707
X17963
X18219
X17559Y3839
X16102Y1755
X12244Y787
X12008Y945
X12362Y256
X11240Y413
X10886Y613
X10866Y1004
X21063Y689
X21358
Y394
X21654
X21949
Y689
X21654
X21752Y1199
X21398Y1201
X22126
X22697Y1673
X22677Y335
X21063Y394
X21535Y3150
X22047
Y3937
X21535
X21850Y4449
X22087Y4665
X21850Y4902
X22636Y3937
X24055Y1929
X23543Y5906
X22953Y5433
Y6398
X22220Y5906
X22087Y7106
X21850Y6890
Y7343
X22047Y7874
X21535
X21457Y8661
X22047Y8661
X22636Y7874
X21043Y6752
X21023Y11004
X21969
X22638Y11457
X20531Y11339
X18219Y11299
X17963Y11299
X17451
X17195
X16683
X16024Y11299
X15217Y11102
Y10787
Y10472
X15354Y9744
X14961Y9429
X14272Y9882
X14390Y8307
X14783Y7874
X14902Y7579
X14094Y6693
X14331Y6417
X16467
Y6673
Y5906
Y5650
Y5394
X17618Y5906
X18770
Y6939
X19134Y6969
X19213Y7264
X19606Y7421
X19921
X19754Y7766
X19508Y7894
X18504Y7972
Y7641
X18110
X18130Y7057
X17874
X17362
X18386
X18504Y8307
X18110
X18218Y8976
X17963
X17195
X16939
X16683
X16427
X17559Y7972
X19902Y6299
Y5512
X20768
Y6299
X11811Y6533
X10630Y6398
Y6693
X10020
X9547Y6654
X9488Y6083
X9843Y5315
X8315Y5768
X8268Y6161
X8012Y6280
X8209Y6594
X7067Y6788
X6693Y6988
Y7241
X5984Y7185
X5610Y7067
X5906Y7638
Y7972
Y8307
X6299
Y7638
X6850Y7972
X6860Y8976
X6604
X6348
X6093
X7628
X7884
X9449Y8937
Y8563
X9606Y8264
X9843Y7441
X9764Y9606
X10138Y11004
X10669Y10630
X8268Y10591
X8248Y10945
X7628Y11299
X7116
X6860
X6348
X14961Y11535
X12461Y7618
X5000Y6673
X4478Y6073
X4469Y5738
X4232Y5492
X4331Y7244
X3780Y7106
X3425Y7343
X492Y8366
X728Y9685
X2067Y11299
X3524Y11398
X4429Y11437
T03
X2431Y4734
Y5069
X2963
Y4734
Y5404
Y5738
Y6073
Y6407
Y6742
Y7077
X2431
Y6742
Y6407
Y6073
Y5738
Y5404
T05
X4031Y2441
Y3583
X5264Y3071
Y1929
X19146Y2441
Y3583
X20378Y3071
Y1929
Y8228
Y9370
X19146Y9882
Y8740
X5264Y8228
Y9370
X4031Y9882
Y8740
T06
X11205Y10630
X12205
X13205
T07
X984Y984
X23425
Y10827
X984
M30
