G04*
G04 #@! TF.GenerationSoftware,Altium Limited,Altium Designer,21.8.1 (53)*
G04*
G04 Layer_Color=8388736*
%FSLAX25Y25*%
%MOIN*%
G70*
G04*
G04 #@! TF.SameCoordinates,79EC032F-631B-404A-8042-777835F6C2BC*
G04*
G04*
G04 #@! TF.FilePolarity,Negative*
G04*
G01*
G75*
%ADD18R,0.03740X0.05315*%
%ADD25R,0.05315X0.03740*%
%ADD27R,0.07700X0.12400*%
%ADD30R,0.04842X0.04842*%
%ADD31R,0.01181X0.03150*%
%ADD32R,0.03150X0.01181*%
G04:AMPARAMS|DCode=35|XSize=88.58mil|YSize=15.75mil|CornerRadius=7.87mil|HoleSize=0mil|Usage=FLASHONLY|Rotation=270.000|XOffset=0mil|YOffset=0mil|HoleType=Round|Shape=RoundedRectangle|*
%AMROUNDEDRECTD35*
21,1,0.08858,0.00000,0,0,270.0*
21,1,0.07284,0.01575,0,0,270.0*
1,1,0.01575,0.00000,-0.03642*
1,1,0.01575,0.00000,0.03642*
1,1,0.01575,0.00000,0.03642*
1,1,0.01575,0.00000,-0.03642*
%
%ADD35ROUNDEDRECTD35*%
%ADD43R,0.05236X0.05236*%
%ADD44R,0.07874X0.03543*%
%ADD45R,0.03543X0.07874*%
%ADD46R,0.06902X0.06312*%
%ADD47R,0.04737X0.06115*%
%ADD48R,0.06115X0.04737*%
%ADD49R,0.05524X0.05131*%
%ADD50R,0.02800X0.02202*%
%ADD51R,0.06312X0.06902*%
%ADD52R,0.05131X0.05524*%
%ADD53R,0.06312X0.06706*%
G04:AMPARAMS|DCode=54|XSize=132.02mil|YSize=65.09mil|CornerRadius=6mil|HoleSize=0mil|Usage=FLASHONLY|Rotation=90.000|XOffset=0mil|YOffset=0mil|HoleType=Round|Shape=RoundedRectangle|*
%AMROUNDEDRECTD54*
21,1,0.13202,0.05309,0,0,90.0*
21,1,0.12002,0.06509,0,0,90.0*
1,1,0.01200,0.02655,0.06001*
1,1,0.01200,0.02655,-0.06001*
1,1,0.01200,-0.02655,-0.06001*
1,1,0.01200,-0.02655,0.06001*
%
%ADD54ROUNDEDRECTD54*%
G04:AMPARAMS|DCode=55|XSize=43.43mil|YSize=65.09mil|CornerRadius=5.95mil|HoleSize=0mil|Usage=FLASHONLY|Rotation=90.000|XOffset=0mil|YOffset=0mil|HoleType=Round|Shape=RoundedRectangle|*
%AMROUNDEDRECTD55*
21,1,0.04343,0.05319,0,0,90.0*
21,1,0.03154,0.06509,0,0,90.0*
1,1,0.01190,0.02659,0.01577*
1,1,0.01190,0.02659,-0.01577*
1,1,0.01190,-0.02659,-0.01577*
1,1,0.01190,-0.02659,0.01577*
%
%ADD55ROUNDEDRECTD55*%
%ADD56R,0.09068X0.06312*%
G04:AMPARAMS|DCode=57|XSize=33.59mil|YSize=72.96mil|CornerRadius=5.92mil|HoleSize=0mil|Usage=FLASHONLY|Rotation=180.000|XOffset=0mil|YOffset=0mil|HoleType=Round|Shape=RoundedRectangle|*
%AMROUNDEDRECTD57*
21,1,0.03359,0.06112,0,0,180.0*
21,1,0.02175,0.07296,0,0,180.0*
1,1,0.01184,-0.01088,0.03056*
1,1,0.01184,0.01088,0.03056*
1,1,0.01184,0.01088,-0.03056*
1,1,0.01184,-0.01088,-0.03056*
%
%ADD57ROUNDEDRECTD57*%
%ADD58R,0.08280X0.06115*%
%ADD59R,0.05524X0.04737*%
%ADD60R,0.06902X0.06115*%
%ADD61R,0.04147X0.05131*%
%ADD62R,0.03753X0.05131*%
%ADD63R,0.05406X0.07887*%
%ADD64R,0.18517X0.06312*%
%ADD65C,0.06662*%
%ADD66R,0.06662X0.06662*%
%ADD67C,0.05131*%
%ADD68C,0.12611*%
%ADD69C,0.08280*%
%ADD70C,0.07099*%
%ADD71R,0.07099X0.07099*%
%ADD72C,0.20485*%
%ADD73C,0.03800*%
D18*
X285335Y165354D02*
D03*
X279429D02*
D03*
X59252Y84646D02*
D03*
X53347D02*
D03*
X59350Y74803D02*
D03*
X53445D02*
D03*
X264862Y36614D02*
D03*
X258957D02*
D03*
X264862Y45276D02*
D03*
X258957D02*
D03*
X210335Y19685D02*
D03*
X204429D02*
D03*
X145276Y23622D02*
D03*
X151181D02*
D03*
D25*
X70866Y81693D02*
D03*
Y75787D02*
D03*
X194882Y45276D02*
D03*
Y39370D02*
D03*
X133858Y81693D02*
D03*
Y75787D02*
D03*
D27*
X180910Y23622D02*
D03*
X161610D02*
D03*
D30*
X255906Y59055D02*
D03*
X59055D02*
D03*
D31*
X252953Y64665D02*
D03*
X254921D02*
D03*
X256890D02*
D03*
X258858D02*
D03*
Y53445D02*
D03*
X256890D02*
D03*
X254921D02*
D03*
X252953D02*
D03*
X62008D02*
D03*
X60039D02*
D03*
X58071D02*
D03*
X56102D02*
D03*
Y64665D02*
D03*
X58071D02*
D03*
X60039D02*
D03*
X62008D02*
D03*
D32*
X261516Y62008D02*
D03*
Y60039D02*
D03*
Y58071D02*
D03*
Y56102D02*
D03*
X250295D02*
D03*
Y58071D02*
D03*
Y60039D02*
D03*
Y62008D02*
D03*
X53445Y56102D02*
D03*
Y58071D02*
D03*
Y60039D02*
D03*
Y62008D02*
D03*
X64665D02*
D03*
Y60039D02*
D03*
Y58071D02*
D03*
Y56102D02*
D03*
D35*
X168730Y69390D02*
D03*
X166230D02*
D03*
X163730D02*
D03*
X161230D02*
D03*
X158730D02*
D03*
X156230D02*
D03*
X153730D02*
D03*
X151230D02*
D03*
X148730D02*
D03*
X146230D02*
D03*
Y88090D02*
D03*
X148730D02*
D03*
X151230D02*
D03*
X153730D02*
D03*
X156230D02*
D03*
X158730D02*
D03*
X161230D02*
D03*
X163730D02*
D03*
X166230D02*
D03*
X168730D02*
D03*
D43*
X247736Y114823D02*
D03*
Y122047D02*
D03*
Y129272D02*
D03*
X254961Y114823D02*
D03*
Y122047D02*
D03*
Y129272D02*
D03*
X262185Y114823D02*
D03*
Y122047D02*
D03*
Y129272D02*
D03*
D44*
X215551Y95610D02*
D03*
Y100610D02*
D03*
Y105610D02*
D03*
Y110610D02*
D03*
Y115610D02*
D03*
Y120610D02*
D03*
Y125610D02*
D03*
Y130610D02*
D03*
Y135610D02*
D03*
Y140610D02*
D03*
D45*
X284488Y84646D02*
D03*
X279488D02*
D03*
X274488D02*
D03*
X269488D02*
D03*
X264488D02*
D03*
X259488D02*
D03*
X254488D02*
D03*
X249488D02*
D03*
X244488D02*
D03*
X239488D02*
D03*
X234488D02*
D03*
X229488D02*
D03*
X224488D02*
D03*
X219488D02*
D03*
Y151575D02*
D03*
X224488D02*
D03*
X229488D02*
D03*
X234488D02*
D03*
X239488D02*
D03*
X244488D02*
D03*
X249488D02*
D03*
X254488D02*
D03*
X259488D02*
D03*
X264488D02*
D03*
X269488D02*
D03*
X274488D02*
D03*
X279488D02*
D03*
X284488D02*
D03*
D46*
X282480Y184843D02*
D03*
Y177362D02*
D03*
X128937Y141535D02*
D03*
Y134055D02*
D03*
X66929Y141535D02*
D03*
Y134055D02*
D03*
X239173Y27559D02*
D03*
Y35039D02*
D03*
D47*
X60630Y94488D02*
D03*
X53543D02*
D03*
D48*
X239173Y56102D02*
D03*
Y49016D02*
D03*
D49*
X204724Y141929D02*
D03*
Y133661D02*
D03*
X190945Y141929D02*
D03*
Y133661D02*
D03*
D50*
X191526Y102362D02*
D03*
X186427Y100394D02*
D03*
Y104331D02*
D03*
X191526Y114173D02*
D03*
X186427Y112205D02*
D03*
Y116142D02*
D03*
D51*
X103405Y102362D02*
D03*
X95925D02*
D03*
X176181Y114173D02*
D03*
X168701D02*
D03*
X176181Y102362D02*
D03*
X168701D02*
D03*
X239173Y15748D02*
D03*
X231693D02*
D03*
D52*
X122244Y102362D02*
D03*
X113976D02*
D03*
D53*
X261811Y15748D02*
D03*
X250000D02*
D03*
X261811Y27559D02*
D03*
X250000D02*
D03*
D54*
X228642Y39370D02*
D03*
D55*
X204429Y30315D02*
D03*
Y39370D02*
D03*
Y48425D02*
D03*
D56*
X139567Y128937D02*
D03*
X175394D02*
D03*
X139567Y146653D02*
D03*
X175394D02*
D03*
X80512Y128937D02*
D03*
X116339D02*
D03*
X80512Y146653D02*
D03*
X116339D02*
D03*
D57*
X115925Y89862D02*
D03*
X110925D02*
D03*
X105925D02*
D03*
X100925D02*
D03*
X95925D02*
D03*
X90925D02*
D03*
X85925D02*
D03*
X80925D02*
D03*
X115925Y67618D02*
D03*
X110925D02*
D03*
X105925D02*
D03*
X100925D02*
D03*
X95925D02*
D03*
X90925D02*
D03*
X85925D02*
D03*
X80925D02*
D03*
D58*
X83770Y48868D02*
D03*
X107274D02*
D03*
D59*
X121053Y30463D02*
D03*
Y45030D02*
D03*
D60*
X120364Y6742D02*
D03*
D61*
X110679Y6250D02*
D03*
X106348D02*
D03*
X102018D02*
D03*
X97687D02*
D03*
X93356D02*
D03*
X89026D02*
D03*
X84695D02*
D03*
D62*
X80561D02*
D03*
D63*
X75797Y7628D02*
D03*
D64*
X36024Y98425D02*
D03*
Y137795D02*
D03*
Y118110D02*
D03*
D65*
X49055Y169563D02*
D03*
X69055D02*
D03*
X49055Y189563D02*
D03*
X167165Y169563D02*
D03*
X187165D02*
D03*
X167165Y189563D02*
D03*
X108110Y169563D02*
D03*
X128110D02*
D03*
X108110Y189563D02*
D03*
X245905Y169563D02*
D03*
X265905D02*
D03*
X245905Y189563D02*
D03*
D66*
X69055D02*
D03*
X187165D02*
D03*
X128110D02*
D03*
X265905D02*
D03*
D67*
X160630Y43425D02*
D03*
X154331D02*
D03*
X163779Y35945D02*
D03*
X157480D02*
D03*
X151181D02*
D03*
D68*
X174016Y39488D02*
D03*
X140945D02*
D03*
D69*
X15748Y152756D02*
D03*
Y83465D02*
D03*
D70*
X15748Y54055D02*
D03*
X299213Y64055D02*
D03*
D71*
X15748D02*
D03*
X299213Y54055D02*
D03*
D72*
Y181102D02*
D03*
X15748D02*
D03*
X299213Y15748D02*
D03*
X15748D02*
D03*
D73*
X271299Y165354D02*
D03*
X89075Y15846D02*
D03*
X75394Y62106D02*
D03*
X281988Y35335D02*
D03*
X268504Y64370D02*
D03*
X276575Y11024D02*
D03*
X90945Y59842D02*
D03*
X81004Y59941D02*
D03*
X128937Y125925D02*
D03*
X51870Y118110D02*
D03*
X251969Y48425D02*
D03*
X274488Y76516D02*
D03*
X155020Y99410D02*
D03*
X44390Y67126D02*
D03*
X192421Y30315D02*
D03*
X71850Y31496D02*
D03*
Y38386D02*
D03*
X126575Y60728D02*
D03*
X75590Y56102D02*
D03*
X142618Y99114D02*
D03*
X249311Y36614D02*
D03*
X218602Y8465D02*
D03*
X239961Y64862D02*
D03*
X224803Y163484D02*
D03*
X232677Y160827D02*
D03*
X95177Y190059D02*
D03*
X116339Y188681D02*
D03*
X150984Y190354D02*
D03*
X175098Y189272D02*
D03*
X222441Y190059D02*
D03*
X222539Y183465D02*
D03*
X244193Y182283D02*
D03*
X245866Y176476D02*
D03*
X190945Y148524D02*
D03*
X204724Y148524D02*
D03*
X169390Y122441D02*
D03*
X190945Y126870D02*
D03*
X204724Y126870D02*
D03*
X179528Y77362D02*
D03*
X251378Y69882D02*
D03*
X256890D02*
D03*
X259488Y76516D02*
D03*
X244094Y98425D02*
D03*
X250000D02*
D03*
X257087Y102264D02*
D03*
X206693Y102461D02*
D03*
X202953Y114173D02*
D03*
X194193Y74705D02*
D03*
X115945Y82185D02*
D03*
X95571Y79626D02*
D03*
X88878Y43012D02*
D03*
X100925Y59390D02*
D03*
X137894Y60433D02*
D03*
X226378Y60925D02*
D03*
Y70965D02*
D03*
Y65847D02*
D03*
Y75886D02*
D03*
X157677Y78248D02*
D03*
M02*
