G04*
G04 #@! TF.GenerationSoftware,Altium Limited,Altium Designer,21.8.1 (53)*
G04*
G04 Layer_Color=65535*
%FSLAX25Y25*%
%MOIN*%
G70*
G04*
G04 #@! TF.SameCoordinates,79EC032F-631B-404A-8042-777835F6C2BC*
G04*
G04*
G04 #@! TF.FilePolarity,Positive*
G04*
G01*
G75*
%ADD10C,0.00394*%
%ADD11C,0.00984*%
%ADD12C,0.02362*%
%ADD13C,0.00787*%
%ADD14C,0.03150*%
%ADD15C,0.01000*%
%ADD16R,0.00803X0.05118*%
D10*
X186626Y106606D02*
D03*
Y118417D02*
D03*
D11*
X204921Y52362D02*
X204183Y52788D01*
Y51936D01*
X204921Y52362D01*
X246949Y62008D02*
X246211Y62434D01*
Y61582D01*
X246949Y62008D01*
X68996Y56102D02*
X68258Y56529D01*
Y55676D01*
X68996Y56102D01*
X140059Y151575D02*
X139321Y152001D01*
Y151149D01*
X140059Y151575D01*
X81004D02*
X80266Y152001D01*
Y151149D01*
X81004Y151575D01*
X77973Y67618D02*
X77234Y68044D01*
Y67192D01*
X77973Y67618D01*
X169124Y95350D02*
X168386Y95776D01*
Y94924D01*
X169124Y95350D01*
X111171Y1919D02*
X110433Y2345D01*
Y1493D01*
X111171Y1919D01*
X78386Y189563D02*
X77648Y189990D01*
Y189137D01*
X78386Y189563D01*
X196496D02*
X195758Y189990D01*
Y189137D01*
X196496Y189563D01*
X137441D02*
X136703Y189990D01*
Y189137D01*
X137441Y189563D01*
X16240Y72520D02*
X15502Y72946D01*
Y72093D01*
X16240Y72520D01*
X284685Y158563D02*
X283947Y158989D01*
Y158137D01*
X284685Y158563D01*
X299705Y45591D02*
X298967Y46017D01*
Y45164D01*
X299705Y45591D01*
X275236Y189563D02*
X274498Y189990D01*
Y189137D01*
X275236Y189563D01*
D12*
X83858Y76378D02*
X83414Y77301D01*
X82414Y77529D01*
X81613Y76890D01*
Y75866D01*
X82414Y75226D01*
X83414Y75454D01*
X83858Y76378D01*
D13*
X81191Y10778D02*
X80313Y10571D01*
X79619Y9994D01*
X112961Y9938D02*
X112257Y10555D01*
X111348Y10778D01*
X101724Y11171D02*
X101330Y10778D01*
X91487D02*
X91094Y11171D01*
X113928Y5808D02*
X115285Y5266D01*
X91094Y11171D02*
X90700Y10778D01*
X102117D02*
X101724Y11171D01*
X278030Y161092D02*
X286692D01*
X278051Y169587D02*
X286713D01*
X51947Y80383D02*
X60609D01*
X51968Y88878D02*
X60630D01*
X52067Y70571D02*
X60728D01*
X52067Y79035D02*
X60728D01*
X56693Y92224D02*
X57480D01*
X56693Y96752D02*
X57480D01*
X241437Y52165D02*
Y52953D01*
X236910Y52165D02*
Y52953D01*
X202756Y137205D02*
X206693D01*
Y138386D01*
X202756Y137205D02*
Y138386D01*
X188976Y137205D02*
X192913D01*
Y138386D01*
X188976Y137205D02*
Y138386D01*
X257579Y32382D02*
X266240D01*
X257579Y40846D02*
X266240D01*
X257558Y41013D02*
X266219D01*
X257579Y49508D02*
X266240D01*
X190551Y99213D02*
Y100087D01*
Y104638D02*
Y105512D01*
X188927Y99213D02*
X190551D01*
X188927Y105512D02*
X190551D01*
X190551Y111024D02*
Y111898D01*
Y116449D02*
Y117323D01*
X188927Y111024D02*
X190551D01*
X188927Y117323D02*
X190551D01*
X117520Y100394D02*
Y104331D01*
Y100394D02*
X118701D01*
X117520Y104331D02*
X118701D01*
X75129Y74388D02*
Y83050D01*
X66634Y74410D02*
Y83071D01*
X253543Y13189D02*
X257874D01*
X253543Y18307D02*
X257874D01*
Y13189D02*
Y18307D01*
X253543Y25000D02*
X257874D01*
X253543Y30118D02*
X257874D01*
Y25000D02*
Y30118D01*
X199144Y37971D02*
Y46633D01*
X190650Y37992D02*
Y46654D01*
X203030Y15423D02*
X211692D01*
X203051Y23917D02*
X211713D01*
X166949Y17835D02*
X175571D01*
X166949Y29409D02*
X175571D01*
X143919Y27885D02*
X152580D01*
X143898Y19390D02*
X152559D01*
X208465Y26181D02*
X224606D01*
X208465Y52559D02*
X224606D01*
Y26181D02*
Y52559D01*
X208465Y26181D02*
Y52559D01*
X249705Y64075D02*
Y65256D01*
Y52854D02*
Y54035D01*
X260925Y52854D02*
X262106D01*
X249705D02*
X250886D01*
X262106Y64075D02*
Y65256D01*
Y52854D02*
Y54035D01*
X260925Y65256D02*
X262106D01*
X249705D02*
X250886D01*
X65256Y52854D02*
Y54035D01*
Y64075D02*
Y65256D01*
X52854D02*
X54035D01*
X64075D02*
X65256D01*
X52854Y52854D02*
Y54035D01*
Y64075D02*
Y65256D01*
Y52854D02*
X54035D01*
X64075D02*
X65256D01*
X145669Y125984D02*
Y149606D01*
X169291Y125984D02*
Y149606D01*
X145669Y125984D02*
X169291D01*
X145669Y149606D02*
X169291D01*
X86614Y125984D02*
Y149606D01*
X110236Y125984D02*
Y149606D01*
X86614Y125984D02*
X110236D01*
X86614Y149606D02*
X110236D01*
X118110Y72441D02*
Y85039D01*
X78740Y72441D02*
Y85039D01*
X118110D01*
X78740Y72441D02*
X118110D01*
X170994Y86590D02*
X174680D01*
X140280D02*
X143966D01*
X140280Y70890D02*
Y86590D01*
X170994Y70890D02*
X174680D01*
X140280D02*
X143966D01*
X174680D02*
Y86590D01*
X115285Y5266D02*
X115738D01*
X121955Y10974D02*
Y26919D01*
X121978Y34006D02*
Y41486D01*
X102117Y10778D02*
X111348D01*
X74931Y48888D02*
X75403D01*
X81191Y10778D02*
X90700D01*
X121978Y48573D02*
Y48888D01*
X112589Y50148D02*
X120778D01*
X75403D02*
X77392D01*
X74931Y12746D02*
Y48888D01*
X75403D02*
Y50148D01*
X89085D02*
X101959D01*
X120778D02*
X121506D01*
Y48888D02*
X121978D01*
X121506D02*
Y50148D01*
X77392D02*
X78455D01*
X91487Y10778D02*
X101330D01*
X42555Y218863D02*
X75555D01*
X42555Y168963D02*
Y218863D01*
X73863Y168963D02*
X75555D01*
X53863D02*
X64248D01*
X42555D02*
X44248D01*
X75555D02*
Y218863D01*
X160665D02*
X193665D01*
X160665Y168963D02*
Y218863D01*
X191973Y168963D02*
X193665D01*
X171973D02*
X182358D01*
X160665D02*
X162358D01*
X193665D02*
Y218863D01*
X101610D02*
X134610D01*
X101610Y168963D02*
Y218863D01*
X132918Y168963D02*
X134610D01*
X112918D02*
X123303D01*
X101610D02*
X103303D01*
X134610D02*
Y218863D01*
X172638Y31693D02*
Y32677D01*
Y46260D02*
Y47047D01*
X142323Y46260D02*
Y47047D01*
Y31693D02*
Y32677D01*
Y31693D02*
X172638D01*
X142323Y47047D02*
X172638D01*
X31496Y122047D02*
Y133858D01*
Y141732D02*
Y148622D01*
X0Y87598D02*
Y148622D01*
X31496D01*
Y102362D02*
Y114173D01*
Y87598D02*
Y94488D01*
X0Y87598D02*
X31496D01*
X3543Y69961D02*
X27953D01*
Y48150D02*
Y69961D01*
X3543Y48150D02*
X27953D01*
X3543Y67079D02*
Y69961D01*
Y48150D02*
Y51032D01*
X287736Y153740D02*
X314173D01*
X213386D02*
X216240D01*
X213386Y82480D02*
Y92362D01*
Y143858D02*
Y153740D01*
X287736Y82480D02*
X314173D01*
X213386D02*
X216240D01*
X314173D02*
Y153740D01*
X287008Y48150D02*
X311417D01*
X287008D02*
Y69961D01*
X311417D01*
Y48150D02*
Y51032D01*
Y67079D02*
Y69961D01*
X239405Y218863D02*
X272406D01*
X239405Y168963D02*
Y218863D01*
X270713Y168963D02*
X272406D01*
X250713D02*
X261098D01*
X239405D02*
X241098D01*
X272406D02*
Y218863D01*
X138091Y74410D02*
Y83071D01*
X129626Y74410D02*
Y83071D01*
D14*
X36095Y144095D02*
X35570Y144818D01*
X34719Y144541D01*
Y143648D01*
X35570Y143371D01*
X36095Y144095D01*
D15*
X278250Y190060D02*
Y193995D01*
X280218D01*
X280873Y193340D01*
Y192027D01*
X280218Y191372D01*
X278250D01*
X279561D02*
X280873Y190060D01*
X282185D02*
X283497D01*
X282841D01*
Y193995D01*
X282185Y193340D01*
X288089Y193995D02*
X285465D01*
Y192027D01*
X286777Y192683D01*
X287433D01*
X288089Y192027D01*
Y190716D01*
X287433Y190060D01*
X286121D01*
X285465Y190716D01*
X123427Y147638D02*
Y151574D01*
X125395D01*
X126051Y150918D01*
Y149606D01*
X125395Y148950D01*
X123427D01*
X124739D02*
X126051Y147638D01*
X127363D02*
X128674D01*
X128018D01*
Y151574D01*
X127363Y150918D01*
X130642D02*
X131298Y151574D01*
X132610D01*
X133266Y150918D01*
Y150262D01*
X132610Y149606D01*
X131954D01*
X132610D01*
X133266Y148950D01*
Y148294D01*
X132610Y147638D01*
X131298D01*
X130642Y148294D01*
X62403Y147737D02*
Y151673D01*
X64371D01*
X65027Y151017D01*
Y149705D01*
X64371Y149049D01*
X62403D01*
X63715D02*
X65027Y147737D01*
X66339D02*
X67651D01*
X66995D01*
Y151673D01*
X66339Y151017D01*
X72242Y147737D02*
X69619D01*
X72242Y150361D01*
Y151017D01*
X71587Y151673D01*
X70275D01*
X69619Y151017D01*
X292848Y166371D02*
X292192Y167027D01*
X290880D01*
X290224Y166371D01*
Y163747D01*
X290880Y163091D01*
X292192D01*
X292848Y163747D01*
X294160Y167027D02*
X296784D01*
Y166371D01*
X294160Y163747D01*
Y163091D01*
X41503Y86154D02*
X40847Y86810D01*
X39535D01*
X38879Y86154D01*
Y83531D01*
X39535Y82875D01*
X40847D01*
X41503Y83531D01*
X42815Y82875D02*
X44127D01*
X43471D01*
Y86810D01*
X42815Y86154D01*
X46095D02*
X46751Y86810D01*
X48063D01*
X48719Y86154D01*
Y85498D01*
X48063Y84842D01*
X47407D01*
X48063D01*
X48719Y84187D01*
Y83531D01*
X48063Y82875D01*
X46751D01*
X46095Y83531D01*
X41799Y76017D02*
X41143Y76673D01*
X39831D01*
X39175Y76017D01*
Y73393D01*
X39831Y72737D01*
X41143D01*
X41799Y73393D01*
X43111Y72737D02*
X44423D01*
X43766D01*
Y76673D01*
X43111Y76017D01*
X49014Y72737D02*
X46390D01*
X49014Y75361D01*
Y76017D01*
X48358Y76673D01*
X47046D01*
X46390Y76017D01*
X52364Y99312D02*
Y103247D01*
X54332D01*
X54988Y102591D01*
Y101279D01*
X54332Y100624D01*
X52364D01*
X53676D02*
X54988Y99312D01*
X56300D02*
X57611D01*
X56955D01*
Y103247D01*
X56300Y102591D01*
X59579Y99968D02*
X60235Y99312D01*
X61547D01*
X62203Y99968D01*
Y102591D01*
X61547Y103247D01*
X60235D01*
X59579Y102591D01*
Y101936D01*
X60235Y101279D01*
X62203D01*
X234153Y48131D02*
X230217D01*
Y50099D01*
X230873Y50755D01*
X232185D01*
X232841Y50099D01*
Y48131D01*
Y49443D02*
X234153Y50755D01*
Y52067D02*
Y53379D01*
Y52723D01*
X230217D01*
X230873Y52067D01*
X234153Y57315D02*
X230217D01*
X232185Y55347D01*
Y57971D01*
X196556Y125135D02*
Y122511D01*
X200491D01*
Y125135D01*
X198524Y122511D02*
Y123823D01*
X197212Y129071D02*
X196556Y128415D01*
Y127103D01*
X197212Y126447D01*
X197868D01*
X198524Y127103D01*
Y128415D01*
X199180Y129071D01*
X199836D01*
X200491Y128415D01*
Y127103D01*
X199836Y126447D01*
X200491Y130383D02*
X196556D01*
Y132351D01*
X197212Y133007D01*
X198524D01*
X199180Y132351D01*
Y130383D01*
X197212Y134319D02*
X196556Y134975D01*
Y136286D01*
X197212Y136943D01*
X197868D01*
X198524Y136286D01*
Y135631D01*
Y136286D01*
X199180Y136943D01*
X199836D01*
X200491Y136286D01*
Y134975D01*
X199836Y134319D01*
X200491Y140878D02*
Y138254D01*
X197868Y140878D01*
X197212D01*
X196556Y140222D01*
Y138910D01*
X197212Y138254D01*
X198524Y142190D02*
Y144814D01*
X200491Y146126D02*
X196556D01*
Y148094D01*
X197212Y148750D01*
X198524D01*
X199180Y148094D01*
Y146126D01*
Y147438D02*
X200491Y148750D01*
X196556Y150062D02*
X200491Y152685D01*
X196556D02*
X200491Y150062D01*
X182973Y122970D02*
Y120346D01*
X186909D01*
Y122970D01*
X184941Y120346D02*
Y121658D01*
X183629Y126906D02*
X182973Y126250D01*
Y124938D01*
X183629Y124282D01*
X184285D01*
X184941Y124938D01*
Y126250D01*
X185597Y126906D01*
X186253D01*
X186909Y126250D01*
Y124938D01*
X186253Y124282D01*
X186909Y128218D02*
X182973D01*
Y130185D01*
X183629Y130841D01*
X184941D01*
X185597Y130185D01*
Y128218D01*
X183629Y132153D02*
X182973Y132809D01*
Y134121D01*
X183629Y134777D01*
X184285D01*
X184941Y134121D01*
Y133465D01*
Y134121D01*
X185597Y134777D01*
X186253D01*
X186909Y134121D01*
Y132809D01*
X186253Y132153D01*
X186909Y138713D02*
Y136089D01*
X184285Y138713D01*
X183629D01*
X182973Y138057D01*
Y136745D01*
X183629Y136089D01*
X184941Y140025D02*
Y142649D01*
X182973Y143960D02*
Y146584D01*
Y145272D01*
X186909D01*
X182973Y147896D02*
X186909Y150520D01*
X182973D02*
X186909Y147896D01*
X272277Y37828D02*
X271621Y38484D01*
X270309D01*
X269653Y37828D01*
Y35204D01*
X270309Y34548D01*
X271621D01*
X272277Y35204D01*
X273589Y37828D02*
X274245Y38484D01*
X275557D01*
X276213Y37828D01*
Y37172D01*
X275557Y36516D01*
X276213Y35860D01*
Y35204D01*
X275557Y34548D01*
X274245D01*
X273589Y35204D01*
Y35860D01*
X274245Y36516D01*
X273589Y37172D01*
Y37828D01*
X274245Y36516D02*
X275557D01*
X272080Y46686D02*
X271424Y47342D01*
X270112D01*
X269456Y46686D01*
Y44062D01*
X270112Y43406D01*
X271424D01*
X272080Y44062D01*
X273392D02*
X274048Y43406D01*
X275360D01*
X276016Y44062D01*
Y46686D01*
X275360Y47342D01*
X274048D01*
X273392Y46686D01*
Y46030D01*
X274048Y45374D01*
X276016D01*
X195538Y102362D02*
X198162D01*
X198818Y103018D01*
Y104330D01*
X198162Y104986D01*
X195538D01*
X194883Y104330D01*
Y103018D01*
X196195Y103674D02*
X194883Y102362D01*
Y103018D02*
X195538Y102362D01*
X194883Y101050D02*
Y99738D01*
Y100394D01*
X198818D01*
X198162Y101050D01*
X90216Y97115D02*
X86280D01*
Y99082D01*
X86936Y99738D01*
X88248D01*
X88904Y99082D01*
Y97115D01*
Y98427D02*
X90216Y99738D01*
Y103674D02*
Y101050D01*
X87592Y103674D01*
X86936D01*
X86280Y103018D01*
Y101706D01*
X86936Y101050D01*
Y104986D02*
X86280Y105642D01*
Y106954D01*
X86936Y107610D01*
X89560D01*
X90216Y106954D01*
Y105642D01*
X89560Y104986D01*
X86936D01*
X110896Y107678D02*
X112864D01*
X113520Y108334D01*
X112864Y108990D01*
X111552D01*
X110896Y109646D01*
X111552Y110302D01*
X113520D01*
X117455Y111614D02*
Y107678D01*
X115488D01*
X114832Y108334D01*
Y109646D01*
X115488Y110302D01*
X117455D01*
X121391D02*
X119423D01*
X118767Y109646D01*
Y108334D01*
X119423Y107678D01*
X121391D01*
X123359Y110302D02*
X124671D01*
X125327Y109646D01*
Y107678D01*
X123359D01*
X122703Y108334D01*
X123359Y108990D01*
X125327D01*
X126639Y110302D02*
Y107678D01*
Y108990D01*
X127295Y109646D01*
X127951Y110302D01*
X128607D01*
X133198Y111614D02*
Y107678D01*
X131231D01*
X130575Y108334D01*
Y109646D01*
X131231Y110302D01*
X133198D01*
X195243Y114829D02*
X197867D01*
X198523Y115485D01*
Y116797D01*
X197867Y117453D01*
X195243D01*
X194587Y116797D01*
Y115485D01*
X195899Y116141D02*
X194587Y114829D01*
Y115485D02*
X195243Y114829D01*
X194587Y110893D02*
Y113517D01*
X197211Y110893D01*
X197867D01*
X198523Y111549D01*
Y112861D01*
X197867Y113517D01*
X162401Y111090D02*
X158465D01*
Y113058D01*
X159121Y113714D01*
X160433D01*
X161089Y113058D01*
Y111090D01*
Y112402D02*
X162401Y113714D01*
Y117650D02*
Y115026D01*
X159777Y117650D01*
X159121D01*
X158465Y116994D01*
Y115682D01*
X159121Y115026D01*
X162401Y100132D02*
X158465D01*
Y102100D01*
X159121Y102756D01*
X160433D01*
X161089Y102100D01*
Y100132D01*
Y101444D02*
X162401Y102756D01*
Y104068D02*
Y105380D01*
Y104724D01*
X158465D01*
X159121Y104068D01*
X67980Y89403D02*
X67324Y90058D01*
X66012D01*
X65356Y89403D01*
Y86779D01*
X66012Y86123D01*
X67324D01*
X67980Y86779D01*
X69292Y86123D02*
X70604D01*
X69948D01*
Y90058D01*
X69292Y89403D01*
X75195Y90058D02*
X73883Y89403D01*
X72571Y88091D01*
Y86779D01*
X73227Y86123D01*
X74539D01*
X75195Y86779D01*
Y87435D01*
X74539Y88091D01*
X72571D01*
X227165Y12665D02*
X223229D01*
Y14633D01*
X223885Y15289D01*
X225197D01*
X225853Y14633D01*
Y12665D01*
Y13977D02*
X227165Y15289D01*
X226509Y16601D02*
X227165Y17257D01*
Y18569D01*
X226509Y19225D01*
X223885D01*
X223229Y18569D01*
Y17257D01*
X223885Y16601D01*
X224541D01*
X225197Y17257D01*
Y19225D01*
X269127Y17814D02*
X266504D01*
Y15846D01*
X267816Y16502D01*
X268472D01*
X269127Y15846D01*
Y14535D01*
X268472Y13879D01*
X267160D01*
X266504Y14535D01*
X270439Y17814D02*
Y15191D01*
X271751Y13879D01*
X273063Y15191D01*
Y17814D01*
X236090Y40453D02*
Y44389D01*
X238058D01*
X238714Y43733D01*
Y42421D01*
X238058Y41765D01*
X236090D01*
X237402D02*
X238714Y40453D01*
X240026Y43733D02*
X240682Y44389D01*
X241994D01*
X242650Y43733D01*
Y43077D01*
X241994Y42421D01*
X242650Y41765D01*
Y41109D01*
X241994Y40453D01*
X240682D01*
X240026Y41109D01*
Y41765D01*
X240682Y42421D01*
X240026Y43077D01*
Y43733D01*
X240682Y42421D02*
X241994D01*
X266800Y28674D02*
X267456Y29330D01*
X268767D01*
X269423Y28674D01*
Y28018D01*
X268767Y27362D01*
X268111D01*
X268767D01*
X269423Y26706D01*
Y26050D01*
X268767Y25394D01*
X267456D01*
X266800Y26050D01*
X270735Y29330D02*
Y26706D01*
X272047Y25394D01*
X273359Y26706D01*
Y29330D01*
X274671Y28674D02*
X275327Y29330D01*
X276639D01*
X277295Y28674D01*
Y28018D01*
X276639Y27362D01*
X275983D01*
X276639D01*
X277295Y26706D01*
Y26050D01*
X276639Y25394D01*
X275327D01*
X274671Y26050D01*
X194521Y53084D02*
X193865Y53740D01*
X192553D01*
X191897Y53084D01*
Y50460D01*
X192553Y49804D01*
X193865D01*
X194521Y50460D01*
X198457Y53740D02*
X197145Y53084D01*
X195833Y51772D01*
Y50460D01*
X196489Y49804D01*
X197801D01*
X198457Y50460D01*
Y51116D01*
X197801Y51772D01*
X195833D01*
X218339Y20439D02*
X218995Y21095D01*
Y22407D01*
X218339Y23063D01*
X215716D01*
X215060Y22407D01*
Y21095D01*
X215716Y20439D01*
X218995Y16504D02*
Y19128D01*
X217028D01*
X217684Y17816D01*
Y17160D01*
X217028Y16504D01*
X215716D01*
X215060Y17160D01*
Y18472D01*
X215716Y19128D01*
X164405Y14960D02*
X161781D01*
Y12992D01*
X163093D01*
X161781D01*
Y11024D01*
X165717Y12992D02*
X168341D01*
X169653Y14960D02*
Y11680D01*
X170309Y11024D01*
X171621D01*
X172276Y11680D01*
Y14960D01*
X176212Y14304D02*
X175556Y14960D01*
X174244D01*
X173588Y14304D01*
Y13648D01*
X174244Y12992D01*
X175556D01*
X176212Y12336D01*
Y11680D01*
X175556Y11024D01*
X174244D01*
X173588Y11680D01*
X177524Y14960D02*
Y11024D01*
X179492D01*
X180148Y11680D01*
Y12336D01*
X179492Y12992D01*
X177524D01*
X179492D01*
X180148Y13648D01*
Y14304D01*
X179492Y14960D01*
X177524D01*
X137664Y23720D02*
X137009Y23065D01*
Y21753D01*
X137664Y21097D01*
X140288D01*
X140944Y21753D01*
Y23065D01*
X140288Y23720D01*
X140944Y25032D02*
Y26344D01*
Y25688D01*
X137009D01*
X137664Y25032D01*
X211439Y42369D02*
Y37371D01*
X212438Y36371D01*
X214438D01*
X215437Y37371D01*
Y42369D01*
X221435Y36371D02*
X217437D01*
X221435Y40370D01*
Y41369D01*
X220436Y42369D01*
X218436D01*
X217437Y41369D01*
X269488Y61744D02*
X266208D01*
X265552Y61088D01*
Y59777D01*
X266208Y59121D01*
X269488D01*
X268832Y57809D02*
X269488Y57153D01*
Y55841D01*
X268832Y55185D01*
X268176D01*
X267520Y55841D01*
Y56497D01*
Y55841D01*
X266864Y55185D01*
X266208D01*
X265552Y55841D01*
Y57153D01*
X266208Y57809D01*
X72539Y66567D02*
X69259D01*
X68603Y65911D01*
Y64599D01*
X69259Y63943D01*
X72539D01*
X68603Y60664D02*
X72539D01*
X70571Y62631D01*
Y60008D01*
X144329Y156134D02*
X141706D01*
Y152199D01*
X144329D01*
X141706Y154167D02*
X143017D01*
X148265Y155479D02*
X147609Y156134D01*
X146297D01*
X145641Y155479D01*
Y154823D01*
X146297Y154167D01*
X147609D01*
X148265Y153511D01*
Y152855D01*
X147609Y152199D01*
X146297D01*
X145641Y152855D01*
X149577Y152199D02*
Y156134D01*
X151545D01*
X152201Y155479D01*
Y154167D01*
X151545Y153511D01*
X149577D01*
X153513Y155479D02*
X154169Y156134D01*
X155481D01*
X156137Y155479D01*
Y154823D01*
X155481Y154167D01*
X154825D01*
X155481D01*
X156137Y153511D01*
Y152855D01*
X155481Y152199D01*
X154169D01*
X153513Y152855D01*
X160072Y152199D02*
X157449D01*
X160072Y154823D01*
Y155479D01*
X159416Y156134D01*
X158105D01*
X157449Y155479D01*
X161384Y151543D02*
X164008D01*
X165320Y156134D02*
Y152199D01*
X167288D01*
X167944Y152855D01*
Y153511D01*
X167288Y154167D01*
X165320D01*
X167288D01*
X167944Y154823D01*
Y155479D01*
X167288Y156134D01*
X165320D01*
X171224D02*
X169912D01*
X169256Y155479D01*
Y152855D01*
X169912Y152199D01*
X171224D01*
X171880Y152855D01*
Y155479D01*
X171224Y156134D01*
X175159D02*
X173847D01*
X173191Y155479D01*
Y152855D01*
X173847Y152199D01*
X175159D01*
X175815Y152855D01*
Y155479D01*
X175159Y156134D01*
X177127D02*
X179751D01*
X178439D01*
Y152199D01*
X79173Y158004D02*
X76549D01*
Y154069D01*
X79173D01*
X76549Y156037D02*
X77861D01*
X83108Y157349D02*
X82452Y158004D01*
X81141D01*
X80484Y157349D01*
Y156693D01*
X81141Y156037D01*
X82452D01*
X83108Y155381D01*
Y154725D01*
X82452Y154069D01*
X81141D01*
X80484Y154725D01*
X84420Y154069D02*
Y158004D01*
X86388D01*
X87044Y157349D01*
Y156037D01*
X86388Y155381D01*
X84420D01*
X88356Y157349D02*
X89012Y158004D01*
X90324D01*
X90980Y157349D01*
Y156693D01*
X90324Y156037D01*
X89668D01*
X90324D01*
X90980Y155381D01*
Y154725D01*
X90324Y154069D01*
X89012D01*
X88356Y154725D01*
X94915Y154069D02*
X92292D01*
X94915Y156693D01*
Y157349D01*
X94260Y158004D01*
X92948D01*
X92292Y157349D01*
X96228Y153413D02*
X98851D01*
X100163Y154069D02*
Y158004D01*
X102131D01*
X102787Y157349D01*
Y156037D01*
X102131Y155381D01*
X100163D01*
X101475D02*
X102787Y154069D01*
X106723Y158004D02*
X104099D01*
Y154069D01*
X106723D01*
X104099Y156037D02*
X105411D01*
X110659Y157349D02*
X110003Y158004D01*
X108691D01*
X108035Y157349D01*
Y156693D01*
X108691Y156037D01*
X110003D01*
X110659Y155381D01*
Y154725D01*
X110003Y154069D01*
X108691D01*
X108035Y154725D01*
X114594Y158004D02*
X111970D01*
Y154069D01*
X114594D01*
X111970Y156037D02*
X113282D01*
X115906Y158004D02*
X118530D01*
X117218D01*
Y154069D01*
X102134Y81102D02*
Y77822D01*
X102790Y77166D01*
X104102D01*
X104757Y77822D01*
Y81102D01*
X108693D02*
X106069D01*
Y79134D01*
X107381Y79790D01*
X108037D01*
X108693Y79134D01*
Y77822D01*
X108037Y77166D01*
X106725D01*
X106069Y77822D01*
X141489Y74840D02*
X146487D01*
X147487Y75840D01*
Y77839D01*
X146487Y78839D01*
X141489D01*
X147487Y80838D02*
Y82837D01*
Y81838D01*
X141489D01*
X142489Y80838D01*
X126036Y46856D02*
X130035D01*
Y45856D01*
X129035Y44857D01*
X126036D01*
X129035D01*
X130035Y43857D01*
X129035Y42857D01*
X126036D01*
Y40858D02*
Y38859D01*
Y39858D01*
X130035D01*
Y40858D01*
Y31861D02*
Y34860D01*
X129035Y35859D01*
X127036D01*
X126036Y34860D01*
Y31861D01*
X130035Y29861D02*
X126036D01*
X128036D01*
X129035Y28862D01*
X130035Y27862D01*
Y26862D01*
X126036Y22864D02*
Y20864D01*
X127036Y19865D01*
X129035D01*
X130035Y20864D01*
Y22864D01*
X129035Y23863D01*
X127036D01*
X126036Y22864D01*
X131035Y13867D02*
X132035Y14866D01*
Y16866D01*
X131035Y17865D01*
X130035D01*
X129035Y16866D01*
Y14866D01*
X128036Y13867D01*
X127036D01*
X126036Y14866D01*
Y16866D01*
X127036Y17865D01*
X132035Y11867D02*
X126036D01*
Y8868D01*
X127036Y7869D01*
X131035D01*
X132035Y8868D01*
Y11867D01*
X38779Y168966D02*
X34843D01*
X38779Y171589D01*
X34843D01*
Y175525D02*
Y172901D01*
X38779D01*
Y175525D01*
X36811Y172901D02*
Y174213D01*
X34843Y176837D02*
X38779Y179461D01*
X34843D02*
X38779Y176837D01*
X34843Y180773D02*
Y183397D01*
Y182085D01*
X38779D01*
X157283Y170245D02*
X153347D01*
Y172213D01*
X154003Y172869D01*
X155315D01*
X155971Y172213D01*
Y170245D01*
X157283Y174181D02*
X153347D01*
Y176149D01*
X154003Y176805D01*
X155315D01*
X155971Y176149D01*
Y174181D01*
Y175493D02*
X157283Y176805D01*
X153347Y180740D02*
Y178117D01*
X157283D01*
Y180740D01*
X155315Y178117D02*
Y179429D01*
X153347Y182052D02*
X155971D01*
X157283Y183364D01*
X155971Y184676D01*
X153347D01*
X97834Y170048D02*
X93898D01*
Y172016D01*
X94554Y172672D01*
X95866D01*
X96522Y172016D01*
Y170048D01*
X93898Y173984D02*
X97834D01*
Y176608D01*
Y177920D02*
X95210D01*
X93898Y179232D01*
X95210Y180544D01*
X97834D01*
X95866D01*
Y177920D01*
X93898Y181855D02*
X94554D01*
X95866Y183167D01*
X94554Y184479D01*
X93898D01*
X95866Y183167D02*
X97834D01*
X148991Y55853D02*
Y50855D01*
X149990Y49855D01*
X151990D01*
X152989Y50855D01*
Y55853D01*
X158988Y54854D02*
X157988Y55853D01*
X155989D01*
X154989Y54854D01*
Y53854D01*
X155989Y52854D01*
X157988D01*
X158988Y51855D01*
Y50855D01*
X157988Y49855D01*
X155989D01*
X154989Y50855D01*
X160987Y55853D02*
Y49855D01*
X163986D01*
X164986Y50855D01*
Y51855D01*
X163986Y52854D01*
X160987D01*
X163986D01*
X164986Y53854D01*
Y54854D01*
X163986Y55853D01*
X160987D01*
X18649Y110014D02*
X12651D01*
Y113013D01*
X13650Y114013D01*
X15650D01*
X16649Y113013D01*
Y110014D01*
Y112014D02*
X18649Y114013D01*
X13650Y120011D02*
X12651Y119011D01*
Y117012D01*
X13650Y116013D01*
X17649D01*
X18649Y117012D01*
Y119011D01*
X17649Y120011D01*
X15650D01*
Y118012D01*
X12651Y122011D02*
X18649D01*
Y125010D01*
X17649Y126009D01*
X16649D01*
X15650Y125010D01*
Y122011D01*
Y125010D01*
X14650Y126009D01*
X13650D01*
X12651Y125010D01*
Y122011D01*
X30965Y70597D02*
X35964D01*
Y68098D01*
X35131Y67264D01*
X33465D01*
X32631Y68098D01*
Y70597D01*
Y68931D02*
X30965Y67264D01*
X35964Y65598D02*
Y63932D01*
Y64765D01*
X30965D01*
Y65598D01*
Y63932D01*
X35131Y58101D02*
X35964Y58934D01*
Y60600D01*
X35131Y61433D01*
X31798D01*
X30965Y60600D01*
Y58934D01*
X31798Y58101D01*
X33465D01*
Y59767D01*
X35964Y56435D02*
X30965D01*
X33465D01*
Y53102D01*
X35964D01*
X30965D01*
X35964Y51436D02*
Y48104D01*
Y49770D01*
X30965D01*
X304379Y128907D02*
Y132906D01*
X298380D01*
Y128907D01*
X301379Y132906D02*
Y130906D01*
X303379Y122909D02*
X304379Y123909D01*
Y125908D01*
X303379Y126908D01*
X302379D01*
X301379Y125908D01*
Y123909D01*
X300380Y122909D01*
X299380D01*
X298380Y123909D01*
Y125908D01*
X299380Y126908D01*
X298380Y120910D02*
X304379D01*
Y117911D01*
X303379Y116911D01*
X301379D01*
X300380Y117911D01*
Y120910D01*
X303379Y114911D02*
X304379Y113912D01*
Y111913D01*
X303379Y110913D01*
X302379D01*
X301379Y111913D01*
Y112912D01*
Y111913D01*
X300380Y110913D01*
X299380D01*
X298380Y111913D01*
Y113912D01*
X299380Y114911D01*
X298380Y104915D02*
Y108914D01*
X302379Y104915D01*
X303379D01*
X304379Y105914D01*
Y107914D01*
X303379Y108914D01*
X279489Y49596D02*
X284487D01*
Y52928D01*
X279489Y57927D02*
Y54594D01*
X284487D01*
Y57927D01*
X281988Y54594D02*
Y56261D01*
X279489Y62925D02*
Y59593D01*
X281988D01*
Y61259D01*
Y59593D01*
X284487D01*
X279489Y64591D02*
Y67923D01*
Y66257D01*
X284487D01*
X235498Y163948D02*
X231562D01*
X232874Y165260D01*
X231562Y166572D01*
X235498D01*
X231562Y169852D02*
Y168540D01*
X232218Y167884D01*
X234842D01*
X235498Y168540D01*
Y169852D01*
X234842Y170508D01*
X232218D01*
X231562Y169852D01*
Y171820D02*
X235498D01*
Y173788D01*
X234842Y174444D01*
X232218D01*
X231562Y173788D01*
Y171820D01*
Y178379D02*
Y175756D01*
X235498D01*
Y178379D01*
X233530Y175756D02*
Y177068D01*
X236154Y179691D02*
Y182315D01*
X232218Y186251D02*
X231562Y185595D01*
Y184283D01*
X232218Y183627D01*
X232874D01*
X233530Y184283D01*
Y185595D01*
X234186Y186251D01*
X234842D01*
X235498Y185595D01*
Y184283D01*
X234842Y183627D01*
X231562Y190187D02*
Y187563D01*
X235498D01*
Y190187D01*
X233530Y187563D02*
Y188875D01*
X231562Y191499D02*
Y194122D01*
Y192810D01*
X235498D01*
X132824Y90880D02*
X132168Y91536D01*
X130856D01*
X130200Y90880D01*
Y88256D01*
X130856Y87600D01*
X132168D01*
X132824Y88256D01*
X136104Y87600D02*
Y91536D01*
X134136Y89568D01*
X136760D01*
D16*
X257307Y15807D02*
D03*
Y27618D02*
D03*
M02*
