G04*
G04 #@! TF.GenerationSoftware,Altium Limited,Altium Designer,21.8.1 (53)*
G04*
G04 Layer_Color=255*
%FSLAX25Y25*%
%MOIN*%
G70*
G04*
G04 #@! TF.SameCoordinates,79EC032F-631B-404A-8042-777835F6C2BC*
G04*
G04*
G04 #@! TF.FilePolarity,Positive*
G04*
G01*
G75*
%ADD23R,0.05512X0.06102*%
%ADD25R,0.05315X0.03740*%
%ADD65C,0.06662*%
%ADD66R,0.06662X0.06662*%
%ADD74C,0.04331*%
%ADD75C,0.11811*%
%ADD76C,0.07480*%
%ADD77C,0.06299*%
%ADD78R,0.06299X0.06299*%
%ADD79C,0.19685*%
%ADD81R,0.04528X0.05315*%
%ADD82R,0.04134X0.03150*%
D23*
X61575Y159449D02*
D03*
X69055D02*
D03*
X120630Y159449D02*
D03*
X128110D02*
D03*
X179685D02*
D03*
X187165D02*
D03*
X212106Y169291D02*
D03*
X204626D02*
D03*
X212205Y157480D02*
D03*
X204724D02*
D03*
D25*
X149606Y81693D02*
D03*
Y75787D02*
D03*
D65*
X49055Y169563D02*
D03*
X69055D02*
D03*
X49055Y189563D02*
D03*
X167165Y169563D02*
D03*
X187165D02*
D03*
X167165Y189563D02*
D03*
X108110Y169563D02*
D03*
X128110D02*
D03*
X108110Y189563D02*
D03*
X245905Y169563D02*
D03*
X265905D02*
D03*
X245905Y189563D02*
D03*
D66*
X69055D02*
D03*
X187165D02*
D03*
X128110D02*
D03*
X265905D02*
D03*
D74*
X160630Y43425D02*
D03*
X154331D02*
D03*
X163779Y35945D02*
D03*
X157480D02*
D03*
X151181D02*
D03*
D75*
X174016Y39488D02*
D03*
X140945D02*
D03*
D76*
X15748Y152756D02*
D03*
Y83465D02*
D03*
D77*
X15748Y54055D02*
D03*
X299213Y64055D02*
D03*
D78*
X15748D02*
D03*
X299213Y54055D02*
D03*
D79*
Y181102D02*
D03*
X15748D02*
D03*
X299213Y15748D02*
D03*
X15748D02*
D03*
D81*
Y43307D02*
D03*
X21457D02*
D03*
X15748Y74803D02*
D03*
X21457D02*
D03*
X299213D02*
D03*
X293504D02*
D03*
X299213Y43307D02*
D03*
X293504D02*
D03*
D82*
X165354Y82382D02*
D03*
Y75098D02*
D03*
M02*
