G04*
G04 #@! TF.GenerationSoftware,Altium Limited,Altium Designer,21.8.1 (53)*
G04*
G04 Layer_Color=16711935*
%FSLAX25Y25*%
%MOIN*%
G70*
G04*
G04 #@! TF.SameCoordinates,79EC032F-631B-404A-8042-777835F6C2BC*
G04*
G04*
G04 #@! TF.FilePolarity,Positive*
G04*
G01*
G75*
%ADD84C,0.03937*%
%ADD85R,0.24803X0.70866*%
D84*
X7874Y196850D02*
X6846Y196783D01*
X5836Y196582D01*
X4861Y196251D01*
X3937Y195796D01*
X3081Y195223D01*
X2306Y194544D01*
X1627Y193770D01*
X1055Y192913D01*
X599Y191990D01*
X268Y191014D01*
X67Y190004D01*
X0Y188976D01*
X0Y7874D02*
X67Y6846D01*
X268Y5836D01*
X599Y4861D01*
X1055Y3937D01*
X1627Y3081D01*
X2306Y2306D01*
X3081Y1627D01*
X3937Y1055D01*
X4861Y599D01*
X5836Y268D01*
X6846Y67D01*
X7874Y0D01*
X307087D02*
X308114Y67D01*
X309125Y268D01*
X310100Y599D01*
X311024Y1055D01*
X311880Y1627D01*
X312654Y2306D01*
X313334Y3081D01*
X313906Y3937D01*
X314361Y4861D01*
X314692Y5836D01*
X314893Y6846D01*
X314961Y7874D01*
Y188978D02*
X314893Y190005D01*
X314692Y191016D01*
X314361Y191991D01*
X313906Y192915D01*
X313334Y193771D01*
X312654Y194545D01*
X311880Y195224D01*
X311024Y195797D01*
X310100Y196252D01*
X309124Y196583D01*
X308114Y196784D01*
X307087Y196852D01*
X7874Y196900D02*
X307087Y196852D01*
X7874Y196850D02*
X7874Y196900D01*
X0Y188976D02*
X0Y7874D01*
X7874Y0D02*
X307087D01*
X314961Y7874D02*
Y188978D01*
D85*
X301575Y118111D02*
D03*
D03*
M02*
