G04*
G04 #@! TF.GenerationSoftware,Altium Limited,Altium Designer,21.8.1 (53)*
G04*
G04 Layer_Color=8421504*
%FSLAX25Y25*%
%MOIN*%
G70*
G04*
G04 #@! TF.SameCoordinates,79EC032F-631B-404A-8042-777835F6C2BC*
G04*
G04*
G04 #@! TF.FilePolarity,Positive*
G04*
G01*
G75*
%ADD17R,0.06102X0.05512*%
%ADD18R,0.03740X0.05315*%
%ADD19R,0.03937X0.05315*%
%ADD20R,0.05315X0.03937*%
%ADD21R,0.04724X0.04331*%
%ADD22R,0.02000X0.01402*%
%ADD23R,0.05512X0.06102*%
%ADD24R,0.04331X0.04724*%
%ADD25R,0.05315X0.03740*%
%ADD26R,0.05512X0.05906*%
%ADD27R,0.07700X0.12400*%
G04:AMPARAMS|DCode=28|XSize=124.02mil|YSize=57.09mil|CornerRadius=2mil|HoleSize=0mil|Usage=FLASHONLY|Rotation=90.000|XOffset=0mil|YOffset=0mil|HoleType=Round|Shape=RoundedRectangle|*
%AMROUNDEDRECTD28*
21,1,0.12402,0.05309,0,0,90.0*
21,1,0.12002,0.05709,0,0,90.0*
1,1,0.00400,0.02655,0.06001*
1,1,0.00400,0.02655,-0.06001*
1,1,0.00400,-0.02655,-0.06001*
1,1,0.00400,-0.02655,0.06001*
%
%ADD28ROUNDEDRECTD28*%
G04:AMPARAMS|DCode=29|XSize=35.43mil|YSize=57.09mil|CornerRadius=1.95mil|HoleSize=0mil|Usage=FLASHONLY|Rotation=90.000|XOffset=0mil|YOffset=0mil|HoleType=Round|Shape=RoundedRectangle|*
%AMROUNDEDRECTD29*
21,1,0.03543,0.05319,0,0,90.0*
21,1,0.03154,0.05709,0,0,90.0*
1,1,0.00390,0.02659,0.01577*
1,1,0.00390,0.02659,-0.01577*
1,1,0.00390,-0.02659,-0.01577*
1,1,0.00390,-0.02659,0.01577*
%
%ADD29ROUNDEDRECTD29*%
%ADD30R,0.04842X0.04842*%
%ADD31R,0.01181X0.03150*%
%ADD32R,0.03150X0.01181*%
%ADD33R,0.08268X0.05512*%
G04:AMPARAMS|DCode=34|XSize=25.59mil|YSize=64.96mil|CornerRadius=1.92mil|HoleSize=0mil|Usage=FLASHONLY|Rotation=180.000|XOffset=0mil|YOffset=0mil|HoleType=Round|Shape=RoundedRectangle|*
%AMROUNDEDRECTD34*
21,1,0.02559,0.06112,0,0,180.0*
21,1,0.02175,0.06496,0,0,180.0*
1,1,0.00384,-0.01088,0.03056*
1,1,0.00384,0.01088,0.03056*
1,1,0.00384,0.01088,-0.03056*
1,1,0.00384,-0.01088,-0.03056*
%
%ADD34ROUNDEDRECTD34*%
G04:AMPARAMS|DCode=35|XSize=88.58mil|YSize=15.75mil|CornerRadius=7.87mil|HoleSize=0mil|Usage=FLASHONLY|Rotation=270.000|XOffset=0mil|YOffset=0mil|HoleType=Round|Shape=RoundedRectangle|*
%AMROUNDEDRECTD35*
21,1,0.08858,0.00000,0,0,270.0*
21,1,0.07284,0.01575,0,0,270.0*
1,1,0.01575,0.00000,-0.03642*
1,1,0.01575,0.00000,0.03642*
1,1,0.01575,0.00000,0.03642*
1,1,0.01575,0.00000,-0.03642*
%
%ADD35ROUNDEDRECTD35*%
%ADD36R,0.07480X0.05315*%
%ADD37R,0.04724X0.03937*%
%ADD38R,0.06102X0.05315*%
%ADD39R,0.03347X0.04331*%
%ADD40R,0.02953X0.04331*%
%ADD41R,0.04606X0.07087*%
%ADD42R,0.17717X0.05512*%
%ADD43R,0.05236X0.05236*%
%ADD44R,0.07874X0.03543*%
%ADD45R,0.03543X0.07874*%
D17*
X282480Y184843D02*
D03*
Y177362D02*
D03*
X128937Y141535D02*
D03*
Y134055D02*
D03*
X66929Y141535D02*
D03*
Y134055D02*
D03*
X239173Y27559D02*
D03*
Y35039D02*
D03*
D18*
X285335Y165354D02*
D03*
X279429D02*
D03*
X59252Y84646D02*
D03*
X53347D02*
D03*
X59350Y74803D02*
D03*
X53445D02*
D03*
X264862Y36614D02*
D03*
X258957D02*
D03*
X264862Y45276D02*
D03*
X258957D02*
D03*
X210335Y19685D02*
D03*
X204429D02*
D03*
X145276Y23622D02*
D03*
X151181D02*
D03*
D19*
X60630Y94488D02*
D03*
X53543D02*
D03*
D20*
X239173Y56102D02*
D03*
Y49016D02*
D03*
D21*
X204724Y141929D02*
D03*
Y133661D02*
D03*
X190945Y141929D02*
D03*
Y133661D02*
D03*
D22*
X191526Y102362D02*
D03*
X186427Y100394D02*
D03*
Y104331D02*
D03*
X191526Y114173D02*
D03*
X186427Y112205D02*
D03*
Y116142D02*
D03*
D23*
X103405Y102362D02*
D03*
X95925D02*
D03*
X176181Y114173D02*
D03*
X168701D02*
D03*
X176181Y102362D02*
D03*
X168701D02*
D03*
X239173Y15748D02*
D03*
X231693D02*
D03*
D24*
X122244Y102362D02*
D03*
X113976D02*
D03*
D25*
X70866Y81693D02*
D03*
Y75787D02*
D03*
X194882Y45276D02*
D03*
Y39370D02*
D03*
X133858Y81693D02*
D03*
Y75787D02*
D03*
D26*
X261811Y15748D02*
D03*
X250000D02*
D03*
X261811Y27559D02*
D03*
X250000D02*
D03*
D27*
X180910Y23622D02*
D03*
X161610D02*
D03*
D28*
X228642Y39370D02*
D03*
D29*
X204429Y30315D02*
D03*
Y39370D02*
D03*
Y48425D02*
D03*
D30*
X255906Y59055D02*
D03*
X59055D02*
D03*
D31*
X252953Y64665D02*
D03*
X254921D02*
D03*
X256890D02*
D03*
X258858D02*
D03*
Y53445D02*
D03*
X256890D02*
D03*
X254921D02*
D03*
X252953D02*
D03*
X62008D02*
D03*
X60039D02*
D03*
X58071D02*
D03*
X56102D02*
D03*
Y64665D02*
D03*
X58071D02*
D03*
X60039D02*
D03*
X62008D02*
D03*
D32*
X261516Y62008D02*
D03*
Y60039D02*
D03*
Y58071D02*
D03*
Y56102D02*
D03*
X250295D02*
D03*
Y58071D02*
D03*
Y60039D02*
D03*
Y62008D02*
D03*
X53445Y56102D02*
D03*
Y58071D02*
D03*
Y60039D02*
D03*
Y62008D02*
D03*
X64665D02*
D03*
Y60039D02*
D03*
Y58071D02*
D03*
Y56102D02*
D03*
D33*
X139567Y128937D02*
D03*
X175394D02*
D03*
X139567Y146653D02*
D03*
X175394D02*
D03*
X80512Y128937D02*
D03*
X116339D02*
D03*
X80512Y146653D02*
D03*
X116339D02*
D03*
D34*
X115925Y89862D02*
D03*
X110925D02*
D03*
X105925D02*
D03*
X100925D02*
D03*
X95925D02*
D03*
X90925D02*
D03*
X85925D02*
D03*
X80925D02*
D03*
X115925Y67618D02*
D03*
X110925D02*
D03*
X105925D02*
D03*
X100925D02*
D03*
X95925D02*
D03*
X90925D02*
D03*
X85925D02*
D03*
X80925D02*
D03*
D35*
X168730Y69390D02*
D03*
X166230D02*
D03*
X163730D02*
D03*
X161230D02*
D03*
X158730D02*
D03*
X156230D02*
D03*
X153730D02*
D03*
X151230D02*
D03*
X148730D02*
D03*
X146230D02*
D03*
Y88090D02*
D03*
X148730D02*
D03*
X151230D02*
D03*
X153730D02*
D03*
X156230D02*
D03*
X158730D02*
D03*
X161230D02*
D03*
X163730D02*
D03*
X166230D02*
D03*
X168730D02*
D03*
D36*
X83770Y48868D02*
D03*
X107274D02*
D03*
D37*
X121053Y30463D02*
D03*
Y45030D02*
D03*
D38*
X120364Y6742D02*
D03*
D39*
X110679Y6250D02*
D03*
X106348D02*
D03*
X102018D02*
D03*
X97687D02*
D03*
X93356D02*
D03*
X89026D02*
D03*
X84695D02*
D03*
D40*
X80561D02*
D03*
D41*
X75797Y7628D02*
D03*
D42*
X36024Y98425D02*
D03*
Y137795D02*
D03*
Y118110D02*
D03*
D43*
X247736Y114823D02*
D03*
Y122047D02*
D03*
Y129272D02*
D03*
X254961Y114823D02*
D03*
Y122047D02*
D03*
Y129272D02*
D03*
X262185Y114823D02*
D03*
Y122047D02*
D03*
Y129272D02*
D03*
D44*
X215551Y95610D02*
D03*
Y100610D02*
D03*
Y105610D02*
D03*
Y110610D02*
D03*
Y115610D02*
D03*
Y120610D02*
D03*
Y125610D02*
D03*
Y130610D02*
D03*
Y135610D02*
D03*
Y140610D02*
D03*
D45*
X284488Y84646D02*
D03*
X279488D02*
D03*
X274488D02*
D03*
X269488D02*
D03*
X264488D02*
D03*
X259488D02*
D03*
X254488D02*
D03*
X249488D02*
D03*
X244488D02*
D03*
X239488D02*
D03*
X234488D02*
D03*
X229488D02*
D03*
X224488D02*
D03*
X219488D02*
D03*
Y151575D02*
D03*
X224488D02*
D03*
X229488D02*
D03*
X234488D02*
D03*
X239488D02*
D03*
X244488D02*
D03*
X249488D02*
D03*
X254488D02*
D03*
X259488D02*
D03*
X264488D02*
D03*
X269488D02*
D03*
X274488D02*
D03*
X279488D02*
D03*
X284488D02*
D03*
M02*
