G04*
G04 #@! TF.GenerationSoftware,Altium Limited,Altium Designer,21.8.1 (53)*
G04*
G04 Layer_Physical_Order=1*
G04 Layer_Color=255*
%FSLAX25Y25*%
%MOIN*%
G70*
G04*
G04 #@! TF.SameCoordinates,79EC032F-631B-404A-8042-777835F6C2BC*
G04*
G04*
G04 #@! TF.FilePolarity,Positive*
G04*
G01*
G75*
%ADD15C,0.01000*%
%ADD17R,0.06102X0.05512*%
%ADD18R,0.03740X0.05315*%
%ADD19R,0.03937X0.05315*%
%ADD20R,0.05315X0.03937*%
%ADD21R,0.04724X0.04331*%
%ADD22R,0.02000X0.01402*%
%ADD23R,0.05512X0.06102*%
%ADD24R,0.04331X0.04724*%
%ADD25R,0.05315X0.03740*%
%ADD26R,0.05512X0.05906*%
%ADD27R,0.07700X0.12400*%
G04:AMPARAMS|DCode=28|XSize=124.02mil|YSize=57.09mil|CornerRadius=2mil|HoleSize=0mil|Usage=FLASHONLY|Rotation=90.000|XOffset=0mil|YOffset=0mil|HoleType=Round|Shape=RoundedRectangle|*
%AMROUNDEDRECTD28*
21,1,0.12402,0.05309,0,0,90.0*
21,1,0.12002,0.05709,0,0,90.0*
1,1,0.00400,0.02655,0.06001*
1,1,0.00400,0.02655,-0.06001*
1,1,0.00400,-0.02655,-0.06001*
1,1,0.00400,-0.02655,0.06001*
%
%ADD28ROUNDEDRECTD28*%
G04:AMPARAMS|DCode=29|XSize=35.43mil|YSize=57.09mil|CornerRadius=1.95mil|HoleSize=0mil|Usage=FLASHONLY|Rotation=90.000|XOffset=0mil|YOffset=0mil|HoleType=Round|Shape=RoundedRectangle|*
%AMROUNDEDRECTD29*
21,1,0.03543,0.05319,0,0,90.0*
21,1,0.03154,0.05709,0,0,90.0*
1,1,0.00390,0.02659,0.01577*
1,1,0.00390,0.02659,-0.01577*
1,1,0.00390,-0.02659,-0.01577*
1,1,0.00390,-0.02659,0.01577*
%
%ADD29ROUNDEDRECTD29*%
%ADD30R,0.04842X0.04842*%
%ADD31R,0.01181X0.03150*%
%ADD32R,0.03150X0.01181*%
%ADD33R,0.08268X0.05512*%
G04:AMPARAMS|DCode=34|XSize=25.59mil|YSize=64.96mil|CornerRadius=1.92mil|HoleSize=0mil|Usage=FLASHONLY|Rotation=180.000|XOffset=0mil|YOffset=0mil|HoleType=Round|Shape=RoundedRectangle|*
%AMROUNDEDRECTD34*
21,1,0.02559,0.06112,0,0,180.0*
21,1,0.02175,0.06496,0,0,180.0*
1,1,0.00384,-0.01088,0.03056*
1,1,0.00384,0.01088,0.03056*
1,1,0.00384,0.01088,-0.03056*
1,1,0.00384,-0.01088,-0.03056*
%
%ADD34ROUNDEDRECTD34*%
G04:AMPARAMS|DCode=35|XSize=88.58mil|YSize=15.75mil|CornerRadius=7.87mil|HoleSize=0mil|Usage=FLASHONLY|Rotation=270.000|XOffset=0mil|YOffset=0mil|HoleType=Round|Shape=RoundedRectangle|*
%AMROUNDEDRECTD35*
21,1,0.08858,0.00000,0,0,270.0*
21,1,0.07284,0.01575,0,0,270.0*
1,1,0.01575,0.00000,-0.03642*
1,1,0.01575,0.00000,0.03642*
1,1,0.01575,0.00000,0.03642*
1,1,0.01575,0.00000,-0.03642*
%
%ADD35ROUNDEDRECTD35*%
%ADD36R,0.07480X0.05315*%
%ADD37R,0.04724X0.03937*%
%ADD38R,0.06102X0.05315*%
%ADD39R,0.03347X0.04331*%
%ADD40R,0.02953X0.04331*%
%ADD41R,0.04606X0.07087*%
%ADD42R,0.17717X0.05512*%
%ADD43R,0.05236X0.05236*%
%ADD44R,0.07874X0.03543*%
%ADD45R,0.03543X0.07874*%
%ADD65C,0.06662*%
%ADD66R,0.06662X0.06662*%
%ADD74C,0.04331*%
%ADD75C,0.11811*%
%ADD76C,0.07480*%
%ADD77C,0.06299*%
%ADD78R,0.06299X0.06299*%
%ADD79C,0.19685*%
%ADD80C,0.03000*%
G36*
X46903Y193900D02*
X47037Y193400D01*
X46396Y193029D01*
X45589Y192223D01*
X45019Y191235D01*
X44724Y190134D01*
Y188993D01*
X45019Y187892D01*
X45589Y186904D01*
X46396Y186098D01*
X47383Y185527D01*
X48485Y185232D01*
X49625D01*
X50727Y185527D01*
X50854Y185601D01*
X65093Y171363D01*
X65019Y171235D01*
X64724Y170134D01*
Y168993D01*
X65019Y167892D01*
X65589Y166904D01*
X66396Y166098D01*
X67383Y165527D01*
X68485Y165232D01*
X69625D01*
X70727Y165527D01*
X71715Y166098D01*
X72521Y166904D01*
X73091Y167892D01*
X73386Y168993D01*
Y170134D01*
X73091Y171235D01*
X73017Y171363D01*
X90184Y188530D01*
X93171D01*
X93761Y187940D01*
X94680Y187559D01*
X95675D01*
X96593Y187940D01*
X97297Y188643D01*
X97677Y189562D01*
Y190556D01*
X97297Y191475D01*
X96593Y192178D01*
X95675Y192559D01*
X94680D01*
X93761Y192178D01*
X93171Y191588D01*
X89551D01*
X88965Y191472D01*
X88469Y191140D01*
X70855Y173526D01*
X70727Y173599D01*
X69625Y173895D01*
X68485D01*
X67383Y173599D01*
X67256Y173526D01*
X53017Y187764D01*
X53091Y187892D01*
X53386Y188993D01*
Y190134D01*
X53091Y191235D01*
X52521Y192223D01*
X51714Y193029D01*
X51074Y193399D01*
X51208Y193899D01*
X64225Y193897D01*
X64724Y193895D01*
X64724Y193397D01*
Y185232D01*
X73386D01*
Y193395D01*
X73886Y193895D01*
X105942Y193890D01*
X106076Y193390D01*
X105451Y193029D01*
X104645Y192223D01*
X104074Y191235D01*
X103779Y190134D01*
Y188993D01*
X104074Y187892D01*
X104645Y186904D01*
X105451Y186098D01*
X106439Y185527D01*
X107540Y185232D01*
X108680D01*
X109782Y185527D01*
X109910Y185601D01*
X124148Y171363D01*
X124074Y171235D01*
X123779Y170134D01*
Y168993D01*
X124074Y167892D01*
X124644Y166904D01*
X125451Y166098D01*
X126438Y165527D01*
X127540Y165232D01*
X128680D01*
X129782Y165527D01*
X130770Y166098D01*
X131576Y166904D01*
X132146Y167892D01*
X132184Y168034D01*
X147811D01*
X148397Y168150D01*
X148893Y168482D01*
X158114Y177703D01*
X168067D01*
X183367Y162403D01*
X183864Y162071D01*
X184449Y161955D01*
X222797D01*
X223387Y161365D01*
X224306Y160984D01*
X225300D01*
X226219Y161365D01*
X226923Y162068D01*
X227303Y162987D01*
Y163981D01*
X226923Y164900D01*
X226219Y165604D01*
X225300Y165984D01*
X224306D01*
X223387Y165604D01*
X222797Y165014D01*
X188851D01*
X188786Y165514D01*
X188837Y165527D01*
X189825Y166098D01*
X190631Y166904D01*
X191201Y167892D01*
X191497Y168993D01*
Y170134D01*
X191201Y171235D01*
X191128Y171363D01*
X201700Y181935D01*
X220533D01*
X221123Y181345D01*
X222042Y180965D01*
X223037D01*
X223955Y181345D01*
X224659Y182048D01*
X225039Y182967D01*
Y183962D01*
X224659Y184881D01*
X223955Y185584D01*
X223037Y185965D01*
X222042D01*
X221123Y185584D01*
X220533Y184994D01*
X201066D01*
X200481Y184878D01*
X199985Y184546D01*
X188965Y173526D01*
X188837Y173599D01*
X187735Y173895D01*
X186595D01*
X185494Y173599D01*
X185366Y173526D01*
X171128Y187764D01*
X171201Y187892D01*
X171496Y188993D01*
Y190134D01*
X171201Y191235D01*
X170631Y192223D01*
X169825Y193029D01*
X169217Y193380D01*
X169351Y193880D01*
X182834Y193878D01*
Y185232D01*
X191497D01*
Y193523D01*
X191850Y193876D01*
X243699Y193868D01*
X243833Y193368D01*
X243246Y193029D01*
X242440Y192223D01*
X241870Y191235D01*
X241574Y190134D01*
Y188993D01*
X241870Y187892D01*
X241943Y187764D01*
X228407Y174227D01*
X228075Y173731D01*
X227959Y173146D01*
Y156512D01*
X216717D01*
Y146638D01*
X232959D01*
Y110787D01*
X233075Y110202D01*
X233407Y109706D01*
X242565Y100548D01*
Y100431D01*
X241975Y99841D01*
X241595Y98922D01*
Y97928D01*
X241975Y97009D01*
X242565Y96419D01*
X242405Y95919D01*
X222244D01*
X221659Y95803D01*
X221163Y95471D01*
X220950Y95259D01*
X220488Y95450D01*
Y97839D01*
Y102839D01*
Y107839D01*
Y112839D01*
Y117839D01*
Y122839D01*
Y127839D01*
Y132839D01*
Y137839D01*
Y140110D01*
X215551D01*
X210614D01*
Y137839D01*
Y132839D01*
Y127839D01*
Y122839D01*
Y117839D01*
Y112839D01*
Y107839D01*
Y102839D01*
Y97839D01*
Y94086D01*
X210340Y94031D01*
X209844Y93700D01*
X205415Y89270D01*
X205083Y88774D01*
X204967Y88189D01*
Y84689D01*
X202418Y82140D01*
X184365D01*
X184174Y82602D01*
X187509Y85936D01*
X187840Y86432D01*
X187957Y87018D01*
Y98693D01*
X188427D01*
Y102094D01*
X184427D01*
Y98693D01*
X184898D01*
Y87651D01*
X180886Y83640D01*
X170895D01*
X170491Y84140D01*
X170553Y84449D01*
Y91732D01*
X170414Y92430D01*
X170260Y92661D01*
Y98311D01*
X179937D01*
Y100833D01*
X180512D01*
X181097Y100949D01*
X181593Y101281D01*
X183114Y102801D01*
X184427D01*
Y102630D01*
X188427D01*
Y106032D01*
X184427D01*
Y105860D01*
X182480D01*
X181895Y105744D01*
X181399Y105412D01*
X180399Y104412D01*
X179937Y104604D01*
Y106413D01*
X180302Y106738D01*
X180709D01*
X181294Y106855D01*
X181790Y107186D01*
X183463Y108860D01*
X183795Y109356D01*
X183911Y109941D01*
Y110096D01*
X184411Y110507D01*
X184427Y110504D01*
Y110504D01*
X187447D01*
Y109744D01*
X187563Y109159D01*
X187895Y108663D01*
X190045Y106512D01*
Y104063D01*
X189526D01*
Y100661D01*
X193526D01*
Y100882D01*
X204736D01*
X205277Y100341D01*
X206196Y99961D01*
X207190D01*
X208109Y100341D01*
X208812Y101044D01*
X209193Y101963D01*
Y102958D01*
X208812Y103877D01*
X208109Y104580D01*
X207190Y104961D01*
X206196D01*
X205277Y104580D01*
X204638Y103941D01*
X193526D01*
Y104063D01*
X193104D01*
Y107146D01*
X192988Y107731D01*
X192656Y108227D01*
X190506Y110378D01*
Y112472D01*
X193526D01*
Y112644D01*
X200947D01*
X201537Y112054D01*
X202455Y111673D01*
X203450D01*
X204369Y112054D01*
X205072Y112757D01*
X205453Y113676D01*
Y114671D01*
X205072Y115589D01*
X204369Y116293D01*
X203450Y116673D01*
X202455D01*
X201537Y116293D01*
X200947Y115703D01*
X193526D01*
Y115874D01*
X193055D01*
Y118809D01*
X192939Y119394D01*
X192607Y119890D01*
X185781Y126716D01*
Y132480D01*
X185665Y133066D01*
X185333Y133562D01*
X182479Y136416D01*
X181983Y136748D01*
X181398Y136864D01*
X180456D01*
X176923Y140397D01*
Y142898D01*
X180528D01*
Y150409D01*
X170260D01*
Y148183D01*
X155709D01*
X155123Y148066D01*
X154627Y147735D01*
X149957Y143065D01*
X144701D01*
Y150409D01*
X134433D01*
Y143065D01*
X132988D01*
Y145291D01*
X124886D01*
Y137779D01*
Y130299D01*
X127408D01*
Y127931D01*
X126818Y127341D01*
X126437Y126423D01*
Y125428D01*
X126818Y124509D01*
X127521Y123806D01*
X128440Y123425D01*
X129434D01*
X130353Y123806D01*
X131056Y124509D01*
X131437Y125428D01*
Y126423D01*
X131056Y127341D01*
X130466Y127931D01*
Y130299D01*
X132988D01*
Y137779D01*
Y140006D01*
X150591D01*
X151176Y140122D01*
X151672Y140454D01*
X156342Y145124D01*
X170260D01*
Y142898D01*
X173864D01*
Y139764D01*
X173981Y139179D01*
X174009Y139136D01*
X173742Y138636D01*
X153543D01*
X152958Y138519D01*
X152462Y138188D01*
X147245Y132971D01*
X146914Y132475D01*
X146797Y131890D01*
Y126027D01*
X140705Y119935D01*
X112641D01*
X105762Y126815D01*
Y133323D01*
X108409Y135971D01*
X113976D01*
X114562Y136087D01*
X115058Y136419D01*
X117420Y138781D01*
X117752Y139277D01*
X117868Y139862D01*
Y142898D01*
X121473D01*
Y150409D01*
X111205D01*
Y148183D01*
X99410D01*
X98824Y148066D01*
X98328Y147735D01*
X93658Y143065D01*
X85646D01*
Y150409D01*
X75378D01*
Y143065D01*
X70980D01*
Y145291D01*
X62878D01*
Y137779D01*
Y135584D01*
X58606D01*
X50585Y143606D01*
Y165489D01*
X50727Y165527D01*
X51714Y166098D01*
X52521Y166904D01*
X53091Y167892D01*
X53386Y168993D01*
Y170134D01*
X53091Y171235D01*
X52521Y172223D01*
X51714Y173029D01*
X50727Y173599D01*
X49625Y173895D01*
X48485D01*
X47383Y173599D01*
X46396Y173029D01*
X45589Y172223D01*
X45019Y171235D01*
X44724Y170134D01*
Y168993D01*
X45019Y167892D01*
X45589Y166904D01*
X46396Y166098D01*
X47383Y165527D01*
X47526Y165489D01*
Y142972D01*
X47642Y142387D01*
X47974Y141891D01*
X56891Y132974D01*
X57387Y132642D01*
X57972Y132526D01*
X62878D01*
Y130299D01*
X65400D01*
Y91086D01*
X62796Y88483D01*
X62622Y88222D01*
X62122Y88303D01*
X62075Y88303D01*
X61449D01*
X61242Y88803D01*
X61711Y89273D01*
X62043Y89769D01*
X62159Y90354D01*
Y90831D01*
X63598D01*
Y98146D01*
X57661D01*
Y90998D01*
X56968D01*
X56898Y90984D01*
X56512Y91301D01*
Y98146D01*
X55073D01*
Y104134D01*
X54956Y104719D01*
X54625Y105215D01*
X50983Y108857D01*
X50487Y109189D01*
X49902Y109305D01*
X27307D01*
X20919Y115693D01*
Y134209D01*
X22976Y136266D01*
X26165D01*
Y134039D01*
X45882D01*
Y141551D01*
X26165D01*
Y139325D01*
X22343D01*
X21757Y139208D01*
X21261Y138877D01*
X18308Y135924D01*
X17977Y135428D01*
X17860Y134843D01*
Y115059D01*
X17977Y114474D01*
X18308Y113978D01*
X25592Y106694D01*
X26088Y106363D01*
X26673Y106246D01*
X49268D01*
X52014Y103500D01*
Y98146D01*
X50575D01*
Y90831D01*
X51817D01*
Y88303D01*
X50476D01*
Y80988D01*
X51916D01*
Y78461D01*
X50575D01*
Y76332D01*
X46063D01*
X45478Y76216D01*
X44982Y75885D01*
X43308Y74211D01*
X42977Y73715D01*
X42860Y73130D01*
Y69132D01*
X42270Y68542D01*
X41890Y67623D01*
Y66629D01*
X42270Y65710D01*
X42974Y65007D01*
X43892Y64626D01*
X44887D01*
X45806Y65007D01*
X46509Y65710D01*
X46890Y66629D01*
Y67623D01*
X46509Y68542D01*
X45919Y69132D01*
Y72496D01*
X46696Y73274D01*
X50575D01*
Y71146D01*
X51916D01*
Y65650D01*
X52032Y65064D01*
X52363Y64568D01*
X52871Y64060D01*
X52680Y63598D01*
X50870D01*
Y63537D01*
X41677D01*
X40077Y65137D01*
X39581Y65468D01*
X38996Y65584D01*
X19898D01*
Y68205D01*
X11598D01*
Y59905D01*
X19898D01*
Y62526D01*
X38363D01*
X39962Y60926D01*
X39962Y60924D01*
X34622Y55585D01*
X19634D01*
X19615Y55657D01*
X19069Y56603D01*
X18296Y57376D01*
X17350Y57922D01*
X16294Y58205D01*
X15202D01*
X14146Y57922D01*
X13200Y57376D01*
X12427Y56603D01*
X11881Y55657D01*
X11598Y54601D01*
Y53509D01*
X11881Y52453D01*
X12427Y51507D01*
X13200Y50735D01*
X14146Y50188D01*
X15202Y49905D01*
X16294D01*
X17350Y50188D01*
X18296Y50735D01*
X19069Y51507D01*
X19615Y52453D01*
X19634Y52526D01*
X35256D01*
X35841Y52642D01*
X36337Y52974D01*
X41842Y58478D01*
X50870D01*
Y54512D01*
X54512D01*
Y50870D01*
X56542D01*
Y37205D01*
X56658Y36619D01*
X56989Y36123D01*
X62698Y30415D01*
X63194Y30083D01*
X63779Y29967D01*
X69844D01*
X70434Y29377D01*
X71353Y28996D01*
X72348D01*
X73267Y29377D01*
X73970Y30080D01*
X74350Y30999D01*
Y31993D01*
X73970Y32912D01*
X73267Y33615D01*
X72348Y33996D01*
X71353D01*
X70434Y33615D01*
X69844Y33026D01*
X64413D01*
X59600Y37838D01*
Y50870D01*
X60479D01*
Y41142D01*
X60595Y40556D01*
X60926Y40060D01*
X63682Y37304D01*
X64179Y36973D01*
X64764Y36856D01*
X69844D01*
X70434Y36266D01*
X71353Y35886D01*
X72348D01*
X73267Y36266D01*
X73970Y36970D01*
X74350Y37889D01*
Y38883D01*
X73970Y39802D01*
X73267Y40505D01*
X72348Y40886D01*
X71353D01*
X70434Y40505D01*
X69844Y39915D01*
X65397D01*
X63537Y41775D01*
Y50870D01*
X63598D01*
Y54512D01*
X67240D01*
Y54573D01*
X73584D01*
X74174Y53983D01*
X75093Y53602D01*
X76088D01*
X77007Y53983D01*
X77710Y54686D01*
X78091Y55605D01*
Y56600D01*
X77710Y57519D01*
X77007Y58222D01*
X76088Y58602D01*
X75093D01*
X74174Y58222D01*
X73584Y57632D01*
X67240D01*
Y59662D01*
X64665D01*
Y60417D01*
X67240D01*
Y60417D01*
Y63598D01*
X66195D01*
Y66831D01*
X66078Y67416D01*
X65747Y67912D01*
X63778Y69881D01*
X63282Y70212D01*
X62697Y70329D01*
X58901D01*
X58546Y70684D01*
X58737Y71146D01*
X58850D01*
Y74803D01*
X59350D01*
Y75303D01*
X62221D01*
Y76637D01*
X62721Y76788D01*
X62796Y76674D01*
X64765Y74706D01*
X65261Y74374D01*
X65847Y74258D01*
X67209D01*
Y72917D01*
X69337D01*
Y70768D01*
X69453Y70182D01*
X69785Y69686D01*
X72934Y66537D01*
X73431Y66205D01*
X74016Y66089D01*
X78622D01*
Y64562D01*
X78715Y64097D01*
X78978Y63703D01*
X79373Y63439D01*
X79435Y63427D01*
Y61908D01*
X78885Y61357D01*
X78504Y60438D01*
Y59444D01*
X78885Y58525D01*
X79588Y57822D01*
X80507Y57441D01*
X81501D01*
X82420Y57822D01*
X83123Y58525D01*
X83504Y59444D01*
Y60438D01*
X83123Y61357D01*
X82494Y61987D01*
Y63450D01*
X82872Y63703D01*
X83136Y64097D01*
X83170Y64271D01*
X83680D01*
X83715Y64097D01*
X83978Y63703D01*
X84373Y63439D01*
X84396Y63435D01*
Y59252D01*
X84512Y58667D01*
X84844Y58170D01*
X91827Y51187D01*
Y43732D01*
X91327Y43632D01*
X90997Y44428D01*
X90294Y45131D01*
X89375Y45512D01*
X88510D01*
Y52526D01*
X79030D01*
Y45211D01*
X86834D01*
X87041Y44711D01*
X86759Y44428D01*
X86378Y43509D01*
Y42675D01*
X83614Y39910D01*
X83282Y39414D01*
X83166Y38829D01*
Y9415D01*
X79100D01*
Y12171D01*
X76297D01*
Y7628D01*
X75797D01*
Y7128D01*
X72494D01*
Y3494D01*
X72494Y3085D01*
X72032Y2994D01*
X7874D01*
X7807Y2985D01*
X6606Y3144D01*
X5425Y3633D01*
X4411Y4411D01*
X3633Y5425D01*
X3144Y6606D01*
X2985Y7807D01*
X2994Y7874D01*
Y51625D01*
X3494Y51832D01*
X3805Y51522D01*
X4526Y51105D01*
X5331Y50890D01*
X6165D01*
X6970Y51105D01*
X7692Y51522D01*
X8281Y52112D01*
X8698Y52833D01*
X8913Y53638D01*
Y54472D01*
X8698Y55277D01*
X8281Y55999D01*
X7692Y56588D01*
X6970Y57005D01*
X6165Y57221D01*
X5331D01*
X4526Y57005D01*
X3805Y56588D01*
X3494Y56278D01*
X2994Y56485D01*
Y61625D01*
X3494Y61832D01*
X3805Y61522D01*
X4526Y61106D01*
X5331Y60890D01*
X6165D01*
X6970Y61106D01*
X7692Y61522D01*
X8281Y62112D01*
X8698Y62833D01*
X8913Y63638D01*
Y64472D01*
X8698Y65277D01*
X8281Y65999D01*
X7692Y66588D01*
X6970Y67005D01*
X6165Y67220D01*
X5331D01*
X4526Y67005D01*
X3805Y66588D01*
X3494Y66278D01*
X2994Y66485D01*
X2994Y188976D01*
X2985Y189043D01*
X3144Y190244D01*
X3633Y191425D01*
X4411Y192439D01*
X5425Y193218D01*
X6606Y193707D01*
X7393Y193810D01*
X7874Y193856D01*
X7874Y193856D01*
X8251Y193906D01*
X46903Y193900D01*
D02*
G37*
G36*
X261943Y171363D02*
X261870Y171235D01*
X261574Y170134D01*
Y168993D01*
X261870Y167892D01*
X262440Y166904D01*
X263246Y166098D01*
X264234Y165527D01*
X265335Y165232D01*
X266476D01*
X267577Y165527D01*
X268337Y165966D01*
X268372Y165958D01*
X268799Y165656D01*
Y164857D01*
X269180Y163938D01*
X269883Y163235D01*
X270802Y162854D01*
X271796D01*
X272715Y163235D01*
X273305Y163825D01*
X276559D01*
Y161697D01*
X277959D01*
Y156512D01*
X261018D01*
Y170827D01*
X260901Y171412D01*
X260570Y171908D01*
X249113Y183365D01*
X248617Y183696D01*
X248031Y183813D01*
X246199D01*
X245609Y184403D01*
X244690Y184783D01*
X243996D01*
X243813Y185224D01*
X244149Y185577D01*
X244234Y185527D01*
X245335Y185232D01*
X246476D01*
X247577Y185527D01*
X247705Y185601D01*
X261943Y171363D01*
D02*
G37*
G36*
X261574Y193865D02*
Y185232D01*
X270237D01*
Y193510D01*
X270590Y193863D01*
X306587Y193858D01*
X307086Y193858D01*
X307087Y193858D01*
X307568Y193812D01*
X308354Y193708D01*
X309535Y193219D01*
X310550Y192441D01*
X311328Y191426D01*
X311817Y190245D01*
X311921Y189460D01*
X311966Y188978D01*
X311966Y188978D01*
X311966Y188488D01*
Y154563D01*
X289174D01*
X288784Y154486D01*
X288453Y154265D01*
X288232Y153934D01*
X288154Y153544D01*
Y127753D01*
X287692Y127561D01*
X281018Y134236D01*
Y146638D01*
X283988D01*
Y151575D01*
Y156512D01*
X281018D01*
Y161343D01*
X281371Y161697D01*
X282299Y161697D01*
X282799Y161697D01*
X284835D01*
Y165354D01*
Y169012D01*
X282799D01*
X282465Y169012D01*
X281965Y169012D01*
X276559D01*
Y166884D01*
X273305D01*
X272715Y167474D01*
X271796Y167854D01*
X270802D01*
X270379Y167679D01*
X270310Y167713D01*
X269986Y168058D01*
X270237Y168993D01*
Y170134D01*
X269941Y171235D01*
X269868Y171363D01*
X274338Y175833D01*
X278429D01*
Y173606D01*
X286531D01*
Y181087D01*
Y184343D01*
X278429D01*
Y181087D01*
Y178892D01*
X273704D01*
X273119Y178775D01*
X272623Y178444D01*
X267705Y173526D01*
X267577Y173599D01*
X266476Y173895D01*
X265335D01*
X264234Y173599D01*
X264106Y173526D01*
X249868Y187764D01*
X249941Y187892D01*
X250237Y188993D01*
Y190134D01*
X249941Y191235D01*
X249371Y192223D01*
X248565Y193029D01*
X247979Y193367D01*
X248113Y193867D01*
X261574Y193865D01*
D02*
G37*
G36*
X123779Y193887D02*
Y185232D01*
X132441D01*
Y193532D01*
X132795Y193886D01*
X164981Y193880D01*
X165114Y193380D01*
X164506Y193029D01*
X163700Y192223D01*
X163129Y191235D01*
X162834Y190134D01*
Y188993D01*
X163129Y187892D01*
X163700Y186904D01*
X164506Y186098D01*
X165494Y185527D01*
X166595Y185232D01*
X167736D01*
X168837Y185527D01*
X168965Y185601D01*
X183203Y171363D01*
X183129Y171235D01*
X182834Y170134D01*
Y168993D01*
X183129Y167892D01*
X183427Y167376D01*
X183027Y167069D01*
X169782Y180314D01*
X169286Y180645D01*
X168701Y180762D01*
X157480D01*
X156895Y180645D01*
X156399Y180314D01*
X147178Y171093D01*
X132184D01*
X132146Y171235D01*
X131576Y172223D01*
X130770Y173029D01*
X129782Y173599D01*
X128680Y173895D01*
X127540D01*
X126438Y173599D01*
X126311Y173526D01*
X112073Y187764D01*
X112146Y187892D01*
X112441Y188993D01*
Y190134D01*
X112146Y191235D01*
X111576Y192223D01*
X110770Y193029D01*
X110146Y193389D01*
X110280Y193889D01*
X123779Y193887D01*
D02*
G37*
G36*
X242959Y159603D02*
Y156512D01*
X231018D01*
Y158298D01*
X231518Y158601D01*
X232180Y158327D01*
X233174D01*
X234093Y158707D01*
X234797Y159411D01*
X235177Y160329D01*
Y161164D01*
X235968Y161955D01*
X240607D01*
X242959Y159603D01*
D02*
G37*
G36*
X241693Y182481D02*
Y181786D01*
X242073Y180867D01*
X242777Y180164D01*
X243696Y179783D01*
X244690D01*
X245609Y180164D01*
X246199Y180754D01*
X247398D01*
X257959Y170193D01*
Y156512D01*
X251018D01*
Y160371D01*
X253247Y162600D01*
X253578Y163096D01*
X253695Y163681D01*
Y170177D01*
X253578Y170762D01*
X253247Y171259D01*
X248366Y176139D01*
Y176974D01*
X247986Y177892D01*
X247282Y178596D01*
X246363Y178976D01*
X245369D01*
X244450Y178596D01*
X243747Y177892D01*
X243366Y176974D01*
Y175979D01*
X243747Y175060D01*
X244450Y174357D01*
X244717Y174246D01*
X244682Y173720D01*
X244234Y173599D01*
X243246Y173029D01*
X242440Y172223D01*
X241870Y171235D01*
X241574Y170134D01*
Y168993D01*
X241870Y167892D01*
X242440Y166904D01*
X243246Y166098D01*
X244234Y165527D01*
X245335Y165232D01*
X246476D01*
X247577Y165527D01*
X248565Y166098D01*
X249371Y166904D01*
X249941Y167892D01*
X250136Y168618D01*
X250636Y168552D01*
Y164315D01*
X248407Y162085D01*
X248075Y161589D01*
X247959Y161004D01*
Y156512D01*
X246018D01*
Y160236D01*
X245901Y160821D01*
X245570Y161318D01*
X242322Y164566D01*
X241825Y164897D01*
X241240Y165014D01*
X235335D01*
X234749Y164897D01*
X234253Y164566D01*
X233014Y163327D01*
X232180D01*
X231518Y163052D01*
X231018Y163356D01*
Y172513D01*
X241193Y182688D01*
X241693Y182481D01*
D02*
G37*
G36*
X180527Y125181D02*
X180897Y124867D01*
X181005Y124706D01*
X187369Y118342D01*
X187258Y117842D01*
X184427D01*
Y117671D01*
X182579D01*
X181993Y117555D01*
X181497Y117223D01*
X180437Y116163D01*
X179937Y116370D01*
Y118224D01*
X164945D01*
Y115703D01*
X164173D01*
X163588Y115586D01*
X163092Y115255D01*
X161222Y113385D01*
X160890Y112888D01*
X160774Y112303D01*
Y99621D01*
X160312Y99430D01*
X159251Y100491D01*
X158755Y100822D01*
X158169Y100939D01*
X157026D01*
X156436Y101529D01*
X155517Y101909D01*
X154522D01*
X153603Y101529D01*
X152900Y100826D01*
X152520Y99907D01*
Y98912D01*
X152900Y97993D01*
X153603Y97290D01*
X154522Y96909D01*
X155517D01*
X156436Y97290D01*
X157026Y97880D01*
X157536D01*
X161381Y94034D01*
X161294Y93757D01*
X161167Y93542D01*
X160533Y93416D01*
X159980Y93047D01*
X159428Y93416D01*
X158730Y93555D01*
X158033Y93416D01*
X157480Y93047D01*
X156928Y93416D01*
X156730Y93455D01*
Y88091D01*
Y82726D01*
X156928Y82765D01*
X157480Y83134D01*
X158033Y82765D01*
X158730Y82626D01*
X159201Y82720D01*
X159609Y82516D01*
X159723Y82361D01*
X159817Y81885D01*
X160149Y81389D01*
X162009Y79529D01*
X162494Y79205D01*
X162513Y79115D01*
X162556Y78677D01*
X162206Y78444D01*
X160163Y76400D01*
X159831Y75904D01*
X159715Y75319D01*
Y75079D01*
X159230Y74768D01*
Y69390D01*
Y64025D01*
X159428Y64064D01*
X159980Y64434D01*
X160533Y64064D01*
X161230Y63926D01*
X161928Y64064D01*
X162480Y64434D01*
X163033Y64064D01*
X163730Y63926D01*
X164428Y64064D01*
X164980Y64434D01*
X165533Y64064D01*
X166230Y63926D01*
X166928Y64064D01*
X167480Y64434D01*
X168033Y64064D01*
X168730Y63926D01*
X169428Y64064D01*
X170019Y64459D01*
X170414Y65051D01*
X170553Y65748D01*
Y67860D01*
X178642D01*
X179227Y67977D01*
X179723Y68308D01*
X188527Y77112D01*
X192358D01*
X192565Y76612D01*
X192074Y76121D01*
X191693Y75202D01*
Y74207D01*
X192074Y73289D01*
X192777Y72585D01*
X193696Y72205D01*
X194690D01*
X195609Y72585D01*
X196199Y73175D01*
X205709D01*
X206294Y73292D01*
X206790Y73623D01*
X216216Y83050D01*
X216717Y82956D01*
Y79709D01*
X237959D01*
Y79197D01*
X236177Y77415D01*
X228384D01*
X227794Y78005D01*
X226875Y78386D01*
X225881D01*
X224962Y78005D01*
X224259Y77302D01*
X223878Y76383D01*
Y75388D01*
X224259Y74470D01*
X224962Y73766D01*
X225182Y73675D01*
Y73175D01*
X224962Y73084D01*
X224259Y72381D01*
X223878Y71462D01*
Y70467D01*
X224259Y69548D01*
X224962Y68845D01*
X225370Y68676D01*
Y68135D01*
X224962Y67966D01*
X224259Y67263D01*
X223878Y66344D01*
Y65349D01*
X224259Y64430D01*
X224962Y63727D01*
X225182Y63636D01*
Y63136D01*
X224962Y63045D01*
X224259Y62341D01*
X223878Y61422D01*
Y60428D01*
X224259Y59509D01*
X224962Y58806D01*
X225881Y58425D01*
X226875D01*
X227794Y58806D01*
X228384Y59396D01*
X230020D01*
X230196Y59431D01*
X230497Y58981D01*
X230477Y58951D01*
X230360Y58366D01*
Y55020D01*
X230477Y54434D01*
X230808Y53938D01*
X233367Y51379D01*
X233863Y51048D01*
X234449Y50931D01*
X235516D01*
Y46047D01*
X242831D01*
Y47486D01*
X244248D01*
X247541Y44194D01*
X248037Y43863D01*
X248622Y43746D01*
X256087D01*
Y41618D01*
X257427D01*
Y40272D01*
X256087D01*
Y38144D01*
X251317D01*
X250727Y38734D01*
X249808Y39114D01*
X248814D01*
X247895Y38734D01*
X247192Y38030D01*
X246811Y37111D01*
Y36117D01*
X247192Y35198D01*
X247895Y34495D01*
X248814Y34114D01*
X249808D01*
X250727Y34495D01*
X251317Y35085D01*
X256087D01*
Y32957D01*
X261492D01*
X261827Y32957D01*
X262327Y32957D01*
X264362D01*
Y36614D01*
Y40272D01*
X262327D01*
X261992Y40272D01*
X261492Y40272D01*
X260486D01*
Y41265D01*
X260840Y41618D01*
X261827Y41618D01*
X262327Y41618D01*
X264362D01*
Y45276D01*
Y48933D01*
X262327D01*
X261992Y48933D01*
X261492Y48933D01*
X260388D01*
Y50870D01*
X260449D01*
Y54512D01*
X264090D01*
Y54573D01*
X275843D01*
X277442Y52974D01*
X277938Y52642D01*
X278524Y52526D01*
X295063D01*
Y49905D01*
X302998D01*
Y44236D01*
X281847Y23085D01*
X233311D01*
X230171Y26224D01*
Y32146D01*
X231296D01*
X231764Y32239D01*
X232161Y32504D01*
X232427Y32901D01*
X232520Y33369D01*
Y33510D01*
X235122D01*
Y31284D01*
Y23803D01*
X243224D01*
Y26030D01*
X246244D01*
Y23606D01*
X253756D01*
Y31512D01*
X246244D01*
Y29089D01*
X243224D01*
Y31284D01*
Y38795D01*
X235122D01*
Y36569D01*
X232520D01*
Y45371D01*
X232427Y45839D01*
X232161Y46236D01*
X231764Y46501D01*
X231296Y46594D01*
X225987D01*
X225519Y46501D01*
X225122Y46236D01*
X224857Y45839D01*
X224764Y45371D01*
Y40900D01*
X208307D01*
Y40947D01*
X208214Y41413D01*
X207950Y41808D01*
X207555Y42072D01*
X207089Y42165D01*
X201770D01*
X201304Y42072D01*
X200908Y41808D01*
X200644Y41413D01*
X200551Y40947D01*
Y40900D01*
X198893D01*
X198539Y41253D01*
X198539Y42240D01*
X198539Y42740D01*
Y44776D01*
X194882D01*
X191224D01*
Y42740D01*
X191224Y42406D01*
X191224Y41906D01*
Y36500D01*
X198539D01*
Y37841D01*
X200551D01*
Y37793D01*
X200644Y37327D01*
X200908Y36932D01*
X201304Y36668D01*
X201770Y36575D01*
X207089D01*
X207555Y36668D01*
X207950Y36932D01*
X208214Y37327D01*
X208307Y37793D01*
Y37841D01*
X224764D01*
Y33369D01*
X224857Y32901D01*
X225122Y32504D01*
X225519Y32239D01*
X225987Y32146D01*
X227112D01*
Y25591D01*
X227229Y25005D01*
X227560Y24509D01*
X231596Y20474D01*
X231857Y20299D01*
X231705Y19799D01*
X227937D01*
Y17277D01*
X226716D01*
X212597Y31396D01*
X212101Y31728D01*
X211516Y31844D01*
X208307D01*
Y31892D01*
X208214Y32358D01*
X207950Y32753D01*
X207555Y33017D01*
X207089Y33110D01*
X201770D01*
X201304Y33017D01*
X200908Y32753D01*
X200644Y32358D01*
X200551Y31892D01*
Y31844D01*
X194427D01*
X193837Y32434D01*
X192919Y32815D01*
X191924D01*
X191005Y32434D01*
X190302Y31731D01*
X189921Y30812D01*
Y29818D01*
X190302Y28899D01*
X191005Y28196D01*
X191924Y27815D01*
X192919D01*
X193837Y28196D01*
X194427Y28786D01*
X200551D01*
Y28738D01*
X200644Y28272D01*
X200908Y27877D01*
X201304Y27613D01*
X201770Y27520D01*
X202900D01*
Y23343D01*
X201559D01*
Y21214D01*
X196008D01*
X192518Y24703D01*
X192022Y25035D01*
X191437Y25151D01*
X185760D01*
Y30822D01*
X182439D01*
Y34016D01*
X185432Y37009D01*
X185763Y37505D01*
X185880Y38091D01*
Y44980D01*
X185763Y45566D01*
X185432Y46062D01*
X177755Y53739D01*
X177259Y54071D01*
X176673Y54187D01*
X162051D01*
X157760Y58478D01*
Y63691D01*
X158230Y64000D01*
Y69390D01*
Y74780D01*
X157760Y75088D01*
Y75748D01*
X158175D01*
X159093Y76129D01*
X159797Y76832D01*
X160177Y77751D01*
Y78745D01*
X159797Y79664D01*
X159093Y80367D01*
X158175Y80748D01*
X157180D01*
X156261Y80367D01*
X155558Y79664D01*
X155177Y78745D01*
Y77911D01*
X155149Y77883D01*
X154817Y77386D01*
X154768Y77138D01*
X154225Y76973D01*
X151574Y79625D01*
X151077Y79956D01*
X150492Y80073D01*
X142956D01*
X140801Y82228D01*
Y95134D01*
X142281Y96614D01*
X143115D01*
X144034Y96995D01*
X144239Y97199D01*
X144701Y97008D01*
Y92661D01*
X144547Y92430D01*
X144408Y91732D01*
Y84449D01*
X144547Y83751D01*
X144942Y83160D01*
X145533Y82765D01*
X146230Y82626D01*
X146928Y82765D01*
X147480Y83134D01*
X148033Y82765D01*
X148730Y82626D01*
X149428Y82765D01*
X149980Y83134D01*
X150533Y82765D01*
X151230Y82626D01*
X151928Y82765D01*
X152480Y83134D01*
X153033Y82765D01*
X153730Y82626D01*
X154428Y82765D01*
X154980Y83134D01*
X155533Y82765D01*
X155730Y82726D01*
Y88091D01*
Y93455D01*
X155533Y93416D01*
X154980Y93047D01*
X154428Y93416D01*
X153730Y93555D01*
X153033Y93416D01*
X152480Y93047D01*
X151928Y93416D01*
X151230Y93555D01*
X150533Y93416D01*
X149980Y93047D01*
X149428Y93416D01*
X148730Y93555D01*
X148260Y93461D01*
X147760Y93789D01*
Y106817D01*
X161854Y120912D01*
X167384D01*
X167974Y120322D01*
X168893Y119941D01*
X169887D01*
X170806Y120322D01*
X171509Y121025D01*
X171890Y121944D01*
Y122938D01*
X171509Y123857D01*
X170806Y124560D01*
X170514Y124681D01*
X170614Y125181D01*
X180527Y125181D01*
D02*
G37*
G36*
X277959Y133602D02*
X278075Y133017D01*
X278407Y132521D01*
X286144Y124783D01*
Y89583D01*
X284988D01*
Y84646D01*
Y79709D01*
X286144D01*
Y79551D01*
X286261Y78965D01*
X286592Y78469D01*
X291438Y73623D01*
X291934Y73292D01*
X292520Y73175D01*
X300449D01*
X302998Y70626D01*
Y66728D01*
X302760Y66664D01*
X302498Y66638D01*
X301761Y67376D01*
X300814Y67922D01*
X299759Y68205D01*
X298666D01*
X297611Y67922D01*
X296665Y67376D01*
X295892Y66603D01*
X295346Y65657D01*
X295326Y65584D01*
X282264D01*
X281679Y65468D01*
X281182Y65137D01*
X275677Y59632D01*
X266582D01*
X266390Y60094D01*
X268004Y61707D01*
Y63870D01*
X265841D01*
X264552Y62581D01*
X264090Y62773D01*
Y63598D01*
X260449D01*
Y67240D01*
X258419D01*
Y67876D01*
X259009Y68466D01*
X259390Y69385D01*
Y70379D01*
X259009Y71298D01*
X258873Y71434D01*
X259065Y71896D01*
X276870D01*
X277455Y72012D01*
X277952Y72344D01*
X280570Y74962D01*
X280901Y75458D01*
X281018Y76043D01*
Y79709D01*
X283988D01*
Y84646D01*
Y89583D01*
X271018D01*
Y89665D01*
X270901Y90251D01*
X270570Y90747D01*
X265845Y95471D01*
X265349Y95803D01*
X264764Y95919D01*
X251690D01*
X251530Y96419D01*
X252119Y97009D01*
X252500Y97928D01*
Y98922D01*
X252119Y99841D01*
X251529Y100431D01*
Y101575D01*
X251413Y102160D01*
X251081Y102656D01*
X241018Y112720D01*
Y146638D01*
X272959D01*
Y112326D01*
X264426Y103793D01*
X259093D01*
X258503Y104383D01*
X257584Y104764D01*
X256589D01*
X255670Y104383D01*
X254967Y103680D01*
X254587Y102761D01*
Y101767D01*
X254967Y100848D01*
X255670Y100144D01*
X256589Y99764D01*
X257584D01*
X258503Y100144D01*
X259093Y100734D01*
X265059D01*
X265644Y100851D01*
X266141Y101182D01*
X275570Y110611D01*
X275901Y111108D01*
X276018Y111693D01*
Y146638D01*
X277959D01*
Y133602D01*
D02*
G37*
G36*
X111205Y142898D02*
X114809D01*
Y140496D01*
X113343Y139029D01*
X107776D01*
X107190Y138913D01*
X106694Y138581D01*
X103151Y135038D01*
X102819Y134542D01*
X102703Y133957D01*
Y126181D01*
X102819Y125596D01*
X103151Y125100D01*
X110926Y117324D01*
X111423Y116992D01*
X112008Y116876D01*
X141339D01*
X141924Y116992D01*
X142420Y117324D01*
X149408Y124312D01*
X149740Y124808D01*
X149856Y125394D01*
Y131256D01*
X154177Y135577D01*
X174071D01*
X176493Y133155D01*
X176302Y132693D01*
X170260D01*
Y125328D01*
X169925Y124980D01*
X169859Y124941D01*
X168893D01*
X167974Y124560D01*
X167384Y123970D01*
X161221D01*
X160635Y123854D01*
X160139Y123522D01*
X145149Y108532D01*
X144817Y108036D01*
X144701Y107451D01*
Y101220D01*
X144239Y101029D01*
X144034Y101234D01*
X143115Y101614D01*
X142121D01*
X141202Y101234D01*
X140499Y100530D01*
X140118Y99612D01*
Y98777D01*
X138190Y96849D01*
X137859Y96353D01*
X137742Y95768D01*
Y84969D01*
X137516Y84563D01*
X137242Y84563D01*
X134358D01*
Y81693D01*
X133858D01*
Y81193D01*
X130201D01*
Y79158D01*
X130201Y78823D01*
X130201Y78323D01*
Y72917D01*
X137516D01*
Y74258D01*
X144370D01*
X144606Y73817D01*
X144547Y73729D01*
X144408Y73032D01*
Y65748D01*
X144547Y65051D01*
X144701Y64820D01*
Y58789D01*
X144817Y58204D01*
X145149Y57708D01*
X147191Y55666D01*
Y43470D01*
X146691Y43318D01*
X146309Y43890D01*
X145347Y44852D01*
X144216Y45608D01*
X142959Y46128D01*
X141625Y46394D01*
X141445D01*
Y39988D01*
X148230D01*
X148350Y40038D01*
X149298Y39090D01*
X149310Y38519D01*
X149238Y38478D01*
X148648Y37889D01*
X148231Y37167D01*
X148016Y36362D01*
Y35528D01*
X148231Y34723D01*
X148648Y34001D01*
X149238Y33412D01*
X149652Y33173D01*
Y27633D01*
X149298Y27279D01*
X148311Y27279D01*
X147811Y27279D01*
X145775D01*
Y23622D01*
Y19965D01*
X147811D01*
X148146Y19965D01*
X148646Y19965D01*
X154051D01*
Y22093D01*
X156760D01*
Y16422D01*
X166460D01*
Y30822D01*
X156760D01*
Y25151D01*
X154051D01*
Y27279D01*
X152710D01*
Y33173D01*
X153125Y33412D01*
X153714Y34001D01*
X154052Y34587D01*
X154202Y34630D01*
X154459D01*
X154609Y34587D01*
X154947Y34001D01*
X155537Y33412D01*
X156258Y32995D01*
X157064Y32779D01*
X157897D01*
X158702Y32995D01*
X159424Y33412D01*
X160013Y34001D01*
X160352Y34587D01*
X160502Y34630D01*
X160758D01*
X160908Y34587D01*
X161247Y34001D01*
X161836Y33412D01*
X162558Y32995D01*
X163279Y32802D01*
Y35945D01*
Y39088D01*
X162558Y38895D01*
X161836Y38478D01*
X161247Y37889D01*
X160908Y37302D01*
X160758Y37260D01*
X160502D01*
X160352Y37302D01*
X160013Y37889D01*
X159424Y38478D01*
X158702Y38895D01*
X157897Y39110D01*
X157064D01*
X156258Y38895D01*
X155994Y38742D01*
X154941Y39794D01*
X155090Y40352D01*
X155552Y40476D01*
X156274Y40892D01*
X156864Y41482D01*
X157202Y42068D01*
X157352Y42110D01*
X157608D01*
X157759Y42068D01*
X158097Y41482D01*
X158686Y40892D01*
X159408Y40476D01*
X160213Y40260D01*
X161047D01*
X161852Y40476D01*
X162574Y40892D01*
X163163Y41482D01*
X163579Y42203D01*
X163795Y43009D01*
Y43842D01*
X163579Y44647D01*
X163163Y45369D01*
X162574Y45958D01*
X161852Y46375D01*
X161047Y46591D01*
X160213D01*
X159408Y46375D01*
X158686Y45958D01*
X158097Y45369D01*
X157759Y44783D01*
X157608Y44740D01*
X157352D01*
X157202Y44783D01*
X156864Y45369D01*
X156274Y45958D01*
X155860Y46197D01*
Y53642D01*
X155744Y54227D01*
X155412Y54723D01*
X150260Y59876D01*
Y63691D01*
X150760Y64019D01*
X151230Y63926D01*
X151928Y64064D01*
X152480Y64434D01*
X153033Y64064D01*
X153730Y63926D01*
X154201Y64019D01*
X154701Y63691D01*
Y57845D01*
X154817Y57259D01*
X155149Y56763D01*
X160336Y51576D01*
X160832Y51244D01*
X161417Y51128D01*
X176040D01*
X182821Y44347D01*
Y38724D01*
X180933Y36836D01*
X180509Y37119D01*
X180656Y37474D01*
X180921Y38808D01*
Y38988D01*
X174516D01*
Y32583D01*
X174696D01*
X176030Y32848D01*
X177287Y33369D01*
X178418Y34124D01*
X178880Y34587D01*
X179380Y34380D01*
Y30822D01*
X176060D01*
Y16422D01*
X185760D01*
Y22093D01*
X190804D01*
X194293Y18604D01*
X194789Y18272D01*
X195374Y18156D01*
X201559D01*
Y16028D01*
X202900D01*
Y10827D01*
X203016Y10242D01*
X203348Y9745D01*
X205710Y7383D01*
X206206Y7052D01*
X206791Y6935D01*
X216596D01*
X217186Y6345D01*
X218105Y5965D01*
X219100D01*
X220019Y6345D01*
X220722Y7048D01*
X221102Y7967D01*
Y8962D01*
X220722Y9881D01*
X220019Y10584D01*
X219100Y10965D01*
X218105D01*
X217186Y10584D01*
X216596Y9994D01*
X207425D01*
X205959Y11460D01*
Y15674D01*
X206312Y16028D01*
X207299Y16027D01*
X207799Y16028D01*
X209835D01*
Y19685D01*
Y23343D01*
X207799D01*
X207465Y23343D01*
X206965Y23343D01*
X205959D01*
Y27520D01*
X207089D01*
X207555Y27613D01*
X207950Y27877D01*
X208214Y28272D01*
X208307Y28738D01*
Y28786D01*
X210882D01*
X225001Y14667D01*
X225497Y14335D01*
X226083Y14219D01*
X227937D01*
Y11697D01*
X242929D01*
Y14219D01*
X246244D01*
Y11795D01*
X253756D01*
Y19701D01*
X254121Y20026D01*
X257690D01*
X258055Y19701D01*
X258055Y19526D01*
Y16248D01*
X261811D01*
X265567D01*
Y19526D01*
X265567Y19701D01*
X265932Y20026D01*
X282480D01*
X283066Y20142D01*
X283562Y20474D01*
X305609Y42521D01*
X305941Y43017D01*
X306057Y43602D01*
Y52190D01*
X306557Y52324D01*
X306680Y52112D01*
X307269Y51522D01*
X307991Y51105D01*
X308796Y50890D01*
X309629D01*
X310434Y51105D01*
X311156Y51522D01*
X311467Y51833D01*
X311966Y51625D01*
Y7874D01*
X311966Y7874D01*
X311966Y7874D01*
X311921Y7393D01*
X311817Y6606D01*
X311328Y5425D01*
X310550Y4411D01*
X309535Y3633D01*
X308354Y3144D01*
X307153Y2985D01*
X307087Y2994D01*
X124878D01*
X124415Y3085D01*
X124415Y3494D01*
Y6242D01*
X120364D01*
X116313D01*
X116313Y3085D01*
X115850Y2994D01*
X113815D01*
X113352Y3085D01*
X113352Y3494D01*
Y9415D01*
X107878D01*
Y31545D01*
X107761Y32131D01*
X107430Y32627D01*
X103104Y36952D01*
Y45211D01*
X112014D01*
Y52526D01*
X103104D01*
Y53992D01*
X107007Y57895D01*
X107338Y58391D01*
X107455Y58976D01*
Y63435D01*
X107478Y63439D01*
X107872Y63703D01*
X108136Y64097D01*
X108170Y64271D01*
X108680D01*
X108715Y64097D01*
X108978Y63703D01*
X109372Y63439D01*
X109396Y63435D01*
Y62500D01*
X109512Y61915D01*
X109844Y61419D01*
X111714Y59548D01*
X112210Y59217D01*
X112795Y59101D01*
X124667D01*
X125159Y58609D01*
X126077Y58228D01*
X127072D01*
X127991Y58609D01*
X128694Y59312D01*
X129075Y60231D01*
Y60673D01*
X129575Y60880D01*
X131104Y59352D01*
X131600Y59020D01*
X132185Y58904D01*
X135888D01*
X136478Y58314D01*
X137396Y57933D01*
X138391D01*
X139310Y58314D01*
X140013Y59017D01*
X140394Y59936D01*
Y60930D01*
X140013Y61849D01*
X139310Y62552D01*
X138391Y62933D01*
X137396D01*
X136478Y62552D01*
X135888Y61962D01*
X132818D01*
X125840Y68941D01*
Y73721D01*
X125724Y74306D01*
X125392Y74802D01*
X118445Y81749D01*
Y82682D01*
X118064Y83601D01*
X117455Y84211D01*
Y85679D01*
X117478Y85683D01*
X117872Y85947D01*
X118136Y86341D01*
X118228Y86806D01*
Y92918D01*
X118136Y93383D01*
X117872Y93778D01*
X117478Y94041D01*
X117013Y94134D01*
X114838D01*
X114373Y94041D01*
X113978Y93778D01*
X113715Y93383D01*
X113680Y93209D01*
X113170D01*
X113136Y93383D01*
X112872Y93778D01*
X112828Y94228D01*
X113330Y94730D01*
X120571D01*
X121156Y94847D01*
X121652Y95178D01*
X123326Y96852D01*
X123657Y97348D01*
X123774Y97933D01*
Y99000D01*
X125409D01*
Y105724D01*
X119079D01*
Y99000D01*
X120554D01*
X120648Y98500D01*
X119937Y97789D01*
X112697D01*
X112112Y97673D01*
X111615Y97341D01*
X109844Y95570D01*
X109512Y95073D01*
X109396Y94488D01*
Y94046D01*
X109372Y94041D01*
X108978Y93778D01*
X108715Y93383D01*
X108680Y93209D01*
X108170D01*
X108136Y93383D01*
X107872Y93778D01*
X107478Y94041D01*
X107013Y94134D01*
X106425D01*
Y89862D01*
Y85591D01*
X107013D01*
X107478Y85683D01*
X107872Y85947D01*
X108136Y86341D01*
X108170Y86516D01*
X108680D01*
X108715Y86341D01*
X108978Y85947D01*
X109372Y85683D01*
X109838Y85591D01*
X112013D01*
X112478Y85683D01*
X112872Y85947D01*
X113136Y86341D01*
X113170Y86516D01*
X113680D01*
X113715Y86341D01*
X113978Y85947D01*
X114373Y85683D01*
X114396Y85679D01*
Y84171D01*
X113826Y83601D01*
X113445Y82682D01*
Y81688D01*
X113826Y80769D01*
X114529Y80066D01*
X115448Y79685D01*
X116184D01*
X122782Y73087D01*
Y68307D01*
X122898Y67722D01*
X123230Y67226D01*
X126727Y63728D01*
X126520Y63228D01*
X126077D01*
X125159Y62848D01*
X124470Y62159D01*
X113429D01*
X112614Y62974D01*
X112599Y63024D01*
X112648Y63553D01*
X112872Y63703D01*
X113136Y64097D01*
X113170Y64271D01*
X113680D01*
X113715Y64097D01*
X113978Y63703D01*
X114373Y63439D01*
X114838Y63347D01*
X115425D01*
Y67618D01*
Y71890D01*
X114838D01*
X114373Y71797D01*
X113978Y71534D01*
X113715Y71139D01*
X113680Y70965D01*
X113170D01*
X113136Y71139D01*
X112872Y71534D01*
X112478Y71797D01*
X112013Y71890D01*
X109838D01*
X109372Y71797D01*
X108978Y71534D01*
X108715Y71139D01*
X108680Y70965D01*
X108170D01*
X108136Y71139D01*
X107872Y71534D01*
X107478Y71797D01*
X107455Y71802D01*
Y79902D01*
X107338Y80487D01*
X107007Y80983D01*
X104974Y83015D01*
Y85591D01*
X105425D01*
Y89862D01*
Y94134D01*
X104974D01*
Y94390D01*
X104858Y94975D01*
X104526Y95471D01*
X102459Y97538D01*
X102051Y97811D01*
X102102Y98228D01*
X102134Y98311D01*
X107161D01*
Y100833D01*
X110811D01*
Y99000D01*
X117142D01*
Y105724D01*
X110811D01*
Y103892D01*
X107161D01*
Y106413D01*
X92169D01*
Y98311D01*
X94396D01*
Y98071D01*
X94512Y97486D01*
X94844Y96989D01*
X96458Y95375D01*
X96954Y95044D01*
X97539Y94927D01*
X100744D01*
X101076Y94595D01*
X100885Y94134D01*
X99838D01*
X99373Y94041D01*
X98978Y93778D01*
X98715Y93383D01*
X98680Y93209D01*
X98170D01*
X98136Y93383D01*
X97872Y93778D01*
X97478Y94041D01*
X97013Y94134D01*
X94838D01*
X94372Y94041D01*
X93978Y93778D01*
X93715Y93383D01*
X93680Y93209D01*
X93170D01*
X93136Y93383D01*
X92872Y93778D01*
X92478Y94041D01*
X92013Y94134D01*
X91425D01*
Y89862D01*
Y85591D01*
X92013D01*
X92478Y85683D01*
X92872Y85947D01*
X93136Y86341D01*
X93170Y86516D01*
X93680D01*
X93715Y86341D01*
X93978Y85947D01*
X94372Y85683D01*
X94838Y85591D01*
X97013D01*
X97478Y85683D01*
X97872Y85947D01*
X98136Y86341D01*
X98170Y86516D01*
X98680D01*
X98715Y86341D01*
X98978Y85947D01*
X99373Y85683D01*
X99838Y85591D01*
X101916D01*
Y82382D01*
X102032Y81797D01*
X102363Y81300D01*
X104396Y79268D01*
Y71802D01*
X104373Y71797D01*
X103978Y71534D01*
X103715Y71139D01*
X103680Y70965D01*
X103170D01*
X103136Y71139D01*
X102872Y71534D01*
X102478Y71797D01*
X102013Y71890D01*
X99838D01*
X99373Y71797D01*
X98978Y71534D01*
X98715Y71139D01*
X98680Y70965D01*
X98170D01*
X98136Y71139D01*
X97872Y71534D01*
X97478Y71797D01*
X97013Y71890D01*
X94838D01*
X94372Y71797D01*
X93978Y71534D01*
X93715Y71139D01*
X93680Y70965D01*
X93170D01*
X93136Y71139D01*
X92872Y71534D01*
X92478Y71797D01*
X92455Y71802D01*
Y74347D01*
X95234Y77126D01*
X96068D01*
X96987Y77507D01*
X97690Y78210D01*
X98071Y79129D01*
Y80123D01*
X97690Y81042D01*
X96987Y81745D01*
X96068Y82126D01*
X95074D01*
X94155Y81745D01*
X93451Y81042D01*
X93071Y80123D01*
Y79289D01*
X89844Y76062D01*
X89512Y75566D01*
X89396Y74980D01*
Y71802D01*
X89372Y71797D01*
X88978Y71534D01*
X88715Y71139D01*
X88680Y70965D01*
X88170D01*
X88136Y71139D01*
X87872Y71534D01*
X87478Y71797D01*
X87013Y71890D01*
X84838D01*
X84373Y71797D01*
X83978Y71534D01*
X83715Y71139D01*
X83680Y70965D01*
X83170D01*
X83136Y71139D01*
X82872Y71534D01*
X82478Y71797D01*
X82013Y71890D01*
X79838D01*
X79373Y71797D01*
X78978Y71534D01*
X78715Y71139D01*
X78622Y70674D01*
Y69147D01*
X74649D01*
X72395Y71401D01*
Y72917D01*
X74524D01*
Y78323D01*
X74524Y78658D01*
X74524Y79158D01*
Y81193D01*
X70866D01*
X67209D01*
Y79158D01*
X67209Y78823D01*
X67209Y78323D01*
Y77317D01*
X66480D01*
X65407Y78389D01*
Y86768D01*
X68011Y89371D01*
X68342Y89868D01*
X68458Y90453D01*
Y130299D01*
X70980D01*
Y137779D01*
Y140006D01*
X94291D01*
X94877Y140122D01*
X95373Y140454D01*
X100043Y145124D01*
X111205D01*
Y142898D01*
D02*
G37*
G36*
X164945Y112075D02*
Y110122D01*
X169519D01*
X169552Y110039D01*
X169603Y109622D01*
X169194Y109349D01*
X167619Y107774D01*
X167288Y107278D01*
X167171Y106693D01*
Y106413D01*
X164945D01*
Y98653D01*
X164445Y98446D01*
X163832Y99059D01*
Y111670D01*
X164445Y112282D01*
X164945Y112075D01*
D02*
G37*
G36*
X237959Y112087D02*
X238075Y111501D01*
X238407Y111005D01*
X248471Y100941D01*
Y100431D01*
X247881Y99841D01*
X247500Y98922D01*
Y97928D01*
X247881Y97009D01*
X248470Y96419D01*
X248310Y95919D01*
X245784D01*
X245624Y96419D01*
X246214Y97009D01*
X246595Y97928D01*
Y98922D01*
X246214Y99841D01*
X245624Y100431D01*
Y101181D01*
X245508Y101766D01*
X245176Y102262D01*
X236018Y111421D01*
Y146638D01*
X237959D01*
Y112087D01*
D02*
G37*
G36*
X262774Y90083D02*
X262567Y89583D01*
X223457D01*
X223250Y90083D01*
X224354Y91187D01*
X261670D01*
X262774Y90083D01*
D02*
G37*
G36*
X216717Y86175D02*
X215650D01*
X215064Y86059D01*
X214568Y85727D01*
X205075Y76234D01*
X196199D01*
X195821Y76612D01*
X196028Y77112D01*
X204331D01*
X204916Y77229D01*
X205412Y77560D01*
X209644Y81793D01*
X209976Y82289D01*
X210092Y82874D01*
Y86374D01*
X212937Y89219D01*
X216717D01*
Y86175D01*
D02*
G37*
G36*
X272959Y78522D02*
X272369Y77932D01*
X271988Y77013D01*
Y76019D01*
X272222Y75455D01*
X271888Y74955D01*
X262089D01*
X261755Y75455D01*
X261988Y76019D01*
Y77013D01*
X261608Y77932D01*
X261018Y78522D01*
Y79709D01*
X272959D01*
Y78522D01*
D02*
G37*
G36*
X257959D02*
X257369Y77932D01*
X256988Y77013D01*
Y76019D01*
X257222Y75455D01*
X256888Y74955D01*
X249705D01*
X249668Y74947D01*
X249421Y75408D01*
X250570Y76556D01*
X250901Y77052D01*
X251018Y77638D01*
Y79709D01*
X257959D01*
Y78522D01*
D02*
G37*
G36*
X185708Y78619D02*
X178008Y70919D01*
X170553D01*
Y73032D01*
X170414Y73729D01*
X170019Y74320D01*
X169428Y74715D01*
X168730Y74854D01*
X168033Y74715D01*
X167480Y74346D01*
X166928Y74715D01*
X166230Y74854D01*
X165533Y74715D01*
X164980Y74346D01*
X164428Y74715D01*
X163730Y74854D01*
X163629Y74834D01*
X163383Y75295D01*
X163921Y75833D01*
X177521D01*
X178111Y75243D01*
X179030Y74862D01*
X180025D01*
X180944Y75243D01*
X181647Y75946D01*
X182028Y76865D01*
Y77859D01*
X181729Y78581D01*
X181998Y79081D01*
X185517D01*
X185708Y78619D01*
D02*
G37*
G36*
X311966Y66485D02*
X311467Y66278D01*
X311156Y66588D01*
X310434Y67005D01*
X309629Y67220D01*
X308796D01*
X307991Y67005D01*
X307269Y66588D01*
X306680Y65999D01*
X306557Y65786D01*
X306057Y65920D01*
Y71260D01*
X305941Y71845D01*
X305609Y72341D01*
X302164Y75786D01*
X301668Y76118D01*
X301083Y76234D01*
X293153D01*
X289203Y80184D01*
Y81658D01*
X311966D01*
Y66485D01*
D02*
G37*
G36*
X248878Y69728D02*
Y69385D01*
X249259Y68466D01*
X249962Y67763D01*
X250881Y67382D01*
X250921D01*
X251362Y67240D01*
Y63598D01*
X247721D01*
Y63537D01*
X243448D01*
X242461Y64525D01*
Y65359D01*
X242080Y66278D01*
X241377Y66982D01*
X240458Y67362D01*
X239463D01*
X239230Y67266D01*
X238947Y67689D01*
X239807Y68549D01*
X246358D01*
X246943Y68666D01*
X247440Y68997D01*
X248378Y69936D01*
X248878Y69728D01*
D02*
G37*
G36*
X241734Y60926D02*
X242230Y60595D01*
X242815Y60479D01*
X247721D01*
Y57632D01*
X242831D01*
Y59071D01*
X235516D01*
Y54151D01*
X235016Y54057D01*
X233419Y55653D01*
Y57733D01*
X235580Y59893D01*
X236521D01*
X237106Y60010D01*
X237603Y60341D01*
X239623Y62362D01*
X240298D01*
X241734Y60926D01*
D02*
G37*
G36*
X306680Y62112D02*
X307269Y61522D01*
X307991Y61106D01*
X308796Y60890D01*
X309629D01*
X310434Y61106D01*
X311156Y61522D01*
X311467Y61833D01*
X311966Y61625D01*
Y56485D01*
X311467Y56278D01*
X311156Y56588D01*
X310434Y57005D01*
X309629Y57221D01*
X308796D01*
X307991Y57005D01*
X307269Y56588D01*
X306680Y55999D01*
X306557Y55786D01*
X306057Y55920D01*
Y62190D01*
X306557Y62324D01*
X306680Y62112D01*
D02*
G37*
G36*
X295346Y62453D02*
X295892Y61507D01*
X296665Y60735D01*
X297611Y60188D01*
X298666Y59905D01*
X299759D01*
X300814Y60188D01*
X301761Y60735D01*
X302498Y61472D01*
X302760Y61446D01*
X302998Y61383D01*
Y58205D01*
X295063D01*
Y55585D01*
X279157D01*
X277910Y56832D01*
X277910Y57538D01*
X282897Y62526D01*
X295326D01*
X295346Y62453D01*
D02*
G37*
G36*
X152801Y53008D02*
Y46197D01*
X152387Y45958D01*
X151798Y45369D01*
X151381Y44647D01*
X151165Y43842D01*
Y43009D01*
X151314Y42453D01*
X151049Y41958D01*
X150977Y41904D01*
X150830Y41884D01*
X150250Y42464D01*
Y54906D01*
X150712Y55098D01*
X152801Y53008D01*
D02*
G37*
G36*
X91827Y42292D02*
Y17042D01*
X91327Y16942D01*
X91194Y17263D01*
X90491Y17966D01*
X89575Y18345D01*
Y15846D01*
Y13348D01*
X90491Y13727D01*
X91194Y14430D01*
X91327Y14751D01*
X91827Y14651D01*
Y9415D01*
X89526D01*
Y6250D01*
X88526D01*
Y9415D01*
X86224D01*
Y14889D01*
X86724Y14988D01*
X86955Y14430D01*
X87659Y13727D01*
X88575Y13348D01*
Y15846D01*
Y18345D01*
X87659Y17966D01*
X86955Y17263D01*
X86724Y16705D01*
X86224Y16804D01*
Y38195D01*
X88541Y40512D01*
X89375D01*
X90294Y40892D01*
X90997Y41596D01*
X91327Y42391D01*
X91827Y42292D01*
D02*
G37*
G36*
X104819Y30912D02*
Y9415D01*
X103547D01*
Y31477D01*
X104047Y31684D01*
X104819Y30912D01*
D02*
G37*
G36*
X100488Y31306D02*
Y9415D01*
X99216D01*
Y31924D01*
X99678Y32116D01*
X100488Y31306D01*
D02*
G37*
G36*
X96158Y48978D02*
Y9415D01*
X94886D01*
Y49597D01*
X95348Y49788D01*
X96158Y48978D01*
D02*
G37*
%LPC*%
G36*
X222938Y192559D02*
X221944D01*
X221025Y192178D01*
X220435Y191588D01*
X200197D01*
X199612Y191472D01*
X199115Y191140D01*
X192575Y184600D01*
X181933D01*
X177598Y188935D01*
Y189769D01*
X177218Y190688D01*
X176515Y191391D01*
X175596Y191772D01*
X174601D01*
X173682Y191391D01*
X172979Y190688D01*
X172598Y189769D01*
Y188774D01*
X172979Y187856D01*
X173682Y187152D01*
X174601Y186772D01*
X175435D01*
X180218Y181989D01*
X180714Y181658D01*
X181299Y181542D01*
X193209D01*
X193794Y181658D01*
X194290Y181989D01*
X200830Y188530D01*
X220435D01*
X221025Y187940D01*
X221944Y187559D01*
X222938D01*
X223857Y187940D01*
X224560Y188643D01*
X224941Y189562D01*
Y190556D01*
X224560Y191475D01*
X223857Y192178D01*
X222938Y192559D01*
D02*
G37*
G36*
X16601Y191945D02*
X16248D01*
Y181602D01*
X26591D01*
Y181956D01*
X26324Y183641D01*
X25796Y185264D01*
X25021Y186785D01*
X24018Y188166D01*
X22812Y189373D01*
X21431Y190376D01*
X19910Y191150D01*
X18287Y191678D01*
X16601Y191945D01*
D02*
G37*
G36*
X15248D02*
X14895D01*
X13209Y191678D01*
X11586Y191150D01*
X10065Y190376D01*
X8685Y189373D01*
X7478Y188166D01*
X6475Y186785D01*
X5700Y185264D01*
X5173Y183641D01*
X4905Y181956D01*
Y181602D01*
X15248D01*
Y191945D01*
D02*
G37*
G36*
X26591Y180602D02*
X16248D01*
Y170260D01*
X16601D01*
X18287Y170527D01*
X19910Y171054D01*
X21431Y171829D01*
X22812Y172832D01*
X24018Y174039D01*
X25021Y175420D01*
X25796Y176940D01*
X26324Y178563D01*
X26591Y180249D01*
Y180602D01*
D02*
G37*
G36*
X15248D02*
X4905D01*
Y180249D01*
X5173Y178563D01*
X5700Y176940D01*
X6475Y175420D01*
X7478Y174039D01*
X8685Y172832D01*
X10065Y171829D01*
X11586Y171054D01*
X13209Y170527D01*
X14895Y170260D01*
X15248D01*
Y180602D01*
D02*
G37*
G36*
X167736Y173895D02*
X166595D01*
X165494Y173599D01*
X164506Y173029D01*
X163700Y172223D01*
X163129Y171235D01*
X162834Y170134D01*
Y168993D01*
X163129Y167892D01*
X163700Y166904D01*
X164506Y166098D01*
X165494Y165527D01*
X166595Y165232D01*
X167736D01*
X168837Y165527D01*
X169825Y166098D01*
X170631Y166904D01*
X171201Y167892D01*
X171496Y168993D01*
Y170134D01*
X171201Y171235D01*
X170631Y172223D01*
X169825Y173029D01*
X168837Y173599D01*
X167736Y173895D01*
D02*
G37*
G36*
X108680D02*
X107540D01*
X106439Y173599D01*
X105451Y173029D01*
X104645Y172223D01*
X104074Y171235D01*
X103779Y170134D01*
Y168993D01*
X104074Y167892D01*
X104645Y166904D01*
X105451Y166098D01*
X106439Y165527D01*
X107540Y165232D01*
X108680D01*
X109782Y165527D01*
X110770Y166098D01*
X111576Y166904D01*
X112146Y167892D01*
X112441Y168993D01*
Y170134D01*
X112146Y171235D01*
X111576Y172223D01*
X110770Y173029D01*
X109782Y173599D01*
X108680Y173895D01*
D02*
G37*
G36*
X16372Y157496D02*
X15124D01*
X13918Y157173D01*
X12837Y156549D01*
X11955Y155666D01*
X11331Y154586D01*
X11008Y153380D01*
Y152132D01*
X11331Y150926D01*
X11955Y149845D01*
X12837Y148963D01*
X13918Y148339D01*
X15124Y148016D01*
X16372D01*
X17578Y148339D01*
X18659Y148963D01*
X19541Y149845D01*
X20165Y150926D01*
X20488Y152132D01*
Y153380D01*
X20165Y154586D01*
X19541Y155666D01*
X18659Y156549D01*
X17578Y157173D01*
X16372Y157496D01*
D02*
G37*
G36*
X220488Y143382D02*
X216051D01*
Y141110D01*
X220488D01*
Y143382D01*
D02*
G37*
G36*
X215051D02*
X210614D01*
Y141110D01*
X215051D01*
Y143382D01*
D02*
G37*
G36*
X191442Y151024D02*
X190448D01*
X189529Y150643D01*
X188826Y149940D01*
X188445Y149021D01*
Y148026D01*
X188826Y147108D01*
X189416Y146518D01*
Y145095D01*
X187583D01*
Y138764D01*
X194307D01*
Y145095D01*
X192474D01*
Y146518D01*
X193064Y147108D01*
X193445Y148026D01*
Y149021D01*
X193064Y149940D01*
X192361Y150643D01*
X191442Y151024D01*
D02*
G37*
G36*
X205222Y151024D02*
X204227D01*
X203308Y150643D01*
X202605Y149940D01*
X202224Y149021D01*
Y148026D01*
X202605Y147108D01*
X203195Y146518D01*
Y145095D01*
X201362D01*
Y138764D01*
X208087D01*
Y145095D01*
X206254D01*
Y146518D01*
X206844Y147108D01*
X207224Y148026D01*
Y149021D01*
X206844Y149940D01*
X206140Y150643D01*
X205222Y151024D01*
D02*
G37*
G36*
X144701Y132693D02*
X140067D01*
Y129437D01*
X144701D01*
Y132693D01*
D02*
G37*
G36*
X139067D02*
X134433D01*
Y129437D01*
X139067D01*
Y132693D01*
D02*
G37*
G36*
X144701Y128437D02*
X140067D01*
Y125181D01*
X144701D01*
Y128437D01*
D02*
G37*
G36*
X139067D02*
X134433D01*
Y125181D01*
X139067D01*
Y128437D01*
D02*
G37*
G36*
X121473Y132693D02*
X111205D01*
Y125181D01*
X121473D01*
Y132693D01*
D02*
G37*
G36*
X194307Y136827D02*
X187583D01*
Y130496D01*
X189416D01*
Y128876D01*
X188826Y128286D01*
X188445Y127367D01*
Y126373D01*
X188826Y125454D01*
X189529Y124751D01*
X190448Y124370D01*
X191442D01*
X192361Y124751D01*
X193064Y125454D01*
X193445Y126373D01*
Y127367D01*
X193064Y128286D01*
X192474Y128876D01*
Y130496D01*
X194307D01*
Y136827D01*
D02*
G37*
G36*
X208087Y136827D02*
X201362D01*
Y130496D01*
X203195D01*
Y128876D01*
X202605Y128286D01*
X202224Y127367D01*
Y126373D01*
X202605Y125454D01*
X203308Y124751D01*
X204227Y124370D01*
X205222D01*
X206140Y124751D01*
X206844Y125454D01*
X207224Y126373D01*
Y127367D01*
X206844Y128286D01*
X206254Y128876D01*
Y130496D01*
X208087D01*
Y136827D01*
D02*
G37*
G36*
X45882Y121866D02*
X26165D01*
Y114354D01*
X45882D01*
Y116581D01*
X49864D01*
X50454Y115991D01*
X51373Y115610D01*
X52367D01*
X53286Y115991D01*
X53989Y116694D01*
X54370Y117613D01*
Y118607D01*
X53989Y119526D01*
X53286Y120230D01*
X52367Y120610D01*
X51373D01*
X50454Y120230D01*
X49864Y119640D01*
X45882D01*
Y121866D01*
D02*
G37*
G36*
Y102181D02*
X36524D01*
Y98925D01*
X45882D01*
Y102181D01*
D02*
G37*
G36*
X35524D02*
X26165D01*
Y98925D01*
X35524D01*
Y102181D01*
D02*
G37*
G36*
X45882Y97925D02*
X36524D01*
Y94669D01*
X45882D01*
Y97925D01*
D02*
G37*
G36*
X35524D02*
X26165D01*
Y94669D01*
X35524D01*
Y97925D01*
D02*
G37*
G36*
X16372Y88205D02*
X15124D01*
X13918Y87882D01*
X12837Y87258D01*
X11955Y86375D01*
X11331Y85294D01*
X11008Y84089D01*
Y82841D01*
X11331Y81635D01*
X11955Y80554D01*
X12837Y79672D01*
X13918Y79048D01*
X15124Y78724D01*
X16372D01*
X17578Y79048D01*
X18659Y79672D01*
X19541Y80554D01*
X20165Y81635D01*
X20488Y82841D01*
Y84089D01*
X20165Y85294D01*
X19541Y86375D01*
X18659Y87258D01*
X17578Y87882D01*
X16372Y88205D01*
D02*
G37*
G36*
X62221Y74303D02*
X59850D01*
Y71146D01*
X62221D01*
Y74303D01*
D02*
G37*
G36*
X75894Y64605D02*
Y62606D01*
X77893D01*
X77513Y63522D01*
X76810Y64226D01*
X75894Y64605D01*
D02*
G37*
G36*
X74894D02*
X73978Y64226D01*
X73274Y63522D01*
X72895Y62606D01*
X74894D01*
Y64605D01*
D02*
G37*
G36*
X77893Y61606D02*
X75894D01*
Y59607D01*
X76810Y59987D01*
X77513Y60690D01*
X77893Y61606D01*
D02*
G37*
G36*
X74894D02*
X72895D01*
X73274Y60690D01*
X73978Y59987D01*
X74894Y59607D01*
Y61606D01*
D02*
G37*
G36*
X16601Y26591D02*
X16248D01*
Y16248D01*
X26591D01*
Y16601D01*
X26324Y18287D01*
X25796Y19910D01*
X25021Y21431D01*
X24018Y22812D01*
X22812Y24018D01*
X21431Y25021D01*
X19910Y25796D01*
X18287Y26324D01*
X16601Y26591D01*
D02*
G37*
G36*
X15248D02*
X14895D01*
X13209Y26324D01*
X11586Y25796D01*
X10065Y25021D01*
X8685Y24018D01*
X7478Y22812D01*
X6475Y21431D01*
X5700Y19910D01*
X5173Y18287D01*
X4905Y16601D01*
Y16248D01*
X15248D01*
Y26591D01*
D02*
G37*
G36*
X75297Y12171D02*
X72494D01*
Y8128D01*
X75297D01*
Y12171D01*
D02*
G37*
G36*
X26591Y15248D02*
X16248D01*
Y4905D01*
X16601D01*
X18287Y5173D01*
X19910Y5700D01*
X21431Y6475D01*
X22812Y7478D01*
X24018Y8685D01*
X25021Y10065D01*
X25796Y11586D01*
X26324Y13209D01*
X26591Y14895D01*
Y15248D01*
D02*
G37*
G36*
X15248D02*
X4905D01*
Y14895D01*
X5173Y13209D01*
X5700Y11586D01*
X6475Y10065D01*
X7478Y8685D01*
X8685Y7478D01*
X10065Y6475D01*
X11586Y5700D01*
X13209Y5173D01*
X14895Y4905D01*
X15248D01*
Y15248D01*
D02*
G37*
G36*
X286531Y188598D02*
X282980D01*
Y185343D01*
X286531D01*
Y188598D01*
D02*
G37*
G36*
X281980D02*
X278429D01*
Y185343D01*
X281980D01*
Y188598D01*
D02*
G37*
G36*
X300066Y191945D02*
X299713D01*
Y181602D01*
X310055D01*
Y181956D01*
X309788Y183641D01*
X309261Y185264D01*
X308486Y186785D01*
X307483Y188166D01*
X306276Y189373D01*
X304895Y190376D01*
X303375Y191150D01*
X301752Y191678D01*
X300066Y191945D01*
D02*
G37*
G36*
X298713D02*
X298359D01*
X296674Y191678D01*
X295051Y191150D01*
X293530Y190376D01*
X292149Y189373D01*
X290942Y188166D01*
X289939Y186785D01*
X289164Y185264D01*
X288637Y183641D01*
X288370Y181956D01*
Y181602D01*
X298713D01*
Y191945D01*
D02*
G37*
G36*
X310055Y180602D02*
X299713D01*
Y170260D01*
X300066D01*
X301752Y170527D01*
X303375Y171054D01*
X304895Y171829D01*
X306276Y172832D01*
X307483Y174039D01*
X308486Y175420D01*
X309261Y176940D01*
X309788Y178563D01*
X310055Y180249D01*
Y180602D01*
D02*
G37*
G36*
X298713D02*
X288370D01*
Y180249D01*
X288637Y178563D01*
X289164Y176940D01*
X289939Y175420D01*
X290942Y174039D01*
X292149Y172832D01*
X293530Y171829D01*
X295051Y171054D01*
X296674Y170527D01*
X298359Y170260D01*
X298713D01*
Y180602D01*
D02*
G37*
G36*
X285835Y169012D02*
Y165854D01*
X288205D01*
Y169012D01*
X285835D01*
D02*
G37*
G36*
X288205Y164854D02*
X285835D01*
Y161697D01*
X288205D01*
Y164854D01*
D02*
G37*
G36*
X287260Y156512D02*
X284988D01*
Y152075D01*
X287260D01*
Y156512D01*
D02*
G37*
G36*
Y151075D02*
X284988D01*
Y146638D01*
X287260D01*
Y151075D01*
D02*
G37*
G36*
X151481Y192854D02*
X150487D01*
X149568Y192474D01*
X148978Y191884D01*
X142618D01*
X142033Y191767D01*
X141537Y191436D01*
X132930Y182829D01*
X124354D01*
X118839Y188344D01*
Y189178D01*
X118458Y190097D01*
X117755Y190800D01*
X116836Y191181D01*
X115841D01*
X114922Y190800D01*
X114219Y190097D01*
X113839Y189178D01*
Y188184D01*
X114219Y187265D01*
X114922Y186562D01*
X115841Y186181D01*
X116676D01*
X122639Y180218D01*
X123135Y179886D01*
X123721Y179770D01*
X133563D01*
X134148Y179886D01*
X134644Y180218D01*
X143252Y188825D01*
X148978D01*
X149568Y188235D01*
X150487Y187854D01*
X151481D01*
X152400Y188235D01*
X153104Y188938D01*
X153484Y189857D01*
Y190852D01*
X153104Y191771D01*
X152400Y192474D01*
X151481Y192854D01*
D02*
G37*
G36*
X207089Y51220D02*
X204929D01*
Y48925D01*
X208307D01*
Y50002D01*
X208214Y50468D01*
X207950Y50863D01*
X207555Y51127D01*
X207089Y51220D01*
D02*
G37*
G36*
X203929D02*
X201770D01*
X201304Y51127D01*
X200908Y50863D01*
X200644Y50468D01*
X200551Y50002D01*
Y48925D01*
X203929D01*
Y51220D01*
D02*
G37*
G36*
X198539Y48146D02*
X195382D01*
Y45776D01*
X198539D01*
Y48146D01*
D02*
G37*
G36*
X194382D02*
X191224D01*
Y45776D01*
X194382D01*
Y48146D01*
D02*
G37*
G36*
X265362Y48933D02*
Y45776D01*
X267732D01*
Y48933D01*
X265362D01*
D02*
G37*
G36*
X208307Y47925D02*
X204929D01*
Y45630D01*
X207089D01*
X207555Y45723D01*
X207950Y45987D01*
X208214Y46382D01*
X208307Y46848D01*
Y47925D01*
D02*
G37*
G36*
X203929D02*
X200551D01*
Y46848D01*
X200644Y46382D01*
X200908Y45987D01*
X201304Y45723D01*
X201770Y45630D01*
X203929D01*
Y47925D01*
D02*
G37*
G36*
X267732Y44776D02*
X265362D01*
Y41618D01*
X267732D01*
Y44776D01*
D02*
G37*
G36*
X265362Y40272D02*
Y37114D01*
X267732D01*
Y40272D01*
X265362D01*
D02*
G37*
G36*
X282488Y37833D02*
Y35835D01*
X284487D01*
X284108Y36751D01*
X283404Y37454D01*
X282488Y37833D01*
D02*
G37*
G36*
X281488D02*
X280572Y37454D01*
X279869Y36751D01*
X279489Y35835D01*
X281488D01*
Y37833D01*
D02*
G37*
G36*
X267732Y36114D02*
X265362D01*
Y32957D01*
X267732D01*
Y36114D01*
D02*
G37*
G36*
X284487Y34835D02*
X282488D01*
Y32836D01*
X283404Y33215D01*
X284108Y33918D01*
X284487Y34835D01*
D02*
G37*
G36*
X281488D02*
X279489D01*
X279869Y33918D01*
X280572Y33215D01*
X281488Y32836D01*
Y34835D01*
D02*
G37*
G36*
X265567Y31512D02*
X262311D01*
Y28059D01*
X265567D01*
Y31512D01*
D02*
G37*
G36*
X261311D02*
X258055D01*
Y28059D01*
X261311D01*
Y31512D01*
D02*
G37*
G36*
X265567Y27059D02*
X262311D01*
Y23606D01*
X265567D01*
Y27059D01*
D02*
G37*
G36*
X261311D02*
X258055D01*
Y23606D01*
X261311D01*
Y27059D01*
D02*
G37*
G36*
X247236Y132890D02*
X244118D01*
Y129772D01*
X247236D01*
Y132890D01*
D02*
G37*
G36*
X265803D02*
X262685D01*
Y129772D01*
X265803D01*
Y132890D01*
D02*
G37*
G36*
X261685D02*
X255461D01*
Y129272D01*
X254461D01*
Y132890D01*
X248236D01*
Y129272D01*
X247736D01*
Y128772D01*
X244118D01*
Y125654D01*
Y122547D01*
X247736D01*
Y121547D01*
X244118D01*
Y118429D01*
Y115323D01*
X247736D01*
Y114823D01*
X248236D01*
Y111205D01*
X254461D01*
Y114823D01*
X255461D01*
Y111205D01*
X261685D01*
Y114823D01*
X262185D01*
Y115323D01*
X265803D01*
Y118429D01*
Y121547D01*
X262185D01*
Y122547D01*
X265803D01*
Y125654D01*
Y128772D01*
X262185D01*
Y129272D01*
X261685D01*
Y132890D01*
D02*
G37*
G36*
X265803Y114323D02*
X262685D01*
Y111205D01*
X265803D01*
Y114323D01*
D02*
G37*
G36*
X247236Y114323D02*
X244118D01*
Y111205D01*
X247236D01*
Y114323D01*
D02*
G37*
G36*
X269004Y66869D02*
Y64870D01*
X271003D01*
X270623Y65786D01*
X269920Y66489D01*
X269004Y66869D01*
D02*
G37*
G36*
X268004D02*
X267088Y66489D01*
X266385Y65786D01*
X266005Y64870D01*
X268004D01*
Y66869D01*
D02*
G37*
G36*
X271003Y63870D02*
X269004D01*
Y61871D01*
X269920Y62251D01*
X270623Y62954D01*
X271003Y63870D01*
D02*
G37*
G36*
X85646Y132693D02*
X81012D01*
Y129437D01*
X85646D01*
Y132693D01*
D02*
G37*
G36*
X80012D02*
X75378D01*
Y129437D01*
X80012D01*
Y132693D01*
D02*
G37*
G36*
X85646Y128437D02*
X81012D01*
Y125181D01*
X85646D01*
Y128437D01*
D02*
G37*
G36*
X80012D02*
X75378D01*
Y125181D01*
X80012D01*
Y128437D01*
D02*
G37*
G36*
X90425Y94134D02*
X89838D01*
X89372Y94041D01*
X88978Y93778D01*
X88715Y93383D01*
X88680Y93209D01*
X88170D01*
X88136Y93383D01*
X87872Y93778D01*
X87478Y94041D01*
X87013Y94134D01*
X84838D01*
X84373Y94041D01*
X83978Y93778D01*
X83715Y93383D01*
X83680Y93209D01*
X83170D01*
X83136Y93383D01*
X82872Y93778D01*
X82478Y94041D01*
X82013Y94134D01*
X79838D01*
X79373Y94041D01*
X78978Y93778D01*
X78715Y93383D01*
X78622Y92918D01*
Y86806D01*
X78715Y86341D01*
X78978Y85947D01*
X79373Y85683D01*
X79838Y85591D01*
X82013D01*
X82478Y85683D01*
X82872Y85947D01*
X83136Y86341D01*
X83170Y86516D01*
X83680D01*
X83715Y86341D01*
X83978Y85947D01*
X84373Y85683D01*
X84838Y85591D01*
X87013D01*
X87478Y85683D01*
X87872Y85947D01*
X88136Y86341D01*
X88170Y86516D01*
X88680D01*
X88715Y86341D01*
X88978Y85947D01*
X89372Y85683D01*
X89838Y85591D01*
X90425D01*
Y89862D01*
Y94134D01*
D02*
G37*
G36*
X74524Y84563D02*
X71366D01*
Y82193D01*
X74524D01*
Y84563D01*
D02*
G37*
G36*
X70366D02*
X67209D01*
Y82193D01*
X70366D01*
Y84563D01*
D02*
G37*
G36*
X133358D02*
X130201D01*
Y82193D01*
X133358D01*
Y84563D01*
D02*
G37*
G36*
X117013Y71890D02*
X116425D01*
Y68118D01*
X118228D01*
Y70674D01*
X118136Y71139D01*
X117872Y71534D01*
X117478Y71797D01*
X117013Y71890D01*
D02*
G37*
G36*
X118228Y67118D02*
X116425D01*
Y63347D01*
X117013D01*
X117478Y63439D01*
X117872Y63703D01*
X118136Y64097D01*
X118228Y64562D01*
Y67118D01*
D02*
G37*
G36*
X124415Y47998D02*
X117691D01*
Y42061D01*
X124415D01*
Y47998D01*
D02*
G37*
G36*
X174696Y46394D02*
X174516D01*
Y39988D01*
X180921D01*
Y40168D01*
X180656Y41502D01*
X180135Y42759D01*
X179380Y43890D01*
X178418Y44852D01*
X177287Y45608D01*
X176030Y46128D01*
X174696Y46394D01*
D02*
G37*
G36*
X173516D02*
X173336D01*
X172002Y46128D01*
X170745Y45608D01*
X169614Y44852D01*
X168652Y43890D01*
X167896Y42759D01*
X167376Y41502D01*
X167110Y40168D01*
Y39988D01*
X173516D01*
Y46394D01*
D02*
G37*
G36*
X140445D02*
X140265D01*
X138931Y46128D01*
X137674Y45608D01*
X136543Y44852D01*
X135581Y43890D01*
X134825Y42759D01*
X134305Y41502D01*
X134039Y40168D01*
Y39988D01*
X140445D01*
Y46394D01*
D02*
G37*
G36*
X164279Y39088D02*
Y36445D01*
X166923D01*
X166729Y37167D01*
X166312Y37889D01*
X165723Y38478D01*
X165001Y38895D01*
X164279Y39088D01*
D02*
G37*
G36*
X166923Y35445D02*
X164279D01*
Y32802D01*
X165001Y32995D01*
X165723Y33412D01*
X166312Y34001D01*
X166729Y34723D01*
X166923Y35445D01*
D02*
G37*
G36*
X173516Y38988D02*
X167110D01*
Y38808D01*
X167376Y37474D01*
X167896Y36217D01*
X168652Y35086D01*
X169614Y34124D01*
X170745Y33369D01*
X172002Y32848D01*
X173336Y32583D01*
X173516D01*
Y38988D01*
D02*
G37*
G36*
X147850D02*
X141445D01*
Y32583D01*
X141625D01*
X142959Y32848D01*
X144216Y33369D01*
X145347Y34124D01*
X146309Y35086D01*
X147064Y36217D01*
X147585Y37474D01*
X147850Y38808D01*
Y38988D01*
D02*
G37*
G36*
X140445D02*
X134039D01*
Y38808D01*
X134305Y37474D01*
X134825Y36217D01*
X135581Y35086D01*
X136543Y34124D01*
X137674Y33369D01*
X138931Y32848D01*
X140265Y32583D01*
X140445D01*
Y38988D01*
D02*
G37*
G36*
X124415Y33431D02*
X117691D01*
Y27494D01*
X124415D01*
Y33431D01*
D02*
G37*
G36*
X144775Y27279D02*
X142405D01*
Y24122D01*
X144775D01*
Y27279D01*
D02*
G37*
G36*
X210835Y23343D02*
Y20185D01*
X213205D01*
Y23343D01*
X210835D01*
D02*
G37*
G36*
X144775Y23122D02*
X142405D01*
Y19965D01*
X144775D01*
Y23122D01*
D02*
G37*
G36*
X300066Y26591D02*
X299713D01*
Y16248D01*
X310055D01*
Y16601D01*
X309788Y18287D01*
X309261Y19910D01*
X308486Y21431D01*
X307483Y22812D01*
X306276Y24018D01*
X304895Y25021D01*
X303375Y25796D01*
X301752Y26324D01*
X300066Y26591D01*
D02*
G37*
G36*
X298713D02*
X298359D01*
X296674Y26324D01*
X295051Y25796D01*
X293530Y25021D01*
X292149Y24018D01*
X290942Y22812D01*
X289939Y21431D01*
X289164Y19910D01*
X288637Y18287D01*
X288370Y16601D01*
Y16248D01*
X298713D01*
Y26591D01*
D02*
G37*
G36*
X213205Y19185D02*
X210835D01*
Y16028D01*
X213205D01*
Y19185D01*
D02*
G37*
G36*
X265567Y15248D02*
X262311D01*
Y11795D01*
X265567D01*
Y15248D01*
D02*
G37*
G36*
X261311D02*
X258055D01*
Y11795D01*
X261311D01*
Y15248D01*
D02*
G37*
G36*
X277075Y13522D02*
Y11524D01*
X279074D01*
X278694Y12440D01*
X277991Y13143D01*
X277075Y13522D01*
D02*
G37*
G36*
X276075D02*
X275159Y13143D01*
X274455Y12440D01*
X274076Y11524D01*
X276075D01*
Y13522D01*
D02*
G37*
G36*
X279074Y10524D02*
X277075D01*
Y8525D01*
X277991Y8904D01*
X278694Y9607D01*
X279074Y10524D01*
D02*
G37*
G36*
X276075D02*
X274076D01*
X274455Y9607D01*
X275159Y8904D01*
X276075Y8525D01*
Y10524D01*
D02*
G37*
G36*
X124415Y10400D02*
X120864D01*
Y7242D01*
X124415D01*
Y10400D01*
D02*
G37*
G36*
X119864D02*
X116313D01*
Y7242D01*
X119864D01*
Y10400D01*
D02*
G37*
G36*
X310055Y15248D02*
X299713D01*
Y4905D01*
X300066D01*
X301752Y5173D01*
X303375Y5700D01*
X304895Y6475D01*
X306276Y7478D01*
X307483Y8685D01*
X308486Y10065D01*
X309261Y11586D01*
X309788Y13209D01*
X310055Y14895D01*
Y15248D01*
D02*
G37*
G36*
X298713D02*
X288370D01*
Y14895D01*
X288637Y13209D01*
X289164Y11586D01*
X289939Y10065D01*
X290942Y8685D01*
X292149Y7478D01*
X293530Y6475D01*
X295051Y5700D01*
X296674Y5173D01*
X298359Y4905D01*
X298713D01*
Y15248D01*
D02*
G37*
%LPD*%
D15*
X271299Y165354D02*
X279429D01*
X254961Y114823D02*
Y122047D01*
X262185D01*
X254961D02*
Y129272D01*
X247736Y122047D02*
X254961D01*
X59252Y84646D02*
X59350Y84547D01*
Y74803D02*
Y84547D01*
X264173Y60039D02*
X268504Y64370D01*
X261516Y60039D02*
X264173D01*
X60039D02*
X64665D01*
X59055Y59055D02*
X60039Y60039D01*
X59055Y59055D02*
X60039Y58071D01*
Y53445D02*
Y58071D01*
X58071D02*
X59055Y59055D01*
X53445Y58071D02*
X58071D01*
X256890Y60039D02*
X261516D01*
X255906Y59055D02*
X256890Y60039D01*
X250295Y58071D02*
X254921D01*
X255906Y59055D01*
X254921Y60039D02*
X255906Y59055D01*
X254921Y60039D02*
Y64665D01*
X90945Y56354D02*
X97687Y49611D01*
X90945Y56354D02*
Y59842D01*
X80925Y67618D02*
X80965Y67579D01*
Y59980D02*
Y67579D01*
Y59980D02*
X81004Y59941D01*
X97687Y6250D02*
Y49611D01*
X128937Y125925D02*
Y134055D01*
X36024Y118110D02*
X36024Y118110D01*
X51870D01*
X66929Y90453D02*
Y134055D01*
X63878Y87402D02*
X66929Y90453D01*
X63878Y77756D02*
Y87402D01*
X65847Y75787D02*
X70866D01*
X63878Y77756D02*
X65847Y75787D01*
X228642Y37394D02*
Y39370D01*
Y25591D02*
Y37394D01*
X232677Y21555D02*
X282480D01*
X228642Y25591D02*
X232677Y21555D01*
X273704Y177362D02*
X282480D01*
X265905Y169563D02*
X273704Y177362D01*
X150591Y141535D02*
X155709Y146653D01*
X175394D01*
X128937Y141535D02*
X150591D01*
X116339Y139862D02*
Y146653D01*
X113976Y137500D02*
X116339Y139862D01*
X107776Y137500D02*
X113976D01*
X104232Y133957D02*
X107776Y137500D01*
X104232Y126181D02*
Y133957D01*
Y126181D02*
X112008Y118405D01*
X141339D01*
X148327Y125394D01*
Y131890D01*
X153543Y137106D01*
X174705D01*
X49055Y142972D02*
Y169563D01*
Y142972D02*
X57972Y134055D01*
X66929D01*
X94291Y141535D02*
X99410Y146653D01*
X116339D01*
X66929Y141535D02*
X94291D01*
X234946Y61423D02*
X236521D01*
X231890Y58366D02*
X234946Y61423D01*
X236521D02*
X239961Y64862D01*
X231890Y55020D02*
X234449Y52461D01*
X231890Y55020D02*
Y58366D01*
X234449Y52461D02*
X244907D01*
X248942Y48425D02*
X251969D01*
X244907Y52461D02*
X248942Y48425D01*
X276870Y73425D02*
X279488Y76043D01*
X274488Y76516D02*
Y84646D01*
X279429Y165354D02*
X279488Y165295D01*
Y151575D02*
Y165295D01*
X155020Y99410D02*
X158169D01*
X163730Y93848D01*
Y88090D02*
Y93848D01*
X44390Y73130D02*
X46063Y74803D01*
X53445D01*
X44390Y67126D02*
Y73130D01*
X192421Y30315D02*
X204429D01*
X180910Y23622D02*
Y34650D01*
X184350Y38091D02*
Y44980D01*
X180910Y34650D02*
X184350Y38091D01*
X176673Y52658D02*
X184350Y44980D01*
X161417Y52658D02*
X176673D01*
X156230Y57845D02*
X161417Y52658D01*
X156230Y57845D02*
Y69390D01*
X63779Y31496D02*
X71850D01*
X58071Y37205D02*
X63779Y31496D01*
X58071Y37205D02*
Y53445D01*
X62008Y41142D02*
X64764Y38386D01*
X71850D01*
X62008Y41142D02*
Y53445D01*
X36024Y137795D02*
X36024Y137795D01*
X22343Y137795D02*
X36024D01*
X19390Y134843D02*
X22343Y137795D01*
X19390Y115059D02*
Y134843D01*
Y115059D02*
X26673Y107776D01*
X49902D01*
X53543Y94488D02*
Y104134D01*
X49902Y107776D02*
X53543Y104134D01*
X59744Y89468D02*
X60630Y90354D01*
Y94488D01*
X56382Y88883D02*
X56968Y89468D01*
X59744D01*
X56382Y71830D02*
Y88883D01*
Y71830D02*
X56496Y71716D01*
Y70571D02*
Y71716D01*
Y70571D02*
X58268Y68799D01*
X62697D02*
X64665Y66831D01*
X58268Y68799D02*
X62697D01*
X53347Y94291D02*
X53543Y94488D01*
X53347Y84646D02*
Y94291D01*
X53445Y74803D02*
Y84547D01*
X53347Y84646D02*
X53445Y84547D01*
X258858Y45276D02*
Y53445D01*
X53445Y65650D02*
Y74803D01*
X64665Y62008D02*
Y66831D01*
X53445Y65650D02*
X54429Y64665D01*
X56102D01*
X126476Y60630D02*
X126575Y60728D01*
X112795Y60630D02*
X126476D01*
X110925Y62500D02*
X112795Y60630D01*
X64665Y56102D02*
X75590D01*
X139272Y95768D02*
X142618Y99114D01*
X249311Y36614D02*
X258957D01*
X206791Y8465D02*
X218602D01*
X204429Y10827D02*
X206791Y8465D01*
X204429Y10827D02*
Y19685D01*
X239961Y64862D02*
X242815Y62008D01*
X226378Y60925D02*
X230020D01*
X246358Y70079D02*
X249705Y73425D01*
X230020Y60925D02*
X239173Y70079D01*
X246358D01*
X226378Y65847D02*
X230217D01*
X243799Y71949D02*
X249488Y77638D01*
X230217Y65847D02*
X236319Y71949D01*
X243799D01*
X226378Y70965D02*
X231398D01*
X241240Y74016D02*
X244488Y77264D01*
X234449Y74016D02*
X241240D01*
X231398Y70965D02*
X234449Y74016D01*
X258858Y45276D02*
X258957D01*
X248622D02*
X258858D01*
X244882Y49016D02*
X248622Y45276D01*
X239173Y49016D02*
X244882D01*
X239173Y56102D02*
X250295D01*
X168701Y179232D02*
X184449Y163484D01*
X224803D01*
X157480Y179232D02*
X168701D01*
X147811Y169563D02*
X157480Y179232D01*
X128110Y169563D02*
X147811D01*
X232677Y160827D02*
X235335Y163484D01*
X241240D01*
X244488Y160236D01*
Y151575D02*
Y160236D01*
X89551Y190059D02*
X95177D01*
X69055Y169563D02*
X89551Y190059D01*
X123721Y181299D02*
X133563D01*
X116339Y188681D02*
X123721Y181299D01*
X142618Y190354D02*
X150984D01*
X133563Y181299D02*
X142618Y190354D01*
X108110Y189563D02*
X128110Y169563D01*
X49055Y189563D02*
X69055Y169563D01*
X175098Y189272D02*
X181299Y183071D01*
X193209D01*
X200197Y190059D02*
X222441D01*
X193209Y183071D02*
X200197Y190059D01*
X187165Y169563D02*
X201066Y183465D01*
X222539D01*
X248031Y182283D02*
X259488Y170827D01*
X244193Y182283D02*
X248031D01*
X259488Y151575D02*
Y170827D01*
X245866Y176476D02*
X252165Y170177D01*
Y163681D02*
Y170177D01*
X249488Y151575D02*
Y161004D01*
X252165Y163681D01*
X229488Y151575D02*
Y173146D01*
X245905Y189563D01*
X167165D02*
X187165Y169563D01*
X190945Y141929D02*
Y148524D01*
X204724Y141929D02*
Y148524D01*
X190945Y126870D02*
Y133661D01*
X204724Y126870D02*
Y133661D01*
X184252Y126083D02*
Y132480D01*
X181398Y135335D02*
X184252Y132480D01*
X182087Y125787D02*
Y132087D01*
X180709Y133465D02*
X182087Y132087D01*
X191526Y114173D02*
Y118809D01*
X184252Y126083D02*
X191526Y118809D01*
X188976Y109744D02*
Y118898D01*
X182087Y125787D02*
X188976Y118898D01*
X191575Y102411D02*
Y107146D01*
X188976Y109744D02*
X191575Y107146D01*
X178347Y133465D02*
X180709D01*
X174705Y137106D02*
X178347Y133465D01*
X175394Y139764D02*
X179823Y135335D01*
X175394Y139764D02*
Y146653D01*
X179823Y135335D02*
X181398D01*
X161221Y122441D02*
X169390D01*
X146230Y107451D02*
X161221Y122441D01*
X146230Y88090D02*
Y107451D01*
X161244Y75319D02*
X163287Y77362D01*
X179528D01*
X161244Y69404D02*
Y75319D01*
X161230Y69390D02*
X161244Y69404D01*
X139272Y81595D02*
X142323Y78543D01*
X139272Y81595D02*
Y95768D01*
X142323Y78543D02*
X150492D01*
X153730Y75305D01*
Y69390D02*
Y75305D01*
X258957Y36614D02*
Y45276D01*
X256890Y53445D02*
X258858D01*
X56102Y64665D02*
X58071D01*
X251378Y69538D02*
Y69882D01*
Y69538D02*
X252953Y67963D01*
Y64665D02*
Y67963D01*
X249705Y73425D02*
X276870D01*
X256890Y64665D02*
Y69882D01*
X259488Y76516D02*
Y84646D01*
X244094Y98425D02*
Y101181D01*
X250000Y98425D02*
Y101575D01*
X239488Y112087D02*
X250000Y101575D01*
X257087Y102264D02*
X265059D01*
X234488Y110787D02*
Y151575D01*
Y110787D02*
X244094Y101181D01*
X239488Y112087D02*
Y151575D01*
X191575Y102411D02*
X206644D01*
X206693Y102461D01*
X274488Y111693D02*
Y151575D01*
X265059Y102264D02*
X274488Y111693D01*
X191526Y114173D02*
X202953D01*
X194193Y74705D02*
X205709D01*
X215650Y84646D01*
X219488D01*
X186427Y87018D02*
Y100394D01*
X181520Y82110D02*
X186427Y87018D01*
X166816Y82110D02*
X181520D01*
X166230Y82696D02*
Y88090D01*
Y82696D02*
X166816Y82110D01*
X164173Y114173D02*
X168701D01*
X162303Y112303D02*
X164173Y114173D01*
X162303Y98425D02*
Y112303D01*
Y98425D02*
X166230Y94498D01*
Y88090D02*
Y94498D01*
X168730Y88090D02*
Y102333D01*
X168701Y102362D02*
X168730Y102333D01*
X180512Y102362D02*
X182480Y104331D01*
X186427D01*
X176181Y102362D02*
X180512D01*
X183366Y112205D02*
X186427D01*
X182382Y111221D02*
X183366Y112205D01*
X180709Y108268D02*
X182382Y109941D01*
Y111221D01*
X170276Y108268D02*
X180709D01*
X168701Y106693D02*
X170276Y108268D01*
X168701Y102362D02*
Y106693D01*
X180610Y114173D02*
X182579Y116142D01*
X186427D01*
X176181Y114173D02*
X180610D01*
X90925Y74980D02*
X95571Y79626D01*
X90925Y67618D02*
Y74980D01*
X84695Y38829D02*
X88878Y43012D01*
X84695Y6250D02*
Y38829D01*
X100925Y59390D02*
Y67618D01*
X110925Y62500D02*
Y67618D01*
X132185Y60433D02*
X137894D01*
X124311Y68307D02*
X132185Y60433D01*
X124311Y68307D02*
Y73721D01*
X115925Y82106D02*
Y89862D01*
Y82106D02*
X124311Y73721D01*
X120571Y96260D02*
X122244Y97933D01*
Y102362D01*
X112697Y96260D02*
X120571D01*
X110925Y94488D02*
X112697Y96260D01*
X110925Y89862D02*
Y94488D01*
X103405Y102362D02*
X113976D01*
X95925Y98071D02*
Y102362D01*
Y98071D02*
X97539Y96457D01*
X101378D01*
X103445Y94390D01*
Y82382D02*
Y94390D01*
Y82382D02*
X105925Y79902D01*
Y67618D02*
Y79902D01*
X279488Y76043D02*
Y84646D01*
X249488Y77638D02*
Y84646D01*
X244488Y77264D02*
Y84646D01*
X242815Y62008D02*
X250295D01*
X226378Y75886D02*
X236811D01*
X239488Y78563D02*
Y84646D01*
X236811Y75886D02*
X239488Y78563D01*
X245905Y189563D02*
X265905Y169563D01*
X105925Y58976D02*
Y67618D01*
X101575Y54626D02*
X105925Y58976D01*
X101575Y36319D02*
Y54626D01*
Y36319D02*
X106348Y31545D01*
Y6250D02*
Y31545D01*
X102018Y6250D02*
Y31939D01*
X95925Y56043D02*
X99410Y52559D01*
Y34547D02*
X102018Y31939D01*
X99410Y34547D02*
Y52559D01*
X95925Y56043D02*
Y67618D01*
X85925Y59252D02*
Y67618D01*
Y59252D02*
X93356Y51821D01*
Y6250D02*
Y51821D01*
X70866Y70768D02*
X74016Y67618D01*
X70866Y70768D02*
Y75787D01*
X74016Y67618D02*
X80925D01*
X264488Y84646D02*
Y90531D01*
X262303Y92716D02*
X264488Y90531D01*
X223721Y92716D02*
X262303D01*
X221752Y90748D02*
X223721Y92716D01*
X212303Y90748D02*
X221752D01*
X208563Y87008D02*
X212303Y90748D01*
X208563Y82874D02*
Y87008D01*
X204331Y78642D02*
X208563Y82874D01*
X187894Y78642D02*
X204331D01*
X203051Y80610D02*
X206496Y84055D01*
Y88189D01*
X210925Y92618D01*
X220472D01*
X222244Y94390D01*
X264764D01*
X178642Y69390D02*
X187894Y78642D01*
X168730Y69390D02*
X178642D01*
X269488Y84646D02*
Y89665D01*
X264764Y94390D02*
X269488Y89665D01*
X163091Y80610D02*
X203051D01*
X161230Y82471D02*
X163091Y80610D01*
X161230Y82471D02*
Y88090D01*
X151230Y69390D02*
X153730D01*
X151230D02*
Y74360D01*
X149803Y75787D02*
X151230Y74360D01*
X133858Y75787D02*
X149803D01*
X204429Y30315D02*
X211516D01*
X226083Y15748D01*
X231693D01*
X239173D02*
X250000D01*
X239173Y27559D02*
X250000D01*
X228642Y37394D02*
X230996Y35039D01*
X239173D01*
X156230Y76801D02*
X157677Y78248D01*
X156230Y69390D02*
Y76801D01*
X146230Y58789D02*
Y69390D01*
X148721Y41831D02*
Y56299D01*
X146230Y58789D02*
X148721Y56299D01*
Y41831D02*
X150492Y40059D01*
X152513D01*
X156627Y35945D01*
X157480D01*
X148730Y59242D02*
Y69390D01*
X154331Y43425D02*
Y53642D01*
X148730Y59242D02*
X154331Y53642D01*
X282480Y21555D02*
X304528Y43602D01*
Y71260D01*
X301083Y74705D02*
X304528Y71260D01*
X292520Y74705D02*
X301083D01*
X287674Y79551D02*
Y125417D01*
Y79551D02*
X292520Y74705D01*
X279488Y133602D02*
X287674Y125417D01*
X279488Y133602D02*
Y151575D01*
X204429Y39370D02*
X228642D01*
X194882D02*
X204429D01*
Y19685D02*
Y30315D01*
X204429Y19685D02*
X204429Y19685D01*
X195374Y19685D02*
X204429D01*
X180910Y23622D02*
X191437D01*
X195374Y19685D01*
X151181Y23622D02*
X151181Y23622D01*
Y35945D01*
X151181Y23622D02*
X161610D01*
X261713Y58102D02*
X276311D01*
X261516Y56102D02*
X276476D01*
X276311Y58102D02*
X282264Y64055D01*
X278524Y54055D02*
X299213D01*
X276476Y56102D02*
X278524Y54055D01*
X282264Y64055D02*
X299213D01*
X38996D02*
X41043Y62008D01*
X15748Y64055D02*
X38996D01*
X41043Y62008D02*
X53445D01*
X35256Y54055D02*
X41209Y60008D01*
X53248D01*
X15748Y54055D02*
X35256D01*
D17*
X282480Y184843D02*
D03*
Y177362D02*
D03*
X128937Y141535D02*
D03*
Y134055D02*
D03*
X66929Y141535D02*
D03*
Y134055D02*
D03*
X239173Y27559D02*
D03*
Y35039D02*
D03*
D18*
X285335Y165354D02*
D03*
X279429D02*
D03*
X59252Y84646D02*
D03*
X53347D02*
D03*
X59350Y74803D02*
D03*
X53445D02*
D03*
X264862Y36614D02*
D03*
X258957D02*
D03*
X264862Y45276D02*
D03*
X258957D02*
D03*
X210335Y19685D02*
D03*
X204429D02*
D03*
X145276Y23622D02*
D03*
X151181D02*
D03*
D19*
X60630Y94488D02*
D03*
X53543D02*
D03*
D20*
X239173Y56102D02*
D03*
Y49016D02*
D03*
D21*
X204724Y141929D02*
D03*
Y133661D02*
D03*
X190945Y141929D02*
D03*
Y133661D02*
D03*
D22*
X191526Y102362D02*
D03*
X186427Y100394D02*
D03*
Y104331D02*
D03*
X191526Y114173D02*
D03*
X186427Y112205D02*
D03*
Y116142D02*
D03*
D23*
X103405Y102362D02*
D03*
X95925D02*
D03*
X176181Y114173D02*
D03*
X168701D02*
D03*
X176181Y102362D02*
D03*
X168701D02*
D03*
X239173Y15748D02*
D03*
X231693D02*
D03*
D24*
X122244Y102362D02*
D03*
X113976D02*
D03*
D25*
X70866Y81693D02*
D03*
Y75787D02*
D03*
X194882Y45276D02*
D03*
Y39370D02*
D03*
X133858Y81693D02*
D03*
Y75787D02*
D03*
D26*
X261811Y15748D02*
D03*
X250000D02*
D03*
X261811Y27559D02*
D03*
X250000D02*
D03*
D27*
X180910Y23622D02*
D03*
X161610D02*
D03*
D28*
X228642Y39370D02*
D03*
D29*
X204429Y30315D02*
D03*
Y39370D02*
D03*
Y48425D02*
D03*
D30*
X255906Y59055D02*
D03*
X59055D02*
D03*
D31*
X252953Y64665D02*
D03*
X254921D02*
D03*
X256890D02*
D03*
X258858D02*
D03*
Y53445D02*
D03*
X256890D02*
D03*
X254921D02*
D03*
X252953D02*
D03*
X62008D02*
D03*
X60039D02*
D03*
X58071D02*
D03*
X56102D02*
D03*
Y64665D02*
D03*
X58071D02*
D03*
X60039D02*
D03*
X62008D02*
D03*
D32*
X261516Y62008D02*
D03*
Y60039D02*
D03*
Y58071D02*
D03*
Y56102D02*
D03*
X250295D02*
D03*
Y58071D02*
D03*
Y60039D02*
D03*
Y62008D02*
D03*
X53445Y56102D02*
D03*
Y58071D02*
D03*
Y60039D02*
D03*
Y62008D02*
D03*
X64665D02*
D03*
Y60039D02*
D03*
Y58071D02*
D03*
Y56102D02*
D03*
D33*
X139567Y128937D02*
D03*
X175394D02*
D03*
X139567Y146653D02*
D03*
X175394D02*
D03*
X80512Y128937D02*
D03*
X116339D02*
D03*
X80512Y146653D02*
D03*
X116339D02*
D03*
D34*
X115925Y89862D02*
D03*
X110925D02*
D03*
X105925D02*
D03*
X100925D02*
D03*
X95925D02*
D03*
X90925D02*
D03*
X85925D02*
D03*
X80925D02*
D03*
X115925Y67618D02*
D03*
X110925D02*
D03*
X105925D02*
D03*
X100925D02*
D03*
X95925D02*
D03*
X90925D02*
D03*
X85925D02*
D03*
X80925D02*
D03*
D35*
X168730Y69390D02*
D03*
X166230D02*
D03*
X163730D02*
D03*
X161230D02*
D03*
X158730D02*
D03*
X156230D02*
D03*
X153730D02*
D03*
X151230D02*
D03*
X148730D02*
D03*
X146230D02*
D03*
Y88090D02*
D03*
X148730D02*
D03*
X151230D02*
D03*
X153730D02*
D03*
X156230D02*
D03*
X158730D02*
D03*
X161230D02*
D03*
X163730D02*
D03*
X166230D02*
D03*
X168730D02*
D03*
D36*
X83770Y48868D02*
D03*
X107274D02*
D03*
D37*
X121053Y30463D02*
D03*
Y45030D02*
D03*
D38*
X120364Y6742D02*
D03*
D39*
X110679Y6250D02*
D03*
X106348D02*
D03*
X102018D02*
D03*
X97687D02*
D03*
X93356D02*
D03*
X89026D02*
D03*
X84695D02*
D03*
D40*
X80561D02*
D03*
D41*
X75797Y7628D02*
D03*
D42*
X36024Y98425D02*
D03*
Y137795D02*
D03*
Y118110D02*
D03*
D43*
X247736Y114823D02*
D03*
Y122047D02*
D03*
Y129272D02*
D03*
X254961Y114823D02*
D03*
Y122047D02*
D03*
Y129272D02*
D03*
X262185Y114823D02*
D03*
Y122047D02*
D03*
Y129272D02*
D03*
D44*
X215551Y95610D02*
D03*
Y100610D02*
D03*
Y105610D02*
D03*
Y110610D02*
D03*
Y115610D02*
D03*
Y120610D02*
D03*
Y125610D02*
D03*
Y130610D02*
D03*
Y135610D02*
D03*
Y140610D02*
D03*
D45*
X284488Y84646D02*
D03*
X279488D02*
D03*
X274488D02*
D03*
X269488D02*
D03*
X264488D02*
D03*
X259488D02*
D03*
X254488D02*
D03*
X249488D02*
D03*
X244488D02*
D03*
X239488D02*
D03*
X234488D02*
D03*
X229488D02*
D03*
X224488D02*
D03*
X219488D02*
D03*
Y151575D02*
D03*
X224488D02*
D03*
X229488D02*
D03*
X234488D02*
D03*
X239488D02*
D03*
X244488D02*
D03*
X249488D02*
D03*
X254488D02*
D03*
X259488D02*
D03*
X264488D02*
D03*
X269488D02*
D03*
X274488D02*
D03*
X279488D02*
D03*
X284488D02*
D03*
D65*
X49055Y169563D02*
D03*
X69055D02*
D03*
X49055Y189563D02*
D03*
X167165Y169563D02*
D03*
X187165D02*
D03*
X167165Y189563D02*
D03*
X108110Y169563D02*
D03*
X128110D02*
D03*
X108110Y189563D02*
D03*
X245905Y169563D02*
D03*
X265905D02*
D03*
X245905Y189563D02*
D03*
D66*
X69055D02*
D03*
X187165D02*
D03*
X128110D02*
D03*
X265905D02*
D03*
D74*
X160630Y43425D02*
D03*
X154331D02*
D03*
X163779Y35945D02*
D03*
X157480D02*
D03*
X151181D02*
D03*
D75*
X174016Y39488D02*
D03*
X140945D02*
D03*
D76*
X15748Y152756D02*
D03*
Y83465D02*
D03*
D77*
X15748Y54055D02*
D03*
X299213Y64055D02*
D03*
D78*
X15748D02*
D03*
X299213Y54055D02*
D03*
D79*
Y181102D02*
D03*
X15748D02*
D03*
X299213Y15748D02*
D03*
X15748D02*
D03*
D80*
X271299Y165354D02*
D03*
X89075Y15846D02*
D03*
X75394Y62106D02*
D03*
X281988Y35335D02*
D03*
X268504Y64370D02*
D03*
X276575Y11024D02*
D03*
X90945Y59842D02*
D03*
X81004Y59941D02*
D03*
X128937Y125925D02*
D03*
X51870Y118110D02*
D03*
X251969Y48425D02*
D03*
X274488Y76516D02*
D03*
X155020Y99410D02*
D03*
X44390Y67126D02*
D03*
X192421Y30315D02*
D03*
X71850Y31496D02*
D03*
Y38386D02*
D03*
X126575Y60728D02*
D03*
X75590Y56102D02*
D03*
X142618Y99114D02*
D03*
X249311Y36614D02*
D03*
X218602Y8465D02*
D03*
X239961Y64862D02*
D03*
X224803Y163484D02*
D03*
X232677Y160827D02*
D03*
X95177Y190059D02*
D03*
X116339Y188681D02*
D03*
X150984Y190354D02*
D03*
X175098Y189272D02*
D03*
X222441Y190059D02*
D03*
X222539Y183465D02*
D03*
X244193Y182283D02*
D03*
X245866Y176476D02*
D03*
X190945Y148524D02*
D03*
X204724Y148524D02*
D03*
X169390Y122441D02*
D03*
X190945Y126870D02*
D03*
X204724Y126870D02*
D03*
X179528Y77362D02*
D03*
X251378Y69882D02*
D03*
X256890D02*
D03*
X259488Y76516D02*
D03*
X244094Y98425D02*
D03*
X250000D02*
D03*
X257087Y102264D02*
D03*
X206693Y102461D02*
D03*
X202953Y114173D02*
D03*
X194193Y74705D02*
D03*
X115945Y82185D02*
D03*
X95571Y79626D02*
D03*
X88878Y43012D02*
D03*
X100925Y59390D02*
D03*
X137894Y60433D02*
D03*
X226378Y60925D02*
D03*
Y70965D02*
D03*
Y65847D02*
D03*
Y75886D02*
D03*
X157677Y78248D02*
D03*
M02*
