M48
;Layer_Color=9474304
;FILE_FORMAT=2:4
INCH,TZ
;TYPE=PLATED
T1F00S00C0.0200
T2F00S00C0.0236
T3F00S00C0.0430
T4F00S00C0.0433
T5F00S00C0.0787
T6F00S00C0.1378
;TYPE=NON_PLATED
T7F00S00C0.0433
T8F00S00C0.0748
%
T01
X7185Y3150
Y3839
X7559Y5610
X8888Y4301
X8907Y1585
X19242Y3031
X21860Y846
X24931Y3661
X25197Y4843
X28199Y3533
X27657Y1102
X26850Y6437
X25689Y6988
X25138
X25949Y7652
X27449
X25709Y10226
X25000Y9843
X24409
X23996Y6486
X22638Y6585
Y6093
Y7096
Y7589
X22480Y16348
X23268Y16083
X24587Y17648
X24419Y18228
X22254Y18346
X22244Y19006
X27130Y16535
X20472Y14852
X19094Y14852
Y12687
X20472Y12687
X20295Y11417
X20669Y10246
X19419Y7470
X17953Y7736
X15768Y7825
X15502Y9941
X14262Y9911
X12894Y12593
X16939Y12244
X17510Y18927
X15098Y19035
X11634Y18868
X9518Y19006
X9557Y7963
X11594Y8219
X12657Y6073
X13789Y6043
X10093Y5939
X9094Y5984
X8100Y5994
X7539Y6211
X4439Y6713
X5187Y11811
T02
X15118Y3594
X15748
X16378
X16063Y4343
X15433
T03
X24591Y16956
X26591
Y18956
X24591
X18717
Y16956
X16717
Y18956
X12811
Y16956
X10811
Y18956
X6906
Y16956
X4906
Y18956
T04
X1575Y5406
X29921
Y6406
X1575
T05
X14094Y3949
X17402
T06
X1575Y1575
X29921
Y18110
X1575
T07
X575Y5406
X30921
Y6406
X575
T08
X1575Y8346
Y15276
M30
